<svg width="55" height="18" fill="none" xmlns="http://www.w3.org/2000/svg"><path d="M51.39.705a.33.33 0 01-.2.057.46.46 0 01-.136-.032c-.066-.024-.162-.062-.26-.1-.097-.037-.195-.072-.73-.176C49.53.35 48.56.179 47.586.189a8.507 8.507 0 00-2.866.54 9.532 9.532 0 00-2.504 1.394 8.447 8.447 0 00-1.797 1.904 8.79 8.79 0 00-1.545 4.795 8.012 8.012 0 00.31 2.416 7.6 7.6 0 001.023 2.177 9.002 9.002 0 001.513 1.676c.494.425.92.69 1.36.924.44.235.894.441 1.362.613.467.171.947.31 1.627.426a14 14 0 002.44.195c.88-.012 1.76-.13 2.612-.348a13.642 13.642 0 002.326-.84 11.1 11.1 0 001.462-.82 7.75 7.75 0 00.688-.502.776.776 0 00.19-.196.613.613 0 00.065-.15.962.962 0 00.027-.193c.006-.085.01-.198-.01-.307a.643.643 0 00-.145-.304c-.08-.093-.191-.174-.264-.237-.147-.127-.162-.2-.195-.303a.684.684 0 01-.018-.161l-.007-2.18a1.003 1.003 0 01.253-.675l.478-.537a.869.869 0 00-.664-1.439l-5.607.001a.8.8 0 00-.465 1.432c.21.203.472.346.617.468.145.123.202.19.249.264a.899.899 0 01.136.498l-.002 2.894a1.158 1.158 0 01-.22.686 1.21 1.21 0 01-.255.26c-.098.074-.207.134-.462.2-.255.067-.656.14-1.058.14a3.555 3.555 0 01-2.231-.81 3.925 3.925 0 01-.776-.874c-.2-.307-.333-.61-.452-.918a9.77 9.77 0 01-.31-.938 6.755 6.755 0 01-.215-1.177c-.056-.537-.1-1.29-.037-2.035a8.325 8.325 0 01.492-2.186c.26-.704.612-1.374.943-1.85.33-.477.64-.76.989-.976a3.25 3.25 0 012.365-.43c.4.084.78.249 1.181.486.401.236.821.545 1.232.864.411.318.813.648 1.202.992a1.059 1.059 0 001.587-.089c.153-.197.227-.439.222-.67a4.405 4.405 0 00-.24-1.207 3.342 3.342 0 00-.246-.565L52.671.31a.611.611 0 00-.814-.244.48.48 0 00-.19.165c-.056.08-.102.195-.133.268a.642.642 0 01-.068.133.318.318 0 01-.076.073zm-19.937 9.444a.863.863 0 01.179.202c.065.096.143.228.218.337.075.11.146.196.233.264a.848.848 0 00.942.06.791.791 0 00.25-.217l1.997-2.77a.93.93 0 00.07-.931.942.942 0 00-.19-.264.925.925 0 00-.902-.235c-.104.03-.202.078-.411.21-.21.132-.53.348-.745.485a2.717 2.717 0 01-.44.244 2.097 2.097 0 01-.722.155h-5.111l-.002-4.753 5.127-.002a3.039 3.039 0 011.638.457l1.553 1.023c.27.186.6.216.914-.032.133-.118.28-.303.383-.46a.766.766 0 00-.02-.887L34.98.96a1.186 1.186 0 00-.969-.527l-12.82.02c-.111 0-.223-.01-.329.021a.813.813 0 00-.289.162.901.901 0 00.087 1.437l.53.327a.639.639 0 01.31.548l.005 11.386a.89.89 0 01-.056.316c-.077.193-.193.34-.454.482-.124.069-.282.145-.408.22a1.11 1.11 0 00-.296.232.898.898 0 00-.117.989.9.9 0 00.214.275.929.929 0 00.65.222l12.846.001a1.331 1.331 0 001.1-.526l1.537-2.129a.838.838 0 00-.048-1.053.802.802 0 00-.241-.189 1.149 1.149 0 00-.8-.1 1.361 1.361 0 00-.382.177l-1.704 1.058c-.291.181-.645.233-.978.3a5.12 5.12 0 01-1.018.102l-4.53-.01.002-4.659h4.427c.078 0 .144.061.205.109zM1.2 14.628a1.02 1.02 0 01-.518.449l-1.155.415a.95.95 0 00-.629.772.649.649 0 00.008.251.697.697 0 00.243.386c.126.1.281.148.43.147l4.656.003a.66.66 0 00.642-.517.943.943 0 00-.066-.534.942.942 0 00-.173-.27c-.16-.172-.381-.267-.577-.394a.414.414 0 01-.143-.563l.337-.55a.571.571 0 01.143-.155.535.535 0 01.188-.095c.067-.018.139-.005.21-.005h5.327c.093 0 .186.011.272.045a.7.7 0 01.233.152.693.693 0 01.158.23l.942 2.323a.495.495 0 00.118.165c.104.1.239.155.367.157l5.377.003a.79.79 0 00.55-.21.829.829 0 00.147-1.03.848.848 0 00-.38-.346l-.683-.29a1.886 1.886 0 01-.645-.502 1.444 1.444 0 01-.226-.344L10.59.861a.63.63 0 00-.182-.218.832.832 0 00-.524-.202L4.744.45a.746.746 0 00-.726.543c-.05.156-.033.378.061.597a.972.972 0 00.515.505l.667.295c.068.03.135.059.195.101a.846.846 0 01.282.332l.327.816a.888.888 0 01-.06.699l-4.803 10.29zm6.113-7.175c.069-.057.15-.075.244 0 .016.016.03.034.039.055l1.478 3.275a.5.5 0 01-.052.483.5.5 0 01-.434.218H6.05a.396.396 0 01-.264-.112.38.38 0 01-.09-.408l1.58-3.457a.18.18 0 01.039-.054z" fill="#222"/></svg>