<svg width="77" height="56" fill="none" xmlns="http://www.w3.org/2000/svg"><path d="M75.207 12.145s-.755-5.334-3.02-7.67c-2.83-3.114-6.039-3.114-7.548-3.309-10.493-.778-26.346-.7-26.346-.7s-15.777-.078-26.308.7c-1.51.195-4.68.195-7.549 3.31-2.264 2.335-3.019 7.669-3.019 7.669S.662 18.49.549 24.72v6.618c.113 6.229.868 12.458.868 12.458s.755 5.45 3.02 7.786c2.868 3.115 6.605 2.96 8.303 3.31 5.926.583 24.911.7 25.553.7 0 0 15.853 0 26.421-.778 1.434-.156 4.643-.156 7.549-3.27 2.265-2.336 3.02-7.709 3.02-7.709s.754-6.229.754-12.536v-6.618c-.075-6.23-.83-12.536-.83-12.536zM30.669 39.397V16.66l20.193 11.796-20.231 10.94h.038z" fill="#fff"/></svg>