<svg width="55" height="15" fill="none" xmlns="http://www.w3.org/2000/svg"><g clip-path="url(#clip0)"><path fill-rule="evenodd" clip-rule="evenodd" d="M43.627 0h2.01v1.955h-2.01V0zm-.902 14.646v-1.628c.854 0 .902-.312.902-1.086V3.01h2.099v9.433c0 .375-.04.734-.112 1.061-.168.719-1.093 1.11-1.74 1.134-.144.008-1.133-.008-1.15.008zm-3.209-8.22c0-.863-.566-1.805-1.54-1.805-1.285 0-1.74.982-1.74 2.18v4.58l-2.123-.016V3.17h2.003v.973c.758-1.03 1.19-1.277 2.602-1.277.662 0 1.237.224 1.828.583 1.045.63.974 2.035.974 3.097v4.82h-2.004v-4.94zM30.354 6.4c-.032-.487-.176-.894-.415-1.213-.24-.32-.647-.51-1.23-.567-.558.056-.957.248-1.197.575-.247.32-.399.726-.463 1.205h3.305zm22.46 0c-.033-.487-.176-.894-.416-1.213-.24-.32-.646-.51-1.229-.567-.55.056-.95.248-1.197.575-.247.32-.399.726-.463 1.205h3.304zM32.428 8.987c-.798 2.49-2.14 2.634-3.791 2.642-1.23 0-2.339-.527-2.938-1.333-.598-.806-.901-1.812-.925-3.001v-.136c0-.702.111-1.38.343-2.035a3.468 3.468 0 011.205-1.636c.28-.224.583-.375.926-.479a3.828 3.828 0 011.037-.144h.607c.207 0 .407.016.607.048.207.032.399.072.598.12a2.865 2.865 0 011.42.886c.408.447.695.942.855 1.5a6.952 6.952 0 01.168 1.533v.32c0 .11-.008.43-.016.55H27c-.016 1.181.67 2.123 1.66 2.155.958.024 1.413-.304 1.74-.99h2.028zm22.467 0c-.806 2.49-2.147 2.634-3.799 2.642-1.229 0-2.346-.527-2.945-1.333-.599-.806-.902-1.812-.926-3.001v-.136c0-.702.112-1.38.343-2.035a3.52 3.52 0 011.206-1.636c.287-.224.598-.375.933-.479a3.83 3.83 0 011.038-.144h.614c.2 0 .4.016.607.048.2.032.4.072.59.12a2.922 2.922 0 011.43.886c.398.447.686.942.845 1.5.064.264.104.52.128.767.032.255.04.51.04.766v.32c0 .11-.008.43-.016.55H49.46c-.016 1.181.67 2.123 1.668 2.155.95.024 1.405-.304 1.732-.99h2.035zM19.451 3.09h2.044v1.317c.39-.407.798-1.604 2.721-1.533v2.171c-.51 0-1.468-.008-2.051.519-.415.375-.615.942-.623 1.716l-.016 4.134h-2.075V3.09zM11.63 7.287c0 .662.151 1.237.47 1.74.312.503.863.798 1.653.862.782-.064 1.325-.36 1.628-.87a3.272 3.272 0 00.463-1.732v-.224a3.128 3.128 0 00-.447-1.476c-.264-.463-.734-.75-1.413-.87h-.088l-.08-.024c-.031 0-.063 0-.087-.008h-.08c-.71.056-1.221.335-1.54.838-.32.503-.48 1.094-.48 1.764zm-2.004.072c0-1.301.328-2.339.99-3.129.662-.79 1.588-1.19 2.77-1.19h.606c.152-.007.311-.007.471.009.168.016.327.04.487.072 1.014.167 1.748.67 2.21 1.484.464.814.703 1.7.72 2.642v.112c-.009 1.221-.32 2.243-.943 3.049-.622.806-1.588 1.213-2.881 1.213l-.607.016c-1.285-.016-2.242-.423-2.873-1.23-.638-.805-.95-1.827-.95-3.048zM2.3 7.183v.096c0 .08 0 .152.008.232 0 .08.008.16.016.247.064.495.224.958.495 1.389.272.43.679.67 1.237.71h.04c.559-.04.982-.271 1.261-.678.272-.415.423-.926.455-1.525v-.072c0-.024 0-.048.008-.071v-.144c0-.096 0-.192-.008-.287 0-.104-.008-.2-.016-.296a3.454 3.454 0 00-.407-1.293c-.223-.407-.59-.646-1.101-.734-.024 0-.048-.008-.072-.008-.024-.008-.04-.008-.056-.024h-.064c-.016-.008-.04-.008-.072-.008-.574.064-1.005.335-1.285.806-.279.471-.423 1.022-.439 1.66zm3.784 3.696a2.618 2.618 0 01-.87.455 3.26 3.26 0 01-1.006.151l-.615.016a.061.061 0 00-.04-.016H3.49c-1.166-.008-2.036-.447-2.626-1.309A4.997 4.997 0 010 7.263C0 6.178.288 5.212.87 4.35c.582-.854 1.452-1.293 2.618-1.293 1.835-.008 1.971.455 2.49 1.325V3.296h2.003l.032 8.054-.032-.272c-.008-.12.024.535.024.663l-.04.566a2.827 2.827 0 01-.135.687 2.04 2.04 0 01-.368.702c-.319.431-.71.742-1.197.926-.487.183-.99.28-1.5.303-.064 0-.128.016-.192.016h-.191l-.607.016a.624.624 0 00-.112-.016h-.279c-.758-.008-1.333-.191-1.963-.543-.639-.343-.958-1.07-.982-1.94l2.259.017c.095.902.598 1.021 1.404 1.021 1.413 0 2.012-.798 1.996-1.995 0-.048.016-.096.016-.16 0-.047-.032-.398-.032-.462z" fill="#222"/></g><defs><clipPath id="clip0"><path fill="#fff" d="M0 0h55v14.957H0z"/></clipPath></defs></svg>