<svg width="55" height="13" fill="none" xmlns="http://www.w3.org/2000/svg"><g clip-path="url(#clip0)" fill="#222"><path d="M0 .355C.727.23 2.304.106 3.774.106c1.701 0 2.711.107 3.65.585.922.425 1.613 1.294 1.613 2.446 0 1.01-.55 1.984-1.95 2.516v.035c1.472.408 2.34 1.489 2.34 2.906 0 1.117-.532 2.002-1.33 2.605-.903.673-2.391 1.08-4.943 1.08-1.453 0-2.498-.105-3.154-.212V.355zm3.172 4.43h.638c1.364 0 2.02-.479 2.02-1.24 0-.71-.532-1.153-1.613-1.153-.531 0-.833.036-1.045.071v2.321zm0 5.103c.23.035.514.035.921.035 1.063 0 1.967-.425 1.967-1.47 0-1.01-.921-1.4-2.126-1.4h-.762v2.835zm19.243-3.846c0 3.846-2.304 6.29-5.99 6.29-3.703 0-5.74-2.781-5.74-6.095C10.685 2.764 12.97 0 16.62 0c3.845 0 5.794 2.853 5.794 6.042zm-8.346.142c0 2.233.975 3.615 2.516 3.615 1.542 0 2.445-1.506 2.445-3.65 0-2.056-.92-3.615-2.463-3.615-1.523 0-2.498 1.453-2.498 3.65zm10.259 2.764a7.25 7.25 0 003.101.745c1.099 0 1.63-.372 1.63-.975 0-.585-.531-.921-1.878-1.382-2.02-.709-3.349-1.825-3.349-3.597C23.832 1.63 25.604 0 28.616 0c1.436 0 2.446.266 3.243.62l-.673 2.552a6.243 6.243 0 00-2.605-.567c-.974 0-1.506.354-1.506.886 0 .602.638.85 2.144 1.417 2.144.78 3.119 1.932 3.119 3.597 0 2.056-1.613 3.828-5.104 3.828-1.435 0-2.835-.39-3.508-.744l.602-2.64zm18.676 2.889c-.46.212-1.577.496-3.012.496-4.465 0-6.432-2.8-6.432-5.972C33.56 2.144 36.643 0 40.205 0c1.382 0 2.498.266 2.994.532l-.62 2.516a5.83 5.83 0 00-2.215-.425c-1.843 0-3.437 1.08-3.437 3.526 0 2.18 1.293 3.526 3.49 3.526.78 0 1.648-.16 2.145-.354l.442 2.516zM47.93.195v4.412h3.88V.195H55v11.943h-3.19V7.407h-3.88v4.73h-3.207V.196h3.207z"/></g><defs><clipPath id="clip0"><path fill="#fff" d="M0 0h55v12.333H0z"/></clipPath></defs></svg>