<svg width="55" height="13" fill="none" xmlns="http://www.w3.org/2000/svg"><g clip-path="url(#clip0)" fill-rule="evenodd" clip-rule="evenodd" fill="#222"><path d="M0 12.627h12.627V0H0v12.627zM8.093.965a5.628 5.628 0 013.85 5.346c.007 2.46-1.574 4.57-3.85 5.35V.965zM6.31.679c.403 0 .833.053 1.19.124 0 2.861-2.766 5.216-5.622 5.216L.685 6.017C.881 3.084 3.308.679 6.311.679zM1.88 6.614c2.854 0 5.62 2.352 5.62 5.21a6.354 6.354 0 01-1.19.127C3.307 11.947.798 9.534.684 6.614H1.88zm14.973.809v-.796h2.627V5.612h-2.628V4.135h2.796V3.123h-3.87v4.255c0 1.074.457 1.81 1.532 1.961.022.006.043.01.063.01h.02c.11.012.222.02.34.02h1.99V8.36H17.74c-.341 0-.888-.17-.888-.936zm3.634-1.348V9.37h1.076V3.122h-1.076v2.953zm4.161-1.365c-1.36 0-2.378.936-2.378 2.395v.036c0 1.423.982 2.342 2.405 2.342.684 0 1.323-.19 1.909-.81l-.648-.631c-.343.342-.676.522-1.225.522-.802 0-1.333-.468-1.37-1.189h3.531c.018-.18.018-.378.018-.378 0-1.27-.892-2.288-2.242-2.288zm-1.28 1.909c.046-.55.604-.991 1.28-.991.63 0 1.143.45 1.143.99H23.37zm6.545-.946c.487 0 .847.18 1.153.495l.667-.693c-.523-.559-1.144-.784-1.82-.784-1.368 0-2.467 1.018-2.467 2.405 0 1.387 1.099 2.405 2.468 2.405.675 0 1.296-.225 1.819-.784l-.667-.693a1.52 1.52 0 01-1.153.495c-.792 0-1.396-.604-1.396-1.423 0-.82.604-1.423 1.396-1.423zm3.565 1.752h-.001V5.829h.979v-.977h-.978v-1.73h-1.076v4.367h.004c.03 1.015.492 1.706 1.53 1.852.021.005.042.01.062.01h.02c.11.012.222.02.34.02h.114l.004-1.01h-.109c-.342 0-.889-.17-.889-.936zm2.95-1.901v-.672h-1.067v4.519h1.067V6.995c0-.744.475-1.21 1.219-1.21.17 0 .323.018.449.045V4.79a2.299 2.299 0 00-.323-.027c-.646 0-1.13.296-1.345.761zm4.298-.806c-1.372 0-2.466 1.04-2.466 2.394 0 1.353 1.094 2.394 2.466 2.394 1.363 0 2.466-1.04 2.466-2.394 0-1.355-1.103-2.394-2.466-2.394zm0 3.81c-.798 0-1.398-.618-1.398-1.416 0-.798.6-1.417 1.398-1.417.79 0 1.399.619 1.399 1.417 0 .797-.61 1.416-1.399 1.416zm3.127-2.561v3.404h1.077v-6.25h-1.077v2.846zm4.957 1.512c0 .717-.42 1.022-.986 1.022-.565 0-.986-.305-.986-1.013V4.852h-1.085v2.726c0 1.291.941 1.91 2.062 1.91 1.13 0 2.08-.627 2.08-1.937V4.853h-1.084v2.626zm5.156.447l-.678-.949.84-1.144.72-.98h-1.175l-.977 1.353-.987-1.354h-1.165l.668.914.892 1.22-.934 1.302-.779 1.083h1.157l1.148-1.596 1.147 1.596H55l-1.034-1.445z"/></g><defs><clipPath id="clip0"><path fill="#fff" d="M0 0h55v12.627H0z"/></clipPath></defs></svg>