<svg width="55" height="25" fill="none" xmlns="http://www.w3.org/2000/svg"><g clip-path="url(#clip0)"><path d="M28.317 4.33h4.493v11.413h6.675v3.809H28.317V4.33zM51.12 18.035c-.796 1.21-2.267 1.895-4.102 1.895-3.95 0-6.524-3.15-6.524-8.016 0-4.935 2.893-7.977 7.688-7.977 1.911 0 3.544.513 4.807 1.478 1.273 1.01 1.746 2.004 1.95 4.01h-4.698c-.128-1.174-1.006-1.925-2.16-1.925-1.817 0-2.88 1.68-2.88 4.476 0 2.835 1.104 4.537 2.96 4.537 1.46 0 2.306-.813 2.654-2.633h-2.9v-3.204h7.025v8.876h-3.82v-1.517zM12.027 24.08c6.647 0 12.032-5.387 12.032-12.04S18.674 0 12.027 0C5.395 0 .011 5.387.011 12.04c0 6.652 5.384 12.04 12.016 12.04z" fill="#222"/><path d="M11.573 6.773v10.554h3.353v-.943h-2.392V6.773h-.96zm-3.362 2.88A1.444 1.444 0 009.546 7.66a1.445 1.445 0 00-1.335-.893 1.443 1.443 0 000 2.885z" fill="#fff"/><path d="M12.514 1.965a16.774 16.774 0 00-.49-.006c-5.542 0-10.056 4.52-10.056 10.08 0 2.693 1.048 5.222 2.948 7.127a9.975 9.975 0 007.11 2.95 9.99 9.99 0 007.126-2.95 10.031 10.031 0 002.947-7.128v-.457l-.395.002h-6.791v.932h6.23c-.002.021-.003.12-.005.14-.32 4.75-4.28 8.524-9.109 8.524a9.073 9.073 0 01-6.452-2.683 9.074 9.074 0 01-2.672-6.458c0-2.441.95-4.74 2.672-6.46a9.09 9.09 0 016.452-2.675c.106 0 .37 0 .485.003v-.94z" fill="#fff"/></g><defs><clipPath id="clip0"><path fill="#fff" d="M0 0h55v24.107H0z"/></clipPath></defs></svg>