<svg width="55" height="9" fill="none" xmlns="http://www.w3.org/2000/svg"><g clip-path="url(#clip0)"><path fill-rule="evenodd" clip-rule="evenodd" d="M5.899.299v1.605c-.763-.267-1.6-.423-2.265-.423-.823 0-1.28.25-1.28.7 0 .288.2.479.774.737l1.546.693c1.236.556 1.86 1.366 1.86 2.42 0 1.625-1.407 2.65-3.637 2.65-.813 0-1.754-.116-2.75-.342V6.681c.987.268 1.892.412 2.596.412.922 0 1.416-.257 1.416-.736 0-.287-.193-.499-.635-.696l-1.691-.754C.579 4.347 0 3.594 0 2.52 0 .98 1.356 0 3.483 0c.745 0 1.661.113 2.416.298zm1.838-.13h2.5v8.344h-2.5V.169zm10.627 0v1.528H14.59V3.58h3.297v1.383H14.59v1.951h3.823v1.6H12.16V.169h6.203zm11.809 0v8.344h-2.419V3.02l-2.369 5.557h-1.529L21.503 3.02v5.492h-1.67V.169h3.053l2.158 5.075L27.19.17h2.983zm8.133 0v1.528h-3.779V3.58h3.296v1.383h-3.296v1.951h3.822v1.6h-6.257V.169h6.214zm8.805 0v8.344h-2.668L41.44 3.16v5.352h-1.67V.169h2.737l2.94 5.28V.17h1.664zm7.254.13v1.605c-.758-.265-1.599-.423-2.253-.423-.835 0-1.293.247-1.293.698 0 .295.187.47.781.74l1.54.693c1.245.561 1.86 1.365 1.86 2.43 0 1.617-1.408 2.64-3.633 2.64-.814 0-1.759-.117-2.754-.342V6.681c.987.268 1.89.412 2.589.412.916 0 1.423-.256 1.423-.72 0-.307-.178-.504-.64-.711L50.3 4.908c-1.262-.563-1.834-1.308-1.834-2.386 0-1.538 1.356-2.52 3.478-2.52.747-.001 1.668.112 2.42.297z" fill="#222"/></g><defs><clipPath id="clip0"><path fill="#fff" d="M0 0h55v8.681H0z"/></clipPath></defs></svg>