<svg width="55" height="15" fill="none" xmlns="http://www.w3.org/2000/svg"><g clip-path="url(#clip0)"><path fill-rule="evenodd" clip-rule="evenodd" d="M54.998.254h-3.08V14.61h3.08V.254zM43.293 10.741c0 .484-.002.974.11 1.463.036.16.08.318.13.467a2.669 2.669 0 00.737 1.14c.158.135.325.258.502.366.523.33 1.138.495 1.7.588.753.12 1.503.143 2.267.001.187-.035.373-.079.53-.126.157-.047.285-.097.41-.155a3.89 3.89 0 00.366-.194 2.52 2.52 0 00.395-.289c.161-.14.37-.344.543-.576a2.8 2.8 0 00.402-.765 3.99 3.99 0 00.17-.786c.029-.225.035-.388.036-.55a6.458 6.458 0 00-.056-.956 3.795 3.795 0 00-.343-1.16 5.963 5.963 0 00-1.127-1.583 24.53 24.53 0 00-.76-.753c-.53-.506-1.088-.98-1.637-1.465-.371-.332-.72-.705-.95-1.07a1.71 1.71 0 01-.22-1.193.758.758 0 01.217-.43.8.8 0 01.202-.146c.249-.124.54-.16.813-.089a.89.89 0 01.272.121c.168.108.275.307.32.48.067.24.088.437.094.656v1.131h2.963a28.356 28.356 0 00-.036-1.374 5.678 5.678 0 00-.116-.948 2.93 2.93 0 00-.321-.89 2.454 2.454 0 00-.287-.399 2.971 2.971 0 00-.661-.55 5.169 5.169 0 00-.322-.182 2.81 2.81 0 00-.484-.199 6.972 6.972 0 00-1.106-.27 4.85 4.85 0 00-1.288-.018 6.96 6.96 0 00-1.11.238 2.536 2.536 0 00-.468.177 3.975 3.975 0 00-.298.167c-.097.06-.19.126-.307.223-.118.098-.259.23-.385.374a2.805 2.805 0 00-.331.469 3.102 3.102 0 00-.235.529 4.403 4.403 0 00-.205 1.778c.031.395.113.803.263 1.199.073.192.16.38.277.58.118.202.266.417.425.624.312.41.666.775 1.08 1.146a43.522 43.522 0 001.281 1.106c.208.175.405.34.594.512.189.173.37.355.483.477a2.02 2.02 0 01.35.489c.058.113.131.274.186.443a2.55 2.55 0 01.12 1.011.908.908 0 01-.486.75 1.123 1.123 0 01-1.255-.18.84.84 0 01-.14-.19c-.142-.306-.172-.653-.176-.987V9.656h-3.128v1.085zM35.992.843c-.117.098-.259.23-.384.374a2.8 2.8 0 00-.331.469 3.095 3.095 0 00-.236.529 4.408 4.408 0 00-.205 1.778c.032.395.113.803.264 1.199.073.192.16.38.277.58.117.202.266.417.425.624.312.41.666.775 1.08 1.146.202.183.418.372.636.56.217.186.437.372.645.546.208.175.405.34.594.512.189.172.37.354.544.542.05.058.097.12.142.183.045.062.088.127.146.24.059.114.132.275.187.444a2.55 2.55 0 01.12 1.011.912.912 0 01-.248.572.862.862 0 01-.25.183 1.129 1.129 0 01-1.037-.031.83.83 0 01-.345-.344c-.143-.306-.173-.653-.178-.987V9.656h-3.127c0 .443-.002.887 0 1.33l.005.285c.005.251.032.618.105.933.036.16.079.318.13.467a2.657 2.657 0 00.737 1.14c.157.135.325.258.501.366.524.33 1.138.495 1.7.588.753.12 1.504.143 2.268.001.187-.035.373-.079.53-.126a3.11 3.11 0 00.41-.155c.126-.058.247-.122.366-.194.118-.07.233-.148.394-.289.162-.14.37-.344.543-.576a3.046 3.046 0 00.58-1.615 6.447 6.447 0 00-.028-1.443 3.809 3.809 0 00-.342-1.158 5.98 5.98 0 00-.65-1.042 6.862 6.862 0 00-.477-.542c-.207-.215-.48-.488-.76-.753-.53-.506-1.088-.98-1.637-1.465a6.023 6.023 0 01-.779-.823c-.06-.079-.12-.16-.18-.263a1.757 1.757 0 01-.235-.765 1.866 1.866 0 01.018-.385.764.764 0 01.425-.604c.248-.123.54-.158.813-.088a.9.9 0 01.271.121c.169.108.276.307.321.48.067.24.088.437.094.656v1.131h2.962a26.905 26.905 0 00-.036-1.374 5.638 5.638 0 00-.116-.948 2.888 2.888 0 00-.32-.89 2.412 2.412 0 00-.287-.399 2.968 2.968 0 00-.66-.55 5.272 5.272 0 00-.323-.182 2.789 2.789 0 00-.485-.199 6.96 6.96 0 00-1.106-.27 4.848 4.848 0 00-1.288-.018 6.95 6.95 0 00-1.108.238 2.521 2.521 0 00-.468.177A3.829 3.829 0 0036.3.62a2.66 2.66 0 00-.308.223zM33.54 13.908a2.466 2.466 0 00.772-1.282c.102-.48.164-.96.178-1.444l.018-.448V.256h-3.113l.001 10.478c-.006.217-.018.47-.042.694a2.273 2.273 0 01-.082.39.687.687 0 01-.22.354.91.91 0 01-.386.182c-.148.027-.306.02-.464-.003a.888.888 0 01-.227-.086.715.715 0 01-.187-.142.983.983 0 01-.187-.369 1.518 1.518 0 01-.047-.234 6.584 6.584 0 01-.04-.375c-.004-.137-.008-.274-.01-2.089l.004-8.8h-3.07l-.002 10.478c.02.756.013 1.507.382 2.289.133.262.29.492.526.727a3.54 3.54 0 00.89.639c.167.084.34.156.624.235.284.08.677.165 1.077.208a5.49 5.49 0 001.202.001c.399-.042.793-.13 1.062-.203a2.91 2.91 0 00.556-.201 3.57 3.57 0 00.408-.232c.131-.085.256-.18.377-.29zM25.744.256l-.002 14.354h-3.48l-2.05-7.819v7.821l-3.024-.002.003-14.354h3.406l2.221 8.032.002-8.032h2.924zM11.707 9.57l.82-5.775.84 5.775h-1.66zm1.965 2.403l.364 2.636h3.152L14.495.256h-3.932C9.68 5.04 8.795 9.826 7.907 14.61h3.13l.377-2.636h2.258zM7.905.256H.27v2.477h4.17L0 11.773v2.837h7.908v-2.561H3.434l4.473-9.316L7.905.256z" fill="#222"/></g><defs><clipPath id="clip0"><path fill="#fff" d="M0 0h55v14.862H0z"/></clipPath></defs></svg>