<svg width="55" height="12" fill="none" xmlns="http://www.w3.org/2000/svg"><g clip-path="url(#clip0)" fill-rule="evenodd" clip-rule="evenodd" fill="#222"><path d="M11.463.325l-.005 8.592s0 2.888-2.865 2.888V7.509H2.865v1.43H7.16s0 2.866-2.874 2.866H0v-4.32c0-2.864 2.864-2.864 2.864-2.864H7.16c1.432 0 1.429-1.415 1.429-1.415H.013S.001.325 2.865.325h8.598zm5.331-.053h2.432l4.034 11.403h-2.463l-.816-2.54h-4.033l-.846 2.54H12.7L16.794.272zm-.227 6.995h2.795l-1.36-4.184h-.03l-1.405 4.184zm9.412.624c0 1.517 1.118 2.108 2.387 2.108.83 0 2.1-.256 2.1-1.422 0-1.23-1.617-1.437-3.203-1.885-1.601-.446-3.218-1.102-3.218-3.241C24.045 1.119 26.13 0 28.08 0c2.25 0 4.32 1.038 4.32 3.673h-2.296c-.076-1.374-.997-1.725-2.13-1.725-.755 0-1.631.336-1.631 1.293 0 .88.513.99 3.217 1.725.786.208 3.203.736 3.203 3.322 0 2.092-1.556 3.658-4.487 3.658-2.387 0-4.623-1.246-4.592-4.057h2.296zM34.586.272h2.372V5L41.173.272h2.961L39.92 4.776l4.623 6.9h-2.976l-3.248-5.127-1.36 1.453v3.673h-2.372V.272z"/><path d="M49.698.001c3.338 0 5.301 2.635 5.301 6.02 0 3.29-1.963 5.926-5.301 5.926-3.34 0-5.303-2.636-5.303-5.925C44.395 2.636 46.36 0 49.698 0zm0 9.838c2.129 0 2.93-1.917 2.93-3.817 0-1.997-.801-3.913-2.93-3.913-2.13 0-2.931 1.916-2.931 3.913 0 1.9.8 3.817 2.93 3.817z"/></g><defs><clipPath id="clip0"><path fill="#fff" d="M0 0h55v11.946H0z"/></clipPath></defs></svg>