<svg width="55" height="17" fill="none" xmlns="http://www.w3.org/2000/svg"><g clip-path="url(#clip0)" fill="#222"><path d="M41.563 7.145c1.478 0 2.743.952 3.258 2.3h-6.52c.515-1.348 1.78-2.3 3.262-2.3zm6.193 4.283c.025-.22.038-.443.038-.67 0-3.411-2.829-6.178-6.318-6.178-3.49 0-6.319 2.767-6.319 6.179 0 3.413 2.83 6.178 6.319 6.178 2.654 0 4.922-1.598 5.86-3.867l-2.723-.477c-.604 1.105-1.745 1.848-3.05 1.848-1.732 0-3.167-1.302-3.455-3.014h9.648zM33.458 4.839h-3.226v11.875h3.226V4.839zM31.846-.002a1.8 1.8 0 10-.002 3.597 1.8 1.8 0 00.002-3.597zM10.483 1.032v6.393H3.527V1.032H0v15.674h3.527v-6.393h6.956v6.393h3.53V1.032h-3.53zm11.505 13.301c-1.997 0-3.61-1.598-3.61-3.57 0-1.973 1.613-3.573 3.61-3.573 1.996 0 3.613 1.6 3.613 3.573 0 1.972-1.617 3.57-3.613 3.57zm3.057-9.49v.638a6.19 6.19 0 00-3.215-.895c-3.42 0-6.194 2.764-6.194 6.175 0 3.41 2.774 6.175 6.194 6.175 1.148 0 2.22-.311 3.141-.851v.619h3.149V4.844h-3.075zm29.42-1.108A6.384 6.384 0 0049.2 9.957v6.756h3.09l.001-6.883A3.088 3.088 0 0155 6.767l-.534-3.032z"/></g><defs><clipPath id="clip0"><path fill="#fff" d="M0 0h55v16.94H0z"/></clipPath></defs></svg>