<svg width="55" height="9" fill="none" xmlns="http://www.w3.org/2000/svg"><g clip-path="url(#clip0)" fill="#222"><path d="M3.42.144L.184 3.048A.556.556 0 000 3.46v4.392c0 .308.252.556.561.556h6.53c.308 0 .56-.248.56-.556V3.46a.553.553 0 00-.188-.415L4.169.14a.565.565 0 00-.75.004zm.379.98l2.891 2.55v3.801H.96V3.671L3.8 1.123z"/><path d="M3.8 3.223L2.492 4.396V6.15h2.64V4.4L3.8 3.223zm32.404-.209V4.06h2.099v3.928h1.15V4.06H41.5V3.014h-5.296zm17.669 0v3.532l-3.15-3.222c-.278-.292-.604-.412-.967-.356-.328.051-.541.317-.541.678v4.342h1.126V4.456l3.1 3.171c.32.336.613.463.947.418.549-.079.612-.478.612-.773V3.014h-1.127zm-11.82 2.48c0 2.157 1.096 2.578 3.069 2.578 1.973 0 3.069-.421 3.069-2.578 0-2.156-1.096-2.577-3.07-2.577-1.972 0-3.068.421-3.068 2.577zm4.923 0C46.976 6.932 46.34 7 45.12 7c-1.219 0-1.854-.067-1.854-1.505 0-1.437.635-1.504 1.854-1.504 1.22 0 1.855.067 1.855 1.504zM27.294 7.986h1.142V3.013h-1.142v4.973zM24.8 6.1c.717-.176 1.124-.717 1.124-1.455 0-1.006-.67-1.63-1.749-1.63h-3.592v4.972h1.127V6.211h1.825L24.8 7.986h1.322L24.8 6.1zm-3.09-2.053h2.308c.679 0 .76.305.76.594 0 .29-.087.598-.757.598h-2.31V4.046zm11.415.815h-1.008c-.865 0-1.042-.162-1.042-.468 0-.373.579-.517 1.395-.517.719 0 1.397.12 2.183.484l.603-.84c-.857-.514-1.706-.7-2.777-.7-1.637 0-2.615.608-2.615 1.628 0 1.11.928 1.49 2.123 1.479h1.11c1.094 0 1.24.123 1.24.536 0 .409-.605.663-1.578.663-.856 0-1.736-.167-2.509-.679l-.612.862c.82.646 1.832.869 3.113.869 1.79 0 2.817-.644 2.817-1.768 0-1.033-.822-1.55-2.443-1.55zM16.351 2.866c-.234 0-.462.106-.572.283l-2.98 4.84h1.34l.546-.909h3.332l.545.91h1.34l-2.979-4.84c-.11-.178-.34-.284-.572-.284zm0 1.436l1.116 1.862h-2.232l1.116-1.862z"/></g><defs><clipPath id="clip0"><path fill="#fff" d="M0 0h55v8.408H0z"/></clipPath></defs></svg>