<svg width="55" height="12" fill="none" xmlns="http://www.w3.org/2000/svg"><g clip-path="url(#clip0)" fill-rule="evenodd" clip-rule="evenodd" fill="#222"><path d="M32.784 4.456l-1.445 3.256-1.957-3.256h-3.424l-1.935 4.225-.978-4.267h-3.063s-.448.002-.827.164a2.663 2.663 0 00-.563.347l-2.864 2.526c-1.772 1.394-4.873 2.198-5.74 2.238-4.126.187-4.987-2.63-4.7-3.962.736-3.44 6.073-4.255 8.877-4.255 1.328 0 2.417.262 3.261.496l.812-1.445-.595-.126c-.74-.094-1.894-.343-3.86-.349C5.827.02 1.744 2.255.5 5.118c-1.403 3.232.967 6.156 7.631 6.156 1.21 0 3.6-.105 5.848-.915h2.17l1.11-.987h3.36l.142 1.054h3.661l-.005-.024h1.957l1.561-3.413 2.046 3.41 3.176.003 2.723-5.946h-3.097zM18.536 8.179l1.786-1.7.17 1.659-1.956.041zm23.176-3.723h-5.006l-2.724 5.946h5.007c4.005.033 5.634-1.509 6.175-2.69.6-1.308.082-3.256-3.452-3.256zm.517 2.873c-.383 1.489-2.584 1.586-3.333 1.586h-.887l1.315-2.972h.888c.81 0 2.334.153 2.017 1.386z"/><path d="M51.528 4.412l-2.501 2.489-.843-2.446h-3.062l1.999 4.532-1.986 1.967h2.624s.51-.063.723-.138c.212-.075.512-.381.512-.381L54.98 4.42l-3.451-.008"/></g><defs><clipPath id="clip0"><path fill="#fff" d="M0 0h55v11.274H0z"/></clipPath></defs></svg>