<svg width="92" height="88" fill="none" xmlns="http://www.w3.org/2000/svg"><circle cx="35" cy="53" r="35" fill="#CCEDFF"/><path d="M90.79 0H18.21A1.212 1.212 0 0017 1.206v67.588a1.2 1.2 0 00.746 1.115c.147.06.305.091.464.091h72.58a1.21 1.21 0 001.119-.744 1.2 1.2 0 00.091-.462V1.206A1.204 1.204 0 0090.79 0zm-1.21 2.412v5.633H19.42V2.413h70.16zM19.42 67.586V10.46h70.16v57.126H19.42zm60.487-61.07a1.295 1.295 0 001.195-.796 1.285 1.285 0 00-.944-1.756 1.296 1.296 0 00-1.326.55 1.285 1.285 0 00.162 1.624c.241.241.57.377.91.378h.003zm5.644 0a1.295 1.295 0 001.196-.794 1.284 1.284 0 00-.28-1.405 1.293 1.293 0 00-2.206.913 1.284 1.284 0 001.288 1.286h.002zm-11.29 0a1.295 1.295 0 001.196-.794 1.284 1.284 0 00-.942-1.758 1.296 1.296 0 00-1.327.55 1.285 1.285 0 00.16 1.624c.242.241.569.377.91.378h.003zm6.856 18.438h-53.24a1.212 1.212 0 00-1.209 1.206 1.204 1.204 0 001.21 1.206h53.24a1.217 1.217 0 001.213-1.213 1.21 1.21 0 00-1.216-1.21l.002.01zm0-6.439h-53.24a1.215 1.215 0 00-1.156 1.207 1.207 1.207 0 001.157 1.208h53.24a1.218 1.218 0 001.214-1.214 1.21 1.21 0 00-1.217-1.21l.002.01zm-29.841 19.31H27.888a1.214 1.214 0 00-1.157 1.208 1.207 1.207 0 001.157 1.207h23.388a1.218 1.218 0 001.214-1.214 1.21 1.21 0 00-1.217-1.21l.003.01zm0-6.435H27.888a1.214 1.214 0 00-1.157 1.207 1.207 1.207 0 001.157 1.207h23.388a1.218 1.218 0 001.214-1.213 1.21 1.21 0 00-1.217-1.211l.003.01zm0 12.874H27.888a1.214 1.214 0 00-1.157 1.207 1.207 1.207 0 001.157 1.207h23.388a1.218 1.218 0 001.214-1.213 1.21 1.21 0 00-1.217-1.211l.003.01zm0 6.436H27.888a1.214 1.214 0 00-1.157 1.207 1.207 1.207 0 001.157 1.207h23.388a1.206 1.206 0 10-.002-2.417l.002.003zm29.841-19.31H57.73a1.212 1.212 0 00-1.21 1.206v4.024a1.204 1.204 0 001.21 1.206 1.212 1.212 0 001.21-1.206v-2.816h20.968v23.332H58.94V41.438a1.204 1.204 0 00-1.21-1.206 1.212 1.212 0 00-1.21 1.206v16.899a1.204 1.204 0 001.21 1.206h23.388a1.211 1.211 0 001.21-1.206V32.586a1.202 1.202 0 00-.749-1.115 1.214 1.214 0 00-.463-.091l.002.01zM51.273 57.126H27.885a1.215 1.215 0 00-1.157 1.207 1.207 1.207 0 001.157 1.207h23.388a1.214 1.214 0 001.157-1.207 1.207 1.207 0 00-1.157-1.207z" fill="#00BFFE"/><path d="M66.664 49.475l8.753-8.797v-.002a1.491 1.491 0 011.646-.37 1.49 1.49 0 01.826.824 1.507 1.507 0 01-.355 1.658l-9.824 9.871a1.448 1.448 0 01-1.057.455c-.345 0-.679-.119-.946-.337-.034-.032-.08-.066-.114-.1l-4.153-4.175a1.516 1.516 0 01.001-2.138 1.5 1.5 0 012.127 0l3.096 3.111z" fill="#00BFFE"/></svg>