<svg width="163" height="146" fill="none" xmlns="http://www.w3.org/2000/svg"><g clip-path="url(#clip0)"><rect x="45" width="136.889" height="90" rx="45" transform="rotate(30 45 0)" fill="#CCEDFF"/><path d="M121.603 81.141v24.5h-5.67v-19.95h-4.9v-4.55h10.57z" fill="#fff"/><rect x="16.641" y="15.641" width="90" height="90" rx="45" fill="#00BFFE"/><path d="M70.992 58.452c0-5.771-4.679-10.45-10.45-10.45m14.63 10.45c0-8.08-6.55-14.63-14.63-14.63m18.811 14.63c0-10.389-8.423-18.811-18.812-18.811" stroke="#fff" stroke-width="2" stroke-linecap="round"/><path d="M50.244 46.214l-.02-.039-.025-.037c-.479-.742-1.26-1.373-2.286-1.313h0c-.59.035-1.13.298-1.595.694l-.03.026-.03.029-4.404 4.404c-.908.843-1.19 2.04-1.205 3.082-.125 2.71 1.234 5.696 2.261 7.823l.008.016.008.016c2.828 5.354 7.308 9.743 12.127 13.249l.022.015.022.014c2.925 1.901 6.639 3.86 10.65 3.98h.031c1.007 0 2.17-.27 3.07-1.19l4.414-4.378.006-.007.007-.006c1.13-1.165.913-3.052-.551-3.97l-.012-.007-.011-.006-6.415-3.787-.236-.14h-.07c-1.125-.484-2.376-.04-3.134.534l-.058.044-.051.052-1.724 1.756a.85.85 0 01-.033-.01l-.031-.008-.032-.006c-.941-.199-1.827-.73-2.723-1.458-.601-.489-1.141-1.008-1.694-1.54-.297-.284-.597-.573-.913-.862h0c-1.55-1.422-3.18-3.361-3.809-5.382l1.447-1.447h0l.008-.007c.818-.837 1.157-2.133.587-3.35l-.01-.02-.01-.021-3.556-6.743z" fill="#00BFFE" stroke="#fff" stroke-width="2"/></g><defs><clipPath id="clip0"><path fill="#fff" d="M0 0h163v146H0z"/></clipPath></defs></svg>