<svg width="55" height="10" fill="none" xmlns="http://www.w3.org/2000/svg"><g clip-path="url(#clip0)" fill="#222"><path d="M44.195 2.574v4.82h7.77v-4.82h-7.77zm.095 7.394c-1.729 0-3.13-1.39-3.13-3.105V3.105C41.16 1.39 42.56 0 44.29 0h7.58C53.599 0 55 1.39 55 3.105v3.758c0 1.715-1.401 3.105-3.13 3.105h-7.58zm-26.4-2.574V6.316h9.385V3.724H17.89v-1.15h9.385V0h-9.29c-1.73 0-3.13 1.39-3.13 3.105v3.758c0 1.715 1.4 3.105 3.13 3.105h9.346V7.394H17.89zM2.78 6.316v1.078h8.06V6.316H2.78zm0-3.742v1.15h8.116v-1.15H2.779zM0 9.968V.032h11.098c1.466 0 2.765 1.18 2.765 2.634 0 1.006-.622 1.882-1.492 2.324l-.022.03c.88.44 1.514 1.32 1.514 2.336 0 1.455-1.299 2.634-2.765 2.634L0 9.965v.003z"/><path d="M41.962 0h-4.583l-5.502 3.713V0h-3.11v9.968h3.11V6.252l5.668 3.716h4.417L34.5 4.963 41.961 0z"/></g><defs><clipPath id="clip0"><path fill="#fff" d="M0 0h55v9.99H0z"/></clipPath></defs></svg>