<svg width="163" height="146" fill="none" xmlns="http://www.w3.org/2000/svg"><rect x="45" width="136.889" height="90" rx="45" transform="rotate(30 45 0)" fill="#CCEDFF"/><path d="M127.489 101.021v4.62h-18.515v-3.675l9.45-8.925c1.003-.957 1.68-1.773 2.03-2.45.35-.7.525-1.388.525-2.065 0-.98-.338-1.727-1.015-2.24-.653-.537-1.622-.805-2.905-.805-1.073 0-2.042.21-2.905.63-.863.397-1.587 1.003-2.17 1.82l-4.13-2.66c.957-1.423 2.275-2.532 3.955-3.325 1.68-.817 3.605-1.225 5.775-1.225 1.82 0 3.407.303 4.76.91 1.377.583 2.438 1.423 3.185 2.52.77 1.073 1.155 2.345 1.155 3.815 0 1.33-.28 2.578-.84 3.745-.56 1.167-1.645 2.497-3.255 3.99l-5.635 5.32h10.535z" fill="#fff"/><rect x="16.641" y="15.641" width="90" height="90" rx="45" fill="#00BFFE"/><path fill="#fff" d="M41.392 78.258l1.265 1.265-5.692 5.692L35.7 83.95z"/><rect x="50.422" y="35.641" width="29.302" height="37.351" rx="4" fill="#00BFFE" stroke="#fff" stroke-width="2"/><circle cx="64.626" cy="54.317" r="9.732" fill="#00BFFE" stroke="#fff" stroke-width="2"/><circle cx="52.775" cy="67.507" r="14.651" transform="rotate(45 52.775 67.507)" fill="#00BFFE" stroke="#fff" stroke-width="2"/></svg>