<svg width="75" height="17" fill="none" xmlns="http://www.w3.org/2000/svg"><g clip-path="url(#clip0)"><path fill-rule="evenodd" clip-rule="evenodd" d="M0 0h11.69v16.708H0V0zm7.237 3.089H4.352C2.48 6.076 1.215 10.126.71 13.67h2.935a24.62 24.62 0 01.91-3.696c.355-1.215.76-2.329 1.266-3.392.455 1.063.91 2.126 1.164 3.088H5.162c-.253.81-.405 1.52-.506 2.228H7.59c0 .507.202 1.317.304 1.823h3.036c-.607-3.797-1.72-7.392-3.694-10.633zm20.445 0V13.67h7.136v-2.329h-4.1V3.088h-3.036zm23.735 0V13.67h3.036V6.582c1.417.86 3.189 2.228 4.1 3.645v3.443h3.036V3.09h-3.036v2.987c-1.114-1.114-2.632-2.38-4.1-2.937h-3.036v-.05zm13.664 0v2.329h2.48v8.252h3.036V5.468h2.48v-2.38H65.08zm-50.607 0v2.329h2.58v8.252h2.987V5.468h2.58v-2.38h-8.147zm30.82 0h-2.885c-1.974 3.139-2.935 6.987-3.745 10.53H41.7a32.182 32.182 0 012.126-7.138c.506 1.063.961 2.126 1.214 3.088h-1.923c-.152.81-.405 1.52-.455 2.228h2.935c0 .557.203 1.266.304 1.823h3.036c-.759-3.696-1.67-7.19-3.644-10.531zM63.31 0H75v16.708H63.31V0zM50.658 0h11.69v16.708h-11.69V0zM38.006 0h11.69v16.708h-11.69V0zM25.354 0h11.69v16.708h-11.69V0zM12.702 0h11.69v16.708h-11.69V0z" fill="#222"/></g><defs><clipPath id="clip0"><path fill="#fff" d="M0 0h75v16.708H0z"/></clipPath></defs></svg>