<svg width="95" height="25" fill="none" xmlns="http://www.w3.org/2000/svg"><path fill-rule="evenodd" clip-rule="evenodd" d="M0 3.167A3.167 3.167 0 013.167 0h15.79a3.167 3.167 0 013.166 3.167v18.555a3.167 3.167 0 01-3.166 3.167H3.167A3.167 3.167 0 010 21.722V3.167zm16.467 10.925a5.542 5.542 0 11-11.084 0 5.542 5.542 0 0111.084 0zm.633 0a6.175 6.175 0 11-12.35 0 6.175 6.175 0 0112.35 0zm1.583 0a7.758 7.758 0 11-15.516 0 7.758 7.758 0 0115.516 0zM4.978 3.502a1.475 1.475 0 11-2.95 0 1.475 1.475 0 012.95 0zm2.765 1.476a1.475 1.475 0 100-2.95 1.475 1.475 0 000 2.95z" fill="#00BFFE"/><path fill-rule="evenodd" clip-rule="evenodd" d="M7.695 13.849c-.302.498-1.512-.576-1.323-.92.19-.346.99-1.029 1.323-1.151-.264-.46.454-1.458 1.399-1.228.831-1.38 2.683-.575 2.646-.23-.014.122-.215.134-.49.15-.509.031-1.271.077-1.59.847l1.898 1.926c.294-.296.56-.568.744-.763.046-.05.08-.084.109-.111a.657.657 0 00.146-.187c.095-.17.124-.482.124-.482s.007-.153.019-.227a1.367 1.367 0 011.342-1.153c.138 0 .35.05.475.09l-1.139 1.155.802.814 1.14-1.156c.053.149.083.31.083.477 0 .686-.492 1.254-1.137 1.363-.073.012-.224.018-.224.018s-.354-.004-.535.11a.815.815 0 00-.156.151c-.03.034-.061.07-.096.105l-.748.759 1.992 2.02s.235.16.265.423c.035.309-.107.436-.291.603l-.012.01c-.04.036-.074.073-.107.109-.117.126-.219.236-.46.198-.271-.042-.453-.307-.453-.307l-1.958-2.017-.74.752s-.099.081-.146.147c-.112.158-.11.364-.108.5v.043a1.366 1.366 0 01-1.36 1.38c-.166 0-.325-.03-.471-.084l1.153-1.171-.801-.814-1.154 1.171a2.01 2.01 0 01-.089-.482c0-.67.47-1.227 1.092-1.354a1.33 1.33 0 01.27-.027c.107 0 .315-.016.473-.126a.382.382 0 00.085-.076 1.55 1.55 0 01.086-.091l.76-.748-1.893-1.95c-.635.206-.707.602-.777.992-.035.19-.069.378-.168.542z" fill="#00BFFE"/><path d="M34.992 21.885c0-.433-.153-.763-.459-.993-.305-.234-.855-.478-1.649-.732-.794-.26-1.423-.515-1.886-.764-1.263-.682-1.894-1.601-1.894-2.757 0-.6.168-1.135.504-1.603.341-.474.827-.843 1.459-1.108.636-.264 1.349-.397 2.138-.397.794 0 1.502.145 2.123.435.62.286 1.102.69 1.443 1.215.346.524.52 1.12.52 1.787h-2.292c0-.51-.16-.904-.48-1.184-.322-.285-.772-.428-1.352-.428-.56 0-.996.12-1.306.36a1.11 1.11 0 00-.466.93c0 .362.18.665.542.91.367.244.904.473 1.611.687 1.304.392 2.253.878 2.849 1.458.595.58.893 1.303.893 2.169 0 .962-.364 1.718-1.092 2.268-.728.545-1.708.817-2.94.817-.855 0-1.634-.155-2.337-.466-.702-.316-1.24-.746-1.61-1.29-.367-.545-.55-1.176-.55-1.894h2.298c0 1.227.733 1.84 2.2 1.84.544 0 .969-.11 1.274-.328.306-.224.459-.535.459-.932zm11.296-1.901h-4.399v2.978h5.162v1.84H39.6V13.684h7.437v1.856H41.89v2.65h4.399v1.794zm6.974.748h-1.825v4.07h-2.29V13.684h4.13c1.314 0 2.327.293 3.04.878.712.586 1.069 1.413 1.069 2.482 0 .758-.166 1.392-.497 1.901-.326.504-.822.907-1.489 1.207l2.406 4.543v.107h-2.46l-2.084-4.07zm-1.825-1.855h1.848c.575 0 1.02-.145 1.336-.436.316-.295.474-.7.474-1.214 0-.524-.15-.936-.45-1.237-.296-.3-.752-.45-1.368-.45h-1.84v3.337zm12.403 3.169l2.52-8.362h2.55l-3.87 11.118h-2.39l-3.857-11.118h2.543l2.504 8.362zm9.311 2.756h-2.29V13.684h2.29v11.118zm11.609-3.703c-.086 1.196-.529 2.138-1.328 2.825-.794.687-1.843 1.031-3.146 1.031-1.426 0-2.548-.479-3.368-1.436-.814-.962-1.222-2.28-1.222-3.955v-.68c0-1.069.189-2.01.566-2.825.376-.815.913-1.438 1.61-1.871.703-.438 1.518-.657 2.444-.657 1.283 0 2.317.344 3.1 1.031.785.687 1.238 1.652 1.36 2.894h-2.291c-.056-.718-.257-1.237-.603-1.557-.341-.326-.863-.49-1.566-.49-.763 0-1.336.276-1.718.825-.376.545-.57 1.393-.58 2.543v.84c0 1.202.18 2.08.542 2.635.367.555.942.832 1.726.832.707 0 1.234-.16 1.58-.481.352-.326.553-.827.604-1.504h2.29zm8.945-1.115h-4.399v2.978h5.163v1.84h-7.453V13.684h7.437v1.856h-5.147v2.65h4.399v1.794zM32.708 6.659l-1.19 1.283v3.176h-2.292V0h2.291v5.04l1.008-1.382L35.358 0h2.818l-3.948 4.94 4.063 6.178h-2.727l-2.856-4.46zm15.572 4.459h-2.29V6.353h-4.468v4.765h-2.29V0h2.29v4.505h4.468V0h2.29v11.118zm8.501-2.291h-4.016L52 11.118h-2.436L53.704 0h2.123l4.162 11.118h-2.436l-.772-2.29zm-3.398-1.855h2.78L54.765 2.81l-1.382 4.162zm11.838.076h-1.825v4.07h-2.29V0h4.13c1.314 0 2.327.293 3.04.878.712.586 1.069 1.413 1.069 2.482 0 .758-.166 1.392-.497 1.901-.326.504-.822.906-1.489 1.207l2.406 4.543v.107h-2.46l-2.084-4.07zm-1.825-1.855h1.848c.575 0 1.02-.145 1.336-.436.316-.295.474-.7.474-1.214 0-.524-.15-.937-.45-1.237-.296-.3-.752-.45-1.368-.45h-1.84v3.337zm11.258 1.466l-1.192 1.283v3.176h-2.29V0h2.29v5.04l1.008-1.382L77.303 0h2.818l-3.948 4.94 4.063 6.178H77.51l-2.856-4.46zm8.959 4.459h-2.291V0h2.29v11.118zm6.317-2.756L92.45 0H95l-3.87 11.118h-2.39L84.881 0h2.543l2.505 8.362z" fill="#00BFFE"/></svg>