<svg width="55" height="15" fill="none" xmlns="http://www.w3.org/2000/svg"><g clip-path="url(#clip0)" fill-rule="evenodd" clip-rule="evenodd"><path d="M0 0h55v14.113H0V0z" fill="#222"/><path d="M50.308 3.531l-1.36-1.515s-2.465 2.76-2.994 3.345a4.034 4.034 0 002.994 6.736 4.034 4.034 0 003.033-6.692c-.135-.153-.374-.422-.661-.743l-1.37 1.522s.42.47.514.579a2.018 2.018 0 11-3.013-.022c.265-.293 1.497-1.675 1.497-1.675l1.36-1.535zM5.447 2.016h2.22l3.429 9.224-1.892.857-.952-2.52-1.696.001V7.563h.935l-.935-2.472-.934 2.472.934-.002v2.016l-1.695.001-.952 2.52-1.892-.858 3.43-9.224zm12.836 10.081l-1.417-3.73H14.63l-.004 3.73-2.017-.857V2.016h4.388a3.177 3.177 0 011.886 5.732l1.291 3.492-1.891.857zm-1.236-5.746a1.16 1.16 0 100-2.319h-2.42v2.32h2.42zm7.666 5.746h-3.026V2.017h3.026a5.042 5.042 0 015.044 5.04 5.042 5.042 0 01-5.044 5.04zm0-2.016a3.025 3.025 0 100-6.049h-1.008v6.049h1.008zm11.096 2.016a5.042 5.042 0 01-5.043-5.04 5.042 5.042 0 015.043-5.04 5.042 5.042 0 015.044 5.04 5.042 5.042 0 01-5.044 5.04zm.025-2.016a3.025 3.025 0 10-3.026-3.024 3.025 3.025 0 003.026 3.024z" fill="#fff"/></g><defs><clipPath id="clip0"><path fill="#fff" d="M0 0h55v14.113H0z"/></clipPath></defs></svg>