<svg width="30" height="30" fill="none" xmlns="http://www.w3.org/2000/svg"><path d="M15 29.999c8.284 0 15-6.716 15-15 0-8.284-6.716-15-15-15-8.284 0-15 6.716-15 15 0 8.284 6.716 15 15 15z" fill="#00BFFE"/><path d="M5.223 15.672c-.054 2.58 1.724 5.044 4.17 5.847 2.302.774 5.134.195 6.667-1.778 1.12-1.382 1.373-3.224 1.252-4.946-1.972-.018-3.945-.012-5.914-.009-.004.703 0 1.403.003 2.106 1.18.032 2.362.017 3.543.041-.298 1.022-.977 1.973-2.008 2.342-1.99.877-4.53-.27-5.156-2.357-.756-2 .482-4.412 2.525-4.993 1.267-.446 2.572.056 3.656.714a27.993 27.993 0 001.568-1.618c-1.232-1.03-2.815-1.662-4.441-1.523-3.193.038-5.987 2.985-5.865 6.174zm15.928-2.659c-.005.588-.011 1.179-.014 1.766-.591.006-1.179.009-1.766.012v1.76c.587.003 1.178.006 1.766.012.005.588.005 1.175.011 1.766.585 0 1.173-.003 1.76 0 .003-.59.006-1.178.012-1.769l1.766-.009v-1.76c-.587-.003-1.178-.006-1.766-.012l-.012-1.765h-1.757z" fill="#DF4B41"/><path d="M5.223 15.671c-.122-3.189 2.672-6.136 5.864-6.174 1.627-.14 3.21.493 4.441 1.523a28.062 28.062 0 01-1.567 1.618c-1.084-.658-2.39-1.16-3.656-.714-2.044.582-3.281 2.994-2.525 4.993.626 2.088 3.165 3.234 5.156 2.357 1.03-.37 1.71-1.32 2.008-2.342-1.181-.023-2.363-.009-3.544-.041-.003-.703-.006-1.403-.003-2.106 1.97-.003 3.942-.009 5.915.01.121 1.72-.133 3.563-1.252 4.945-1.533 1.973-4.364 2.552-6.668 1.778-2.445-.803-4.223-3.266-4.17-5.847zm15.928-2.658h1.757c.003.588.01 1.179.012 1.766.588.006 1.178.009 1.766.012v1.76l-1.766.009c-.006.59-.009 1.178-.012 1.768-.587-.002-1.175 0-1.76 0-.005-.59-.005-1.178-.011-1.765-.588-.006-1.179-.01-1.766-.012v-1.76c.587-.003 1.175-.006 1.766-.012.003-.587.008-1.178.014-1.766z" fill="#fff"/></svg>