<svg width="163" height="146" fill="none" xmlns="http://www.w3.org/2000/svg"><g clip-path="url(#clip0)"><rect x="45" width="136.889" height="90" rx="45" transform="rotate(30 45 0)" fill="#CCEDFF"/><rect x="16.641" y="15.641" width="90" height="90" rx="45" fill="#00BFFE"/><path d="M117.498 90.346c3.454 0 5.997.688 7.63 2.065 1.657 1.377 2.485 3.22 2.485 5.53 0 1.493-.373 2.858-1.12 4.095-.746 1.213-1.89 2.193-3.43 2.94-1.516.723-3.395 1.085-5.635 1.085-1.726 0-3.43-.222-5.11-.665-1.656-.467-3.068-1.12-4.235-1.96l2.24-4.34c.934.7 2.007 1.248 3.22 1.645 1.214.373 2.462.56 3.745.56 1.424 0 2.544-.28 3.36-.84.817-.56 1.225-1.342 1.225-2.345 0-1.05-.431-1.843-1.295-2.38-.84-.537-2.31-.805-4.41-.805h-6.265l1.26-13.79h14.945v4.55h-10.22l-.385 4.655h1.995z" fill="#fff"/><rect x="47.55" y="35.641" width="29.818" height="38" rx="4" fill="#00BFFE" stroke="#fff" stroke-width="2"/><circle cx="62.005" cy="54.641" r="9.909" fill="#00BFFE" stroke="#fff" stroke-width="2"/><circle cx="51.55" cy="68.732" r="14.909" fill="#00BFFE" stroke="#fff" stroke-width="2"/><path d="M43.596 68.732l5.966 5.966 9.943-9.943" stroke="#fff" stroke-width="2" stroke-linecap="round" stroke-linejoin="round"/></g><defs><clipPath id="clip0"><path fill="#fff" d="M0 0h163v146H0z"/></clipPath></defs></svg>