<svg width="75" height="14" fill="none" xmlns="http://www.w3.org/2000/svg"><g clip-path="url(#clip0)" fill-rule="evenodd" clip-rule="evenodd" fill="#222"><path d="M13.762 10.013c.091 0 .137-.045.137-.09V.576c0-.046-.045-.137-.137-.137H10.89c-.091 0-.182.091-.182.137v9.345c0 .046.091.091.182.091h2.872zM38.7 5.728c0-1.55-1.14-2.644-3.055-2.644-1.049 0-2.006.547-2.599 1.23h-.09c-.502-.729-1.414-1.23-2.736-1.23-.82 0-1.55.365-2.143.82h-.091s-.046 0-.046-.045v-.365c0-.09-.045-.137-.136-.137h-2.872c-.046 0-.091.046-.091.137v6.428c0 .046.045.091.09.091h2.873c.09 0 .136-.045.136-.09V6.73c0-.684.775-1.276 1.277-1.322.365 0 .957.046.957.866v3.647c0 .046.046.091.183.091h2.872c.046 0 .136-.045.136-.09V6.73c0-.684.684-1.276 1.231-1.322.32 0 1.003.046 1.003.866v3.647c0 .046.046.091.092.091h2.872c.09 0 .136-.045.136-.09V5.727m26.302-.044c-1.14-.41-2.279.547-2.279 1.641v2.599c0 .045-.046.09-.091.09h-2.918c-.045 0-.091-.045-.091-.09V3.495c0-.091.046-.137.09-.137h2.919c.045 0 .091.046.091.137v.365c0 .045.045.045.045.045h.091c.502-.456 1.277-.684 2.143-.684.091 0 .091.046.091.046v2.37c0 .046 0 .046-.09.046M8.338 5.044h.045c-.137 0-.182 0-.182-.045 0-.091 0-.091.137-.137A2.273 2.273 0 009.75 2.765C9.75 1.534 8.429.44 7.244.44H.542C.496.44.45.53.45.577v9.345c0 .046.045.091.09.091h6.703c1.413 0 2.917-1.094 2.917-2.507 0-1.185-.775-2.097-1.823-2.462zM3.55 2.446c0-.046.045-.091.182-.091h1.96c.502 0 .912.41.912.911 0 .547-.41.958-.912.958h-1.96c-.137 0-.182-.046-.182-.137V2.446zm2.416 5.698H3.733c-.137 0-.182-.045-.182-.091V6.138c0-.045.045-.09.182-.09h2.234c.547 0 1.003.455 1.003 1.048 0 .592-.456 1.048-1.003 1.048zm13.358-5.288c-3.146 0-4.832 1.14-4.832 3.648 0 2.552 1.686 3.692 4.832 3.692s4.878-1.14 4.878-3.692c0-2.508-1.732-3.648-4.878-3.648zm0 5.653c-.912 0-1.595-.592-1.595-2.006 0-1.367.683-1.914 1.595-1.914.912 0 1.641.547 1.641 1.914 0 1.414-.729 2.006-1.64 2.006zm26.35-5.425c-1.276 0-2.143.274-2.736.73-.09 0-.09 0-.09-.046V.851c0-.046-.046-.092-.138-.092h-2.917a.098.098 0 00-.091.092v9.071c0 .046.045.091.091.091h2.917c.092 0 .137-.045.137-.09v-.32c0-.045 0-.045.091-.045.593.547 1.46.775 2.736.775 2.005 0 3.602-1.641 3.602-3.647a3.61 3.61 0 00-3.602-3.602zm-1.14 5.47c-1.14 0-1.687-.82-1.687-1.868 0-1.003.547-1.824 1.687-1.824 1.049 0 1.55.82 1.55 1.824 0 1.048-.502 1.869-1.55 1.869zm9.846-5.789c-3.19 0-4.559 1.732-4.559 3.784 0 2.052 1.368 3.647 4.56 3.647 2.643 0 3.874-.82 4.33-2.097 0-.046-.045-.137-.091-.137h-3.01s-.045 0-.045.091c-.229.274-.593.502-1.186.502-.501 0-1.048-.456-1.276-1.094 0-.091.046-.137.091-.137h5.607c.046 0 .092-.046.092-.046.09-.319.09-.41.09-.73 0-1.868-1.504-3.783-4.604-3.783zm1.186 2.78H53.15c-.046 0-.137-.045-.137-.09.273-.82.775-1.14 1.367-1.14.547 0 1.049.274 1.277 1.14a.098.098 0 01-.091.09z"/><path d="M74.58 3.267h-2.872c-.045 0-.09.09-.09.136v.274s0 .09-.092.09h-.046c-.501-.546-1.413-.774-2.69-.774-2.006 0-3.601 1.595-3.601 3.556 0 2.006 1.595 3.647 3.601 3.647 1.46 0 2.052-.228 2.69-.593l.091-.045c.046 0 .092.045.092.136v.183c0 1.094-1.003 1.322-1.596 1.322H.454v2.006h70.208c2.963 0 4.103-1.505 4.103-3.42V3.404c0-.046-.046-.136-.183-.136h-.002zm-4.376 5.242c-.866 0-1.596-.82-1.596-1.823 0-1.003.73-1.824 1.596-1.824.866 0 1.595.82 1.595 1.824 0 1.003-.729 1.823-1.595 1.823z"/></g><defs><clipPath id="clip0"><path fill="#fff" d="M0 0h75v13.229H0z"/></clipPath></defs></svg>