<svg width="163" height="146" fill="none" xmlns="http://www.w3.org/2000/svg"><g clip-path="url(#clip0)"><rect x="45" width="136.889" height="90" rx="45" transform="rotate(30 45 0)" fill="#CCEDFF"/><path d="M120.595 91.116c2.146.35 3.791 1.155 4.935 2.415 1.143 1.237 1.715 2.777 1.715 4.62a7.412 7.412 0 01-1.12 3.955c-.747 1.19-1.89 2.147-3.43 2.87-1.517.723-3.384 1.085-5.6 1.085-1.727 0-3.43-.222-5.11-.665-1.657-.467-3.069-1.12-4.235-1.96l2.205-4.34c.933.7 2.006 1.248 3.22 1.645 1.236.373 2.496.56 3.78.56 1.423 0 2.543-.268 3.36-.805.816-.56 1.225-1.342 1.225-2.345 0-2.007-1.529-3.01-4.585-3.01h-2.59v-3.745l5.04-5.705h-10.43v-4.55h17.15v3.675l-5.53 6.3z" fill="#fff"/><rect x="16.641" y="15.641" width="90" height="90" rx="45" fill="#00BFFE"/><path d="M44.141 60.974a5.841 5.841 0 00-5.833 5.834 5.842 5.842 0 005.833 5.833 5.841 5.841 0 005.834-5.833 5.842 5.842 0 00-5.834-5.834zm0 9.334c-1.93 0-3.5-1.57-3.5-3.5s1.57-3.5 3.5-3.5 3.5 1.57 3.5 3.5-1.57 3.5-3.5 3.5zm35-9.334a5.841 5.841 0 00-5.833 5.834 5.842 5.842 0 005.833 5.833 5.841 5.841 0 005.834-5.833 5.842 5.842 0 00-5.834-5.834zm0 9.334c-1.93 0-3.5-1.57-3.5-3.5s1.57-3.5 3.5-3.5 3.5 1.57 3.5 3.5-1.57 3.5-3.5 3.5z" fill="#fff"/><path d="M82.641 53.974h-1.974a3.195 3.195 0 01-1.993-.7l-9.193-7.354a5.865 5.865 0 00-3.645-1.279H48.971a5.82 5.82 0 00-4.853 2.597l-1.986 2.982a3.194 3.194 0 01-2.658 1.421 5.841 5.841 0 00-5.833 5.833v4.667a5.841 5.841 0 005.833 5.833 1.167 1.167 0 000-2.333c-1.93 0-3.5-1.57-3.5-3.5v-4.667c0-1.93 1.57-3.5 3.5-3.5 1.853 0 3.57-.919 4.6-2.461l1.985-2.98a3.497 3.497 0 012.912-1.559h16.865a3.52 3.52 0 012.19.768l9.192 7.352a5.533 5.533 0 003.451 1.213h1.972c3.423 0 4.667 3.489 4.667 5.834 0 2.298-1.76 3.5-3.5 3.5a1.167 1.167 0 000 2.333c3.325 0 5.833-2.508 5.833-5.833 0-3.96-2.452-8.167-7-8.167z" fill="#fff"/><path d="M74.474 65.641H48.808a1.167 1.167 0 000 2.333h25.667a1.167 1.167 0 000-2.333zm-2.333-11.667h-10.5v-3.5a1.167 1.167 0 00-2.333 0v4.667c0 .644.522 1.167 1.166 1.167h11.667a1.167 1.167 0 000-2.334zm-16.333 0h-7.446l1.491-2.977a1.166 1.166 0 10-2.088-1.043l-2.334 4.667a1.168 1.168 0 001.043 1.687h9.334a1.167 1.167 0 000-2.334zm9.333 4.667h-2.333a1.167 1.167 0 000 2.333h2.333a1.167 1.167 0 000-2.333z" fill="#fff"/></g><defs><clipPath id="clip0"><path fill="#fff" d="M0 0h163v146H0z"/></clipPath></defs></svg>