<svg width="30" height="30" fill="none" xmlns="http://www.w3.org/2000/svg"><circle cx="15" cy="15" r="15" fill="#222"/><path d="M13.47 17.126l5.089-2.652L13.47 11.8v5.326z" fill="#fff"/><path opacity=".12" d="M13.47 11.8l4.464 3 .625-.326L13.47 11.8z" fill="#420000"/><path d="M15.408 21.333l.007-.75h0-.055l-.157-.002a210.706 210.706 0 01-2.411-.038c-1.403-.03-2.949-.077-3.679-.146a8.043 8.043 0 00-.327-.046c-.465-.06-.906-.116-1.3-.532h0l-.01-.01c-.145-.15-.291-.465-.403-.844a5.247 5.247 0 01-.133-.58l-.005-.032v-.002l-.001-.006-.006-.049a29.147 29.147 0 01-.085-.865 25.466 25.466 0 01-.093-2.046v-1.437c0-.738.046-1.485.093-2.05a29.672 29.672 0 01.085-.868l.006-.049v-.008l.006-.033.024-.133a5.34 5.34 0 01.109-.448c.11-.38.256-.696.4-.845h0l.003-.004c.448-.47.9-.516 1.293-.557l.125-.014c1.295-.094 2.917-.141 4.224-.165a150.994 150.994 0 012.118-.024h.352a122.049 122.049 0 012.115.024c1.306.024 2.925.071 4.213.165l.125.014c.398.04.848.087 1.289.554h0l.01.01c.145.149.291.464.403.844a5.247 5.247 0 01.133.58l.005.032v.001l.002.007.005.049a22.914 22.914 0 01.086.87c.048.565.096 1.31.1 2.05v1.435c0 .739-.047 1.483-.093 2.046a29.464 29.464 0 01-.085.865l-.006.049v.006l-.001.002-.005.033a5.24 5.24 0 01-.134.58c-.111.379-.258.694-.403.843h0l-.007.007c-.448.47-.9.516-1.292.557a9.463 9.463 0 00-.126.014c-1.292.093-2.914.143-4.223.169a155.794 155.794 0 01-2.12.027h-.172 0l.001.75zm0 0s-4.888-.044-6.394-.192l15.81-5.756a28.42 28.42 0 01-.192 3.067s-.183 1.304-.75 1.881c-.646.679-1.359.748-1.763.787a5.436 5.436 0 00-.125.013c-2.632.193-6.586.2-6.586.2z" stroke="#fff" stroke-width="1.5"/></svg>