<svg width="16" height="36" fill="none" xmlns="http://www.w3.org/2000/svg"><path d="M7.646 35.354a.5.5 0 00.708 0l3.182-3.182a.5.5 0 10-.708-.707L8 34.293l-2.828-2.828a.5.5 0 10-.708.707l3.182 3.182zM7.5 0v2.188h1V0h-1zm0 6.563v4.375h1V6.561h-1zm0 8.75v4.374h1v-4.375h-1zm0 8.75v4.375h1v-4.375h-1zm0 8.75V35h1v-2.188h-1zm-.207 2.894a1 1 0 001.414 0l6.364-6.364a1 1 0 00-1.414-1.414L8 33.586l-5.657-5.657A1 1 0 00.93 29.343l6.364 6.364zM7 0v2.188h2V0H7zm0 6.563v4.375h2V6.561H7zm0 8.75v4.374h2v-4.375H7zm0 8.75v4.375h2v-4.375H7zm0 8.75V35h2v-2.188H7z" fill="#B9B9B9"/></svg>