<svg width="19" height="14" fill="none" xmlns="http://www.w3.org/2000/svg"><path d="M7.47 9.126l5.089-2.652L7.47 3.8v5.326z" fill="#fff"/><path opacity=".12" d="M7.47 3.8l4.464 3 .625-.326L7.47 3.8z" fill="#420000"/><path d="M9.408 13.333l.007-.75h0-.055l-.157-.002a210.916 210.916 0 01-2.411-.038c-1.403-.03-2.949-.077-3.679-.146a8.043 8.043 0 00-.327-.046c-.465-.06-.906-.116-1.3-.532h0l-.01-.01c-.145-.15-.291-.464-.403-.844a5.249 5.249 0 01-.133-.58l-.005-.032v-.002l-.001-.007-.006-.048a29.168 29.168 0 01-.085-.865A25.47 25.47 0 01.75 7.385V5.948c0-.738.046-1.484.093-2.05a29.541 29.541 0 01.085-.868l.006-.049v-.008L.94 2.94l.024-.133a5.5 5.5 0 01.109-.448c.11-.38.256-.696.4-.845h0l.003-.004c.448-.47.9-.516 1.293-.557l.125-.014C4.189.845 5.81.798 7.118.774A151.19 151.19 0 019.236.75h.352a121.354 121.354 0 012.115.024c1.306.024 2.925.071 4.213.165l.125.014c.398.04.848.087 1.289.554h0l.01.01c.145.149.291.464.403.844a5.249 5.249 0 01.133.58l.005.032v.001l.002.007.005.049a23.166 23.166 0 01.086.87c.048.565.096 1.31.1 2.05v1.435c0 .739-.047 1.483-.093 2.046a29.46 29.46 0 01-.085.865l-.006.049v.006l-.001.002-.005.033a5.24 5.24 0 01-.134.58c-.111.379-.258.694-.403.843h0l-.007.007c-.448.47-.9.516-1.292.557a9.463 9.463 0 00-.126.014c-1.292.093-2.914.143-4.223.169a155.794 155.794 0 01-2.12.027h-.172 0l.001.75zm0 0s-4.888-.044-6.394-.192l15.81-5.756c0 1.534-.192 3.067-.192 3.067s-.183 1.304-.75 1.881c-.646.679-1.359.748-1.763.787a5.436 5.436 0 00-.125.013c-2.632.193-6.586.2-6.586.2z" stroke="#fff" stroke-width="1.5"/></svg>