<svg width="55" height="23" fill="none" xmlns="http://www.w3.org/2000/svg"><g clip-path="url(#clip0)" fill="#222"><path d="M10.058 15.36L8.126 7.972l-1.96 7.388h-1.59L1.844 5.19h1.574l1.946 7.387 1.96-7.387h1.56l1.975 7.387 1.946-7.387h1.574l-2.733 10.17h-1.588zm5.05-10.141l1.574-.131v2.491l-.029.933h.057c.73-.277 1.317-.408 2.032-.408 1.274 0 2.132.583 2.132 2.812v4.444H19.3v-4.313c0-1.34-.643-1.515-1.373-1.515-.458 0-.844.102-1.245.218v5.61h-1.574V5.219zm7.926.102c.816 0 .945.48.945 1.02 0 .539-.172 1.034-.945 1.034-.772 0-.93-.495-.93-1.034 0-.54.143-1.02.93-1.02zm-.787 2.885h1.575v7.154h-1.575V8.206zm2.905 0h1.073l.215.583h.1c.415-.365 1.073-.685 1.931-.685.1 0 .215 0 .33.014v1.574a5.93 5.93 0 00-.888-.087c-.43 0-.773.102-1.188.291v5.464h-1.573V8.206zm4.32 7.154V5.219l1.575-.131V15.36h-1.574zm12.764-7.256c2.232 0 3.09 1.34 3.09 3.715 0 2.23-.8 3.687-3.12 3.687-2.317 0-3.133-1.458-3.133-3.687 0-2.375.93-3.715 3.163-3.715zm1.488 3.715c0-1.355-.215-2.462-1.474-2.462-1.273 0-1.589 1.063-1.589 2.462 0 1.297.258 2.419 1.518 2.419 1.258 0 1.545-1.064 1.545-2.42zm5.566-3.715c2.232 0 3.09 1.34 3.09 3.715 0 2.23-.801 3.687-3.12 3.687-2.317 0-3.133-1.458-3.133-3.687 0-2.375.93-3.715 3.162-3.715zm1.488 3.715c0-1.355-.215-2.462-1.474-2.462-1.274 0-1.589 1.063-1.589 2.462 0 1.297.258 2.419 1.517 2.419 1.26 0 1.546-1.064 1.546-2.42zm2.646 3.54V5.22l1.574-.131V15.36h-1.574z"/><path d="M42.617.411c-1.312-1.417-6.216 1.276-11.22 5.482v.546c4.9-4.165 9.514-6.616 10.577-5.467.541.584.065 2.41-1.158 4.53-.177.083-.37.251-.552.516-1.554 2.276-3.834 5.04-6.312 7.42-6.378 6.124-12.554 9.841-13.804 8.491-.713-.769.456-3.257 2.588-6.212h-.59c-2.262 3.14-3.487 5.85-2.581 6.828 1.575 1.7 8.719-2.455 15.084-8.567 2.885-2.768 5.076-5.119 6.427-7.206.39-.602.406-1.029.242-1.22 1.53-2.42 2.079-4.3 1.3-5.14"/><path d="M33.894 9.852a3.614 3.614 0 011.173-.204c.812 0 1.339.238 1.526 1.037.408-.46.802-.922 1.182-1.38-.44-.827-1.148-1.201-1.992-1.201-.787 0-1.588.364-2.06.626h-.072l-.13-.524h-1.187v6.737a68.646 68.646 0 001.506-1.399c.054-1.531.054-2.277.054-3.692zm2.757 2.155c-.109 1.623-.718 2.056-1.598 2.056-.177 0-.335-.003-.488-.006a59.972 59.972 0 01-2.23 2.029v2.683l1.573-.175v-3.278h.044c.443.087.93.146 1.373.146 1.832 0 2.934-1.239 2.934-3.745 0-.48-.037-.907-.108-1.285-.49.534-.99 1.06-1.5 1.575zM12.628 3.313c.07-.066.122-.128.135-.228.012-.1-.047-.172-.14-.207-.174-.065-.394-.004-.547.05a5.837 5.837 0 01-.835.226 9.528 9.528 0 01-.634.107 12.376 12.376 0 01-1.563.1 19.629 19.629 0 01-1.436-.052c-.267-.02-.525-.046-.768-.076a11.745 11.745 0 01-.686-.107 7.772 7.772 0 01-.584-.13 4.592 4.592 0 01-.44-.14.553.553 0 00-.205-.04c-.063 0-.149.017-.183.08-.035.064.005.137.047.183a.456.456 0 00.17.114l.097.039c.156.06.314.113.475.158.173.05.357.097.551.139a12.92 12.92 0 001.287.2 15.714 15.714 0 001.454.083 17.003 17.003 0 002.05-.096l.13-.015c0 .093.117.15.19.172.09.03.179.037.274.03.386-.029.764-.068 1.13-.114.37-.047.725-.103 1.061-.167.318-.06.632-.132.944-.216a7.6 7.6 0 00.795-.258 4.25 4.25 0 00.617-.293c.172-.103.312-.21.414-.32a.76.76 0 00.197-.338.534.534 0 00-.033-.346 1.017 1.017 0 00-.266-.343 2.556 2.556 0 00-.498-.328 5.397 5.397 0 00-.716-.305 10.077 10.077 0 00-.92-.27A15.25 15.25 0 0013.095.38c-.413-.07-.828-.128-1.245-.174A29.9 29.9 0 009.066.034a31.573 31.573 0 00-2.898.089c-.472.037-.935.085-1.38.144-.427.056-.852.124-1.275.206-.402.079-.78.167-1.129.264a9.347 9.347 0 00-.943.313c-.28.112-.524.231-.727.355a2.108 2.108 0 00-.482.386.874.874 0 00-.22.406.644.644 0 00.056.413c.065.137.177.274.334.408.157.134.36.264.607.39s.537.247.867.36c.33.114.7.22 1.104.318.404.098.843.186 1.31.265.468.079.965.147 1.48.204a31.888 31.888 0 001.849.147.435.435 0 00.212-.035c.062-.029.126-.08.132-.153.007-.075-.053-.131-.114-.163a.51.51 0 00-.21-.052 23.547 23.547 0 01-1.859-.186 18.544 18.544 0 01-.946-.157 13.74 13.74 0 01-.844-.189 9.693 9.693 0 01-.61-.176c-.518-.169-.933-.36-1.224-.562a1.611 1.611 0 01-.308-.272.795.795 0 01-.16-.277.534.534 0 01-.01-.28.716.716 0 01.136-.273c.07-.09.163-.178.28-.264.114-.085.25-.168.41-.248a5.14 5.14 0 01.535-.229A10.03 10.03 0 014.08.881a15.766 15.766 0 011.232-.23A20.347 20.347 0 017.117.467a25.45 25.45 0 011.888-.04 22.571 22.571 0 012.655.199c.268.038.525.08.77.128a9.58 9.58 0 011.278.33c.357.123.649.259.862.404.21.141.343.29.394.442.05.148.022.298-.086.444-.105.143-.285.282-.537.41a4.969 4.969 0 01-.926.347c-.26.072-.522.133-.786.182z"/><path d="M4.722 2.026a.64.64 0 01-.239.055c-.069.002-.178-.01-.218-.082-.042-.076.023-.161.073-.209a.727.727 0 01.2-.135C5.569 1.165 6.98.997 8.097.997h.123c.407.003.814.022 1.202.056.374.032.732.08 1.056.139.314.058.597.127.838.206.231.077.423.161.565.252.137.087.228.18.27.273a.276.276 0 01.024.112.29.29 0 01-.052.16.823.823 0 01-.308.246c-.14.074-.322.143-.538.204a6.041 6.041 0 01-.704.15 9.447 9.447 0 01-1.204.107c-.109.002-.218.004-.326.004h-.075a8.076 8.076 0 01-1.328-.117 3.56 3.56 0 01-.47-.12 1.344 1.344 0 01-.307-.14.345.345 0 01-.138-.149.149.149 0 01.02-.14.42.42 0 01.15-.123c.065-.035.147-.067.245-.095.1-.028.2-.05.301-.065a3.53 3.53 0 01.775-.034c.111.007.217.018.316.034.11.017.211.04.3.065.098.028.181.06.246.095a.42.42 0 01.15.122.145.145 0 01.019.141.245.245 0 01-.062.088 3.041 3.041 0 00.536-.08c.063-.017.122-.035.177-.056a1 1 0 00.145-.07.479.479 0 00.105-.08.238.238 0 00.059-.09.158.158 0 00.003-.095.251.251 0 00-.057-.098.559.559 0 00-.119-.098 1.2 1.2 0 00-.182-.093c-.08-.033-.16-.06-.243-.084a3.417 3.417 0 00-.3-.072 5.408 5.408 0 00-.739-.092 7.564 7.564 0 00-.418-.014h-.048c-1.075 0-2.376.155-3.382.58z"/></g><defs><clipPath id="clip0"><path fill="#fff" d="M0 0h55v22.957H0z"/></clipPath></defs></svg>