<svg width="27" height="13" fill="none" xmlns="http://www.w3.org/2000/svg"><path d="M13.838 10.787c2.697.018 5.214-.123 7.723-.29 1.105-.071 2.202-.221 3.236-.662 1.187-.511 1.897-1.393 2.095-2.663.143-.952.125-1.904.054-2.857-.135-1.649-1.241-2.874-2.86-3.21a26.622 26.622 0 00-4.09-.528c-2.84-.15-5.69-.247-8.531-.194-2.724.053-5.448.185-8.146.626-1.851.3-2.93 1.34-3.227 3.165-.144.873-.09 1.755-.009 2.637.17 2.028 1.394 3.015 3.245 3.412.522.114 1.07.176 1.6.194.432.009.522.185.504.564-.027.485-.009.97-.009 1.455 0 .123-.063.3.09.361.153.062.234-.105.315-.194.54-.573 1.07-1.155 1.591-1.736.126-.133.243-.23.459-.22 2.04.114 4.09.167 5.96.14z" fill="#FEFEFE"/><path fill-rule="evenodd" clip-rule="evenodd" d="M13.838 10.787a82.29 82.29 0 01-5.97-.15c-.215-.009-.332.08-.458.22-.53.582-1.06 1.164-1.591 1.737-.081.088-.162.256-.315.194s-.09-.229-.09-.361c-.009-.485-.027-.97.01-1.455.026-.38-.073-.547-.504-.564a8.824 8.824 0 01-1.6-.194C1.466 9.817.253 8.82.073 6.8c-.071-.88-.125-1.762.01-2.635C.38 2.34 1.449 1.299 3.31 1 6.007.567 8.722.426 11.456.373c2.85-.052 5.69.045 8.531.194 1.376.071 2.742.247 4.09.53 1.619.335 2.725 1.551 2.86 3.209.08.952.098 1.905-.054 2.857-.198 1.27-.908 2.151-2.095 2.663-1.034.44-2.13.59-3.237.66-2.508.177-5.016.318-7.713.3zm.557-5.14v1.85c0 .239.054.442.288.548.225.105.45.07.602-.133.108-.132.153-.088.279-.017.755.458 1.591.247 2.04-.512.441-.74.396-1.49 0-2.23-.34-.635-1.015-.9-1.716-.688-.495.14-.495.14-.495-.388v-.22c.018-.336-.099-.61-.476-.61-.396 0-.522.274-.513.636 0 .59-.009 1.181-.009 1.763zm-3.776.67c-.368-.97-.683-1.808-1.007-2.637-.116-.3-.296-.538-.674-.406-.368.133-.44.406-.305.75.485 1.225.98 2.46 1.474 3.685.09.23.243.406.53.406.261-.009.405-.167.495-.388.153-.37.296-.732.44-1.102.351-.873.702-1.746 1.043-2.619.126-.317.072-.59-.287-.714-.342-.123-.54.053-.675.335-.054.124-.099.247-.144.37-.287.723-.566 1.464-.89 2.32zm9.656.29h.764c.54-.009.692-.185.584-.714-.189-.943-1.007-1.56-1.933-1.472-.917.088-1.6.881-1.59 1.878.008.767.323 1.384 1.06 1.693.755.317 1.492.185 2.167-.283.215-.15.323-.352.152-.608-.152-.22-.35-.247-.584-.123a4.924 4.924 0 01-.485.238c-.459.176-1.007.009-1.196-.335-.09-.177-.08-.274.153-.274.305.01.602 0 .908 0zM6.87 8.08c.378 0 .819-.353.944-.706.126-.343-.134-.476-.341-.634a5.47 5.47 0 00-.477-.335c-.314-.22-.611-.239-.845.114-.135.194-.314.203-.512.124-.54-.238-.953-.609-1.196-1.138-.108-.238-.108-.45.144-.617.135-.088.27-.194.26-.388-.017-.256-.638-1.093-.88-1.182a.455.455 0 00-.306 0c-.575.194-.818.662-.584 1.208.683 1.65 1.888 2.796 3.542 3.492.099.027.198.044.251.062zm15.086-1.852c0 .459-.009.908 0 1.367.009.282.162.485.459.511.314.027.512-.167.539-.467.027-.265.045-.53.009-.794-.09-.74.045-1.331.917-1.534.207-.053.288-.23.243-.458-.045-.23-.19-.362-.423-.397a.611.611 0 00-.54.167c-.107.097-.17.168-.296-.008-.144-.203-.378-.203-.611-.106-.225.097-.306.264-.297.494v1.225zm-9 .177c0 .379.01.758 0 1.146-.008.335.145.555.486.564.342.009.513-.203.513-.538V5.205c0-.3-.135-.511-.477-.511-.35 0-.512.194-.512.529-.01.388-.01.785-.01 1.182zm-7.3-3.192c-.09.008-.269-.062-.278.132-.009.132.144.106.243.123 1.214.186 1.77.75 1.924 1.949.018.115-.027.273.135.282.17 0 .125-.159.125-.273.018-1.129-.988-2.17-2.148-2.213zm8.38.59c-.027-.326-.216-.52-.54-.546-.305-.036-.575.247-.566.546 0 .318.26.565.575.547.342-.018.495-.23.53-.547zm-6.824 1.42c.01-.697-.602-1.331-1.348-1.42-.117-.017-.27-.07-.297.089-.027.167.144.15.252.176.746.167 1.007.432 1.132 1.155.018.106-.018.273.162.247.135-.027.081-.168.1-.247zm-.575-.132c.009-.335-.387-.723-.72-.723-.08 0-.152.009-.18.088-.044.123.046.15.145.167.305.045.467.23.503.53.009.079.063.15.144.14.108-.017.117-.114.108-.202z" fill="#7C529D"/><path fill-rule="evenodd" clip-rule="evenodd" d="M14.395 5.65V3.885c0-.353.117-.635.513-.635.377 0 .494.274.476.609v.22c0 .53 0 .53.495.389.7-.203 1.375.053 1.717.688.395.741.44 1.491 0 2.232-.45.75-1.277.962-2.041.512-.126-.07-.17-.115-.279.018-.153.203-.368.238-.602.132-.234-.106-.288-.318-.288-.547.018-.618.01-1.235.01-1.853zm2.518.653c.009-.556-.306-.97-.738-.988-.45-.01-.773.38-.782.944-.009.538.324.98.737.988.44.018.774-.388.783-.944zm-6.293.017c.323-.855.61-1.596.89-2.329a6.25 6.25 0 01.143-.37c.135-.283.333-.46.674-.336.351.133.414.406.288.715-.341.874-.692 1.747-1.043 2.62-.144.371-.287.742-.44 1.104-.09.211-.234.379-.495.388-.287.009-.431-.177-.53-.406-.495-1.227-.98-2.453-1.475-3.688-.134-.344-.062-.618.306-.75.378-.133.558.106.674.406.324.847.639 1.685 1.007 2.647z" fill="#FAF9FB"/><path fill-rule="evenodd" clip-rule="evenodd" d="M20.275 6.612h-.899c-.234 0-.243.097-.153.273.18.344.738.503 1.196.336.17-.062.324-.15.485-.239.234-.123.432-.097.585.124.17.256.063.459-.153.609-.665.459-1.402.6-2.167.282-.737-.309-1.052-.926-1.06-1.694-.01-.988.674-1.791 1.59-1.88.927-.088 1.745.539 1.934 1.474.108.53-.045.706-.585.715-.27.009-.521 0-.773 0zm-.44-.662c.09 0 .18.009.27 0 .161-.026.43.097.476-.088.063-.238-.144-.433-.36-.538-.297-.142-.575-.115-.827.105-.135.124-.279.274-.216.45.063.16.261.053.396.08.08 0 .17-.009.26-.009z" fill="#F9F7F9"/><path fill-rule="evenodd" clip-rule="evenodd" d="M6.87 8.085c-.054-.017-.161-.026-.251-.07-1.655-.697-2.86-1.844-3.542-3.494-.234-.556.009-1.024.584-1.21a.454.454 0 01.306 0c.242.09.872.936.88 1.183.01.194-.125.3-.26.388-.252.168-.252.38-.144.618.243.538.656.9 1.196 1.138.198.089.377.08.512-.123.234-.353.53-.335.845-.115.162.106.324.22.477.335.206.16.467.3.341.636-.126.361-.566.714-.944.714z" fill="#FAF9FB"/><path fill-rule="evenodd" clip-rule="evenodd" d="M21.956 6.232V4.997c0-.23.081-.397.297-.494.234-.097.467-.088.611.106.126.176.189.106.297.009a.666.666 0 01.54-.168.482.482 0 01.422.397c.045.22-.036.406-.243.459-.872.203-.998.794-.917 1.535.027.256.018.53-.009.794-.036.3-.225.494-.54.468-.296-.018-.449-.23-.458-.512-.009-.45 0-.909 0-1.359z" fill="#F9F7F9"/><path fill-rule="evenodd" clip-rule="evenodd" d="M12.957 6.409V5.218c0-.336.162-.53.512-.53.342 0 .477.212.477.512.009.794 0 1.58 0 2.374 0 .335-.171.547-.513.538-.332-.01-.485-.23-.485-.565.018-.37.009-.759.009-1.138z" fill="#FAF9FB"/><path fill-rule="evenodd" clip-rule="evenodd" d="M5.657 3.215c1.16.035 2.167 1.085 2.149 2.214 0 .115.036.274-.126.274s-.117-.168-.135-.283c-.153-1.2-.71-1.764-1.924-1.95-.099-.017-.252.01-.243-.123.01-.194.19-.115.279-.132z" fill="#EFE9F3"/><path fill-rule="evenodd" clip-rule="evenodd" d="M14.036 3.806c-.036.317-.19.52-.53.547a.543.543 0 01-.576-.547c0-.31.27-.583.566-.547.324.035.513.22.54.547z" fill="#F9F7F9"/><path fill-rule="evenodd" clip-rule="evenodd" d="M7.212 5.226c-.009.079.036.22-.099.247-.18.026-.143-.142-.161-.247-.126-.732-.387-.997-1.133-1.156-.108-.026-.279-.009-.252-.176.027-.159.18-.106.297-.088.737.088 1.348.723 1.348 1.42z" fill="#EFE9F3"/><path fill-rule="evenodd" clip-rule="evenodd" d="M6.637 5.095c0 .088-.01.185-.117.203-.081.009-.135-.053-.144-.142-.027-.3-.189-.477-.503-.53-.09-.017-.18-.044-.144-.167.027-.08.108-.089.18-.089.35 0 .737.389.728.725z" fill="#EFE9F3"/><path fill-rule="evenodd" clip-rule="evenodd" d="M16.913 6.302c-.01.556-.342.962-.783.944-.422-.009-.746-.45-.737-.988.01-.555.333-.952.782-.943.423.017.747.44.738.987zm2.922-.352c-.09 0-.18.009-.27 0-.135-.018-.342.088-.396-.08-.063-.176.081-.326.216-.45.252-.22.53-.247.827-.105.225.105.423.3.36.538-.045.185-.306.061-.477.088-.08.018-.17.009-.26.009z" fill="#7C529D"/></svg>