<svg width="55" height="19" fill="none" xmlns="http://www.w3.org/2000/svg"><path fill-rule="evenodd" clip-rule="evenodd" d="M48.112 11.209c4.658-2.282 7.253-4.877 6.846-7.034-.812-4.533-14.505-5.252-28.667-2.751C19.819 2.58 13.629 4.3 9.44 6.019h.374c1.814.063 1.689 1.188 1.689 1.188v.688h-1.439v-.469c0-.344-.406-.344-.406-.344-.313 0-.375.22-.375.22-.156.312.125.593.125.593.156.157.906.5.906.5.25.094.626.344.626.344.719.438.656 1.282.656 1.282v.563c-.093 1.375-1.97 1.344-1.97 1.344-1.969 0-1.938-1.313-1.938-1.313v-.688H9.22v.47c0 .406.375.406.375.406.407.03.47-.376.47-.376.062-.406-.376-.656-.376-.656-.437-.219-1.156-.594-1.156-.594a1.909 1.909 0 01-.5-.438c-.25-.312-.25-.813-.25-.813V7.49c0-.594.156-.782.156-.782s0-.031.03-.031C2.813 9.052-.344 11.834.03 14.116c.813 4.627 13.724 5.221 28.95 2.877 7.002-1.063 13.098-3.064 17.694-5.127h-.094s-1.876.156-1.907-1.345V7.614s-.219-1.595 1.844-1.595c0 0 1.345-.03 1.72.75 0 0 .188.22.125 1.095h-1.438v-.469s0-.375-.375-.375c0 0-.407.031-.407.312v3.002s-.03.406.438.406c0 0 .375 0 .375-.438v-.875h-.406v-.813h1.844v1.72s0 .344-.156.562c.094.063-.063.282-.125.313zm-5.315.5h-1.72l-1.531-3.345h-.063l.094 3.345H38.14V6.24h1.75l1.47 3.313h.063l-.094-3.314h1.438v5.471h.031zm-8.94-1.375c0 .469.437.437.437.437.406 0 .406-.437.406-.437V6.207h1.532v4.19c0 1.5-1.907 1.5-1.907 1.5-2.188 0-2.032-1.563-2.032-1.563V6.207h1.563v4.127zM29.01 7.895v-.469c0-.344-.407-.344-.407-.344-.313 0-.375.22-.375.22-.156.312.125.593.125.593.156.157.907.5.907.5.25.094.625.344.625.344.719.438.656 1.282.656 1.282v.563c-.093 1.375-1.97 1.344-1.97 1.344-1.969 0-1.937-1.313-1.937-1.313v-.688h1.531v.47c0 .406.376.406.376.406.406.03.468-.376.468-.376.063-.406-.375-.656-.375-.656-.437-.219-1.156-.594-1.156-.594-.344-.219-.5-.438-.5-.438-.25-.312-.25-.813-.25-.813V7.49c0-.594.156-.782.156-.782.406-.781 1.844-.688 1.844-.688 1.813.063 1.688 1.188 1.688 1.188v.688H29.01zm-7.566-1.688l.469 3.001h.125l.469-3.001h2.376l.156 5.502h-1.438l-.031-4.126h-.094l-.75 4.126h-1.5l-.751-4.126h-.125l-.031 4.126H18.88l.125-5.502h2.439zm-5.596 5.502l-.563-4.251h-.125l-.563 4.251h-1.563l.938-5.47h2.439l.938 5.47h-1.501z" fill="#222"/></svg>