<svg width="55" height="15" fill="none" xmlns="http://www.w3.org/2000/svg"><g clip-path="url(#clip0)" fill-rule="evenodd" clip-rule="evenodd" fill="#222"><path d="M10.982 1.167c-.715-.216-1.233.574-.81 1.035 1.883.998 3.153 2.955 3.153 5.185 0 3.256-2.691 5.91-6.003 5.91h-.057c-3.284-.029-5.947-2.673-5.947-5.91 0-2.193 1.233-4.122 3.059-5.138.385-.536-.057-1.176-.669-1.11C1.498 2.38.001 4.715.001 7.387c0 3.943 3.256 7.17 7.264 7.198h.057c4.027 0 7.32-3.237 7.32-7.198 0-2.654-1.477-4.978-3.66-6.22zm6.784 9.806h1.421V4.386h-1.42v6.587z"/><path d="M7.265 1.967c.01 0 .01.01.02.01a.988.988 0 100-1.976h-.02a.99.99 0 00-.969.987c0 .537.433.97.97.979zm16.561 2.419h-3.218v6.587h1.421V5.675h1.638c.837 0 1.411.414 1.392 1.383v3.915h1.421v-4.32c0-1.439-1.204-2.267-2.654-2.267zM7.265 3.51a.78.78 0 00-.78.781v6.766c0 .423.348.771.78.771a.783.783 0 00.781-.771V4.29a.785.785 0 00-.78-.78zm30.375.706c-1.713.075-2.814 1.214-2.984 3.388-.112 1.656.781 3.387 2.983 3.538a.76.76 0 00.15.01c.998.009 1.676-.076 2.334-.32l.02-1.243c-.866.348-1.77.461-2.504.32-.875-.16-1.496-.696-1.468-1.618h4.189c.545-2.447-.744-4.065-2.72-4.075zm1.57 2.908h-3.133v-.02c0-.968.706-1.75 1.562-1.75.866 0 1.572.782 1.572 1.75v.02zm8.582 3.849h1.421V4.386h-1.42v6.587zm-3.443-3.811c-2.381-.405-1.779-2.418 1.844-1.477V4.518c-1.007-.32-2.625-.405-3.491 0-1.788.875-1.656 3.613 1.308 3.914 1.929.235 1.618 2.456-2.447 1.148v1.29c1.28.357 2.88.507 3.99 0 .734-.452 1.017-1.064 1.026-1.666.028-1.054-.668-1.807-2.23-2.042zm9.015-2.776h-3.058v1.299h1.637v5.288h1.421V5.685h1.637V4.386h-1.637zm-22.556.047a4.597 4.597 0 00-.64-.037h-2.23v6.586h2.258c.216 0 .424-.01.612-.037 2.343-.254 2.87-1.976 2.86-3.153-.01-1.816-.95-3.133-2.86-3.359zm0 5.241a3.206 3.206 0 01-.715.076h-.753V5.619h.734c.273 0 .517.028.734.084.969.245 1.449 1.017 1.458 2.052.01.677-.273 1.646-1.458 1.92z"/></g><defs><clipPath id="clip0"><path fill="#fff" d="M0 0h55v14.585H0z"/></clipPath></defs></svg>