<svg width="223" height="59" fill="none" xmlns="http://www.w3.org/2000/svg"><path fill-rule="evenodd" clip-rule="evenodd" d="M0 7.487C0 3.352 3.328 0 7.433 0h37.065c4.106 0 7.434 3.352 7.434 7.487v43.87c0 4.135-3.328 7.487-7.434 7.487H7.433C3.328 58.844 0 55.492 0 51.357V7.487zm38.653 25.83c0 7.236-5.824 13.102-13.008 13.102-7.184 0-13.008-5.866-13.008-13.102 0-7.236 5.824-13.102 13.008-13.102 7.184 0 13.008 5.866 13.008 13.101zm1.487 0c0 8.063-6.49 14.599-14.495 14.599-8.005 0-14.495-6.536-14.495-14.6 0-8.063 6.49-14.599 14.495-14.599 8.005 0 14.495 6.537 14.495 14.6zm3.717 0c0 10.13-8.154 18.342-18.212 18.342S7.433 43.447 7.433 33.316c0-10.13 8.154-18.342 18.212-18.342s18.212 8.212 18.212 18.342zM11.685 8.281c0 1.926-1.55 3.487-3.463 3.487-1.912 0-3.462-1.561-3.462-3.487 0-1.926 1.55-3.487 3.462-3.487 1.913 0 3.463 1.561 3.463 3.487zm6.491 3.487c1.912 0 3.462-1.561 3.462-3.487 0-1.926-1.55-3.487-3.462-3.487-1.912 0-3.462 1.561-3.462 3.487 0 1.926 1.55 3.487 3.462 3.487z" fill="#00BFFE"/><path fill-rule="evenodd" clip-rule="evenodd" d="M18.063 32.742c-.71 1.179-3.549-1.36-3.105-2.177.443-.816 2.324-2.43 3.105-2.72-.62-1.088 1.065-3.446 3.283-2.902 1.952-3.264 6.3-1.36 6.211-.544-.03.288-.503.316-1.15.356-1.193.072-2.983.181-3.73 2.002l4.454 4.552c.69-.7 1.315-1.342 1.745-1.804.109-.116.19-.197.257-.263.15-.148.222-.22.344-.44.22-.4.29-1.14.29-1.14s.015-.361.044-.536c.25-1.548 1.566-2.728 3.15-2.728.326 0 .821.12 1.117.212l-2.674 2.733 1.882 1.924 2.674-2.733c.127.352.196.732.196 1.129 0 1.62-1.155 2.964-2.669 3.22-.17.03-.525.044-.525.044s-.83-.01-1.255.26c-.123.078-.238.21-.367.358a5.82 5.82 0 01-.226.247l-1.755 1.794 4.675 4.778s.552.375.622.997c.081.731-.25 1.033-.683 1.426l-.027.025a4.026 4.026 0 00-.252.257c-.275.299-.514.558-1.08.469-.636-.1-1.064-.726-1.064-.726l-4.595-4.77-1.738 1.778s-.23.193-.342.349c-.264.372-.258.86-.255 1.182l.001.1c0 .259-.029.51-.085.751-.332 1.441-1.598 2.514-3.109 2.514-.388 0-.76-.07-1.105-.2l2.709-2.769-1.882-1.923-2.709 2.768c-.09-.302-.207-.809-.207-1.14 0-1.582 1.1-2.902 2.562-3.201a3.14 3.14 0 01.632-.064c.253 0 .742-.038 1.113-.298a.901.901 0 00.198-.18c.042-.048.098-.112.203-.215a607.41 607.41 0 001.782-1.768l-4.442-4.611c-1.49.487-1.659 1.425-1.824 2.345-.08.45-.16.895-.394 1.282z" fill="#00BFFE"/><path d="M82.138 51.742c0-1.023-.359-1.805-1.076-2.347-.716-.553-2.007-1.131-3.871-1.733-1.865-.614-3.34-1.216-4.428-1.805-2.963-1.613-4.445-3.786-4.445-6.518 0-1.42.394-2.684 1.183-3.791.8-1.12 1.942-1.992 3.424-2.618 1.493-.626 3.166-.939 5.019-.939 1.864 0 3.525.343 4.983 1.03 1.458.673 2.587 1.63 3.387 2.87.813 1.24 1.22 2.648 1.22 4.224h-5.378c0-1.203-.377-2.136-1.13-2.798-.752-.674-1.81-1.01-3.172-1.01-1.315 0-2.336.282-3.065.848-.73.553-1.094 1.288-1.094 2.202 0 .855.425 1.57 1.273 2.149.86.577 2.121 1.119 3.782 1.624 3.06.927 5.288 2.077 6.686 3.449 1.398 1.372 2.097 3.081 2.097 5.127 0 2.275-.854 4.062-2.563 5.362C83.261 58.356 80.96 59 78.07 59c-2.008 0-3.836-.367-5.485-1.101-1.65-.747-2.91-1.764-3.782-3.051-.86-1.288-1.29-2.78-1.29-4.478h5.395c0 2.9 1.72 4.351 5.162 4.351 1.279 0 2.276-.259 2.993-.776.718-.53 1.076-1.264 1.076-2.203zm26.516-4.495H98.33v7.04h12.117v4.352H92.952V32.352h17.459v4.387H98.33v6.265h10.324v4.243zm16.371 1.769h-4.284v9.623h-5.377V32.352h9.697c3.083 0 5.461.692 7.134 2.077 1.673 1.384 2.51 3.34 2.51 5.867 0 1.793-.389 3.292-1.165 4.495-.765 1.192-1.93 2.143-3.496 2.853l5.647 10.742v.253h-5.772l-4.894-9.623zm-4.284-4.387h4.338c1.35 0 2.396-.343 3.137-1.03.741-.697 1.111-1.654 1.111-2.87 0-1.24-.352-2.214-1.057-2.924-.693-.71-1.763-1.066-3.209-1.066h-4.32v7.89zm29.116 7.492l5.915-19.769h5.987l-9.088 26.287h-5.61l-9.053-26.287h5.969l5.88 19.77zm21.856 6.518h-5.378V32.352h5.378V58.64zm27.251-8.756c-.203 2.828-1.243 5.055-3.119 6.68-1.864 1.624-4.326 2.437-7.385 2.437-3.346 0-5.981-1.131-7.905-3.394-1.912-2.275-2.868-5.392-2.868-9.352v-1.607c0-2.527.442-4.754 1.327-6.68.884-1.926 2.145-3.4 3.782-4.423 1.649-1.035 3.561-1.553 5.736-1.553 3.011 0 5.437.813 7.277 2.438 1.841 1.624 2.904 3.905 3.191 6.842h-5.378c-.131-1.697-.603-2.925-1.416-3.683-.8-.77-2.025-1.156-3.674-1.156-1.793 0-3.137.65-4.033 1.95-.885 1.288-1.339 3.292-1.363 6.012v1.986c0 2.84.425 4.917 1.273 6.229.86 1.312 2.211 1.968 4.051 1.968 1.661 0 2.898-.38 3.711-1.138.824-.77 1.296-1.956 1.416-3.556h5.377zm20.996-2.636h-10.325v7.04h12.117v4.352h-17.495V32.352h17.459v4.387h-12.081v6.265h10.325v4.243zM76.779 15.743l-2.796 3.033v7.51h-5.378V0h5.377v11.916l2.367-3.268L82.999 0h6.614l-9.267 11.68 9.536 14.607h-6.4L76.78 15.743zm36.553 10.544h-5.377V15.02H97.468v11.266h-5.377V0h5.377v10.652h10.487V0h5.377v26.287zm19.955-5.417h-9.429l-1.792 5.417h-5.718L126.063 0h4.983l9.769 26.287h-5.718l-1.81-5.417zm-7.977-4.387h6.525l-3.28-9.84-3.245 9.84zm27.788.181h-4.284v9.623h-5.377V0h9.697c3.083 0 5.461.692 7.134 2.076 1.673 1.384 2.51 3.34 2.51 5.868 0 1.793-.389 3.292-1.166 4.495-.764 1.192-1.929 2.143-3.495 2.853l5.646 10.742v.253h-5.771l-4.894-9.623zm-4.284-4.387h4.338c1.35 0 2.396-.343 3.137-1.03.741-.697 1.111-1.654 1.111-2.87 0-1.24-.352-2.215-1.057-2.925-.694-.71-1.763-1.065-3.209-1.065h-4.32v7.89zm26.426 3.466l-2.797 3.033v7.51h-5.377V0h5.377v11.916l2.366-3.268L181.46 0h6.614l-9.267 11.68 9.536 14.607h-6.399l-6.704-10.544zm21.03 10.544h-5.378V0h5.378v26.287zm14.828-6.517L217.013 0H223l-9.088 26.287h-5.61L199.25 0h5.969l5.879 19.77z" fill="#00BFFE"/></svg>