<svg width="220" height="58" fill="none" xmlns="http://www.w3.org/2000/svg"><path fill-rule="evenodd" clip-rule="evenodd" d="M0 7.36C0 3.295 3.283 0 7.333 0H43.9c4.05 0 7.333 3.295 7.333 7.36v43.127c0 4.064-3.283 7.36-7.333 7.36H7.333C3.283 57.846 0 54.55 0 50.486V7.36zm38.133 25.392c0 7.113-5.745 12.88-12.833 12.88s-12.833-5.767-12.833-12.88c0-7.114 5.745-12.88 12.833-12.88s12.833 5.766 12.833 12.88zm1.467 0c0 7.926-6.402 14.352-14.3 14.352-7.898 0-14.3-6.426-14.3-14.352C11 24.825 17.402 18.4 25.3 18.4c7.898 0 14.3 6.425 14.3 14.352zm3.667 0c0 9.959-8.044 18.032-17.967 18.032-9.923 0-17.967-8.073-17.967-18.032S15.377 14.72 25.3 14.72c9.923 0 17.967 8.073 17.967 18.032zm-31.74-24.61a3.422 3.422 0 01-3.415 3.427 3.422 3.422 0 01-3.416-3.428 3.422 3.422 0 013.416-3.427 3.422 3.422 0 013.415 3.427zm6.405 3.427a3.422 3.422 0 003.415-3.428 3.422 3.422 0 00-3.415-3.427 3.422 3.422 0 00-3.416 3.427 3.422 3.422 0 003.416 3.428z" fill="#222"/><path fill-rule="evenodd" clip-rule="evenodd" d="M17.82 32.187c-.7 1.159-3.501-1.337-3.063-2.14.437-.802 2.293-2.389 3.063-2.674-.613-1.07 1.05-3.387 3.239-2.853 1.926-3.209 6.214-1.337 6.127-.534-.03.282-.496.31-1.135.35-1.176.07-2.942.177-3.68 1.967l4.395 4.475a99.77 99.77 0 001.722-1.773c.107-.114.187-.194.253-.258.148-.147.22-.217.34-.433.217-.394.286-1.12.286-1.12s.015-.356.043-.528c.247-1.521 1.544-2.681 3.108-2.681.32 0 .81.118 1.101.208l-2.638 2.687 1.857 1.89 2.638-2.686c.125.346.194.72.194 1.11 0 1.593-1.14 2.914-2.633 3.166-.169.028-.519.043-.519.043s-.819-.01-1.238.255c-.12.077-.235.207-.362.352-.07.079-.142.162-.222.243l-1.732 1.764 4.613 4.697s.544.368.612.98c.081.719-.247 1.016-.673 1.402l-.027.025a3.99 3.99 0 00-.248.252c-.271.293-.507.548-1.065.46-.629-.098-1.05-.712-1.05-.712l-4.533-4.69-1.716 1.748s-.227.19-.336.343c-.261.366-.256.846-.252 1.162l.001.099c0 .254-.029.5-.084.738-.327 1.416-1.576 2.47-3.067 2.47-.383 0-.75-.069-1.09-.196l2.672-2.721-1.857-1.892-2.672 2.722c-.089-.297-.204-.795-.204-1.121 0-1.555 1.086-2.852 2.528-3.147.201-.04.41-.063.623-.063.25 0 .732-.037 1.097-.292.104-.073.136-.11.196-.177.042-.048.097-.11.2-.212.389-.383 1.029-1.014 1.759-1.738l-4.382-4.533c-1.47.48-1.637 1.401-1.8 2.306-.08.442-.16.88-.389 1.26z" fill="#222"/><path d="M81.033 50.865c0-1.005-.354-1.774-1.061-2.307-.707-.544-1.98-1.112-3.82-1.703-1.839-.604-3.295-1.196-4.368-1.775-2.923-1.586-4.385-3.721-4.385-6.407 0-1.397.389-2.639 1.167-3.727.79-1.1 1.916-1.959 3.377-2.574 1.474-.615 3.125-.923 4.952-.923 1.84 0 3.478.337 4.916 1.012 1.438.662 2.552 1.603 3.342 2.822.802 1.218 1.203 2.603 1.203 4.153H81.05c0-1.183-.372-2.1-1.114-2.751-.743-.663-1.787-.994-3.13-.994-1.297 0-2.305.278-3.024.834-.72.544-1.08 1.266-1.08 2.165 0 .84.42 1.544 1.257 2.112.848.568 2.092 1.1 3.73 1.598 3.019.91 5.218 2.04 6.597 3.39 1.38 1.348 2.069 3.029 2.069 5.04 0 2.236-.843 3.993-2.529 5.271-1.686 1.266-3.955 1.9-6.808 1.9-1.98 0-3.785-.362-5.412-1.083-1.626-.734-2.87-1.734-3.73-3-.85-1.266-1.274-2.733-1.274-4.401h5.323c0 2.851 1.698 4.277 5.093 4.277 1.261 0 2.246-.255 2.953-.763.707-.52 1.061-1.243 1.061-2.166zm26.16-4.419H97.007v6.922h11.954v4.277h-17.26v-25.84h17.225v4.312h-11.92v6.159h10.187v4.17zm16.15 1.74h-4.226v9.46h-5.305V31.803h9.567c3.041 0 5.387.68 7.038 2.041 1.65 1.36 2.476 3.284 2.476 5.768 0 1.763-.384 3.236-1.15 4.42-.754 1.17-1.904 2.106-3.448 2.804l5.57 10.56v.248h-5.694l-4.828-9.46zm-4.226-4.313h4.279c1.333 0 2.364-.337 3.095-1.012.731-.686 1.096-1.627 1.096-2.822 0-1.218-.347-2.177-1.043-2.875-.684-.698-1.739-1.047-3.165-1.047h-4.262v7.756zm28.724 7.365l5.835-19.434h5.907l-8.966 25.841h-5.535l-8.93-25.84h5.889l5.8 19.433zm21.562 6.407h-5.305v-25.84h5.305v25.84zm26.884-8.607c-.2 2.78-1.226 4.969-3.077 6.566-1.839 1.598-4.267 2.396-7.285 2.396-3.301 0-5.901-1.112-7.799-3.336-1.886-2.237-2.829-5.301-2.829-9.194v-1.58c0-2.484.436-4.673 1.308-6.566.873-1.893 2.117-3.343 3.732-4.349 1.627-1.017 3.513-1.526 5.659-1.526 2.97 0 5.364.799 7.179 2.396 1.816 1.598 2.865 3.84 3.148 6.727h-5.305c-.13-1.669-.596-2.876-1.397-3.62-.79-.758-1.999-1.137-3.625-1.137-1.769 0-3.095.64-3.979 1.917-.873 1.266-1.321 3.236-1.344 5.91v1.952c0 2.793.418 4.834 1.255 6.123.849 1.29 2.181 1.935 3.997 1.935 1.638 0 2.859-.373 3.66-1.118.814-.757 1.279-1.923 1.397-3.496h5.305zm20.714-2.592h-10.186v6.922h11.954v4.277H201.51v-25.84h17.224v4.312h-11.919v6.159h10.186v4.17zM75.746 15.476l-2.759 2.982v7.383h-5.305V0h5.305v11.714L75.321 8.5 81.882 0h6.525l-9.142 11.483 9.407 14.358H82.36l-6.613-10.365zm36.061 10.365h-5.305V14.766H96.157v11.075h-5.305V0h5.305v10.471h10.345V0h5.305v25.841zm19.686-5.324h-9.301l-1.769 5.324h-5.641L124.367 0h4.916l9.638 25.841h-5.641l-1.787-5.324zm-7.869-4.313h6.437l-3.236-9.673-3.201 9.673zm27.414.177h-4.226v9.46h-5.305V0h9.567c3.041 0 5.387.68 7.038 2.041 1.65 1.36 2.476 3.283 2.476 5.768 0 1.763-.384 3.236-1.15 4.42-.754 1.17-1.904 2.106-3.448 2.804l5.57 10.56v.248h-5.694l-4.828-9.46zm-4.226-4.312h4.279c1.333 0 2.364-.338 3.095-1.012.731-.686 1.096-1.627 1.096-2.822 0-1.219-.347-2.177-1.043-2.875-.684-.698-1.739-1.047-3.165-1.047h-4.262v7.756zm26.07 3.407l-2.759 2.982v7.383h-5.305V0h5.305v11.714l2.335-3.213L179.018 0h6.526l-9.143 11.483 9.408 14.358h-6.313l-6.614-10.365zm20.747 10.365h-5.305V0h5.305v25.841zm14.629-6.407L214.094 0H220l-8.966 25.841h-5.535L196.569 0h5.889l5.8 19.434z" fill="#222"/></svg>