<svg xmlns="http://www.w3.org/2000/svg" xmlns:xlink="http://www.w3.org/1999/xlink"><defs>
<clipPath id="clip0">
<rect width="55" height="14.8622" fill="white"/>
</clipPath>

<clipPath id="clip0">
<rect width="55" height="11.9457" fill="white"/>
</clipPath>

<clipPath id="clip0">
<rect width="55" height="8.68119" fill="white"/>
</clipPath>

<clipPath id="clip0">
<rect width="55" height="11.2745" fill="white"/>
</clipPath>

<clipPath id="clip0">
<rect width="55" height="12.6274" fill="white"/>
</clipPath>

<clipPath id="clip0">
<rect width="55" height="8.40829" fill="white"/>
</clipPath>

<clipPath id="clip0">
<rect width="75" height="16.7082" fill="white"/>
</clipPath>

<clipPath id="clip0">
<rect width="75" height="13.2287" fill="white"/>
</clipPath>

<clipPath id="clip0">
<rect width="55" height="9.98991" fill="white"/>
</clipPath>

<clipPath id="clip0">
<rect width="55" height="14.1132" fill="white"/>
</clipPath>

<clipPath id="clip0">
<rect width="55" height="14.957" fill="white"/>
</clipPath>

<clipPath id="clip0">
<rect width="55" height="22.9574" fill="white"/>
</clipPath>

<clipPath id="clip0">
<rect width="55" height="24.1071" fill="white"/>
</clipPath>

<clipPath id="clip0">
<rect width="55" height="16.9397" fill="white"/>
</clipPath>

<clipPath id="clip0">
<rect width="55" height="12.3329" fill="white"/>
</clipPath>

<clipPath id="clip0">
<rect width="55" height="14.5851" fill="white"/>
</clipPath>
</defs><symbol id="ico-arrow-left" viewBox="0 0 11 12">
<path d="M0.46967 5.46967C0.176777 5.76256 0.176777 6.23744 0.46967 6.53033L5.24264 11.3033C5.53553 11.5962 6.01041 11.5962 6.3033 11.3033C6.59619 11.0104 6.59619 10.5355 6.3033 10.2426L2.06066 6L6.3033 1.75736C6.59619 1.46447 6.59619 0.989593 6.3033 0.6967C6.01041 0.403806 5.53553 0.403806 5.24264 0.6967L0.46967 5.46967ZM11 5.25L1 5.25L1 6.75L11 6.75L11 5.25Z" fill="#00BFFE"/>
</symbol><symbol id="ico-arrow" viewBox="0 0 12 11">
<path d="M6.53033 0.46967C6.23744 0.176777 5.76256 0.176777 5.46967 0.46967L0.696699 5.24264C0.403806 5.53553 0.403806 6.01041 0.696699 6.3033C0.989593 6.59619 1.46447 6.59619 1.75736 6.3033L6 2.06066L10.2426 6.3033C10.5355 6.59619 11.0104 6.59619 11.3033 6.3033C11.5962 6.01041 11.5962 5.53553 11.3033 5.24264L6.53033 0.46967ZM6.75 11L6.75 1L5.25 1L5.25 11L6.75 11Z" fill="#00BFFE"/>
</symbol><symbol id="ico-brand-1" viewBox="0 0 55 18">
<path d="M51.39 0.704506C51.3302 0.745255 51.2588 0.764948 51.1899 0.761654C51.1547 0.759935 51.12 0.75256 51.0542 0.7295C50.9883 0.70644 50.8917 0.667912 50.7946 0.630671C50.697 0.593431 50.5986 0.557552 50.0642 0.453926C49.5296 0.3503 48.5586 0.179285 47.5858 0.188522C46.613 0.197762 45.6381 0.387541 44.7199 0.72814C43.8022 1.0686 42.9409 1.55958 42.2163 2.12305C41.4917 2.6863 40.9037 3.3218 40.419 4.02735C39.9339 4.73318 39.5521 5.50906 39.2916 6.32353C39.0311 7.138 38.8921 7.99115 38.8741 8.82231C38.8561 9.65389 38.9591 10.4631 39.1833 11.2377C39.4075 12.0122 39.753 12.7521 40.2073 13.4154C40.6618 14.0787 41.2252 14.6648 41.7199 15.0907C42.2142 15.5159 42.6397 15.7809 43.0799 16.0153C43.5199 16.2504 43.9743 16.4561 44.4418 16.6278C44.909 16.7995 45.3892 16.9382 46.0693 17.0536C46.7496 17.1691 47.63 17.2611 48.5098 17.2486C49.3895 17.2367 50.2689 17.1194 51.1215 16.9011C51.9737 16.6828 52.7995 16.3634 53.4472 16.0602C54.0952 15.757 54.5653 15.4693 54.9092 15.2414C55.2531 15.0135 55.4711 14.8448 55.5973 14.739C55.7239 14.633 55.7585 14.59 55.7869 14.5427C55.8153 14.4955 55.8374 14.4447 55.8521 14.3921C55.8664 14.3395 55.873 14.2844 55.8787 14.2001C55.8847 14.1151 55.8894 14.0015 55.8688 13.8927C55.8485 13.7844 55.8026 13.6809 55.7238 13.5888C55.6448 13.4962 55.533 13.4147 55.46 13.3519C55.3134 13.2246 55.2981 13.1528 55.2649 13.0493C55.2518 12.9967 55.2473 12.9422 55.247 12.8878L55.2399 10.7082C55.2389 10.554 55.2725 10.3902 55.3541 10.2346C55.3921 10.1621 55.439 10.094 55.4935 10.0331L55.9707 9.49599C56.1223 9.32318 56.1917 9.09645 56.1807 8.88354C56.175 8.77304 56.148 8.66375 56.1017 8.56313C56.0556 8.46273 55.9898 8.37135 55.9093 8.29544C55.74 8.13452 55.5179 8.05653 55.3071 8.05739L49.6998 8.05811C49.6063 8.05811 49.5134 8.07959 49.4259 8.11404C49.3392 8.14856 49.2581 8.19854 49.1886 8.26085C49.1189 8.32322 49.0603 8.39799 49.0161 8.48049C48.9284 8.6442 48.9 8.84042 48.9404 9.02519C48.9603 9.11664 48.9962 9.20451 49.0464 9.2835C49.0967 9.36242 49.1601 9.43368 49.2351 9.4899C49.4445 9.69321 49.7071 9.83558 49.8518 9.95819C49.9968 10.0814 50.0543 10.1477 50.101 10.2219C50.1973 10.3733 50.2395 10.5491 50.2365 10.7201L50.2355 13.6138C50.2355 13.7358 50.2176 13.8578 50.1805 13.9744C50.1434 14.0904 50.0877 14.2011 50.0162 14.2998C49.9448 14.3991 49.8578 14.4869 49.7597 14.5605C49.6616 14.6341 49.5528 14.6939 49.2977 14.7604C49.0429 14.8273 48.6416 14.9003 48.2397 14.8997C47.8377 14.8991 47.4349 14.8243 47.0552 14.6861C46.6756 14.548 46.3191 14.3458 46.0085 14.0892C45.6978 13.8333 45.4326 13.5222 45.233 13.2161C45.0336 12.9093 44.8997 12.606 44.7806 12.298C44.6619 11.9906 44.5578 11.6778 44.4708 11.3602C44.3834 11.0431 44.3133 10.7208 44.2564 10.1831C44.1999 9.64595 44.1565 8.89328 44.2193 8.14841C44.2821 7.40355 44.4502 6.66606 44.7105 5.96216C44.9711 5.25819 45.3233 4.58788 45.6541 4.1115C45.9846 3.63512 46.2932 3.35267 46.6426 3.13582C47.3341 2.70327 48.2009 2.5354 49.0076 2.70635C49.4075 2.79007 49.7888 2.95485 50.1895 3.19154C50.5903 3.42808 51.0104 3.73652 51.4213 4.0555C51.8322 4.37447 52.2338 4.70397 52.6226 5.04779C52.7063 5.13373 52.805 5.20534 52.9126 5.25841C53.1252 5.36318 53.3773 5.39426 53.6142 5.33912C53.7314 5.31205 53.8436 5.26492 53.945 5.20026C54.0461 5.13573 54.1361 5.05359 54.2096 4.95884C54.363 4.76219 54.4369 4.52013 54.4315 4.2881C54.4093 3.88763 54.3313 3.48065 54.1913 3.08218C54.1228 2.88825 54.049 2.69475 53.946 2.51671L52.6712 0.310339C52.632 0.242735 52.5809 0.182007 52.5199 0.133165C52.3315 -0.012785 52.0926 -0.046587 51.8575 0.0667782C51.787 0.101799 51.7227 0.149637 51.667 0.230705C51.6115 0.311701 51.5647 0.426067 51.5337 0.499115C51.5025 0.572163 51.4871 0.604246 51.4662 0.632462C51.4453 0.660463 51.4193 0.685026 51.3901 0.704865L51.39 0.704506ZM31.4526 10.1494C31.5136 10.1972 31.5662 10.2558 31.6318 10.3508C31.6969 10.4467 31.775 10.5789 31.85 10.6883C31.9248 10.7977 31.9965 10.8838 32.0832 10.9521C32.2607 11.0908 32.4944 11.1482 32.7111 11.1189C32.8214 11.1046 32.9288 11.0681 33.0254 11.0129C33.1216 10.9574 33.2107 10.8857 33.2757 10.7952L35.2719 8.02488C35.3989 7.84348 35.4494 7.61775 35.4285 7.40584C35.4178 7.29778 35.3882 7.19157 35.3412 7.09367C35.2942 6.99592 35.23 6.90604 35.1525 6.83006C34.8938 6.58371 34.5708 6.50994 34.2499 6.59488C34.1462 6.62438 34.0484 6.67308 33.8388 6.80528C33.6298 6.93748 33.3089 7.15304 33.0939 7.29033C32.8785 7.42776 32.769 7.48662 32.6549 7.53382C32.4225 7.62706 32.1754 7.68263 31.9321 7.68851H26.821L26.8191 2.93602L31.9457 2.93408C32.3156 2.93136 32.6993 2.99016 33.0704 3.13432C33.2493 3.20321 33.4236 3.28564 33.5836 3.39106L35.1367 4.41393C35.4072 4.59991 35.7378 4.6302 36.0509 4.38192C36.1836 4.26397 36.3308 4.07927 36.4342 3.92215C36.5758 3.69606 36.5975 3.4775 36.5219 3.2411C36.4965 3.16769 36.4588 3.09923 36.4146 3.0352L34.9788 0.959238C34.9064 0.854395 34.8196 0.759291 34.7189 0.681446C34.5086 0.519382 34.2553 0.433517 34.0102 0.431799L21.1891 0.452566C21.0786 0.452637 20.9668 0.441109 20.861 0.473335C20.7552 0.505346 20.657 0.56278 20.5721 0.635183C20.4872 0.707943 20.4157 0.795671 20.3626 0.893497C20.2575 1.08593 20.2254 1.32118 20.2811 1.54068C20.3082 1.64846 20.3557 1.7513 20.4202 1.84196C20.4847 1.9327 20.5645 2.01391 20.6591 2.0722L21.1891 2.39905C21.2513 2.43744 21.3082 2.48485 21.3547 2.54142C21.4518 2.6593 21.4987 2.80611 21.4984 2.94676L21.5043 14.3328C21.5045 14.4405 21.4862 14.5481 21.448 14.6492C21.3713 14.8424 21.2547 14.9889 20.9937 15.1307C20.8701 15.2 20.7119 15.276 20.5859 15.3501C20.4598 15.4236 20.3654 15.4954 20.2895 15.5834C20.132 15.7658 20.0613 16.0086 20.0795 16.2348C20.0884 16.3514 20.1204 16.4668 20.1732 16.5715C20.2257 16.6761 20.299 16.7707 20.3874 16.8472C20.571 17.0105 20.8107 17.0757 21.0363 17.0686L33.8825 17.0703C34.0231 17.0703 34.164 17.0553 34.2988 17.0152C34.4338 16.9751 34.562 16.9142 34.6778 16.834C34.7935 16.7545 34.8997 16.6587 34.9819 16.5446L36.5196 14.4154C36.6892 14.1767 36.731 13.889 36.6201 13.6037C36.5845 13.5158 36.5343 13.4339 36.4721 13.3615C36.4098 13.2898 36.3356 13.2282 36.231 13.1731C36.0211 13.0601 35.7056 12.9978 35.4314 13.0726C35.2944 13.1068 35.1695 13.1755 35.0492 13.2502L33.3454 14.3083C33.054 14.4894 32.6998 14.5415 32.367 14.6079C32.0345 14.6749 31.692 14.7102 31.349 14.7096L26.8193 14.7L26.8212 10.0414H31.2482C31.3256 10.0415 31.3918 10.1025 31.4528 10.1497L31.4526 10.1494ZM1.20066 14.6277C1.16271 14.6953 1.11666 14.7587 1.06417 14.8161C0.948008 14.9411 0.816811 15.0266 0.682534 15.0769L-0.472251 15.4925C-0.583827 15.5327 -0.688459 15.593 -0.778336 15.6702C-0.868069 15.7479 -0.943477 15.8424 -0.998118 15.947C-1.05269 16.0517 -1.0867 16.1672 -1.1011 16.2641C-1.11564 16.3615 -1.11063 16.4399 -1.09322 16.5153C-1.07589 16.5913 -1.04581 16.6636 -1.00471 16.7294C-0.963456 16.7946 -0.911107 16.8532 -0.850234 16.901C-0.724193 17.0015 -0.568645 17.0493 -0.419257 17.0482L4.23633 17.0505C4.31053 17.0505 4.38465 17.0374 4.4544 17.0129C4.52444 16.9877 4.59011 16.9512 4.64783 16.9046C4.77567 16.8012 4.84842 16.6666 4.87764 16.5337C4.91051 16.3878 4.88932 16.194 4.81197 16.0003C4.77065 15.9016 4.71193 15.8095 4.63938 15.73C4.47946 15.5577 4.25782 15.4626 4.06224 15.3358C3.95682 15.2712 3.89953 15.1761 3.87568 15.084C3.85212 14.9895 3.85857 14.8765 3.91937 14.7729L4.25553 14.2227C4.29219 14.1622 4.34297 14.1114 4.39904 14.0684C4.45512 14.0253 4.51864 13.9912 4.58653 13.9733C4.65449 13.9553 4.72575 13.968 4.7965 13.968H10.1245C10.2169 13.968 10.3098 13.9792 10.396 14.0128C10.4825 14.0469 10.5618 14.0995 10.6287 14.1653C10.6953 14.2311 10.7518 14.3083 10.7869 14.395L11.7289 16.718C11.7545 16.7808 11.798 16.8359 11.847 16.8831C11.9509 16.9831 12.0855 17.0379 12.2143 17.0404L17.5909 17.0428C17.6915 17.0428 17.7923 17.0266 17.8864 16.9907C17.9804 16.9554 18.0676 16.9016 18.1418 16.8335C18.369 16.6271 18.4429 16.3149 18.3829 16.044C18.3637 15.959 18.3317 15.8771 18.2879 15.8024C18.2444 15.727 18.189 15.6582 18.1246 15.5996C18.0601 15.5415 17.9874 15.4907 17.9074 15.4566L17.2253 15.1666C17.0989 15.1133 16.9837 15.0355 16.8754 14.9512C16.767 14.8669 16.6678 14.7706 16.5803 14.6648C16.4927 14.5589 16.4082 14.4476 16.3542 14.3214L10.5891 0.861486C10.5516 0.773829 10.4796 0.704792 10.407 0.642845C10.2548 0.513367 10.0656 0.443399 9.8835 0.441393L4.74208 0.448555C4.66108 0.448698 4.5798 0.460373 4.50281 0.48551C4.42568 0.51079 4.35271 0.548531 4.28782 0.597227C4.22294 0.645782 4.16608 0.705151 4.1201 0.771967C4.07413 0.838713 4.03932 0.913118 4.01655 0.991179C3.96706 1.14773 3.98375 1.36952 4.07814 1.58866C4.12777 1.70095 4.19967 1.80365 4.28775 1.88966C4.37577 1.97581 4.48076 2.04377 4.59341 2.09361L5.26042 2.38895C5.3276 2.41867 5.39513 2.44796 5.45543 2.49C5.51566 2.53175 5.57052 2.58167 5.618 2.6376C5.6654 2.69367 5.70966 2.75412 5.73687 2.82208L6.06358 3.63798C6.13734 3.85641 6.12517 4.10283 6.00479 4.33673L1.20066 14.6277ZM7.31368 7.45339C7.38294 7.39589 7.46415 7.37827 7.55767 7.45339C7.57407 7.46886 7.58768 7.48727 7.59692 7.50761L9.07454 10.7831C9.1327 10.929 9.13556 11.0947 9.02291 11.2657C8.89959 11.435 8.7444 11.4852 8.58935 11.4841H6.04883C5.99977 11.4841 5.95093 11.4726 5.90574 11.4536C5.86063 11.4343 5.81902 11.4063 5.78436 11.3722C5.67522 11.2586 5.64127 11.1144 5.69491 10.9637L7.2743 7.50732C7.28375 7.48712 7.29736 7.46886 7.31368 7.45339Z" fill="#222222"/>
</symbol><symbol id="ico-brand-10" viewBox="0 0 55 15">
<g clip-path="url(#clip0)">
<path fill-rule="evenodd" clip-rule="evenodd" d="M54.9983 0.25428H51.9178V14.6099H54.9983V0.25428ZM43.2928 10.7409C43.2925 11.2248 43.2913 11.7149 43.4035 12.2041C43.4387 12.3637 43.4823 12.5219 43.5333 12.671C43.5849 12.8201 43.6443 12.9604 43.7152 13.0943C43.7867 13.2287 43.8693 13.3562 43.9624 13.4763C44.0559 13.5961 44.1584 13.708 44.2703 13.8111C44.4276 13.9461 44.5952 14.0692 44.7718 14.1773C45.295 14.5065 45.9098 14.6717 46.4723 14.7649C47.2248 14.8847 47.975 14.9075 48.739 14.766C48.9264 14.7312 49.1119 14.687 49.2689 14.6404C49.4262 14.5929 49.5545 14.5428 49.6799 14.4854C49.8049 14.4274 49.9265 14.3627 50.0451 14.2915C50.1632 14.2203 50.278 14.1433 50.4397 14.0024C50.6011 13.8618 50.81 13.6576 50.9828 13.4259C51.1554 13.1942 51.2919 12.9349 51.3853 12.6613C51.4785 12.3877 51.5283 12.1007 51.5558 11.8751C51.5836 11.6504 51.5895 11.487 51.5906 11.3244C51.5918 11.1612 51.5883 10.9984 51.5789 10.8361C51.5693 10.6738 51.5537 10.5118 51.5344 10.368C51.4975 10.088 51.4415 9.85419 51.3557 9.60345C51.3141 9.48217 51.2667 9.36237 51.1923 9.20975C51.0481 8.91213 50.8153 8.51287 50.5428 8.16839C50.4122 8.00141 50.2722 7.84176 50.0654 7.62617C49.8582 7.41086 49.585 7.13843 49.3049 6.87274C48.7753 6.36656 48.2167 5.89231 47.668 5.40809C47.2969 5.07591 46.9474 4.70301 46.7189 4.3386C46.4963 3.96717 46.4254 3.55473 46.4975 3.14521C46.5095 3.06407 46.5344 2.98497 46.5716 2.91204C46.6082 2.8388 46.6568 2.77173 46.7148 2.71431C46.7725 2.6566 46.8399 2.60856 46.9175 2.56872C47.1656 2.44481 47.4577 2.40966 47.7301 2.48026C47.8241 2.50516 47.9185 2.54442 48.0017 2.60096C48.1698 2.70876 48.277 2.90765 48.3227 3.08047C48.3892 3.32097 48.4103 3.51753 48.4159 3.73694V4.86824H51.3789C51.3783 4.63213 51.3748 4.39544 51.3683 4.15964C51.3622 3.92353 51.3531 3.68743 51.3425 3.4938C51.3235 3.11709 51.2919 2.85551 51.2271 2.54559C51.1685 2.25852 51.0768 1.95357 50.9058 1.65625C50.824 1.51388 50.7277 1.38002 50.6193 1.25699C50.404 1.01591 50.1691 0.837514 49.9579 0.707747C49.8533 0.643009 49.7458 0.582079 49.6362 0.524665C49.5267 0.467251 49.4153 0.413351 49.1517 0.32635C48.8878 0.23935 48.4712 0.118953 48.0456 0.0556793C47.62 -0.00730038 47.185 -0.0134516 46.7576 0.038105C46.3302 0.0893679 45.911 0.198041 45.6488 0.276254C45.3873 0.354173 45.2827 0.401332 45.1804 0.452595C45.0788 0.50415 44.9789 0.55982 44.8822 0.619871C44.7853 0.680508 44.6916 0.745538 44.5747 0.843377C44.4572 0.941216 44.316 1.07273 44.1898 1.21685C44.0638 1.36097 43.9531 1.51887 43.859 1.68584C43.7647 1.85251 43.6871 2.02886 43.6238 2.21457C43.4305 2.78842 43.3675 3.39948 43.4188 3.99325C43.4501 4.38754 43.5321 4.79588 43.6824 5.19192C43.7553 5.38437 43.8415 5.57155 43.9595 5.7725C44.0767 5.97375 44.2255 6.18876 44.384 6.39557C44.6962 6.80626 45.0504 7.17125 45.4631 7.54151C45.6667 7.72488 45.8826 7.91441 46.1003 8.1013C46.3176 8.28849 46.5373 8.47361 46.7453 8.64849C46.9533 8.82278 47.1504 8.98712 47.3388 9.16024C47.5277 9.33307 47.7084 9.51499 47.8218 9.63684C47.9355 9.7587 47.9815 9.82081 48.026 9.88437C48.0708 9.94735 48.113 10.0124 48.1713 10.1255C48.2299 10.2388 48.3031 10.4005 48.3584 10.5687C48.4141 10.7368 48.4507 10.9111 48.4704 11.0871C48.4888 11.2641 48.49 11.4422 48.4771 11.5801C48.4645 11.7178 48.4381 11.8151 48.3965 11.9053C48.3546 11.9964 48.2981 12.0796 48.2293 12.1519C48.1604 12.2237 48.0793 12.2843 47.9908 12.33C47.7717 12.4384 47.5131 12.475 47.2685 12.4235C47.1481 12.398 47.0321 12.3514 46.9427 12.3037C46.8537 12.2556 46.7913 12.2061 46.7365 12.1499C46.6814 12.0934 46.6349 12.0292 46.5979 11.9601C46.455 11.6545 46.4251 11.3074 46.4207 10.9732V9.65559H43.2928V10.7409ZM35.9918 0.843377C35.8746 0.941216 35.7334 1.07273 35.6075 1.21685C35.4815 1.36097 35.3708 1.51887 35.2768 1.68584C35.1824 1.85251 35.1048 2.02886 35.0415 2.21457C34.8482 2.78842 34.7852 3.39948 34.8362 3.99325C34.8678 4.38754 34.9493 4.79588 35.1001 5.19192C35.1728 5.38437 35.2592 5.57155 35.377 5.7725C35.4944 5.97375 35.6426 6.18876 35.8017 6.39557C36.114 6.80626 36.4681 7.17125 36.8811 7.54151C37.0844 7.72488 37.3003 7.91441 37.518 8.1013C37.7353 8.28849 37.9547 8.47361 38.163 8.64849C38.3713 8.82278 38.5681 8.98712 38.7571 9.15995C38.9457 9.33219 39.127 9.51351 39.301 9.70158C39.3508 9.76045 39.398 9.82197 39.4434 9.88495C39.4882 9.94735 39.5307 10.0124 39.5893 10.1255C39.6476 10.2388 39.7211 10.4005 39.7762 10.5687C39.8315 10.7368 39.8685 10.9111 39.8878 11.0871C39.9068 11.2641 39.9074 11.4422 39.8951 11.5801C39.8825 11.7178 39.8559 11.8151 39.814 11.9053C39.7727 11.9964 39.7155 12.0796 39.6473 12.1522C39.5782 12.2246 39.4976 12.2861 39.3974 12.335C39.1973 12.4334 38.9284 12.4765 38.6868 12.4235C38.5658 12.398 38.4501 12.3514 38.3607 12.3037C38.2714 12.2556 38.2093 12.2061 38.1539 12.1499C38.0994 12.0934 38.0523 12.0292 38.0157 11.9601C37.873 11.6545 37.8428 11.3074 37.8382 10.9732V9.65559H34.7108C34.7108 10.0991 34.7091 10.5426 34.7114 10.9855C34.712 11.0672 34.7126 11.1489 34.7161 11.2714C34.7214 11.5221 34.7483 11.8895 34.8213 12.2041C34.8567 12.3637 34.8998 12.5219 34.9513 12.671C35.0026 12.8201 35.0618 12.9604 35.1332 13.0943C35.2041 13.2287 35.2873 13.3562 35.3799 13.4763C35.473 13.5961 35.5759 13.708 35.688 13.8111C35.8451 13.9461 36.0129 14.0692 36.1892 14.1773C36.7127 14.5065 37.3273 14.6717 37.8897 14.7649C38.6423 14.8847 39.3927 14.9075 40.157 14.766C40.3442 14.7312 40.5299 14.687 40.6866 14.6404C40.8439 14.5929 40.9722 14.5428 41.0973 14.4854C41.2227 14.4274 41.3445 14.3627 41.4626 14.2915C41.5806 14.2203 41.6955 14.1433 41.8572 14.0024C42.0189 13.8618 42.2274 13.6576 42.4002 13.4259C42.5731 13.1942 42.7099 12.9349 42.8074 12.6613C42.9047 12.3877 42.9633 12.101 42.9805 11.811C43.0104 11.4876 43.0157 11.1613 42.9964 10.8361C42.987 10.6738 42.9712 10.5118 42.9521 10.368C42.9149 10.088 42.8593 9.85419 42.7734 9.60345C42.7318 9.48217 42.6841 9.36237 42.61 9.20975C42.4659 8.91213 42.2327 8.51287 41.9606 8.16839C41.8299 8.00141 41.6899 7.84176 41.4828 7.62617C41.276 7.41086 41.0021 7.13843 40.7226 6.87274C40.1927 6.36656 39.6347 5.89231 39.0855 5.40809C38.7969 5.14973 38.5219 4.86911 38.3071 4.58526C38.2462 4.50617 38.1867 4.42502 38.1279 4.32162C38.0016 4.10514 37.9041 3.82041 37.8921 3.55736C37.8836 3.41968 37.8935 3.28143 37.9102 3.17246C37.9275 3.06378 37.9524 2.98497 37.9887 2.91204C38.0259 2.8388 38.0742 2.77173 38.1323 2.71431C38.1903 2.6566 38.2576 2.60856 38.3353 2.56872C38.5834 2.44481 38.8754 2.40966 39.1478 2.48026C39.2416 2.50516 39.3356 2.54442 39.4194 2.60096C39.5875 2.70876 39.6945 2.90765 39.7404 3.08047C39.8066 3.32097 39.8277 3.51753 39.8336 3.73694V4.86824H42.7963C42.796 4.63213 42.7925 4.39545 42.786 4.16022C42.7796 3.92354 42.7705 3.68743 42.7603 3.4938C42.7415 3.11739 42.7093 2.85551 42.6443 2.54559C42.5866 2.25852 42.4949 1.95357 42.3232 1.65625C42.2415 1.51388 42.1457 1.38002 42.0367 1.25699C41.8217 1.01591 41.5871 0.837514 41.3762 0.707747C41.271 0.643009 41.1638 0.582079 41.0539 0.524665C40.9447 0.467251 40.8331 0.413351 40.5689 0.32635C40.3052 0.23935 39.8887 0.118953 39.463 0.0556793C39.0377 -0.00730038 38.6024 -0.0134516 38.1753 0.038105C37.7482 0.0893679 37.3287 0.198041 37.0669 0.276254C36.805 0.354173 36.7007 0.401332 36.5985 0.452595C36.4962 0.50415 36.3966 0.55982 36.3 0.619871C36.203 0.680508 36.1093 0.745538 35.9918 0.843377ZM33.5397 13.9078C33.661 13.7985 33.7778 13.6743 33.8801 13.5393C33.9823 13.4039 34.0708 13.258 34.1428 13.1051C34.2155 12.9513 34.2717 12.7905 34.3116 12.6262C34.4141 12.1467 34.4756 11.6654 34.4897 11.1815L34.5084 10.7339V0.255746H31.3951L31.3963 10.7339C31.3896 10.9509 31.3782 11.2034 31.3541 11.4278C31.3456 11.4958 31.3345 11.5632 31.3199 11.6302C31.3055 11.6976 31.2888 11.7638 31.2718 11.8174C31.2282 11.9574 31.1769 12.0647 31.0515 12.1722C30.9487 12.2551 30.8002 12.3309 30.6655 12.3541C30.5184 12.3813 30.3599 12.3746 30.202 12.3511C30.123 12.3333 30.0465 12.304 29.975 12.2653C29.9036 12.2266 29.8379 12.178 29.7878 12.1229C29.688 12.0087 29.6408 11.8801 29.6007 11.7541C29.5816 11.6891 29.5681 11.6214 29.5544 11.5198C29.5403 11.4181 29.5254 11.2816 29.5148 11.1448C29.5104 11.0078 29.5058 10.871 29.5046 9.05596C29.5037 7.24097 29.5058 3.74865 29.5078 0.255746H26.4379L26.4358 10.7339C26.4552 11.4899 26.449 12.2407 26.8181 13.0225C26.9514 13.2853 27.1087 13.5149 27.3445 13.7496C27.4631 13.867 27.6049 13.9889 27.7564 14.0982C27.9075 14.2077 28.0675 14.3044 28.2344 14.3888C28.4008 14.4728 28.5742 14.5446 28.8578 14.6237C29.1416 14.7031 29.5353 14.7895 29.9349 14.8325C30.3333 14.8765 30.7375 14.8768 31.1365 14.8334C31.5358 14.7907 31.9295 14.7037 32.199 14.6304C32.4685 14.5572 32.6137 14.4974 32.7549 14.4289C32.8955 14.3603 33.0326 14.2836 33.1633 14.1972C33.2942 14.1116 33.4193 14.017 33.5397 13.9078ZM25.7439 0.255746L25.7422 14.6096H22.2628L20.2119 6.79132V14.612L17.188 14.6096L17.191 0.255746H20.5969L22.8181 8.2876L22.8205 0.255746H25.7439ZM11.7067 9.57064L12.5263 3.79581L13.3662 9.57064H11.7067ZM13.6717 11.9741L14.0361 14.6096H17.188L14.4948 0.255746H10.5628C9.68052 5.04047 8.79469 9.82519 7.90741 14.6096H11.0362L11.4138 11.9741H13.6717ZM7.90536 0.255746H0.269257V2.73335H4.43912L-0.00170898 11.7729V14.6096H7.90741V12.0485H3.43437L7.90741 2.73335L7.90536 0.255746Z" fill="#222222"/>
</g>

</symbol><symbol id="ico-brand-11" viewBox="0 0 55 12">
<g clip-path="url(#clip0)">
<path fill-rule="evenodd" clip-rule="evenodd" d="M11.4635 0.32504L11.4575 8.9174C11.4575 8.9174 11.4575 11.8048 8.59336 11.8048V7.50887H2.86491V8.93841H7.16105C7.16105 8.93841 7.16052 11.8047 4.2869 11.8047H0.000732422V7.48537C0.000732422 4.62122 2.86482 4.62122 2.86482 4.62122H7.16096C8.59319 4.62122 8.58989 3.20602 8.58989 3.20602H0.0134646C0.0134646 3.20602 0.000821408 0.324951 2.86491 0.324951H11.4635V0.32504Z" fill="#222222"/>
<path fill-rule="evenodd" clip-rule="evenodd" d="M16.7935 0.272139H19.2259L23.2595 11.6752H20.7972L19.9815 9.13566H15.9479L15.1016 11.6752H12.6997L16.7935 0.272139ZM16.5673 7.2671H19.3617L18.002 3.08304H17.9718L16.5673 7.2671ZM25.9789 7.89063C25.9789 9.40807 27.0969 9.99864 28.3659 9.99864C29.1965 9.99864 30.4656 9.74304 30.4656 8.57704C30.4656 7.34748 28.8491 7.13998 27.2629 6.69235C25.6617 6.24572 24.0453 5.59025 24.0453 3.45063C24.0453 1.11864 26.13 0.000732422 28.0786 0.000732422C30.3297 0.000732422 32.3995 1.03859 32.3995 3.67394H30.1032C30.0275 2.30044 29.1062 1.94899 27.973 1.94899C27.2177 1.94899 26.3416 2.28463 26.3416 3.24245C26.3416 4.12123 26.8554 4.23289 29.5592 4.9674C30.345 5.1749 32.7622 5.70258 32.7622 8.28916C32.7622 10.3814 31.2059 11.9466 28.2752 11.9466C25.8883 11.9466 23.6524 10.7005 23.6826 7.89029H25.9789V7.89063ZM34.5864 0.272139H36.958V4.99969L41.173 0.272139H44.1342L39.9195 4.7757L44.5417 11.6755H41.5662L38.3184 6.54908L36.958 8.00228V11.6755H34.5864V0.272139Z" fill="#222222"/>
<path fill-rule="evenodd" clip-rule="evenodd" d="M49.6976 0.000976562C53.0358 0.000976562 54.9993 2.63632 54.9993 6.02165C54.9993 9.31112 53.0359 11.9465 49.6976 11.9465C46.3588 11.9465 44.3953 9.31112 44.3953 6.02165C44.3953 2.63632 46.3588 0.000976562 49.6976 0.000976562ZM49.6976 9.8388C51.8268 9.8388 52.6278 7.92215 52.6278 6.02165C52.6278 4.02529 51.8268 2.10865 49.6976 2.10865C47.5672 2.10865 46.7668 4.02529 46.7668 6.02165C46.7668 7.92181 47.5672 9.8388 49.6976 9.8388Z" fill="#222222"/>
</g>

</symbol><symbol id="ico-brand-12" viewBox="0 0 55 9">
<g clip-path="url(#clip0)">
<path fill-rule="evenodd" clip-rule="evenodd" d="M5.89888 0.298949V1.90383C5.13563 1.63687 4.29986 1.48101 3.63352 1.48101C2.81102 1.48101 2.35332 1.73162 2.35332 2.18191C2.35332 2.46925 2.55362 2.65967 3.12829 2.918L4.67392 3.61149C5.9103 4.16703 6.53342 4.9775 6.53342 6.03055C6.53342 7.6558 5.12668 8.68108 2.89682 8.68108C2.08357 8.68108 1.14286 8.56472 0.146291 8.33942V6.68053C1.13422 6.94934 2.03913 7.09286 2.74312 7.09286C3.665 7.09286 4.15881 6.83608 4.15881 6.35739C4.15881 6.06974 3.96592 5.85833 3.52426 5.66112L1.83265 4.90651C0.578684 4.34727 0 3.5939 0 2.51986C0 0.980716 1.35582 -0.000732422 3.48291 -0.000732422C4.22764 -0.000732422 5.14427 0.112536 5.89888 0.297715V0.298949ZM7.73709 0.168707H10.2367V8.51287H7.73709V0.168707ZM18.3639 0.168707V1.69736H14.5903V3.5794H17.8867V4.96206H14.5903V6.91323H18.4127V8.51287H12.1613V0.168707H18.3639ZM30.1728 0.168707V8.51287H27.7543V3.02077L25.3853 8.57799H23.8563L21.5033 3.02077V8.51287H19.8333V0.168707H22.8857L25.0436 5.24415L27.1904 0.168707H30.1728ZM38.3064 0.168707V1.69736H34.5272V3.5794H37.8228V4.96206H34.5272V6.91323H38.349V8.51287H32.0921V0.168707H38.3064ZM47.1108 0.168707V8.51287H44.4433L41.4397 3.1612V8.51287H39.7693V0.168707H42.5072L45.4463 5.4497V0.168707H47.1108ZM54.3648 0.298949V1.90383C53.6071 1.63872 52.7661 1.48101 52.1121 1.48101C51.2767 1.48101 50.8193 1.72761 50.8193 2.17944C50.8193 2.47388 51.006 2.6498 51.6004 2.91831L53.1393 3.6118C54.3846 4.1732 55 4.97657 55 6.04197C55 7.65858 53.592 8.68169 51.3671 8.68169C50.5526 8.68169 49.6082 8.56472 48.6129 8.34004V6.68114C49.5996 6.94934 50.5026 7.09347 51.202 7.09347C52.1177 7.09347 52.6251 6.83669 52.6251 6.37313C52.6251 6.06635 52.4473 5.86852 51.9844 5.66173L50.2995 4.90836C49.0379 4.3448 48.466 3.60007 48.466 2.52202C48.466 0.983804 49.8224 0.00173763 51.9445 0.00173763C52.6914 0.000811735 53.6118 0.11377 54.3648 0.298949Z" fill="#222222"/>
</g>

</symbol><symbol id="ico-brand-13" viewBox="0 0 55 19">
<path fill-rule="evenodd" clip-rule="evenodd" d="M48.1119 11.209C52.7701 8.92686 55.3648 6.33207 54.9584 4.17495C54.1456 -0.358116 40.4526 -1.07715 26.2907 1.42385C19.8193 2.58057 13.6293 4.30001 9.44014 6.01945C9.65898 6.01945 9.81529 6.01945 9.81529 6.01945C11.6285 6.08198 11.5035 7.20743 11.5035 7.20743V7.89521H10.0654V7.42627C10.0654 7.08238 9.65898 7.08238 9.65898 7.08238C9.34636 7.08238 9.28383 7.30121 9.28383 7.30121C9.12752 7.61384 9.40888 7.89521 9.40888 7.89521C9.56519 8.05152 10.3155 8.3954 10.3155 8.3954C10.5656 8.48919 10.9407 8.73929 10.9407 8.73929C11.6598 9.17696 11.5973 10.0211 11.5973 10.0211V10.5838C11.5035 11.9593 9.62772 11.9281 9.62772 11.9281C7.65818 11.9281 7.68944 10.615 7.68944 10.615V9.92727H9.22131V10.3962C9.22131 10.8026 9.59646 10.8026 9.59646 10.8026C10.0029 10.8339 10.0654 10.4275 10.0654 10.4275C10.1279 10.0211 9.69025 9.77096 9.69025 9.77096C9.25257 9.55212 8.53353 9.17696 8.53353 9.17696C8.18964 8.95813 8.03333 8.73929 8.03333 8.73929C7.78323 8.42666 7.78323 7.92646 7.78323 7.92646V7.48879C7.78323 6.8948 7.93954 6.70722 7.93954 6.70722C7.93954 6.70722 7.93954 6.67596 7.97081 6.67596C2.81248 9.05191 -0.345038 11.8343 0.0301126 14.1165C0.842939 18.7433 13.7544 19.3373 28.9792 16.9926C35.9821 15.9297 42.0783 13.9289 46.6739 11.8655C46.6426 11.8655 46.6113 11.8655 46.5801 11.8655C46.5801 11.8655 44.7043 12.0219 44.6731 10.5213V7.61384C44.6731 7.61384 44.4542 6.01945 46.5175 6.01945C46.5175 6.01945 47.8618 5.98819 48.237 6.76975C48.237 6.76975 48.4246 6.98859 48.362 7.86394H46.924V7.395C46.924 7.395 46.924 7.01985 46.5488 7.01985C46.5488 7.01985 46.1424 7.05111 46.1424 7.33247V10.3337C46.1424 10.3337 46.1111 10.7401 46.5801 10.7401C46.5801 10.7401 46.9552 10.7401 46.9552 10.3024V9.42707H46.5488V8.61424H48.3933V10.3337C48.3933 10.3337 48.3933 10.6776 48.237 10.8964C48.3308 10.9589 48.1745 11.1778 48.1119 11.209ZM42.7973 11.7092H41.0779L39.546 8.36414H39.4835L39.5772 11.7092H38.1392V6.23829H39.8899L41.3592 9.55212H41.4217L41.328 6.23829H42.766V11.7092H42.7973ZM33.8562 10.3337C33.8562 10.8026 34.2939 10.7714 34.2939 10.7714C34.7003 10.7714 34.7003 10.3337 34.7003 10.3337V6.20702H36.2322V10.3962C36.2322 11.8968 34.3251 11.8968 34.3251 11.8968C32.1368 11.8968 32.2931 10.3337 32.2931 10.3337V6.20702H33.8562V10.3337ZM29.0105 7.89521V7.42627C29.0105 7.08238 28.6041 7.08238 28.6041 7.08238C28.2915 7.08238 28.2289 7.30121 28.2289 7.30121C28.0726 7.61384 28.354 7.89521 28.354 7.89521C28.5103 8.05152 29.2606 8.3954 29.2606 8.3954C29.5107 8.48919 29.8859 8.73929 29.8859 8.73929C30.6049 9.17696 30.5424 10.0211 30.5424 10.0211V10.5838C30.4486 11.9593 28.5728 11.9281 28.5728 11.9281C26.6033 11.9281 26.6346 10.615 26.6346 10.615V9.92727H28.1664V10.3962C28.1664 10.8026 28.5416 10.8026 28.5416 10.8026C28.948 10.8339 29.0105 10.4275 29.0105 10.4275C29.073 10.0211 28.6354 9.77096 28.6354 9.77096C28.1977 9.55212 27.4786 9.17696 27.4786 9.17696C27.1348 8.95813 26.9784 8.73929 26.9784 8.73929C26.7283 8.42666 26.7283 7.92646 26.7283 7.92646V7.48879C26.7283 6.8948 26.8846 6.70722 26.8846 6.70722C27.2911 5.92566 28.7291 6.01945 28.7291 6.01945C30.5424 6.08198 30.4173 7.20743 30.4173 7.20743V7.89521H29.0105ZM21.445 6.20702L21.9139 9.20823H22.039L22.5079 6.20702H24.8838L25.0402 11.7092H23.6021L23.5708 7.58258H23.477L22.7267 11.7092H21.2261L20.4758 7.58258H20.3508L20.3195 11.7092H18.8814L19.0065 6.20702H21.445ZM15.849 11.7092L15.2862 7.45752H15.1612L14.5985 11.7092H13.0353L13.9732 6.23829H16.4117L17.3496 11.7092H15.849Z" fill="#222222"/>
</symbol><symbol id="ico-brand-14" viewBox="0 0 55 12">
<g clip-path="url(#clip0)">
<path fill-rule="evenodd" clip-rule="evenodd" d="M32.784 4.45601L31.3389 7.71237L29.3821 4.45601H25.9581L24.0231 8.68107L23.045 4.41356H19.9818C19.9818 4.41356 19.5341 4.41636 19.1551 4.57839C18.8572 4.70607 18.5925 4.92522 18.5925 4.92522L15.728 7.45057C13.9561 8.8454 10.8552 9.64926 9.98825 9.68854C5.86247 9.87572 5.00148 7.05901 5.28712 5.72696C6.02403 2.28673 11.3615 1.47194 14.1649 1.47194C15.4933 1.47194 16.5823 1.73417 17.426 1.96768L18.2378 0.52291L17.6426 0.396788C16.9023 0.303446 15.7491 0.054328 13.7822 0.0480843C5.82785 0.0199881 1.74453 2.2552 0.5008 5.1179C-0.902265 8.3499 1.46794 11.2744 8.13206 11.2744C9.34117 11.2744 11.7324 11.169 13.9798 10.3589H16.1493L17.2604 9.37158H20.6201L20.762 10.4264H24.4233L24.4183 10.4016H26.3753L27.9362 6.98889L29.9818 10.3995L33.1579 10.4015L35.8811 4.45573H32.7843L32.784 4.45601ZM18.536 8.17939L20.3221 6.47848L20.4923 8.13793L18.536 8.17939Z" fill="#222222"/>
<path fill-rule="evenodd" clip-rule="evenodd" d="M41.7125 4.45602H36.7058L33.9817 10.4018H38.9894C42.9943 10.435 44.6233 8.89298 45.1637 7.71244C45.7631 6.40409 45.2458 4.45609 41.7125 4.45609V4.45602ZM42.2289 7.32877C41.8458 8.81797 39.645 8.91528 38.8963 8.91528H38.0088L39.3243 5.94263H40.2116C41.0229 5.94263 42.5464 6.09553 42.2289 7.32877Z" fill="#222222"/>
<path fill-rule="evenodd" clip-rule="evenodd" d="M51.5275 4.41249L49.0267 6.90076L48.1844 4.45495H45.1216L47.1208 8.98688L45.135 10.9536H47.7586C47.7586 10.9536 48.2696 10.8913 48.4819 10.8164C48.6939 10.7406 48.9942 10.4346 48.9942 10.4346L54.9793 4.41983L51.5275 4.41233" fill="#222222"/>
</g>

</symbol><symbol id="ico-brand-15" viewBox="0 0 55 13">
<g clip-path="url(#clip0)">
<path fill-rule="evenodd" clip-rule="evenodd" d="M0 12.6274H12.6267V0H0V12.6274ZM8.09277 0.964552C10.3247 1.69592 11.9373 3.81171 11.9435 6.31134C11.9495 8.77045 10.3692 10.8813 8.09277 11.6609V0.964552ZM6.31109 0.678668C6.71431 0.678668 7.14364 0.732361 7.50162 0.803459C7.50162 3.6643 4.735 6.0185 1.87938 6.0185L0.685375 6.01676C0.881019 3.08408 3.30756 0.678668 6.31109 0.678668ZM1.88037 6.61414C4.73525 6.61414 7.50111 8.96584 7.50111 11.8242C7.14363 11.8973 6.69318 11.9512 6.31109 11.9512C3.30657 11.9473 0.797989 9.53413 0.684381 6.61438H1.88037V6.61414Z" fill="#222222"/>
<path fill-rule="evenodd" clip-rule="evenodd" d="M16.853 7.42325V6.62749H19.4802V5.61248H16.8525V4.13508H19.6477V3.12305H15.7771V5.29826V7.37726C15.7771 8.45243 16.2353 9.18803 17.3102 9.33942C17.3318 9.34464 17.3529 9.34862 17.3726 9.34887H17.3922C17.5023 9.3613 17.615 9.3695 17.7326 9.3695H19.7223V8.35847H17.7413C17.3997 8.35847 16.853 8.18991 16.853 7.42325Z" fill="#222222"/>
<path fill-rule="evenodd" clip-rule="evenodd" d="M20.4868 6.0749V9.37103H21.5627V6.05327V3.12158H20.4868V6.0749Z" fill="#222222"/>
<path fill-rule="evenodd" clip-rule="evenodd" d="M24.6476 4.70923C23.2875 4.70923 22.27 5.64594 22.27 7.10495V7.14124C22.27 8.5642 23.2517 9.48277 24.6747 9.48277C25.3591 9.48277 25.9985 9.29358 26.5839 8.67209L25.9356 8.04165C25.5932 8.38397 25.2601 8.5642 24.7107 8.5642C23.9093 8.5642 23.3778 8.09585 23.3417 7.37542H26.8723C26.8904 7.19518 26.8904 6.9973 26.8904 6.9973C26.8902 5.72723 25.9985 4.70923 24.6476 4.70923ZM23.3686 6.61869C23.4136 6.06929 23.9722 5.62804 24.6476 5.62804C25.278 5.62804 25.7914 6.07849 25.7914 6.61869H23.3686Z" fill="#222222"/>
<path fill-rule="evenodd" clip-rule="evenodd" d="M29.9134 5.67287C30.3996 5.67287 30.7598 5.8531 31.0661 6.16832L31.7328 5.47474C31.2103 4.91614 30.5888 4.69116 29.9136 4.69116C28.5446 4.69116 27.4458 5.70891 27.4458 7.09583C27.4458 8.48274 28.5446 9.50074 29.9136 9.50074C30.589 9.50074 31.2105 9.27551 31.7328 8.71717L31.0661 8.02358C30.7601 8.33905 30.3996 8.51879 29.9134 8.51879C29.1208 8.51879 28.5172 7.91545 28.5172 7.09583C28.5172 6.27646 29.1208 5.67287 29.9134 5.67287Z" fill="#222222"/>
<path fill-rule="evenodd" clip-rule="evenodd" d="M33.4783 7.42476H33.477V5.82928H34.4557V4.8518H33.4785V3.12183H32.4023V5.36341V7.48865L32.4056 7.48841C32.4362 8.50367 32.8975 9.19526 33.9357 9.34119C33.9573 9.34641 33.9784 9.35039 33.9978 9.35088H34.0177C34.1276 9.36307 34.2405 9.37127 34.358 9.37127H34.4717L34.4759 8.36048H34.367C34.0249 8.36023 33.4783 8.19143 33.4783 7.42476Z" fill="#222222"/>
<path fill-rule="evenodd" clip-rule="evenodd" d="M36.4281 5.52439V4.85244H35.3608V7.06692V9.37141H36.4281V6.99508C36.4281 6.25103 36.9031 5.78467 37.6469 5.78467C37.8175 5.78467 37.9701 5.80257 38.0956 5.82967V4.78955C38.0506 4.7806 37.8896 4.76294 37.773 4.76294C37.1271 4.76269 36.6431 5.05852 36.4281 5.52439Z" fill="#222222"/>
<path fill-rule="evenodd" clip-rule="evenodd" d="M40.7263 4.71777C39.3541 4.71777 38.2603 5.75765 38.2603 7.11175C38.2603 8.4651 39.3541 9.50598 40.7263 9.50598C42.0889 9.50598 43.1919 8.4651 43.1919 7.11175C43.1919 5.7574 42.0891 4.71777 40.7263 4.71777ZM40.7263 8.5285C39.9283 8.5285 39.3277 7.90974 39.3277 7.11175C39.3277 6.31351 39.9283 5.695 40.7263 5.695C41.5156 5.695 42.1249 6.31351 42.1249 7.11175C42.1249 7.90949 41.5156 8.5285 40.7263 8.5285Z" fill="#222222"/>
<path fill-rule="evenodd" clip-rule="evenodd" d="M43.8535 5.96701V9.37103H44.9302V6.01026V3.12158H43.8535V5.96701Z" fill="#222222"/>
<path fill-rule="evenodd" clip-rule="evenodd" d="M48.8107 7.47896C48.8107 8.19616 48.3895 8.50142 47.824 8.50142C47.2594 8.50142 46.8378 8.19591 46.8378 7.4884V4.85229H45.7529V6.16115V7.57814C45.7529 8.86935 46.6944 9.4881 47.8153 9.4881C48.9451 9.4881 49.895 8.86065 49.895 7.55129V6.1614V4.85255H48.8107V7.47896Z" fill="#222222"/>
<path fill-rule="evenodd" clip-rule="evenodd" d="M53.9664 7.92618L53.288 6.97704L54.1282 5.83251L54.8477 4.85229H53.6733L52.6958 6.2059L51.7094 4.85229H50.544L51.2122 5.76638L52.1042 6.98623L51.1695 8.28764L50.3914 9.37102H51.5483L52.6958 7.77503L53.8434 9.37102H55.0001L53.9664 7.92618Z" fill="#222222"/>
</g>

</symbol><symbol id="ico-brand-16" viewBox="0 0 55 9">
<g clip-path="url(#clip0)">
<path d="M3.41954 0.143645L0.184254 3.04802C0.126323 3.10007 0.0800029 3.16358 0.0482707 3.23446C0.0165384 3.30534 9.59895e-05 3.38203 0 3.45959V7.85223C0 8.15966 0.251913 8.40829 0.561118 8.40829H7.09043C7.399 8.40829 7.6506 8.15972 7.6506 7.85223V3.45965C7.6506 3.30189 7.58276 3.15029 7.46252 3.04459L4.16906 0.140278C4.06555 0.0493094 3.93192 -0.000626714 3.79367 5.93854e-06C3.65543 0.000638591 3.52226 0.0517957 3.4196 0.143708L3.41954 0.143645ZM3.79854 1.12331C4.3819 1.63814 6.37942 3.39917 6.6902 3.67317V7.47539H0.960723V3.67068C1.26522 3.39698 3.21927 1.64245 3.79854 1.12331Z" fill="#222222"/>
<path d="M3.80031 3.22297C3.36399 3.6138 2.92795 4.00494 2.49219 4.39638V6.15029H5.13256V4.39888C4.9892 4.2721 4.06881 3.46068 3.80031 3.22297ZM36.2036 3.01407V4.06008H38.3026V7.98752H39.4536V4.06014H41.5V3.014H36.2036V3.01407ZM53.8729 3.01407V6.54571L50.7235 3.32399C50.4446 3.03172 50.1188 2.9118 49.7558 2.96823C49.4275 3.01906 49.2145 3.28464 49.2145 3.6457V7.98752H50.341V4.45556L53.4405 7.62739C53.7619 7.96276 54.0536 8.09041 54.3878 8.04458C54.9367 7.96644 55.0002 7.56666 55.0002 7.27195V3.01407H53.8729ZM42.0526 5.49446C42.0526 7.65097 43.1486 8.07183 45.1217 8.07183C47.0949 8.07183 48.1908 7.6509 48.1908 5.49446C48.1908 3.33827 47.0948 2.91735 45.1217 2.91735C43.1486 2.91735 42.0526 3.33827 42.0526 5.49446ZM46.9759 5.49446C46.9759 6.9319 46.3403 6.99888 45.1214 6.99888C43.9021 6.99888 43.2675 6.93159 43.2675 5.49446C43.2675 4.05727 43.9018 3.99036 45.1213 3.99036C46.3403 3.99036 46.9759 4.05702 46.9759 5.49446ZM27.2936 7.98627H28.4356V3.01313H27.2936V7.98627ZM24.8001 6.09854C25.5174 5.92281 25.9242 5.38197 25.9242 4.6437C25.9242 3.63766 25.2539 3.01344 24.1754 3.01344H20.5834V7.98627H21.7103V6.21134H23.5355L24.7997 7.98627H26.1219L24.8001 6.09854ZM21.7103 4.04617H24.018C24.6968 4.04617 24.7788 4.35111 24.7788 4.63964C24.7788 4.93036 24.6906 5.23817 24.0211 5.23817H21.7103V4.04617ZM33.1251 4.86065H32.1165C31.2515 4.86065 31.075 4.69889 31.075 4.39326C31.075 4.0198 31.654 3.87568 32.4704 3.87568C33.1887 3.87568 33.8671 3.99529 34.6526 4.3604L35.256 3.51924C34.3991 3.00633 33.5495 2.82007 32.4786 2.82007C30.8422 2.82007 29.8639 3.42813 29.8639 4.44845C29.8639 5.55894 30.7924 5.93796 31.9873 5.9268H33.0979C34.1907 5.9268 34.3362 6.05046 34.3362 6.46327C34.3362 6.87179 33.7316 7.12559 32.7587 7.12559C31.903 7.12559 31.0227 6.95859 30.2501 6.4475C30.2501 6.44687 29.6382 7.3088 29.6382 7.3088C30.4585 7.95465 31.4696 8.17784 32.7511 8.17784C34.5409 8.17784 35.5677 7.53379 35.5677 6.41027C35.5674 5.37667 34.7459 4.86065 33.1251 4.86065ZM16.3508 2.8659C16.1173 2.8659 15.8889 2.97222 15.7785 3.1492L12.7989 7.98939H14.1395L14.6849 7.08007H18.0166L18.5621 7.98939H19.9027L16.9231 3.1492C16.8127 2.97222 16.5839 2.8659 16.3508 2.8659H16.3508ZM16.3511 4.30216C16.3908 4.36907 16.93 5.26947 17.4671 6.16389H15.2345L16.3511 4.30216Z" fill="#222222"/>
</g>

</symbol><symbol id="ico-brand-17" viewBox="0 0 75 17">
<g clip-path="url(#clip0)">
<path fill-rule="evenodd" clip-rule="evenodd" d="M0 0H11.6903V16.7082H0V0ZM7.23682 3.08852H4.35226C2.47976 6.07575 1.21453 10.1262 0.708557 13.6703H3.6437C3.84617 12.4551 4.1498 11.1894 4.5546 9.97424C4.90894 8.75909 5.31374 7.64511 5.81983 6.58197C6.27534 7.64511 6.73073 8.70838 6.98378 9.67036H5.16199C4.90894 10.4805 4.75706 11.1894 4.65589 11.8981H7.59104C7.59104 12.4045 7.7935 13.2146 7.8948 13.7209H10.9311C10.3238 9.92353 9.21049 6.32879 7.23695 3.0884L7.23682 3.08852ZM27.6822 3.08852V13.6704H34.8178V11.3414H30.7187V3.0884H27.6822V3.08852ZM51.417 3.08852V13.6704H54.4535V6.58209C55.8705 7.44277 57.6418 8.8098 58.5526 10.2274V13.6704H61.5891V3.08852H58.5527V6.07575C57.4393 4.96189 55.921 3.69603 54.4535 3.1391H51.417V3.08852ZM65.0811 3.08852V5.41753H67.5607V13.6704H70.5972V5.46811H73.0769V3.0884H65.0809L65.0811 3.08852ZM14.4736 3.08852V5.41753H17.0547V13.6704H20.0406V5.46811H22.6215V3.0884H14.4736V3.08852ZM45.2936 3.08852H42.4088C40.4352 6.22762 39.4736 10.0757 38.6639 13.6198H41.7002C42.1558 11.0881 42.8137 8.86039 43.8257 6.48067C44.3318 7.54407 44.7873 8.60734 45.0404 9.56932H43.1173C42.9654 10.3794 42.7124 11.0881 42.6618 11.797H45.5971C45.5971 12.354 45.7995 13.0629 45.9007 13.6198H48.9371C48.178 9.92366 47.2671 6.43009 45.2934 3.08852H45.2936ZM63.3097 0H75V16.7082H63.3097V0ZM50.658 0H62.3484V16.7082H50.658V0ZM38.0062 0H49.6964V16.7082H38.0062V0ZM25.3543 0H37.0446V16.7082H25.3543V0ZM12.7024 0H24.3927V16.7082H12.7024V0Z" fill="#222222"/>
</g>

</symbol><symbol id="ico-brand-18" viewBox="0 0 75 14">
<g clip-path="url(#clip0)">
<path fill-rule="evenodd" clip-rule="evenodd" d="M13.7623 10.0134C13.8535 10.0134 13.899 9.96804 13.899 9.92249V0.576755C13.899 0.53115 13.8535 0.440157 13.7623 0.440157H10.8902C10.799 0.440157 10.7078 0.53115 10.7078 0.576755V9.92249C10.7078 9.96804 10.799 10.0134 10.8902 10.0134H13.7623Z" fill="#222222"/>
<path fill-rule="evenodd" clip-rule="evenodd" d="M38.6994 5.72834C38.6994 4.17832 37.5598 3.08407 35.6449 3.08407C34.5965 3.08407 33.6391 3.63106 33.0465 4.31491H32.9553C32.4539 3.58545 31.542 3.08407 30.22 3.08407C29.3992 3.08407 28.6698 3.44891 28.0774 3.90469H27.986C27.986 3.90469 27.9404 3.90469 27.9404 3.85908V3.49446C27.9404 3.40309 27.8948 3.35748 27.8038 3.35748H24.9316C24.886 3.35748 24.8406 3.40309 24.8406 3.49446V9.92225C24.8406 9.9678 24.886 10.0132 24.9316 10.0132H27.8038C27.8948 10.0132 27.9404 9.9678 27.9404 9.92225V6.73099C27.9404 6.04714 28.7154 5.45455 29.217 5.40894C29.5819 5.40894 30.1742 5.45455 30.1742 6.27495V9.92225C30.1742 9.9678 30.22 10.0132 30.3569 10.0132H33.2289C33.2745 10.0132 33.3655 9.9678 33.3655 9.92225V6.73099C33.3655 6.04714 34.0495 5.45455 34.5965 5.40894C34.9155 5.40894 35.5993 5.45455 35.5993 6.27495V9.92225C35.5993 9.9678 35.6449 10.0132 35.6905 10.0132H38.5628C38.6538 10.0132 38.6994 9.9678 38.6994 9.92225V5.72818" fill="#222222"/>
<path fill-rule="evenodd" clip-rule="evenodd" d="M65.0011 5.68306C63.8616 5.27261 62.722 6.23005 62.722 7.32407V9.92274C62.722 9.96829 62.6762 10.0137 62.6309 10.0137H59.7129C59.6677 10.0137 59.6218 9.96829 59.6218 9.92274V3.49495C59.6218 3.40357 59.6677 3.35797 59.7129 3.35797H62.6309C62.6762 3.35797 62.722 3.40357 62.722 3.49495V3.85957C62.722 3.90517 62.7673 3.90517 62.7673 3.90517H62.8584C63.3602 3.4494 64.1354 3.22137 65.0011 3.22137C65.0922 3.22137 65.0922 3.26698 65.0922 3.26698V5.63762C65.0922 5.68322 65.0922 5.68322 65.0011 5.68322" fill="#222222"/>
<path fill-rule="evenodd" clip-rule="evenodd" d="M8.33771 5.04421H8.38332C8.24634 5.04421 8.20074 5.04421 8.20074 4.99883C8.20074 4.90762 8.20074 4.90762 8.33771 4.86179C9.20372 4.49717 9.75076 3.67656 9.75076 2.76495C9.75076 1.53394 8.42892 0.439919 7.24352 0.439919H0.541893C0.496288 0.439919 0.450684 0.530909 0.450684 0.576513V9.92225C0.450684 9.9678 0.496288 10.0132 0.541893 10.0132H7.24352C8.65673 10.0132 10.1611 8.91921 10.1611 7.50601C10.1611 6.32055 9.38614 5.40894 8.33771 5.04416V5.04421ZM3.55084 2.44577C3.55084 2.40016 3.59644 2.35456 3.73304 2.35456H5.6935C6.1951 2.35456 6.60533 2.76495 6.60533 3.26639C6.60533 3.81337 6.1951 4.22382 5.6935 4.22382H3.73304C3.59644 4.22382 3.55084 4.17821 3.55084 4.08678V2.44577ZM5.96686 8.1442H3.73304C3.59644 8.1442 3.55084 8.0986 3.55084 8.05299V6.13835C3.55084 6.09274 3.59644 6.04714 3.73304 6.04714H5.96686C6.51412 6.04714 6.96989 6.50319 6.96989 7.09578C6.96989 7.68837 6.51412 8.1442 5.96686 8.1442Z" fill="#222222"/>
<path fill-rule="evenodd" clip-rule="evenodd" d="M19.3242 2.85635C16.1785 2.85635 14.4917 3.9962 14.4917 6.50365C14.4917 9.05649 16.1785 10.1963 19.3242 10.1963C22.4698 10.1963 24.2021 9.05649 24.2021 6.50365C24.2021 3.9962 22.4698 2.85635 19.3242 2.85635ZM19.3242 8.50896C18.4124 8.50896 17.7286 7.91659 17.7286 6.50338C17.7286 5.13556 18.4124 4.58852 19.3242 4.58852C20.236 4.58852 20.9654 5.13556 20.9654 6.50338C20.9654 7.91659 20.236 8.50896 19.3242 8.50896Z" fill="#222222"/>
<path fill-rule="evenodd" clip-rule="evenodd" d="M45.6736 3.08441C44.3977 3.08441 43.5314 3.35782 42.9384 3.81381C42.8473 3.81381 42.8473 3.81381 42.8473 3.76821V0.850584C42.8473 0.804979 42.802 0.759375 42.7104 0.759375H39.793C39.7472 0.759375 39.7019 0.804979 39.7019 0.850584V9.92247C39.7019 9.96802 39.7472 10.0134 39.793 10.0134H42.7104C42.802 10.0134 42.8473 9.96802 42.8473 9.92247V9.60324C42.8473 9.55763 42.8473 9.55763 42.9384 9.55763C43.5314 10.1048 44.3977 10.3326 45.6736 10.3326C47.6795 10.3326 49.2756 8.69163 49.2756 6.68561C49.2756 4.72537 47.6795 3.08413 45.6736 3.08413V3.08441ZM44.534 8.55482C43.3945 8.55482 42.8473 7.7342 42.8473 6.68561C42.8473 5.6828 43.3945 4.86196 44.534 4.86196C45.5825 4.86196 46.0838 5.6828 46.0838 6.68561C46.0838 7.7342 45.5825 8.55482 44.534 8.55482Z" fill="#222222"/>
<path fill-rule="evenodd" clip-rule="evenodd" d="M54.3802 2.76524C51.1894 2.76524 49.8213 4.49746 49.8213 6.54892C49.8213 8.60054 51.1894 10.1962 54.3802 10.1962C57.0243 10.1962 58.2555 9.37555 58.7115 8.09894C58.7115 8.05334 58.6657 7.96235 58.6199 7.96235H55.6114C55.6114 7.96235 55.5656 7.96234 55.5656 8.05334C55.3375 8.32696 54.9731 8.55494 54.3802 8.55494C53.8788 8.55494 53.3317 8.09894 53.1036 7.46075C53.1036 7.36954 53.1495 7.32393 53.1953 7.32393H58.8021C58.8479 7.32393 58.8937 7.27833 58.8937 7.27833C58.9848 6.95931 58.9848 6.8681 58.9848 6.54892C58.9848 4.67988 57.4803 2.76524 54.3802 2.76524ZM55.5656 5.54588H53.1495C53.1036 5.54588 53.0131 5.5005 53.0131 5.45489C53.2864 4.63428 53.7877 4.3151 54.3802 4.3151C54.9273 4.3151 55.4286 4.58867 55.6567 5.45489C55.6567 5.5005 55.6114 5.54588 55.5656 5.54588Z" fill="#222222"/>
<path fill-rule="evenodd" clip-rule="evenodd" d="M74.5803 3.26651H71.7082C71.6629 3.26651 71.6171 3.3575 71.6171 3.4031V3.67668C71.6171 3.67668 71.6171 3.76789 71.526 3.76789H71.4802C70.9789 3.2209 70.0673 2.99288 68.7903 2.99288C66.7844 2.99288 65.1888 4.5885 65.1888 6.54875C65.1888 8.55477 66.7844 10.196 68.7903 10.196C70.2495 10.196 70.8419 9.96798 71.4802 9.60319L71.5713 9.55759C71.6171 9.55759 71.6629 9.60319 71.6629 9.6944V9.87682C71.6629 10.971 70.6597 11.1988 70.0673 11.1988H0.454346V13.2048H70.6619C73.6252 13.2048 74.7647 11.7004 74.7647 9.78561V3.4031C74.7647 3.3575 74.7189 3.26651 74.5825 3.26651H74.5803ZM70.2037 8.50895C69.338 8.50895 68.6081 7.68855 68.6081 6.68557C68.6081 5.68275 69.338 4.86192 70.2037 4.86192C71.07 4.86192 71.7993 5.68275 71.7993 6.68557C71.7993 7.68855 71.07 8.50895 70.2037 8.50895Z" fill="#222222"/>
</g>

</symbol><symbol id="ico-brand-2" viewBox="0 0 55 10">
<g clip-path="url(#clip0)">
<path d="M44.1952 2.57388V7.39444H51.9646V2.57388H44.1953H44.1952ZM44.2902 9.96849C42.5614 9.96849 41.1599 8.57796 41.1599 6.86322V3.10455C41.1599 1.38981 42.5614 0 44.2901 0H51.8698C53.5987 0 55 1.38981 55 3.10455V6.86322C55 8.57796 53.5987 9.96849 51.8699 9.96849H44.2902ZM17.8895 7.39444V6.3163H27.2754V3.72431H17.8895V2.57382H27.2754V0H17.9841C16.2554 0 14.8541 1.38981 14.8541 3.10455V6.86322C14.8541 8.57796 16.2554 9.96849 17.9841 9.96849H27.3307V7.39444H17.8895ZM2.77945 6.31636V7.39444H10.8406V6.31636H2.77945ZM2.77945 2.57388V3.72425H10.8957V2.57388H2.77945ZM0.000220221 9.96849V0.0315465H11.0981C12.5642 0.0315465 13.8634 1.21149 13.8634 2.66555C13.8634 3.67212 13.2408 4.5476 12.3713 4.99036L12.3488 5.02064C13.2299 5.45953 13.8631 6.34058 13.8631 7.35635C13.8631 8.8109 12.5641 9.98963 11.0978 9.98963L0 9.9654L0.000275275 9.96849H0.000220221Z" fill="#222222"/>
<path d="M41.9619 5.50543e-05H37.3793L31.8766 3.71269V5.50543e-05H28.7661V9.96843H31.8766V6.25211L37.5451 9.96843H41.9619L34.501 4.96299L41.9618 0V5.50543e-05H41.9619Z" fill="#222222"/>
</g>

</symbol><symbol id="ico-brand-3" viewBox="0 0 55 15">
<g clip-path="url(#clip0)">
<path fill-rule="evenodd" clip-rule="evenodd" d="M0 0H55V14.1132H0V0Z" fill="#222222"/>
<path fill-rule="evenodd" clip-rule="evenodd" d="M50.3077 3.53114C49.598 2.73966 48.9479 2.01636 48.9479 2.01636C48.9479 2.01636 46.4835 4.77642 45.9542 5.36129C45.3071 6.0765 44.9131 7.02468 44.9131 8.0648C44.9131 10.2918 46.7196 12.0971 48.9479 12.0971C51.1763 12.0971 52.9827 10.2918 52.9827 8.0648C52.9827 7.04574 52.6046 6.1151 51.9808 5.40519C51.8459 5.25181 51.6067 4.98293 51.3196 4.66155L49.9495 6.18401C49.9495 6.18401 50.3698 6.65493 50.4645 6.76296C50.7881 7.13112 50.9662 7.60472 50.9655 8.0949C50.9655 9.21015 50.0622 10.1143 48.9481 10.1143C47.8338 10.1143 46.9307 9.21015 46.9307 8.0949C46.9307 7.57395 47.1276 7.09908 47.4512 6.74096C47.7158 6.44801 48.948 5.06574 48.948 5.06574L50.3078 3.53114H50.3077Z" fill="white"/>
<path fill-rule="evenodd" clip-rule="evenodd" d="M5.44705 2.01636H7.66614L11.0959 11.2403L9.20448 12.0971L8.25205 9.5774L6.55649 9.57802V7.56346H7.49097L6.55649 5.09096L5.62232 7.56274L6.55649 7.56077V9.57698L4.86073 9.57802L3.90861 12.0971L2.01733 11.2403L5.44705 2.01636ZM18.2828 12.0971L16.8657 8.3674H14.63L14.6264 12.0972L12.609 11.2404V2.01646H16.9968C18.7517 2.01646 20.1744 3.43816 20.1744 5.19193C20.1744 6.24004 19.6662 7.16944 18.8828 7.74777L20.1743 11.2404L18.283 12.0972L18.2828 12.0971ZM17.0473 6.35108C17.688 6.35108 18.2074 5.832 18.2074 5.19183C18.2074 4.55154 17.688 4.03247 17.0473 4.03247H14.6264V6.35108H17.0473ZM24.7134 12.0971H21.6873V2.01646H24.7133C27.4989 2.01646 29.7569 4.27312 29.7569 7.05684C29.7569 9.84057 27.4988 12.0972 24.7134 12.0972V12.0971ZM24.7134 10.081C26.3847 10.081 27.7395 8.72697 27.7395 7.05674C27.7395 5.3865 26.3847 4.03247 24.7134 4.03247H23.7048V10.081H24.7134ZM35.8092 12.0971C33.0237 12.0971 30.7657 9.84046 30.7657 7.05674C30.7657 4.27302 33.0238 2.01636 35.8092 2.01636C38.5947 2.01636 40.8528 4.27302 40.8528 7.05674C40.8528 9.84046 38.5947 12.0971 35.8092 12.0971ZM35.8344 10.081C37.5057 10.081 38.8606 8.72697 38.8606 7.05674C38.8606 5.3865 37.5057 4.03247 35.8345 4.03247C34.1632 4.03247 32.8083 5.3865 32.8083 7.05674C32.8083 8.72697 34.1632 10.081 35.8344 10.081Z" fill="white"/>
</g>

</symbol><symbol id="ico-brand-4" viewBox="0 0 55 15">
<g clip-path="url(#clip0)">
<path fill-rule="evenodd" clip-rule="evenodd" d="M43.6266 0H44.2572H45.6379V1.95542H45.0074H43.6266V0ZM42.7247 14.6458V13.0176C43.5787 13.0176 43.6266 12.7063 43.6266 11.9321V3.00896H45.7257V11.0621V11.0781V12.4429C45.7257 12.818 45.6859 13.1772 45.614 13.5044C45.4464 14.2227 44.5205 14.6138 43.874 14.6378C43.7304 14.6457 42.7407 14.6298 42.7247 14.6457V14.6458ZM39.5162 6.42509C39.5162 5.56307 38.9495 4.62119 37.9758 4.62119C36.6908 4.62119 36.2359 5.60297 36.2359 6.8001V11.3814L34.1128 11.3654V3.36014V3.35216V3.16862H36.1162V4.14231C36.8744 3.11272 37.3054 2.8653 38.7181 2.8653C39.3805 2.8653 39.9552 3.08878 40.5458 3.44794C41.5914 4.0785 41.5195 5.48318 41.5195 6.5447V11.3654H39.5162V6.42497L39.5162 6.42509ZM30.3536 6.40111C30.3217 5.91425 30.178 5.5072 29.9386 5.18794C29.6992 4.86869 29.2922 4.67714 28.7095 4.6212C28.1508 4.67714 27.7518 4.86869 27.5123 5.19589C27.2649 5.51518 27.1132 5.92223 27.0494 6.40108H30.3536L30.3536 6.40111ZM52.8133 6.40111C52.7814 5.91425 52.6378 5.5072 52.3983 5.18794C52.1588 4.86869 51.7518 4.67714 51.1692 4.6212C50.6185 4.67714 50.2194 4.86869 49.972 5.19589C49.7246 5.51518 49.573 5.92223 49.5091 6.40108H52.8134L52.8133 6.40111ZM32.4288 8.98707C31.6307 11.4772 30.2898 11.6209 28.6377 11.6289C27.4085 11.6289 26.2991 11.1021 25.7005 10.296C25.1019 9.48989 24.7986 8.48424 24.7747 7.29502V7.2312V7.15937C24.7747 6.45698 24.8864 5.7786 25.1178 5.12413C25.3413 4.47764 25.7484 3.92693 26.323 3.48795C26.6024 3.26444 26.9057 3.1128 27.2489 3.00904C27.5921 2.91326 27.9352 2.86538 28.2864 2.86538H28.893C29.1005 2.86538 29.3 2.88134 29.4996 2.91327C29.7071 2.94523 29.8987 2.98509 30.0982 3.03302C30.6409 3.17665 31.1198 3.47199 31.5189 3.91891C31.9259 4.36587 32.2133 4.86071 32.3729 5.4194C32.4288 5.68279 32.4766 5.93822 32.5005 6.18565C32.5245 6.44102 32.5405 6.69642 32.5405 6.95185V7.27107C32.5405 7.38281 32.5325 7.70203 32.5245 7.82179H27.0014C26.9855 9.00303 27.6718 9.94482 28.6616 9.97675C29.6193 10.0007 30.0743 9.67343 30.4015 8.98703H32.4287L32.4288 8.98707ZM54.8963 8.98707C54.0901 11.4772 52.7493 11.6209 51.0971 11.6289C49.868 11.6289 48.7506 11.1021 48.152 10.296C47.5534 9.48989 47.2502 8.48424 47.2262 7.29502V7.2312V7.15937C47.2262 6.45698 47.338 5.7786 47.5694 5.12413C47.8008 4.47764 48.1999 3.92693 48.7746 3.48795C49.0619 3.26444 49.3731 3.1128 49.7083 3.00904C50.0516 2.91326 50.3947 2.86538 50.746 2.86538H51.3605C51.56 2.86538 51.7596 2.88134 51.9671 2.91327C52.1666 2.94523 52.3661 2.98509 52.5577 3.03302C53.1004 3.17665 53.5794 3.47199 53.9864 3.91891C54.3854 4.36587 54.6727 4.86071 54.8324 5.4194C54.8962 5.68279 54.9361 5.93822 54.96 6.18565C54.992 6.44102 55 6.69642 55 6.95185V7.27107C55 7.38281 54.992 7.70203 54.984 7.82179H49.4609C49.445 9.00303 50.1314 9.94482 51.129 9.97675C52.0788 10.0007 52.5337 9.67343 52.861 8.98703H54.8962L54.8963 8.98707ZM19.4514 3.08885H21.4946V4.40578C21.8857 3.99873 22.2927 2.80152 24.2162 2.87336V5.04428C23.7054 5.04428 22.7476 5.03627 22.165 5.56304C21.7499 5.93819 21.5504 6.50483 21.5424 7.27902L21.5265 11.4134H19.4513V3.08882L19.4514 3.08885ZM11.6296 7.28704C11.6296 7.94949 11.7813 8.52415 12.1005 9.02697C12.4118 9.5298 12.9625 9.82514 13.7527 9.88901C14.5349 9.82514 15.0776 9.52979 15.3809 9.01902C15.6922 8.5002 15.8438 7.93356 15.8438 7.28707V7.18331V7.06356C15.8198 6.5368 15.6682 6.04199 15.3968 5.58702C15.1334 5.12406 14.6626 4.83677 13.9841 4.71701H13.8963C13.8724 4.709 13.8405 4.70105 13.8166 4.6931C13.7846 4.6931 13.7527 4.69311 13.7288 4.68509H13.6489C12.9386 4.74096 12.4278 5.02031 12.1085 5.52313C11.7893 6.02599 11.6297 6.61654 11.6297 7.28701L11.6296 7.28704ZM9.62632 7.35884C9.62632 6.05788 9.95356 5.02031 10.616 4.23015C11.2785 3.44 12.2043 3.04093 13.3856 3.04093H13.9922C14.1438 3.03298 14.3034 3.03299 14.4631 3.04895C14.6307 3.06491 14.7903 3.08882 14.9499 3.12078C15.9635 3.28835 16.6978 3.79118 17.1607 4.60531C17.6236 5.41937 17.8631 6.30533 17.8791 7.24713V7.303V7.35884C17.871 8.57999 17.5598 9.60159 16.9372 10.4077C16.3147 11.2138 15.3489 11.6209 14.056 11.6209L13.4494 11.6368C12.1644 11.6209 11.2067 11.2138 10.5761 10.4077C9.9376 9.60159 9.62632 8.57999 9.62632 7.35884ZM2.29946 7.18328V7.22316V7.25508V7.27902C2.29946 7.35884 2.29945 7.43067 2.3074 7.51052C2.3074 7.5903 2.31542 7.67014 2.32337 7.75794C2.38725 8.25275 2.54688 8.71567 2.81821 9.14669C3.08961 9.57772 3.49662 9.81712 4.05532 9.85706H4.07128H4.09522C4.65392 9.81712 5.07693 9.58566 5.35627 9.17865C5.62767 8.76359 5.77928 8.25278 5.81121 7.65421V7.58238C5.81121 7.55841 5.81121 7.53446 5.81922 7.51055V7.44667V7.36685C5.81922 7.27107 5.81922 7.1753 5.81121 7.07952C5.81121 6.97577 5.80326 6.88002 5.79525 6.78421C5.74739 6.32133 5.6037 5.89031 5.3882 5.49124C5.16472 5.08419 4.79758 4.84475 4.28678 4.75695C4.26287 4.75695 4.23889 4.74901 4.21494 4.74901C4.19103 4.74099 4.17507 4.74099 4.15907 4.72503H4.09522C4.07926 4.71705 4.05532 4.71705 4.02339 4.71705C3.44873 4.78093 3.01777 5.05226 2.73839 5.52316C2.45905 5.99406 2.31538 6.54477 2.29942 7.18328H2.29946ZM6.08261 10.8786C5.81922 11.0862 5.53186 11.2378 5.21261 11.3336C4.89339 11.4373 4.55818 11.4852 4.207 11.4852L3.59243 11.5012C3.58442 11.4932 3.56846 11.4852 3.55249 11.4852H3.52057H3.48867C2.3234 11.4772 1.45343 11.0382 0.862815 10.1763C0.280211 9.30628 -0.015135 8.3326 0.000860922 7.2631C0.000860922 6.17763 0.288191 5.21189 0.870796 4.3499C1.45347 3.4959 2.3234 3.05693 3.48867 3.05693C5.32438 3.04898 5.46006 3.51187 5.97885 4.38183V3.29637H7.98217L8.01409 11.3495L7.98217 11.0781C7.97422 10.9585 8.00614 11.6129 8.00614 11.7406C7.99813 11.8683 7.97422 12.1876 7.96621 12.3073C7.95028 12.5707 7.90239 12.7463 7.83056 12.9937C7.75872 13.2491 7.63099 13.4806 7.46341 13.6961C7.14413 14.127 6.75304 14.4383 6.26621 14.6219C5.77935 14.8054 5.27656 14.9012 4.76572 14.9251C4.70184 14.9251 4.63799 14.9411 4.57417 14.9411H4.38262L3.776 14.9571C3.73613 14.9491 3.69619 14.9411 3.6643 14.9411H3.55252H3.45678H3.38495C2.62669 14.9332 2.05207 14.7496 1.42154 14.3984C0.783033 14.0552 0.463814 13.3289 0.439837 12.4589L2.69856 12.4749C2.79433 13.3768 3.29719 13.4965 4.10327 13.4965C5.51597 13.4965 6.11457 12.6984 6.09861 11.5012C6.09861 11.4533 6.11457 11.4054 6.11457 11.3415C6.11457 11.2937 6.08264 10.9425 6.08264 10.8786H6.08261Z" fill="#222222"/>
</g>

</symbol><symbol id="ico-brand-5" viewBox="0 0 55 23">
<g clip-path="url(#clip0)">
<path d="M10.0577 15.3598L8.12567 7.97227L6.1655 15.3599H4.57734L1.84424 5.18964H3.41823L5.36424 12.5768L7.3246 5.18964H8.88424L10.8591 12.5768L12.8051 5.18964H14.3789L11.6459 15.3598H10.0577ZM15.1076 5.21875L16.6817 5.08784V7.57906L16.653 8.51162H16.7103C17.44 8.23466 18.0269 8.10356 18.7423 8.10356C20.0159 8.10356 20.8744 8.68658 20.8744 10.9156V15.3598H19.3002V11.0467C19.3002 9.70638 18.6565 9.53151 17.9267 9.53151C17.4688 9.53151 17.0826 9.63379 16.6818 9.75024V15.3599H15.1077V5.21875H15.1076ZM23.0343 5.32064C23.85 5.32064 23.9789 5.80157 23.9789 6.34073C23.9789 6.87979 23.807 7.37528 23.0343 7.37528C22.2615 7.37528 22.1043 6.87959 22.1043 6.34073C22.1043 5.80157 22.2473 5.32064 23.0343 5.32064ZM22.2473 8.20575H23.8216V15.3598H22.2473V8.20575ZM25.1517 8.20575H26.2247L26.4396 8.78857H26.5397C26.9545 8.42428 27.6127 8.10356 28.4715 8.10356C28.5714 8.10356 28.686 8.10356 28.8003 8.11841V9.69192C28.5144 9.64845 28.214 9.60458 27.9133 9.60458C27.4839 9.60458 27.1405 9.70657 26.7255 9.89619V15.36H25.1517V8.20565V8.20575ZM29.4728 15.3598V5.21894L31.0468 5.08765V15.3598H29.4728ZM42.2355 8.10356C44.4678 8.10356 45.3267 9.44398 45.3267 11.8187C45.3267 14.0481 44.5251 15.5058 42.2068 15.5058C39.8889 15.5058 39.0733 14.0483 39.0733 11.8187C39.0733 9.44398 40.0033 8.10356 42.2355 8.10356ZM43.724 11.8187C43.724 10.464 43.5088 9.35684 42.25 9.35684C40.9765 9.35684 40.6615 10.4202 40.6615 11.8187C40.6615 13.1157 40.9192 14.2377 42.1787 14.2377C43.4375 14.2377 43.724 13.1742 43.724 11.8188V11.8187ZM49.2895 8.10356C51.5217 8.10356 52.3802 9.44398 52.3802 11.8187C52.3802 14.0481 51.5789 15.5058 49.2607 15.5058C46.9426 15.5058 46.1271 14.0483 46.1271 11.8187C46.1271 9.44398 47.0573 8.10356 49.2895 8.10356ZM50.7778 11.8187C50.7778 10.464 50.5629 9.35684 49.3039 9.35684C48.0304 9.35684 47.7154 10.4202 47.7154 11.8187C47.7154 13.1157 47.9731 14.2377 49.2323 14.2377C50.4915 14.2377 50.7778 13.1742 50.7778 11.8188V11.8187ZM53.4241 15.3598V5.21894L54.9979 5.08765V15.3598H53.4241Z" fill="#222222"/>
<path d="M42.6173 0.411371C41.3051 -1.00593 36.4012 1.68673 31.3974 5.89252V6.43929C36.2979 2.27424 40.9106 -0.177217 41.9744 0.972117C42.5152 1.55592 42.039 3.38215 40.8164 5.50156C40.6394 5.58479 40.4451 5.75311 40.2645 6.01805C38.7097 8.29425 36.4303 11.0587 33.9516 13.4389C27.5736 19.5624 21.3978 23.2794 20.1478 21.9294C19.435 21.16 20.604 18.6716 22.7365 15.717H22.1452C19.884 18.8572 18.659 21.5665 19.565 22.5447C21.14 24.2443 28.2839 20.0904 34.6489 13.9777C37.5342 11.2095 39.7248 8.8591 41.076 6.77203C41.4658 6.16986 41.4822 5.74295 41.3185 5.55245C42.8477 3.13197 43.3966 1.25239 42.6173 0.411273" fill="#222222"/>
<path d="M33.8939 9.85217C34.2802 9.72097 34.6666 9.64829 35.0672 9.64829C35.879 9.64829 36.4055 9.88617 36.5925 10.6846C37.0008 10.2252 37.3954 9.76337 37.7748 9.305C37.3346 8.47795 36.6272 8.1038 35.7827 8.1038C34.9958 8.1038 34.1948 8.46799 33.7221 8.73029H33.6507L33.5218 8.20559H32.3343V14.9434C32.843 14.4842 33.345 14.0177 33.8403 13.5441C33.8938 12.013 33.894 11.2674 33.894 9.85207L33.8939 9.85217ZM36.6508 12.0072C36.542 13.6297 35.9328 14.0627 35.0529 14.0627C34.876 14.0627 34.7178 14.0605 34.565 14.057C33.8386 14.7519 33.0948 15.4285 32.3344 16.086V18.7692L33.9084 18.5942V15.316H33.9516C34.3949 15.4034 34.8811 15.4619 35.3249 15.4619C37.1566 15.4619 38.2586 14.2232 38.2586 11.7169C38.2586 11.2367 38.2216 10.8099 38.1515 10.4323C37.6607 10.9661 37.1603 11.4912 36.6508 12.0072ZM12.6277 3.31293C12.6986 3.24689 12.7504 3.18476 12.763 3.08473C12.7747 2.98508 12.7159 2.91318 12.6225 2.87811C12.4491 2.81266 12.2289 2.8744 12.0755 2.92813C11.9924 2.95734 11.9062 2.98508 11.8166 3.01195C11.6267 3.06738 11.4345 3.1147 11.2406 3.1538C11.0374 3.19561 10.8249 3.23097 10.6065 3.26067C10.3833 3.29009 10.1593 3.31292 9.93477 3.32915C9.63828 3.35059 9.3411 3.36135 9.04383 3.36139C8.83995 3.36139 8.63822 3.35836 8.43883 3.35221C8.16175 3.34403 7.88489 3.32957 7.60846 3.30883C7.34108 3.28871 7.08337 3.26292 6.83963 3.23253C6.59638 3.20166 6.36681 3.1664 6.15384 3.12644C5.95761 3.09051 5.76283 3.04704 5.56994 2.99612C5.40553 2.95216 5.25831 2.90586 5.12916 2.85681C5.06224 2.83151 4.99708 2.81549 4.9247 2.81608C4.86178 2.81637 4.77621 2.83308 4.7425 2.8956C4.70733 2.95988 4.74739 3.03276 4.7893 3.07896C4.83707 3.13172 4.89353 3.16591 4.95967 3.19346C4.99132 3.20625 5.02336 3.21886 5.05599 3.23175C5.21192 3.29165 5.37043 3.34459 5.53106 3.3904C5.70417 3.44071 5.88803 3.48702 6.08204 3.52903C6.2782 3.57123 6.48414 3.60913 6.69847 3.64274C6.91446 3.67703 7.13906 3.70575 7.36922 3.72998C7.60221 3.7543 7.84136 3.77394 8.08275 3.78722C8.32766 3.80188 8.57511 3.81028 8.82344 3.8134C9.32713 3.82014 9.83086 3.8045 10.3332 3.76651C10.5152 3.75284 10.6956 3.73535 10.8721 3.71571C10.916 3.71122 10.9595 3.70594 11.0032 3.70086C11.0028 3.79387 11.1203 3.85014 11.1923 3.87319C11.2837 3.9022 11.3718 3.91002 11.4666 3.90279C11.8532 3.87397 12.2313 3.83538 12.5961 3.78898C12.9662 3.7416 13.3219 3.68592 13.6584 3.62183C13.9756 3.56198 14.2904 3.49012 14.6022 3.40642C14.8937 3.32729 15.1605 3.24074 15.3967 3.14842C15.6334 3.0562 15.8398 2.95763 16.0135 2.85506C16.1861 2.75248 16.3261 2.64463 16.4283 2.53463C16.5319 2.42424 16.5976 2.31131 16.625 2.19681C16.6527 2.08173 16.6425 1.96626 16.5924 1.85099C16.542 1.73571 16.4533 1.62112 16.3257 1.50819C16.1975 1.39633 16.0316 1.28604 15.8282 1.17995C15.6254 1.07327 15.3851 0.971477 15.1116 0.875349C14.8373 0.779123 14.5298 0.688759 14.1916 0.605429C13.8289 0.516708 13.4632 0.441338 13.095 0.37947C12.6819 0.309013 12.2669 0.250699 11.8504 0.204603C11.3995 0.154146 10.9473 0.115154 10.4944 0.0876669C10.0189 0.0582187 9.54265 0.0401407 9.06621 0.0334484C8.58049 0.0260488 8.09468 0.0298597 7.60914 0.0448783C7.12391 0.059825 6.64093 0.0861038 6.1683 0.123031C5.69606 0.160251 5.23301 0.208218 4.78851 0.267125C4.36138 0.322507 3.93608 0.391282 3.51326 0.473351C3.11058 0.551796 2.73271 0.6405 2.38434 0.736823C2.03773 0.833342 1.72102 0.938653 1.44104 1.05012C1.16096 1.16217 0.91712 1.28135 0.714314 1.40542C0.511605 1.5288 0.349438 1.65854 0.232014 1.79091C0.113906 1.92338 0.0400513 2.05907 0.0126978 2.19691C-0.0154372 2.33417 0.00322179 2.4724 0.068284 2.60985C0.13276 2.7474 0.244811 2.88436 0.402387 3.0182C0.559279 3.15165 0.762866 3.28245 1.00915 3.40838C1.25611 3.53371 1.54615 3.65456 1.87615 3.76739C2.20635 3.88169 2.57552 3.98798 2.97967 4.08567C3.38352 4.18355 3.82274 4.27226 4.29029 4.351C4.75784 4.42993 5.2545 4.49773 5.7706 4.55468C6.28739 4.61134 6.82371 4.65628 7.37859 4.68881C7.45851 4.6937 7.53842 4.69809 7.61891 4.70249C7.69423 4.70649 7.76193 4.698 7.8309 4.66654C7.89294 4.6384 7.95722 4.58624 7.96347 4.51385C7.96972 4.43863 7.90954 4.38275 7.84898 4.35129C7.78157 4.31681 7.71446 4.30371 7.63992 4.29912C7.35808 4.28105 7.07888 4.25907 6.80544 4.23289C6.45395 4.19928 6.11184 4.15913 5.78135 4.11283C5.46441 4.06871 5.14866 4.0164 4.83443 3.95594C4.5512 3.90196 4.26975 3.83908 3.99048 3.76739C3.78508 3.71514 3.58144 3.65617 3.37991 3.59057C2.86244 3.42225 2.44706 3.23195 2.15623 3.02855C2.02943 2.94024 1.92627 2.84939 1.84772 2.75697C1.77035 2.66544 1.71682 2.57263 1.68839 2.47953C1.66025 2.38902 1.65671 2.29266 1.67813 2.20033C1.69933 2.1085 1.74466 2.01716 1.81412 1.9268C1.88377 1.83731 1.97677 1.7488 2.09332 1.66254C2.20752 1.57765 2.34438 1.4951 2.50372 1.41509C2.6612 1.33557 2.84075 1.25937 3.03897 1.1863C3.15223 1.14479 3.26653 1.10619 3.38177 1.07054C3.59766 1.00323 3.83114 0.94002 4.08045 0.881699C4.21734 0.849432 4.35477 0.819566 4.49271 0.792116C4.75325 0.739754 5.02708 0.692569 5.31253 0.650757C5.5973 0.60875 5.89291 0.572116 6.19663 0.540855C6.49654 0.511059 6.80359 0.486344 7.1162 0.467392C7.43092 0.448873 7.74596 0.436203 8.06116 0.42939C8.37455 0.42304 8.68951 0.42177 9.00368 0.427534C9.31532 0.432125 9.62568 0.443164 9.93106 0.46026C10.2334 0.476575 10.5312 0.499336 10.821 0.527276C11.1087 0.554434 11.3896 0.587551 11.6594 0.625944C11.9273 0.66375 12.1844 0.706051 12.4289 0.753528C12.9108 0.846921 13.3424 0.958191 13.7072 1.08382C14.0641 1.20701 14.3558 1.343 14.569 1.48758C14.7783 1.62943 14.9119 1.77879 14.9631 1.93031C15.0134 2.07783 14.9848 2.22827 14.8773 2.37403C14.7723 2.51695 14.5916 2.65596 14.3401 2.78491C14.0952 2.91103 13.7826 3.02797 13.4142 3.13054C13.1548 3.20269 12.8924 3.26355 12.6277 3.31293Z" fill="#222222"/>
<path d="M4.72195 2.0258C4.64478 2.05843 4.56858 2.07856 4.48339 2.08071C4.41442 2.08256 4.30491 2.07015 4.26495 1.99874C4.22344 1.92333 4.2884 1.83785 4.33764 1.78998C4.39645 1.73273 4.46297 1.69082 4.53761 1.65526C5.56942 1.16515 6.98125 0.996826 8.09698 0.996826H8.21988C8.62725 0.999659 9.03364 1.01871 9.42186 1.05251C9.79602 1.08543 10.1536 1.13232 10.4785 1.19182C10.7922 1.24975 11.075 1.3193 11.3157 1.39843C11.5472 1.47463 11.7386 1.55943 11.8813 1.65048C12.0181 1.73722 12.1094 1.82964 12.1503 1.92323C12.1666 1.96064 12.1747 1.99747 12.1747 2.03479C12.1747 2.08823 12.1571 2.14176 12.1227 2.19432C12.0661 2.2796 11.9625 2.36313 11.8148 2.4407C11.6743 2.51494 11.493 2.58372 11.277 2.64477C11.0716 2.7029 10.834 2.7538 10.5735 2.79453C10.3257 2.83302 10.0568 2.86243 9.77639 2.88167C9.64206 2.89066 9.50617 2.8976 9.36862 2.9018C9.26048 2.90443 9.15146 2.90629 9.04273 2.90629C9.01752 2.90629 8.9929 2.90629 8.9675 2.9058C8.84514 2.90526 8.7228 2.90194 8.60058 2.89584C8.48429 2.89052 8.36813 2.88254 8.25221 2.8719C8.04692 2.85409 7.8426 2.82638 7.63998 2.78887C7.46385 2.75526 7.30412 2.71531 7.16911 2.66939C7.04338 2.6268 6.93934 2.57903 6.86314 2.52842C6.79183 2.48094 6.74513 2.43093 6.7253 2.38023C6.70772 2.33333 6.71338 2.28576 6.74435 2.23936C6.77327 2.19706 6.82377 2.15554 6.89509 2.11724C6.95966 2.08227 7.04231 2.04984 7.14049 2.0215C7.23936 1.99376 7.33985 1.97209 7.44138 1.95664C7.54593 1.94055 7.65115 1.92918 7.75672 1.92254C7.83194 1.91766 7.90902 1.91492 7.98669 1.91492C8.06347 1.91492 8.14104 1.91766 8.21587 1.92254C8.32724 1.92977 8.43323 1.9412 8.5317 1.95664C8.64258 1.97403 8.7435 1.9963 8.8323 2.0215C8.93019 2.04984 9.01303 2.08237 9.07799 2.11724C9.14901 2.15534 9.19913 2.19686 9.22795 2.23936C9.2597 2.28576 9.26527 2.33333 9.2469 2.38023C9.23557 2.41031 9.21466 2.43982 9.18487 2.46844C9.22932 2.4659 9.27372 2.46238 9.31802 2.45789C9.38797 2.45125 9.45772 2.44187 9.52512 2.43054C9.59302 2.41823 9.65896 2.40416 9.72129 2.38775C9.7844 2.37134 9.8434 2.35277 9.89772 2.33167C9.94796 2.31244 9.99658 2.28918 10.0431 2.26212C10.0854 2.23701 10.1212 2.21015 10.1484 2.18113C10.1767 2.15329 10.1959 2.12291 10.2069 2.09223C10.2175 2.06117 10.2189 2.02932 10.2099 1.99679C10.2011 1.96445 10.1823 1.93143 10.1533 1.89851C10.1242 1.86549 10.0843 1.83257 10.0342 1.80063C9.97617 1.76466 9.91518 1.73371 9.8519 1.70811C9.7725 1.67546 9.69128 1.64741 9.60865 1.6241C9.50997 1.59571 9.41006 1.57178 9.30923 1.55239C9.19342 1.52993 9.07691 1.51126 8.95988 1.49642C8.83039 1.48066 8.70048 1.4686 8.57029 1.46027C8.43098 1.45172 8.29146 1.44703 8.15188 1.4462C8.13635 1.4465 8.12004 1.4465 8.10372 1.4465C7.02883 1.4465 5.72817 1.60085 4.72195 2.0258Z" fill="#222222"/>
</g>

</symbol><symbol id="ico-brand-6" viewBox="0 0 55 25">
<g clip-path="url(#clip0)">
<path d="M28.3169 4.32976H32.8103V15.7426H39.4853V19.5519H28.3169V4.32976ZM51.1203 18.0351C50.3239 19.2451 48.8535 19.9303 47.0181 19.9303C43.0681 19.9303 40.494 16.7792 40.494 11.9142C40.494 6.97851 43.3874 3.93726 48.1821 3.93726C50.093 3.93726 51.726 4.45011 52.9887 5.41493C54.2622 6.42547 54.7347 7.41851 54.9396 9.42583H50.2414C50.1128 8.25136 49.2353 7.49993 48.0806 7.49993C46.2639 7.49993 45.2014 9.18065 45.2014 11.9758C45.2014 14.811 46.3053 16.513 48.1608 16.513C49.6215 16.513 50.4674 15.7005 50.8149 13.8805H47.9158V10.6762H54.9396V19.5521H51.1203V18.0351Z" fill="#222222"/>
<path d="M12.0272 24.0793C18.6743 24.0793 24.0593 18.6925 24.0593 12.0396C24.0593 5.38678 18.6745 0 12.0273 0C5.39485 0 0.0107422 5.38678 0.0107422 12.0396C0.0107422 18.6925 5.39485 24.0793 12.0272 24.0793Z" fill="#222222"/>
<path d="M11.5733 6.77305V17.3273H14.9258V16.3845H12.5336V6.77287H11.5733V6.77305ZM8.21129 9.65233C9.007 9.65233 9.65593 9.0068 9.65593 8.2134C9.65602 8.0236 9.61873 7.83563 9.54618 7.66024C9.47363 7.48484 9.36725 7.32545 9.2331 7.19117C9.09895 7.05689 8.93967 6.95035 8.76435 6.87763C8.58902 6.80491 8.40109 6.76743 8.21129 6.76733C7.41968 6.76733 6.77075 7.41287 6.77075 8.2134C6.77075 9.0068 7.4195 9.65233 8.21129 9.65233Z" fill="white"/>
<path d="M12.5138 1.96543C12.3509 1.96091 12.1879 1.95877 12.0249 1.959C6.4817 1.959 1.96777 6.47882 1.96777 12.0383C1.96777 14.732 3.01599 17.2611 4.91599 19.1663C6.8142 21.0715 9.34456 22.1169 12.0251 22.1169C14.7222 22.1169 17.2519 21.0717 19.1519 19.1663C21.051 17.2611 22.0992 14.7313 22.0992 12.0383V11.5808L21.7038 11.5826H14.9126V12.5151H21.1421C21.1412 12.5365 21.1397 12.6351 21.138 12.6549C20.8183 17.4058 16.8588 21.1786 12.029 21.1786C9.59688 21.1786 7.30563 20.2245 5.5767 18.4961C3.85545 16.7772 2.90545 14.4779 2.90545 12.0376C2.90545 9.5965 3.85545 7.29793 5.57652 5.57829C7.30545 3.85543 9.59688 2.90293 12.029 2.90293C12.1351 2.90293 12.3987 2.90364 12.5138 2.90614V1.96543Z" fill="white"/>
</g>

</symbol><symbol id="ico-brand-7" viewBox="0 0 55 17">
<g clip-path="url(#clip0)">
<path d="M41.5629 7.14485C43.0415 7.14485 44.3058 8.09723 44.8213 9.44476H38.3019C38.8156 8.09723 40.0815 7.14485 41.5629 7.14485ZM47.7563 11.4275C47.781 11.2079 47.794 10.9851 47.794 10.7588C47.794 7.34657 44.9652 4.58018 41.4756 4.58018C37.9861 4.58018 35.1572 7.34657 35.1572 10.7588C35.1572 14.1718 37.9861 16.9368 41.4756 16.9368C44.1298 16.9368 46.3985 15.3393 47.3357 13.0704L44.6131 12.5931C44.0092 13.6978 42.868 14.4412 41.5629 14.4412C39.8315 14.4412 38.3963 13.1388 38.1082 11.4275H47.7563Z" fill="#222222"/>
<path d="M33.4583 4.83892H30.2319V16.7136H33.4583V4.83892Z" fill="#222222"/>
<path d="M31.8465 -0.00195312C30.8511 -0.00195312 30.0464 0.805086 30.0464 1.79831C30.0464 2.78886 30.8511 3.59546 31.8465 3.59546C32.8388 3.59546 33.6451 2.78886 33.6451 1.79831C33.6451 0.805086 32.8388 -0.00195312 31.8465 -0.00195312Z" fill="#222222"/>
<path d="M10.483 1.03247V7.42499H3.52716V1.03247H-0.000244141V16.7056H3.52716V10.3127H10.483V16.7056H14.0124V1.03247H10.483Z" fill="#222222"/>
<path d="M21.9883 14.3331C19.9915 14.3331 18.3772 12.7353 18.3772 10.7628C18.3772 8.78953 19.9915 7.18966 21.9883 7.18966C23.9838 7.18966 25.6007 8.78953 25.6007 10.7628C25.6007 12.7353 23.9838 14.3331 21.9883 14.3331ZM25.0454 4.84387V5.48056C24.1075 4.91358 23.0089 4.5862 21.8303 4.5862C18.4099 4.5862 15.6355 7.35009 15.6355 10.7612C15.6355 14.1714 18.4099 16.9363 21.8303 16.9363C22.9779 16.9363 24.0494 16.6249 24.9713 16.085V16.7038H28.1196V4.84387H25.0454Z" fill="#222222"/>
<path d="M54.4652 3.7349C51.4938 4.25423 49.2352 6.84022 49.2004 9.95708V16.7134H52.2898L52.2914 9.8298C52.2914 8.25376 53.4744 6.95344 54.9992 6.76666L54.4652 3.7349Z" fill="#222222"/>
</g>

</symbol><symbol id="ico-brand-8" viewBox="0 0 55 13">
<g clip-path="url(#clip0)">
<path d="M0 0.354515C0.726507 0.23048 2.30356 0.106445 3.77427 0.106445C5.47535 0.106445 6.48537 0.212779 7.42451 0.691174C8.34594 1.11647 9.037 1.98471 9.037 3.13651C9.037 4.14653 8.48771 5.1211 7.08785 5.65269V5.68813C8.55856 6.09568 9.42685 7.17659 9.42685 8.59412C9.42685 9.71051 8.89526 10.5964 8.09787 11.1989C7.19418 11.8722 5.70572 12.2798 3.1541 12.2798C1.70108 12.2798 0.655618 12.1735 0 12.0672V0.354515H0ZM3.1718 4.7844H3.80971C5.17414 4.7844 5.82976 4.30601 5.82976 3.54406C5.82976 2.83525 5.29817 2.39226 4.21726 2.39226C3.68568 2.39226 3.38447 2.4277 3.1718 2.46315V4.7844H3.1718ZM3.1718 9.88769C3.40217 9.92309 3.68568 9.92309 4.09323 9.92309C5.15639 9.92309 6.06013 9.49785 6.06013 8.45242C6.06013 7.44236 5.13869 7.05251 3.93375 7.05251H3.1718V9.88769H3.1718Z" fill="#222222"/>
<path d="M22.4149 6.04242C22.4149 9.88758 20.1114 12.3329 16.4257 12.3329C12.7223 12.3329 10.6846 9.55088 10.6846 6.2373C10.6846 2.76429 12.9704 0 16.6206 0C20.4658 0 22.4149 2.85288 22.4149 6.04242ZM14.069 6.18416C14.069 8.41683 15.0436 9.79895 16.5852 9.79895C18.1268 9.79895 19.0305 8.29279 19.0305 6.14871C19.0305 4.09323 18.1091 2.53392 16.5675 2.53392C15.0436 2.53392 14.069 3.98694 14.069 6.18416Z" fill="#222222"/>
<path d="M24.3283 8.94845C25.0548 9.32056 26.2421 9.69266 27.4293 9.69266C28.5279 9.69266 29.0595 9.32056 29.0595 8.71804C29.0595 8.13336 28.5279 7.79665 27.1812 7.33592C25.1611 6.62715 23.8322 5.5108 23.8322 3.73887C23.8322 1.63024 25.6041 0 28.6165 0C30.0518 0 31.0618 0.265813 31.8591 0.620216L31.1858 3.17184C30.6719 2.94147 29.786 2.60481 28.581 2.60481C27.6065 2.60481 27.0749 2.95917 27.0749 3.49076C27.0749 4.09323 27.7128 4.34134 29.2189 4.90837C31.363 5.68802 32.3376 6.83978 32.3376 8.50546C32.3376 10.5609 30.7251 12.3329 27.2343 12.3329C25.7991 12.3329 24.3992 11.943 23.7258 11.5887L24.3283 8.94845Z" fill="#222222"/>
<path d="M43.0044 11.8367C42.5437 12.0493 41.4274 12.3329 39.992 12.3329C35.5267 12.3329 33.5598 9.53314 33.5598 6.36134C33.5598 2.14408 36.643 0 40.2047 0C41.5868 0 42.7031 0.265813 43.1993 0.531583L42.5791 3.04781C42.0476 2.83514 41.321 2.62251 40.3641 2.62251C38.5214 2.62251 36.9266 3.70342 36.9266 6.14871C36.9266 8.32819 38.2201 9.67492 40.4174 9.67492C41.197 9.67492 42.0652 9.51548 42.5615 9.32056L43.0044 11.8367Z" fill="#222222"/>
<path d="M47.9299 0.194824V4.60701H51.8105V0.194824H55V12.1378H51.8105V7.4067H47.9299V12.1378H44.7227V0.194824H47.9299Z" fill="#222222"/>
</g>

</symbol><symbol id="ico-brand-9" viewBox="0 0 55 15">
<g clip-path="url(#clip0)">
<path fill-rule="evenodd" clip-rule="evenodd" d="M10.9822 1.16713C10.267 0.950704 9.74945 1.74113 10.1729 2.20216C12.0549 3.19964 13.3252 5.15683 13.3252 7.38695C13.3252 10.6427 10.634 13.2963 7.32177 13.2963H7.26531C3.98131 13.268 1.31834 10.6239 1.31834 7.38695C1.31834 5.19447 2.55098 3.26547 4.37652 2.24922C4.76232 1.71282 4.32002 1.07299 3.70842 1.13886C1.49713 2.38095 0.000976562 4.71457 0.000976562 7.38695C0.000976562 11.3296 3.25675 14.5572 7.26531 14.5854H7.32177C11.3492 14.5854 14.6426 11.3485 14.6426 7.38695C14.6426 4.73339 13.1652 2.40918 10.9822 1.16709V1.16713Z" fill="#222222"/>
<path fill-rule="evenodd" clip-rule="evenodd" d="M17.7661 10.9728H19.187V4.38599H17.7661V10.9728Z" fill="#222222"/>
<path fill-rule="evenodd" clip-rule="evenodd" d="M7.26535 1.96689C7.27472 1.96689 7.27472 1.97626 7.28417 1.97626C7.8299 1.97626 8.2722 1.52459 8.2722 0.98823C8.2722 0.442502 7.8299 0.000244141 7.28417 0.000244141H7.26535C6.72899 0.00965391 6.29614 0.451873 6.29614 0.98823C6.29614 1.52459 6.72899 1.95744 7.26535 1.96689Z" fill="#222222"/>
<path fill-rule="evenodd" clip-rule="evenodd" d="M23.8265 4.38599H22.0292H21.2012H20.6084V10.9728H22.0293V5.67513H23.6666C24.504 5.67513 25.078 6.08915 25.0592 7.05836V10.9728H26.4801V6.65374C26.4801 5.21405 25.2756 4.38599 23.8265 4.38599H23.8265Z" fill="#222222"/>
<path fill-rule="evenodd" clip-rule="evenodd" d="M7.26539 3.51025C6.83254 3.51025 6.48438 3.85837 6.48438 4.29122V11.0568C6.48438 11.4803 6.83254 11.8285 7.26539 11.8285C7.68879 11.8285 8.0464 11.4803 8.0464 11.0568V4.29122C8.0464 3.85837 7.68879 3.51025 7.26539 3.51025Z" fill="#222222"/>
<path fill-rule="evenodd" clip-rule="evenodd" d="M37.6393 4.21606C35.9267 4.2913 34.8258 5.42992 34.6564 7.60358C34.5435 9.2597 35.4374 10.9911 37.6393 11.1417C37.6863 11.1511 37.7334 11.1511 37.7898 11.1511C38.7873 11.1605 39.4648 11.0758 40.1234 10.8311L40.1423 9.58904C39.2766 9.93724 38.3732 10.0502 37.6393 9.90901C36.7641 9.74904 36.1431 9.21269 36.1713 8.29053H37.6393H40.3587C40.9044 5.84399 39.6153 4.22551 37.6393 4.2161L37.6393 4.21606ZM39.2107 7.12368H37.6393H36.0773V7.10486C36.0773 6.13566 36.783 5.35465 37.6393 5.35465C38.505 5.35465 39.2107 6.13566 39.2107 7.10486V7.12368Z" fill="#222222"/>
<path fill-rule="evenodd" clip-rule="evenodd" d="M47.7925 10.9728H49.2134V4.38599H47.7925V10.9728Z" fill="#222222"/>
<path fill-rule="evenodd" clip-rule="evenodd" d="M44.3487 7.1619C41.968 6.75728 42.5703 4.74359 46.193 5.68457V4.51772C45.1862 4.19782 43.5677 4.11314 42.702 4.51772C40.9142 5.39287 41.0459 8.13107 44.01 8.43218C45.939 8.66739 45.6284 10.8881 41.5634 9.58017V10.8693C42.8432 11.2269 44.4428 11.3774 45.5532 10.8693C46.2872 10.4176 46.5695 9.80601 46.5789 9.20374C46.6071 8.14981 45.9108 7.39707 44.3488 7.16182L44.3487 7.1619Z" fill="#222222"/>
<path fill-rule="evenodd" clip-rule="evenodd" d="M53.3641 4.38599H51.9432H50.3059V5.68453H51.9432V10.9728H53.3641V5.68453H55.0014V4.38599H53.3641Z" fill="#222222"/>
<path fill-rule="evenodd" clip-rule="evenodd" d="M30.8077 4.43307C30.6101 4.40488 30.3937 4.39551 30.1679 4.39551H27.9377V10.9823H30.1961C30.4125 10.9823 30.6196 10.9729 30.8078 10.9447C33.1508 10.6906 33.6777 8.96866 33.6683 7.79243C33.6589 5.97635 32.7179 4.65898 30.8078 4.43315L30.8077 4.43307ZM30.8077 9.67431C30.6007 9.7214 30.3654 9.74963 30.0925 9.74963H29.3398V5.61874H30.0737C30.3467 5.61874 30.5913 5.64693 30.8077 5.70343C31.7769 5.94808 32.2568 6.71964 32.2662 7.75476C32.2757 8.4323 31.9933 9.40147 30.8077 9.67435V9.67431Z" fill="#222222"/>
</g>

</symbol><symbol id="ico-garant" viewBox="0 0 92 88">
<circle cx="35" cy="53" r="35" fill="#CCEDFF"/>
<path d="M90.7902 0H18.2097C17.8889 0 17.5812 0.12704 17.3543 0.3532C17.1274 0.579359 17 0.886097 17 1.20594V68.794C16.9997 68.9525 17.0307 69.1095 17.0914 69.256C17.1521 69.4024 17.2412 69.5355 17.3536 69.6476C17.466 69.7596 17.5995 69.8484 17.7464 69.9089C17.8933 69.9694 18.0507 70.0003 18.2097 70H90.7902C90.9492 70.0003 91.1066 69.9694 91.2535 69.9089C91.4005 69.8484 91.534 69.7596 91.6464 69.6476C91.7588 69.5355 91.8479 69.4024 91.9086 69.256C91.9693 69.1095 92.0003 68.9525 92 68.794V1.20594C92 0.886097 91.8726 0.579359 91.6458 0.3532C91.4189 0.12704 91.1111 0 90.7902 0ZM89.5804 2.41191V8.0455H19.4195V2.41191H89.5804ZM19.4195 67.5856V10.4599H89.5804V67.5856H19.4195ZM79.9074 6.5156C80.1631 6.5156 80.4131 6.44002 80.6256 6.29836C80.8382 6.1567 81.0039 5.95535 81.1016 5.71982C81.1993 5.48429 81.2247 5.22516 81.1747 4.97521C81.1246 4.72526 81.0013 4.49574 80.8203 4.31569C80.6393 4.13563 80.4089 4.01313 80.158 3.96371C79.9072 3.91428 79.6472 3.94015 79.4111 4.03803C79.175 4.13592 78.9734 4.30141 78.8317 4.51358C78.69 4.72575 78.6147 4.97506 78.6152 5.22994C78.6159 5.57072 78.752 5.89737 78.9937 6.13834C79.2354 6.37931 79.5631 6.51494 79.9049 6.5156H79.9074ZM85.5512 6.5156C85.807 6.5161 86.0574 6.44093 86.2702 6.29958C86.4831 6.15822 86.649 5.95705 86.7471 5.72157C86.8453 5.48608 86.8711 5.22685 86.8213 4.97673C86.7715 4.72662 86.6484 4.49687 86.4675 4.31656C86.2866 4.13626 86.0562 4.01352 85.8053 3.9639C85.5544 3.91427 85.2944 3.94 85.0582 4.03781C84.8219 4.13561 84.6201 4.30109 84.4783 4.51331C84.3365 4.72553 84.261 4.97495 84.2615 5.22994C84.2615 5.57049 84.3972 5.89714 84.6385 6.13818C84.8798 6.37923 85.2072 6.51494 85.5488 6.5156H85.5512ZM74.2611 6.5156C74.5169 6.5161 74.767 6.44093 74.9799 6.29958C75.1928 6.15822 75.3589 5.95705 75.457 5.72157C75.5551 5.48608 75.5809 5.22685 75.5311 4.97673C75.4813 4.72662 75.3582 4.49687 75.1773 4.31656C74.9965 4.13626 74.766 4.01352 74.5151 3.9639C74.2642 3.91427 74.0041 3.94 73.7679 4.03781C73.5316 4.13561 73.3298 4.30109 73.188 4.51331C73.0462 4.72553 72.9709 4.97495 72.9714 5.22994C72.9714 5.57049 73.1068 5.89714 73.3482 6.13818C73.5895 6.37923 73.917 6.51494 74.2586 6.5156H74.2611ZM81.1172 24.9537H27.8778C27.557 24.9537 27.2493 25.0808 27.0224 25.307C26.7955 25.5331 26.668 25.8398 26.668 26.1597C26.668 26.4795 26.7955 26.7863 27.0224 27.0124C27.2493 27.2386 27.557 27.3656 27.8778 27.3656H81.1172C81.4393 27.3653 81.7482 27.2374 81.9758 27.0101C82.2033 26.7828 82.3311 26.4746 82.3308 26.1534C82.3304 25.8323 82.2021 25.5244 81.9741 25.2975C81.746 25.0707 81.4369 24.9434 81.1147 24.9437L81.1172 24.9537ZM81.1172 18.5153H27.8778C27.5661 18.5295 27.272 18.6628 27.0564 18.8876C26.8409 19.1125 26.7206 19.4115 26.7206 19.7225C26.7206 20.0335 26.8409 20.3326 27.0564 20.5574C27.272 20.7823 27.5661 20.9156 27.8778 20.9297H81.1172C81.4397 20.9294 81.7489 20.8013 81.9767 20.5738C82.2045 20.3462 82.3323 20.0378 82.332 19.7163C82.3316 19.3948 82.2031 19.0866 81.9748 18.8595C81.7466 18.6324 81.4372 18.5051 81.1147 18.5054L81.1172 18.5153ZM51.2756 37.8255H27.8878C27.5761 37.8396 27.282 37.973 27.0664 38.1978C26.8509 38.4226 26.7306 38.7217 26.7306 39.0327C26.7306 39.3437 26.8509 39.6428 27.0664 39.8676C27.282 40.0925 27.5761 40.2258 27.8878 40.2399H51.2756C51.5981 40.2396 51.9073 40.1115 52.1351 39.884C52.3629 39.6564 52.4908 39.348 52.4904 39.0265C52.4901 38.705 52.3617 38.3968 52.1334 38.1697C51.9051 37.9426 51.5957 37.8152 51.2732 37.8156L51.2756 37.8255ZM51.2756 31.3896H27.8878C27.5761 31.4037 27.282 31.5371 27.0664 31.762C26.8509 31.9868 26.7306 32.2858 26.7306 32.5968C26.7306 32.9078 26.8509 33.2069 27.0664 33.4317C27.282 33.6565 27.5761 33.7899 27.8878 33.804H51.2756C51.5981 33.8037 51.9073 33.6757 52.1351 33.4481C52.3629 33.2206 52.4908 32.9121 52.4904 32.5906C52.4901 32.2691 52.3617 31.9609 52.1334 31.7338C51.9051 31.5067 51.5957 31.3793 51.2732 31.3796L51.2756 31.3896ZM51.2756 44.2639H27.8878C27.5761 44.278 27.282 44.4114 27.0664 44.6362C26.8509 44.8611 26.7306 45.1601 26.7306 45.4711C26.7306 45.7821 26.8509 46.0811 27.0664 46.306C27.282 46.5308 27.5761 46.6642 27.8878 46.6783H51.2756C51.5981 46.678 51.9073 46.5499 52.1351 46.3224C52.3629 46.0948 52.4908 45.7864 52.4904 45.4649C52.4901 45.1434 52.3617 44.8352 52.1334 44.6081C51.9051 44.381 51.5957 44.2536 51.2732 44.2539L51.2756 44.2639ZM51.2756 50.6998H27.8878C27.5761 50.7139 27.282 50.8473 27.0664 51.0721C26.8509 51.297 26.7306 51.596 26.7306 51.907C26.7306 52.218 26.8509 52.517 27.0664 52.7419C27.282 52.9667 27.5761 53.1 27.8878 53.1142H51.2756C51.5971 53.1138 51.9054 52.9862 52.1325 52.7594C52.3596 52.5325 52.487 52.225 52.4866 51.9045C52.4863 51.584 52.3583 51.2768 52.1307 51.0504C51.9031 50.824 51.5947 50.6969 51.2732 50.6973L51.2756 50.6998ZM81.1172 31.3896H57.7293C57.4085 31.3896 57.1008 31.5166 56.8739 31.7428C56.6471 31.969 56.5196 32.2757 56.5196 32.5956V36.6195C56.5196 36.9394 56.6471 37.2462 56.8739 37.4723C57.1008 37.6985 57.4085 37.8255 57.7293 37.8255C58.0502 37.8255 58.3579 37.6985 58.5848 37.4723C58.8117 37.2462 58.9391 36.9394 58.9391 36.6195V33.804H79.9074V57.1357H58.9391V41.4384C58.9391 41.1186 58.8117 40.8118 58.5848 40.5856C58.3579 40.3595 58.0502 40.2324 57.7293 40.2324C57.4085 40.2324 57.1008 40.3595 56.8739 40.5856C56.6471 40.8118 56.5196 41.1186 56.5196 41.4384V58.3367C56.5196 58.6565 56.6471 58.9633 56.8739 59.1894C57.1008 59.4156 57.4085 59.5426 57.7293 59.5426H81.1172C81.438 59.5426 81.7457 59.4156 81.9725 59.1894C82.1994 58.9633 82.3269 58.6565 82.3269 58.3367V32.5856C82.3269 32.427 82.2956 32.27 82.2346 32.1235C82.1737 31.9771 82.0844 31.844 81.9718 31.732C81.8592 31.62 81.7254 31.5312 81.5783 31.4707C81.4313 31.4103 81.2738 31.3793 81.1147 31.3796L81.1172 31.3896ZM51.2732 57.1257H27.8853C27.5736 57.1399 27.2795 57.2732 27.0639 57.498C26.8484 57.7229 26.7281 58.0219 26.7281 58.3329C26.7281 58.6439 26.8484 58.943 27.0639 59.1678C27.2795 59.3927 27.5736 59.526 27.8853 59.5401H51.2732C51.5848 59.526 51.879 59.3927 52.0946 59.1678C52.3101 58.943 52.4304 58.6439 52.4304 58.3329C52.4304 58.0219 52.3101 57.7229 52.0946 57.498C51.879 57.2732 51.5848 57.1399 51.2732 57.1257Z" fill="#00BFFE"/>
<path d="M66.6641 49.4755L75.4171 40.6782V40.6759C75.5534 40.5289 75.7176 40.411 75.9001 40.3291C76.0825 40.2472 76.2795 40.2029 76.4793 40.199C76.6791 40.1951 76.8776 40.2316 77.0631 40.3063C77.2486 40.381 77.4173 40.4925 77.5591 40.634C77.701 40.7755 77.8131 40.9442 77.8888 41.1301C77.9645 41.3161 78.0023 41.5154 77.9999 41.7163C77.9975 41.9171 77.955 42.1155 77.8749 42.2995C77.7948 42.4836 77.6787 42.6496 77.5335 42.7876L67.7098 52.6591C67.5739 52.8035 67.41 52.9185 67.2282 52.9968C67.0464 53.075 66.8505 53.115 66.6528 53.1142C66.3083 53.1142 65.9743 52.9953 65.7066 52.7774C65.6727 52.7455 65.6274 52.7114 65.5934 52.6773L61.4399 48.5016C61.158 48.2179 60.9998 47.8333 61 47.4324C61.0002 47.0315 61.1588 46.647 61.441 46.3637C61.7231 46.0803 62.1057 45.9213 62.5045 45.9215C62.9033 45.9217 63.2857 46.0812 63.5676 46.3648L66.6641 49.4755Z" fill="#00BFFE"/>
</symbol><symbol id="ico-logo-footer" viewBox="0 0 220 58">
<path fill-rule="evenodd" clip-rule="evenodd" d="M0 7.35995C0 3.29516 3.28325 0 7.33333 0H43.8997C47.9498 0 51.2331 3.29516 51.2331 7.35995V50.4865C51.2331 54.5513 47.9498 57.8464 43.8997 57.8464H7.33333C3.28325 57.8464 0 54.5513 0 50.4865V7.35995ZM38.1333 32.7518C38.1333 39.8652 32.3877 45.6317 25.3 45.6317C18.2123 45.6317 12.4667 39.8652 12.4667 32.7518C12.4667 25.6384 18.2123 19.8719 25.3 19.8719C32.3877 19.8719 38.1333 25.6384 38.1333 32.7518ZM39.6 32.7518C39.6 40.6781 33.1977 47.1037 25.3 47.1037C17.4023 47.1037 11 40.6781 11 32.7518C11 24.8254 17.4023 18.3999 25.3 18.3999C33.1977 18.3999 39.6 24.8254 39.6 32.7518ZM43.2667 32.7518C43.2667 42.7105 35.2227 50.7837 25.3 50.7837C15.3773 50.7837 7.33333 42.7105 7.33333 32.7518C7.33333 22.7931 15.3773 14.7199 25.3 14.7199C35.2227 14.7199 43.2667 22.7931 43.2667 32.7518ZM11.5274 8.14147C11.5274 10.0347 9.99822 11.5694 8.11187 11.5694C6.22552 11.5694 4.69633 10.0347 4.69633 8.14147C4.69633 6.24827 6.22552 4.71353 8.11187 4.71353C9.99822 4.71353 11.5274 6.24827 11.5274 8.14147ZM17.9316 11.5694C19.8179 11.5694 21.3471 10.0347 21.3471 8.14147C21.3471 6.24827 19.8179 4.71353 17.9316 4.71353C16.0452 4.71353 14.516 6.24827 14.516 8.14147C14.516 10.0347 16.0452 11.5694 17.9316 11.5694Z" fill="#222222"/>
<path fill-rule="evenodd" clip-rule="evenodd" d="M17.8201 32.1868C17.1199 33.3456 14.319 30.8496 14.7566 30.0473C15.1941 29.245 17.0498 27.6583 17.8201 27.3731C17.2074 26.3034 18.8707 23.9856 21.059 24.5205C22.9848 21.3113 27.2734 23.1834 27.1863 23.9856C27.1557 24.2682 26.6904 24.2964 26.0507 24.3352C24.8746 24.4064 23.1091 24.5134 22.3719 26.3034L26.7663 30.7784C27.4473 30.09 28.0629 29.4589 28.4879 29.0052C28.5946 28.8912 28.6754 28.8115 28.741 28.7467C28.8891 28.6004 28.9604 28.53 29.0802 28.3137C29.2981 27.9201 29.367 27.194 29.367 27.194C29.367 27.194 29.3816 26.8377 29.4095 26.6659C29.6568 25.1448 30.9545 23.9848 32.5183 23.9848C32.8387 23.9848 33.3277 24.1026 33.6191 24.1931L30.981 26.8796L32.8379 28.7706L35.476 26.0841C35.6011 26.43 35.6695 26.8039 35.6695 27.194C35.6695 28.7865 34.5305 30.1081 33.0368 30.3599C32.8681 30.3884 32.5183 30.4032 32.5183 30.4032C32.5183 30.4032 31.6992 30.3934 31.28 30.6584C31.1591 30.7348 31.0452 30.8647 30.9178 31.0099C30.8488 31.0886 30.7759 31.1718 30.6957 31.2535L28.9643 33.0167L33.5765 37.7137C33.5765 37.7137 34.1206 38.0824 34.1893 38.6942C34.27 39.4127 33.9423 39.7097 33.5162 40.0959C33.5072 40.1041 33.4981 40.1123 33.489 40.1205C33.3979 40.2032 33.3179 40.2897 33.2408 40.3731C32.9696 40.6664 32.734 40.9212 32.176 40.8337C31.5475 40.7352 31.1256 40.1205 31.1256 40.1205L26.5928 35.4318L24.8774 37.1787C24.8774 37.1787 24.65 37.3684 24.5407 37.5216C24.2797 37.8875 24.2855 38.3682 24.2892 38.6839C24.2896 38.719 24.29 38.752 24.29 38.7827C24.29 39.0367 24.261 39.2838 24.2063 39.5208C23.8788 40.9374 22.6297 41.9918 21.1388 41.9918C20.7557 41.9918 20.3885 41.9222 20.0489 41.7947L22.721 39.0735L20.8641 37.1825L18.192 39.9037C18.1031 39.607 17.9875 39.109 17.9875 38.7827C17.9875 37.2276 19.0737 35.9308 20.5156 35.6362C20.717 35.5951 20.9254 35.5735 21.1388 35.5735C21.3887 35.5735 21.8712 35.5365 22.2362 35.2809C22.3401 35.2082 22.3724 35.1714 22.4318 35.1038C22.4736 35.0563 22.5289 34.9934 22.6319 34.892C23.0209 34.5092 23.661 33.8781 24.3907 33.1541L20.0085 28.6211C18.5382 29.1003 18.3719 30.022 18.2086 30.9269C18.1289 31.3687 18.0499 31.8065 17.8201 32.1868Z" fill="#222222"/>
<path d="M81.033 50.8655C81.033 49.8598 80.6793 49.0907 79.972 48.5583C79.2646 48.014 77.9914 47.4461 76.1523 46.8545C74.3132 46.251 72.8572 45.6594 71.7844 45.0797C68.8607 43.4942 67.3988 41.3585 67.3988 38.6726C67.3988 37.2765 67.7878 36.0341 68.5659 34.9456C69.3558 33.8452 70.4817 32.9874 71.9435 32.3721C73.4172 31.7569 75.0677 31.4492 76.895 31.4492C78.7341 31.4492 80.3728 31.7864 81.8111 32.4609C83.2494 33.1234 84.3634 34.0641 85.1533 35.2828C85.955 36.5015 86.3558 37.8858 86.3558 39.4358H81.0507C81.0507 38.2526 80.6793 37.3356 79.9366 36.6849C79.1939 36.0223 78.1505 35.691 76.8066 35.691C75.5098 35.691 74.5018 35.969 73.7826 36.5251C73.0635 37.0694 72.7039 37.7912 72.7039 38.6904C72.7039 39.5305 73.1225 40.2345 73.9595 40.8024C74.8083 41.3703 76.0521 41.9028 77.6908 42.3997C80.7088 43.3108 82.9075 44.4407 84.2868 45.7896C85.6662 47.1384 86.3558 48.8186 86.3558 50.83C86.3558 53.0663 85.5129 54.8233 83.827 56.1012C82.1412 57.3672 79.8718 58.0002 77.0188 58.0002C75.0382 58.0002 73.2344 57.6393 71.6075 56.9176C69.9806 56.184 68.7369 55.1842 67.8763 53.9182C67.0274 52.6521 66.603 51.185 66.603 49.5167H71.9258C71.9258 52.3682 73.6235 53.7939 77.0188 53.7939C78.2802 53.7939 79.2646 53.5395 79.972 53.0308C80.6793 52.5102 81.033 51.7884 81.033 50.8655Z" fill="#222222"/>
<path d="M107.193 46.4463H97.0068V53.368H108.961V57.6452H91.7017V31.8042H108.926V36.1169H97.0068V42.2755H107.193V46.4463Z" fill="#222222"/>
<path d="M123.343 48.1856H119.117V57.6452H113.812V31.8042H123.379C126.42 31.8042 128.766 32.4845 130.417 33.8452C132.067 35.2059 132.893 37.1286 132.893 39.6133C132.893 41.3763 132.509 42.8493 131.743 44.0325C130.989 45.2039 129.839 46.1386 128.295 46.8367L133.865 57.3968V57.6452H128.171L123.343 48.1856ZM119.117 43.8728H123.396C124.729 43.8728 125.76 43.5356 126.491 42.8612C127.222 42.1749 127.587 41.2343 127.587 40.0392C127.587 38.8205 127.24 37.8622 126.544 37.1641C125.86 36.466 124.805 36.1169 123.379 36.1169H119.117V43.8728Z" fill="#222222"/>
<path d="M147.841 51.2382L153.676 31.8042H159.583L150.617 57.6452H145.082L136.152 31.8042H142.041L147.841 51.2382Z" fill="#222222"/>
<path d="M169.403 57.6452H164.098V31.8042H169.403V57.6452Z" fill="#222222"/>
<path d="M196.287 49.0375C196.087 51.818 195.061 54.0069 193.21 55.6042C191.371 57.2015 188.943 58.0002 185.925 58.0002C182.624 58.0002 180.024 56.888 178.126 54.6636C176.24 52.4273 175.297 49.3628 175.297 45.4701V43.8906C175.297 41.4058 175.733 39.2169 176.605 37.3238C177.478 35.4307 178.722 33.9813 180.337 32.9755C181.964 31.958 183.85 31.4492 185.996 31.4492C188.966 31.4492 191.36 32.2479 193.175 33.8452C194.991 35.4425 196.04 37.6847 196.323 40.5717H191.018C190.888 38.9034 190.422 37.6965 189.621 36.9511C188.831 36.1938 187.622 35.8152 185.996 35.8152C184.227 35.8152 182.901 36.4541 182.017 37.732C181.144 38.998 180.696 40.9681 180.673 43.6421V45.5944C180.673 48.3867 181.091 50.4277 181.928 51.7174C182.777 53.0071 184.109 53.6519 185.925 53.6519C187.563 53.6519 188.784 53.2792 189.585 52.5338C190.399 51.7766 190.864 50.6111 190.982 49.0375H196.287Z" fill="#222222"/>
<path d="M217.001 46.4463H206.815V53.368H218.769V57.6452H201.51V31.8042H218.734V36.1169H206.815V42.2755H217.001V46.4463Z" fill="#222222"/>
<path d="M75.7457 15.4762L72.987 18.4579V25.8411H67.6819V0H72.987V11.7137L75.3213 8.50129L81.882 0H88.4073L79.2648 11.4829L88.6725 25.8411H82.3594L75.7457 15.4762Z" fill="#222222"/>
<path d="M111.807 25.8411H106.502V14.7663H96.157V25.8411H90.8519V0H96.157V10.4713H106.502V0H111.807V25.8411Z" fill="#222222"/>
<path d="M131.493 20.5167H122.192L120.423 25.8411H114.782L124.367 0H129.283L138.921 25.8411H133.28L131.493 20.5167ZM123.624 16.2039H130.061L126.825 6.53126L123.624 16.2039Z" fill="#222222"/>
<path d="M151.038 16.3814H146.812V25.8411H141.507V0H151.074C154.115 0 156.461 0.680339 158.112 2.04102C159.762 3.4017 160.588 5.3244 160.588 7.80911C160.588 9.57208 160.204 11.0452 159.438 12.2284C158.684 13.3997 157.534 14.3345 155.99 15.0325L161.56 25.5926V25.8411H155.866L151.038 16.3814ZM146.812 12.0686H151.091C152.424 12.0686 153.455 11.7314 154.186 11.057C154.917 10.3707 155.282 9.4301 155.282 8.23507C155.282 7.01637 154.935 6.05798 154.239 5.35989C153.555 4.6618 152.5 4.31276 151.074 4.31276H146.812V12.0686Z" fill="#222222"/>
<path d="M172.882 15.4762L170.123 18.4579V25.8411H164.818V0H170.123V11.7137L172.458 8.50129L179.018 0H185.544L176.401 11.4829L185.809 25.8411H179.496L172.882 15.4762Z" fill="#222222"/>
<path d="M193.629 25.8411H188.324V0H193.629V25.8411Z" fill="#222222"/>
<path d="M208.258 19.434L214.094 0H220L211.034 25.8411H205.499L196.569 0H202.458L208.258 19.434Z" fill="#222222"/>
</symbol><symbol id="ico-logo" viewBox="0 0 95 25">
<path fill-rule="evenodd" clip-rule="evenodd" d="M0 3.16667C0 1.41776 1.41777 0 3.16667 0H18.9567C20.7056 0 22.1234 1.41777 22.1234 3.16667V21.7221C22.1234 23.471 20.7056 24.8888 18.9567 24.8888H3.16667C1.41777 24.8888 0 23.471 0 21.7221V3.16667ZM16.4667 14.0917C16.4667 17.1522 13.9856 19.6333 10.925 19.6333C7.86442 19.6333 5.38333 17.1522 5.38333 14.0917C5.38333 11.0311 7.86442 8.55 10.925 8.55C13.9856 8.55 16.4667 11.0311 16.4667 14.0917ZM17.1 14.0917C17.1 17.502 14.3354 20.2667 10.925 20.2667C7.51464 20.2667 4.75 17.502 4.75 14.0917C4.75 10.6813 7.51464 7.91667 10.925 7.91667C14.3354 7.91667 17.1 10.6813 17.1 14.0917ZM18.6833 14.0917C18.6833 18.3765 15.2098 21.85 10.925 21.85C6.64019 21.85 3.16667 18.3765 3.16667 14.0917C3.16667 9.80686 6.64019 6.33333 10.925 6.33333C15.2098 6.33333 18.6833 9.80686 18.6833 14.0917ZM4.97774 3.50292C4.97774 4.31748 4.31741 4.97781 3.50285 4.97781C2.68829 4.97781 2.02796 4.31748 2.02796 3.50292C2.02796 2.68836 2.68829 2.02803 3.50285 2.02803C4.31741 2.02803 4.97774 2.68836 4.97774 3.50292ZM7.74318 4.97781C8.55774 4.97781 9.21807 4.31748 9.21807 3.50292C9.21807 2.68836 8.55774 2.02803 7.74318 2.02803C6.92862 2.02803 6.26829 2.68836 6.26829 3.50292C6.26829 4.31748 6.92862 4.97781 7.74318 4.97781Z" fill="#00BFFE"/>
<path fill-rule="evenodd" clip-rule="evenodd" d="M7.69511 13.8487C7.39272 14.3473 6.18328 13.2734 6.37222 12.9282C6.56116 12.583 7.36248 11.9003 7.69511 11.7776C7.43052 11.3173 8.14875 10.3201 9.09373 10.5502C9.92531 9.16944 11.7772 9.97492 11.7396 10.3201C11.7264 10.4417 11.5254 10.4538 11.2492 10.4705C10.7414 10.5012 9.97898 10.5472 9.66066 11.3173L11.5582 13.2427C11.8523 12.9466 12.1181 12.675 12.3017 12.4798C12.3477 12.4308 12.3826 12.3965 12.4109 12.3686C12.4749 12.3056 12.5057 12.2754 12.5574 12.1823C12.6515 12.0129 12.6813 11.7005 12.6813 11.7005C12.6813 11.7005 12.6875 11.5472 12.6996 11.4733C12.8064 10.8188 13.3668 10.3198 14.042 10.3198C14.1804 10.3198 14.3916 10.3704 14.5174 10.4094L13.3782 11.5653L14.1801 12.3789L15.3192 11.223C15.3733 11.3718 15.4028 11.5327 15.4028 11.7005C15.4028 12.3857 14.9109 12.9543 14.266 13.0627C14.1931 13.0749 14.042 13.0813 14.042 13.0813C14.042 13.0813 13.6883 13.0771 13.5073 13.1911C13.4551 13.224 13.4059 13.2799 13.3509 13.3424C13.3211 13.3762 13.2896 13.412 13.255 13.4472L12.5074 14.2058L14.499 16.2267C14.499 16.2267 14.7339 16.3853 14.7636 16.6486C14.7985 16.9577 14.657 17.0855 14.473 17.2516C14.4691 17.2552 14.4652 17.2587 14.4612 17.2623C14.4219 17.2978 14.3873 17.335 14.354 17.3709C14.2369 17.4971 14.1352 17.6067 13.8942 17.5691C13.6229 17.5267 13.4406 17.2623 13.4406 17.2623L11.4833 15.2449L10.7426 15.9965C10.7426 15.9965 10.6444 16.0781 10.5972 16.1441C10.4845 16.3015 10.487 16.5083 10.4886 16.6441C10.4888 16.6592 10.4889 16.6734 10.4889 16.6866C10.4889 16.7959 10.4764 16.9022 10.4528 17.0042C10.3114 17.6137 9.77198 18.0674 9.12816 18.0674C8.96273 18.0674 8.8042 18.0374 8.65754 17.9826L9.81139 16.8118L9.00955 15.9981L7.8557 17.169C7.81732 17.0413 7.7674 16.827 7.7674 16.6866C7.7674 16.0175 8.23642 15.4596 8.85905 15.3329C8.94605 15.3151 9.03604 15.3059 9.12816 15.3059C9.23607 15.3059 9.44442 15.2899 9.60206 15.18C9.64691 15.1487 9.66086 15.1329 9.68651 15.1038C9.70457 15.0833 9.72842 15.0563 9.77294 15.0126C9.94089 14.8479 10.2173 14.5764 10.5324 14.2649L8.64009 12.3145C8.00517 12.5207 7.93335 12.9173 7.86286 13.3066C7.82844 13.4967 7.79433 13.6851 7.69511 13.8487Z" fill="#00BFFE"/>
<path d="M34.9916 21.8852C34.9916 21.4525 34.8389 21.1216 34.5335 20.8925C34.228 20.6584 33.6782 20.414 32.884 20.1595C32.0899 19.8998 31.4612 19.6453 30.9979 19.3958C29.7354 18.7137 29.1041 17.7948 29.1041 16.6392C29.1041 16.0385 29.2721 15.5039 29.6081 15.0356C29.9492 14.5621 30.4354 14.1931 31.0666 13.9283C31.703 13.6636 32.4157 13.5312 33.2048 13.5312C33.9989 13.5312 34.7065 13.6763 35.3276 13.9665C35.9487 14.2516 36.4298 14.6563 36.7709 15.1807C37.117 15.705 37.2901 16.3006 37.2901 16.9675H34.9993C34.9993 16.4585 34.8389 16.0639 34.5182 15.7839C34.1975 15.4988 33.7469 15.3563 33.1666 15.3563C32.6066 15.3563 32.1713 15.4759 31.8608 15.7152C31.5502 15.9494 31.395 16.2599 31.395 16.6468C31.395 17.0083 31.5757 17.3112 31.9371 17.5555C32.3037 17.7999 32.8408 18.029 33.5484 18.2428C34.8516 18.6348 35.8011 19.1209 36.3967 19.7013C36.9923 20.2816 37.2901 21.0045 37.2901 21.87C37.2901 22.8321 36.9261 23.5881 36.1981 24.1379C35.4702 24.6826 34.4902 24.955 33.2582 24.955C32.403 24.955 31.6241 24.7997 30.9215 24.4892C30.219 24.1735 29.6819 23.7434 29.3103 23.1987C28.9438 22.6539 28.7605 22.0227 28.7605 21.3049H31.059C31.059 22.5318 31.7921 23.1452 33.2582 23.1452C33.8029 23.1452 34.228 23.0358 34.5335 22.8168C34.8389 22.5929 34.9916 22.2823 34.9916 21.8852Z" fill="#00BFFE"/>
<path d="M46.2879 19.9838H41.8894V22.9619H47.0515V24.8023H39.5986V13.684H47.0362V15.5396H41.8894V18.1893H46.2879V19.9838Z" fill="#00BFFE"/>
<path d="M53.262 20.7322H51.437V24.8023H49.1461V13.684H53.2773C54.5907 13.684 55.6038 13.9767 56.3165 14.5621C57.0292 15.1476 57.3855 15.9748 57.3855 17.0439C57.3855 17.8024 57.2201 18.4362 56.8892 18.9453C56.5634 19.4493 56.067 19.8515 55.4001 20.1518L57.8055 24.6953V24.8023H55.3467L53.262 20.7322ZM51.437 18.8766H53.2849C53.8602 18.8766 54.3056 18.7315 54.6213 18.4413C54.9369 18.146 55.0947 17.7413 55.0947 17.2272C55.0947 16.7028 54.9445 16.2905 54.6442 15.9901C54.3489 15.6897 53.8933 15.5396 53.2773 15.5396H51.437V18.8766Z" fill="#00BFFE"/>
<path d="M63.8404 22.0456L66.3604 13.684H68.9109L65.0393 24.8023H62.6492L58.7929 13.684H61.3358L63.8404 22.0456Z" fill="#00BFFE"/>
<path d="M73.1513 24.8023H70.8604V13.684H73.1513V24.8023Z" fill="#00BFFE"/>
<path d="M84.7606 21.0987C84.674 22.295 84.2311 23.2368 83.4319 23.9241C82.6377 24.6113 81.589 24.955 80.2858 24.955C78.8604 24.955 77.7378 24.4764 76.9182 23.5194C76.1037 22.5572 75.6964 21.2387 75.6964 19.5638V18.8842C75.6964 17.8151 75.8848 16.8734 76.2615 16.0588C76.6382 15.2443 77.1753 14.6207 77.8728 14.188C78.5753 13.7502 79.3898 13.5312 80.3163 13.5312C81.5992 13.5312 82.6326 13.8749 83.4166 14.5621C84.2006 15.2494 84.6537 16.2141 84.7759 17.4562H82.485C82.429 16.7384 82.2279 16.2192 81.8817 15.8985C81.5407 15.5727 81.0189 15.4098 80.3163 15.4098C79.5527 15.4098 78.98 15.6847 78.5982 16.2345C78.2215 16.7792 78.028 17.6268 78.0178 18.7773V19.6173C78.0178 20.8187 78.1986 21.6969 78.56 22.2518C78.9265 22.8067 79.5018 23.0841 80.2858 23.0841C80.9934 23.0841 81.5203 22.9238 81.8665 22.603C82.2177 22.2772 82.4188 21.7758 82.4697 21.0987H84.7606Z" fill="#00BFFE"/>
<path d="M93.7049 19.9838H89.3064V22.9619H94.4685V24.8023H87.0156V13.684H94.4532V15.5396H89.3064V18.1893H93.7049V19.9838Z" fill="#00BFFE"/>
<path d="M32.7084 6.65875L31.5172 7.94163V11.1183H29.2263V0H31.5172V5.03988L32.5251 3.65773L35.3582 0H38.1759L34.228 4.94061L38.2905 11.1183H35.5643L32.7084 6.65875Z" fill="#00BFFE"/>
<path d="M48.2804 11.1183H45.9896V6.35331H41.5224V11.1183H39.2315V0H41.5224V4.50535H45.9896V0H48.2804V11.1183Z" fill="#00BFFE"/>
<path d="M56.7813 8.82743H52.7647L52.0011 11.1183H49.5651L53.7039 0H55.8268L59.9885 11.1183H57.5526L56.7813 8.82743ZM53.3832 6.97184H56.1628L54.7654 2.81012L53.3832 6.97184Z" fill="#00BFFE"/>
<path d="M65.2211 7.0482H63.3961V11.1183H61.1052V0H65.2364C66.5498 0 67.5629 0.29272 68.2756 0.878161C68.9883 1.4636 69.3447 2.29086 69.3447 3.35992C69.3447 4.11845 69.1792 4.75225 68.8483 5.26133C68.5225 5.76532 68.0262 6.16749 67.3593 6.46785L69.7647 11.0114V11.1183H67.3058L65.2211 7.0482ZM63.3961 5.19261H65.244C65.8193 5.19261 66.2647 5.04752 66.5804 4.75734C66.896 4.46208 67.0538 4.05736 67.0538 3.54319C67.0538 3.01884 66.9036 2.60648 66.6033 2.30613C66.308 2.00577 65.8524 1.85559 65.2364 1.85559H63.3961V5.19261Z" fill="#00BFFE"/>
<path d="M74.6537 6.65875L73.4624 7.94163V11.1183H71.1716V0H73.4624V5.03988L74.4704 3.65773L77.3034 0H80.1212L76.1733 4.94061L80.2357 11.1183H77.5096L74.6537 6.65875Z" fill="#00BFFE"/>
<path d="M83.6127 11.1183H81.3219V0H83.6127V11.1183Z" fill="#00BFFE"/>
<path d="M89.9297 8.36162L92.4496 0H95.0001L91.1286 11.1183H88.7384L84.8822 0H87.425L89.9297 8.36162Z" fill="#00BFFE"/>
</symbol></svg>