<svg width="55" height="13" viewBox="0 0 55 13" fill="none" xmlns="http://www.w3.org/2000/svg">
<g clip-path="url(#clip0)">
<path d="M0 0.354515C0.726507 0.23048 2.30356 0.106445 3.77427 0.106445C5.47535 0.106445 6.48537 0.212779 7.42451 0.691174C8.34594 1.11647 9.037 1.98471 9.037 3.13651C9.037 4.14653 8.48771 5.1211 7.08785 5.65269V5.68813C8.55856 6.09568 9.42685 7.17659 9.42685 8.59412C9.42685 9.71051 8.89526 10.5964 8.09787 11.1989C7.19418 11.8722 5.70572 12.2798 3.1541 12.2798C1.70108 12.2798 0.655618 12.1735 0 12.0672V0.354515H0ZM3.1718 4.7844H3.80971C5.17414 4.7844 5.82976 4.30601 5.82976 3.54406C5.82976 2.83525 5.29817 2.39226 4.21726 2.39226C3.68568 2.39226 3.38447 2.4277 3.1718 2.46315V4.7844H3.1718ZM3.1718 9.88769C3.40217 9.92309 3.68568 9.92309 4.09323 9.92309C5.15639 9.92309 6.06013 9.49785 6.06013 8.45242C6.06013 7.44236 5.13869 7.05251 3.93375 7.05251H3.1718V9.88769H3.1718Z" fill="#222222"/>
<path d="M22.4149 6.04242C22.4149 9.88758 20.1114 12.3329 16.4257 12.3329C12.7223 12.3329 10.6846 9.55088 10.6846 6.2373C10.6846 2.76429 12.9704 0 16.6206 0C20.4658 0 22.4149 2.85288 22.4149 6.04242ZM14.069 6.18416C14.069 8.41683 15.0436 9.79895 16.5852 9.79895C18.1268 9.79895 19.0305 8.29279 19.0305 6.14871C19.0305 4.09323 18.1091 2.53392 16.5675 2.53392C15.0436 2.53392 14.069 3.98694 14.069 6.18416Z" fill="#222222"/>
<path d="M24.3283 8.94845C25.0548 9.32056 26.2421 9.69266 27.4293 9.69266C28.5279 9.69266 29.0595 9.32056 29.0595 8.71804C29.0595 8.13336 28.5279 7.79665 27.1812 7.33592C25.1611 6.62715 23.8322 5.5108 23.8322 3.73887C23.8322 1.63024 25.6041 0 28.6165 0C30.0518 0 31.0618 0.265813 31.8591 0.620216L31.1858 3.17184C30.6719 2.94147 29.786 2.60481 28.581 2.60481C27.6065 2.60481 27.0749 2.95917 27.0749 3.49076C27.0749 4.09323 27.7128 4.34134 29.2189 4.90837C31.363 5.68802 32.3376 6.83978 32.3376 8.50546C32.3376 10.5609 30.7251 12.3329 27.2343 12.3329C25.7991 12.3329 24.3992 11.943 23.7258 11.5887L24.3283 8.94845Z" fill="#222222"/>
<path d="M43.0044 11.8367C42.5437 12.0493 41.4274 12.3329 39.992 12.3329C35.5267 12.3329 33.5598 9.53314 33.5598 6.36134C33.5598 2.14408 36.643 0 40.2047 0C41.5868 0 42.7031 0.265813 43.1993 0.531583L42.5791 3.04781C42.0476 2.83514 41.321 2.62251 40.3641 2.62251C38.5214 2.62251 36.9266 3.70342 36.9266 6.14871C36.9266 8.32819 38.2201 9.67492 40.4174 9.67492C41.197 9.67492 42.0652 9.51548 42.5615 9.32056L43.0044 11.8367Z" fill="#222222"/>
<path d="M47.9299 0.194824V4.60701H51.8105V0.194824H55V12.1378H51.8105V7.4067H47.9299V12.1378H44.7227V0.194824H47.9299Z" fill="#222222"/>
</g>
<defs>
<clipPath id="clip0">
<rect width="55" height="12.3329" fill="white"/>
</clipPath>
</defs>
</svg>
