<svg width="163" height="146" viewBox="0 0 163 146" fill="none" xmlns="http://www.w3.org/2000/svg">
<rect x="45" width="136.889" height="90" rx="45" transform="rotate(30 45 0)" fill="#CCEDFF"/>
<path d="M127.489 101.021V105.641H108.974V101.966L118.424 93.041C119.427 92.0843 120.104 91.2677 120.454 90.591C120.804 89.891 120.979 89.2027 120.979 88.526C120.979 87.546 120.641 86.7993 119.964 86.286C119.311 85.7493 118.342 85.481 117.059 85.481C115.986 85.481 115.017 85.691 114.154 86.111C113.291 86.5077 112.567 87.1143 111.984 87.931L107.854 85.271C108.811 83.8477 110.129 82.7393 111.809 81.946C113.489 81.1293 115.414 80.721 117.584 80.721C119.404 80.721 120.991 81.0243 122.344 81.631C123.721 82.2143 124.782 83.0543 125.529 84.151C126.299 85.2243 126.684 86.496 126.684 87.966C126.684 89.296 126.404 90.5443 125.844 91.711C125.284 92.8777 124.199 94.2077 122.589 95.701L116.954 101.021H127.489Z" fill="white"/>
<rect x="16.6411" y="15.6411" width="90" height="90" rx="45" fill="#00BFFE"/>
<rect x="41.3918" y="78.2579" width="1.78869" height="8.04911" transform="rotate(45 41.3918 78.2579)" fill="white"/>
<rect x="50.4224" y="35.6411" width="29.3021" height="37.3512" rx="4" fill="#00BFFE" stroke="white" stroke-width="2"/>
<circle cx="64.6262" cy="54.3166" r="9.73215" fill="#00BFFE" stroke="white" stroke-width="2"/>
<circle cx="52.7751" cy="67.5072" r="14.651" transform="rotate(45 52.7751 67.5072)" fill="#00BFFE" stroke="white" stroke-width="2"/>
</svg>
