<svg width="55" height="15" viewBox="0 0 55 15" fill="none" xmlns="http://www.w3.org/2000/svg">
<g clip-path="url(#clip0)">
<path fill-rule="evenodd" clip-rule="evenodd" d="M10.9822 1.16713C10.267 0.950704 9.74945 1.74113 10.1729 2.20216C12.0549 3.19964 13.3252 5.15683 13.3252 7.38695C13.3252 10.6427 10.634 13.2963 7.32177 13.2963H7.26531C3.98131 13.268 1.31834 10.6239 1.31834 7.38695C1.31834 5.19447 2.55098 3.26547 4.37652 2.24922C4.76232 1.71282 4.32002 1.07299 3.70842 1.13886C1.49713 2.38095 0.000976562 4.71457 0.000976562 7.38695C0.000976562 11.3296 3.25675 14.5572 7.26531 14.5854H7.32177C11.3492 14.5854 14.6426 11.3485 14.6426 7.38695C14.6426 4.73339 13.1652 2.40918 10.9822 1.16709V1.16713Z" fill="#222222"/>
<path fill-rule="evenodd" clip-rule="evenodd" d="M17.7661 10.9728H19.187V4.38599H17.7661V10.9728Z" fill="#222222"/>
<path fill-rule="evenodd" clip-rule="evenodd" d="M7.26535 1.96689C7.27472 1.96689 7.27472 1.97626 7.28417 1.97626C7.8299 1.97626 8.2722 1.52459 8.2722 0.98823C8.2722 0.442502 7.8299 0.000244141 7.28417 0.000244141H7.26535C6.72899 0.00965391 6.29614 0.451873 6.29614 0.98823C6.29614 1.52459 6.72899 1.95744 7.26535 1.96689Z" fill="#222222"/>
<path fill-rule="evenodd" clip-rule="evenodd" d="M23.8265 4.38599H22.0292H21.2012H20.6084V10.9728H22.0293V5.67513H23.6666C24.504 5.67513 25.078 6.08915 25.0592 7.05836V10.9728H26.4801V6.65374C26.4801 5.21405 25.2756 4.38599 23.8265 4.38599H23.8265Z" fill="#222222"/>
<path fill-rule="evenodd" clip-rule="evenodd" d="M7.26539 3.51025C6.83254 3.51025 6.48438 3.85837 6.48438 4.29122V11.0568C6.48438 11.4803 6.83254 11.8285 7.26539 11.8285C7.68879 11.8285 8.0464 11.4803 8.0464 11.0568V4.29122C8.0464 3.85837 7.68879 3.51025 7.26539 3.51025Z" fill="#222222"/>
<path fill-rule="evenodd" clip-rule="evenodd" d="M37.6393 4.21606C35.9267 4.2913 34.8258 5.42992 34.6564 7.60358C34.5435 9.2597 35.4374 10.9911 37.6393 11.1417C37.6863 11.1511 37.7334 11.1511 37.7898 11.1511C38.7873 11.1605 39.4648 11.0758 40.1234 10.8311L40.1423 9.58904C39.2766 9.93724 38.3732 10.0502 37.6393 9.90901C36.7641 9.74904 36.1431 9.21269 36.1713 8.29053H37.6393H40.3587C40.9044 5.84399 39.6153 4.22551 37.6393 4.2161L37.6393 4.21606ZM39.2107 7.12368H37.6393H36.0773V7.10486C36.0773 6.13566 36.783 5.35465 37.6393 5.35465C38.505 5.35465 39.2107 6.13566 39.2107 7.10486V7.12368Z" fill="#222222"/>
<path fill-rule="evenodd" clip-rule="evenodd" d="M47.7925 10.9728H49.2134V4.38599H47.7925V10.9728Z" fill="#222222"/>
<path fill-rule="evenodd" clip-rule="evenodd" d="M44.3487 7.1619C41.968 6.75728 42.5703 4.74359 46.193 5.68457V4.51772C45.1862 4.19782 43.5677 4.11314 42.702 4.51772C40.9142 5.39287 41.0459 8.13107 44.01 8.43218C45.939 8.66739 45.6284 10.8881 41.5634 9.58017V10.8693C42.8432 11.2269 44.4428 11.3774 45.5532 10.8693C46.2872 10.4176 46.5695 9.80601 46.5789 9.20374C46.6071 8.14981 45.9108 7.39707 44.3488 7.16182L44.3487 7.1619Z" fill="#222222"/>
<path fill-rule="evenodd" clip-rule="evenodd" d="M53.3641 4.38599H51.9432H50.3059V5.68453H51.9432V10.9728H53.3641V5.68453H55.0014V4.38599H53.3641Z" fill="#222222"/>
<path fill-rule="evenodd" clip-rule="evenodd" d="M30.8077 4.43307C30.6101 4.40488 30.3937 4.39551 30.1679 4.39551H27.9377V10.9823H30.1961C30.4125 10.9823 30.6196 10.9729 30.8078 10.9447C33.1508 10.6906 33.6777 8.96866 33.6683 7.79243C33.6589 5.97635 32.7179 4.65898 30.8078 4.43315L30.8077 4.43307ZM30.8077 9.67431C30.6007 9.7214 30.3654 9.74963 30.0925 9.74963H29.3398V5.61874H30.0737C30.3467 5.61874 30.5913 5.64693 30.8077 5.70343C31.7769 5.94808 32.2568 6.71964 32.2662 7.75476C32.2757 8.4323 31.9933 9.40147 30.8077 9.67435V9.67431Z" fill="#222222"/>
</g>
<defs>
<clipPath id="clip0">
<rect width="55" height="14.5851" fill="white"/>
</clipPath>
</defs>
</svg>
