<svg width="30" height="30" viewBox="0 0 30 30" fill="none" xmlns="http://www.w3.org/2000/svg">
<path d="M15 29.999C23.2843 29.999 30 23.2833 30 14.999C30 6.71475 23.2843 -0.000976562 15 -0.000976562C6.71573 -0.000976562 0 6.71475 0 14.999C0 23.2833 6.71573 29.999 15 29.999Z" fill="#222222"/>
<path d="M5.22255 15.6718C5.16934 18.2527 6.94694 20.7156 9.39222 21.5188C11.6955 22.2926 14.5274 21.7138 16.0601 19.7412C17.1791 18.3591 17.4334 16.5165 17.3123 14.7951C15.3398 14.7774 13.3672 14.7833 11.3976 14.7862C11.3944 15.4889 11.3976 16.189 11.4006 16.8917C12.5816 16.9243 13.763 16.9093 14.944 16.9331C14.6459 17.9548 13.9667 18.9056 12.9359 19.2746C10.9457 20.1517 8.40635 19.0059 7.78013 16.9181C7.02422 14.9189 8.26169 12.5062 10.3048 11.9246C11.5717 11.4789 12.8768 11.9808 13.9608 12.6394C14.51 12.1254 15.024 11.5762 15.5288 11.0211C14.2972 9.99061 12.7145 9.35876 11.0875 9.49754C7.8951 9.53551 5.10142 12.4827 5.22255 15.6718Z" fill="#DF4B41"/>
<path d="M21.1514 13.0132C21.1455 13.6009 21.1394 14.1916 21.1364 14.779C20.5458 14.7849 19.9583 14.7878 19.3706 14.7908C19.3706 15.3785 19.3706 15.963 19.3706 16.5507C19.9583 16.5537 20.549 16.5566 21.1364 16.5628C21.1423 17.1505 21.1423 17.738 21.1482 18.3286C21.733 18.3286 22.3207 18.3257 22.9082 18.3286C22.9114 17.738 22.914 17.1505 22.9202 16.5598C23.5077 16.5569 24.0983 16.554 24.686 16.551C24.686 15.9633 24.686 15.3788 24.686 14.7911C24.0986 14.7881 23.5079 14.7852 22.9202 14.7793C22.917 14.1916 22.9114 13.6009 22.9082 13.0135C22.3207 13.0132 21.7359 13.0132 21.1514 13.0132Z" fill="#DF4B41"/>
<path d="M5.22255 15.6711C5.10142 12.482 7.89484 9.5348 11.0872 9.49656C12.7143 9.35779 14.2972 9.98963 15.5285 11.0201C15.0234 11.5755 14.5095 12.1245 13.9606 12.6384C12.8766 11.9798 11.5714 11.4779 10.3045 11.9237C8.26116 12.5055 7.02368 14.9181 7.77986 16.9171C8.40608 19.0049 10.9455 20.1507 12.9357 19.2736C13.9662 18.9047 14.6456 17.9538 14.9437 16.9321C13.7627 16.9086 12.5814 16.9233 11.4003 16.8907C11.3974 16.188 11.3944 15.488 11.3974 14.7853C13.367 14.7823 15.3395 14.7764 17.312 14.7941C17.4331 16.5158 17.1791 18.3584 16.0598 19.7402C14.5272 21.7128 11.6955 22.2917 9.39195 21.5178C6.94721 20.7149 5.16934 18.252 5.22255 15.6711Z" fill="white"/>
<path d="M21.1514 13.0132C21.7362 13.0132 22.3207 13.0132 22.9082 13.0132C22.9114 13.6009 22.917 14.1916 22.9202 14.779C23.5077 14.7849 24.0983 14.7878 24.686 14.7908C24.686 15.3785 24.686 15.963 24.686 16.5507C24.0986 16.5537 23.5079 16.5566 22.9202 16.5596C22.9143 17.1502 22.9114 17.7377 22.9082 18.3283C22.3207 18.3254 21.7327 18.3283 21.1482 18.3283C21.1426 17.7377 21.1426 17.1502 21.1364 16.5625C20.549 16.5564 19.9583 16.5537 19.3706 16.5505C19.3706 15.9628 19.3706 15.3782 19.3706 14.7905C19.9583 14.7876 20.546 14.7846 21.1364 14.7788C21.1394 14.1916 21.1453 13.6009 21.1514 13.0132Z" fill="white"/>
</svg>
