<svg width="163" height="146" viewBox="0 0 163 146" fill="none" xmlns="http://www.w3.org/2000/svg">
<g clip-path="url(#clip0)">
<rect x="45" width="136.889" height="90" rx="45" transform="rotate(30 45 0)" fill="#CCEDFF"/>
<path d="M121.603 81.141V105.641H115.933V85.691H111.033V81.141H121.603Z" fill="white"/>
<rect x="16.6411" y="15.6411" width="90" height="90" rx="45" fill="#00BFFE"/>
<path d="M70.992 58.4523C70.992 52.6805 66.313 48.0016 60.5413 48.0016" stroke="white" stroke-width="2" stroke-linecap="round"/>
<path d="M75.1723 58.4523C75.1723 50.3718 68.6217 43.8213 60.5413 43.8213" stroke="white" stroke-width="2" stroke-linecap="round"/>
<path d="M79.3525 58.4523C79.3525 48.0631 70.9304 39.641 60.5413 39.641" stroke="white" stroke-width="2" stroke-linecap="round"/>
<path d="M50.244 46.2144L50.2234 46.1754L50.1994 46.1383C49.72 45.3961 48.9398 44.765 47.9134 44.8255L47.9133 44.8255C47.3238 44.8603 46.7838 45.123 46.3179 45.5194L46.2873 45.5455L46.2589 45.5739L41.8544 49.9783C40.9464 50.8215 40.6644 52.0189 40.6492 53.0598C40.5244 55.7705 41.8826 58.7562 42.9103 60.8831L42.9181 60.8993L42.9265 60.9152C45.7545 66.2687 50.2344 70.658 55.0533 74.1637L55.0746 74.1792L55.0966 74.1935C58.0217 76.0945 61.7357 78.0531 65.7473 78.1733L65.7629 78.1738L65.7785 78.1738C66.7853 78.1726 67.9481 77.9025 68.8488 76.9831L73.2619 72.6047L73.2684 72.5983L73.2748 72.5916C74.4059 71.4274 74.1885 69.5405 72.7236 68.6223L72.7123 68.6153L72.7009 68.6085L66.2855 64.8215L66.0503 64.6826H65.9792C64.8547 64.1982 63.6039 64.6416 62.8464 65.2158L62.7881 65.26L62.7369 65.3121L61.0133 67.0676C61.0025 67.065 60.9912 67.0621 60.9796 67.0588L60.9487 67.0502L60.9173 67.0436C59.9756 66.845 59.0898 66.3143 58.1944 65.5862C57.5929 65.097 57.0528 64.5781 56.4997 64.0466C56.2032 63.7618 55.903 63.4734 55.5875 63.1839L55.5875 63.1839C54.0377 61.7621 52.4078 59.8226 51.7784 57.8021L53.225 56.3555L53.2251 56.3556L53.2328 56.3477C54.0513 55.5109 54.3899 54.2147 53.8202 52.9989L53.8102 52.9776L53.7993 52.9567L50.244 46.2144Z" fill="#00BFFE" stroke="white" stroke-width="2"/>
</g>
<defs>
<clipPath id="clip0">
<rect width="163" height="146" fill="white"/>
</clipPath>
</defs>
</svg>
