<svg width="55" height="17" viewBox="0 0 55 17" fill="none" xmlns="http://www.w3.org/2000/svg">
<g clip-path="url(#clip0)">
<path d="M41.5629 7.14485C43.0415 7.14485 44.3058 8.09723 44.8213 9.44476H38.3019C38.8156 8.09723 40.0815 7.14485 41.5629 7.14485ZM47.7563 11.4275C47.781 11.2079 47.794 10.9851 47.794 10.7588C47.794 7.34657 44.9652 4.58018 41.4756 4.58018C37.9861 4.58018 35.1572 7.34657 35.1572 10.7588C35.1572 14.1718 37.9861 16.9368 41.4756 16.9368C44.1298 16.9368 46.3985 15.3393 47.3357 13.0704L44.6131 12.5931C44.0092 13.6978 42.868 14.4412 41.5629 14.4412C39.8315 14.4412 38.3963 13.1388 38.1082 11.4275H47.7563Z" fill="#222222"/>
<path d="M33.4583 4.83892H30.2319V16.7136H33.4583V4.83892Z" fill="#222222"/>
<path d="M31.8465 -0.00195312C30.8511 -0.00195312 30.0464 0.805086 30.0464 1.79831C30.0464 2.78886 30.8511 3.59546 31.8465 3.59546C32.8388 3.59546 33.6451 2.78886 33.6451 1.79831C33.6451 0.805086 32.8388 -0.00195312 31.8465 -0.00195312Z" fill="#222222"/>
<path d="M10.483 1.03247V7.42499H3.52716V1.03247H-0.000244141V16.7056H3.52716V10.3127H10.483V16.7056H14.0124V1.03247H10.483Z" fill="#222222"/>
<path d="M21.9883 14.3331C19.9915 14.3331 18.3772 12.7353 18.3772 10.7628C18.3772 8.78953 19.9915 7.18966 21.9883 7.18966C23.9838 7.18966 25.6007 8.78953 25.6007 10.7628C25.6007 12.7353 23.9838 14.3331 21.9883 14.3331ZM25.0454 4.84387V5.48056C24.1075 4.91358 23.0089 4.5862 21.8303 4.5862C18.4099 4.5862 15.6355 7.35009 15.6355 10.7612C15.6355 14.1714 18.4099 16.9363 21.8303 16.9363C22.9779 16.9363 24.0494 16.6249 24.9713 16.085V16.7038H28.1196V4.84387H25.0454Z" fill="#222222"/>
<path d="M54.4652 3.7349C51.4938 4.25423 49.2352 6.84022 49.2004 9.95708V16.7134H52.2898L52.2914 9.8298C52.2914 8.25376 53.4744 6.95344 54.9992 6.76666L54.4652 3.7349Z" fill="#222222"/>
</g>
<defs>
<clipPath id="clip0">
<rect width="55" height="16.9397" fill="white"/>
</clipPath>
</defs>
</svg>
