<svg width="55" height="25" viewBox="0 0 55 25" fill="none" xmlns="http://www.w3.org/2000/svg">
<g clip-path="url(#clip0)">
<path d="M28.3169 4.32976H32.8103V15.7426H39.4853V19.5519H28.3169V4.32976ZM51.1203 18.0351C50.3239 19.2451 48.8535 19.9303 47.0181 19.9303C43.0681 19.9303 40.494 16.7792 40.494 11.9142C40.494 6.97851 43.3874 3.93726 48.1821 3.93726C50.093 3.93726 51.726 4.45011 52.9887 5.41493C54.2622 6.42547 54.7347 7.41851 54.9396 9.42583H50.2414C50.1128 8.25136 49.2353 7.49993 48.0806 7.49993C46.2639 7.49993 45.2014 9.18065 45.2014 11.9758C45.2014 14.811 46.3053 16.513 48.1608 16.513C49.6215 16.513 50.4674 15.7005 50.8149 13.8805H47.9158V10.6762H54.9396V19.5521H51.1203V18.0351Z" fill="#222222"/>
<path d="M12.0272 24.0793C18.6743 24.0793 24.0593 18.6925 24.0593 12.0396C24.0593 5.38678 18.6745 0 12.0273 0C5.39485 0 0.0107422 5.38678 0.0107422 12.0396C0.0107422 18.6925 5.39485 24.0793 12.0272 24.0793Z" fill="#222222"/>
<path d="M11.5733 6.77305V17.3273H14.9258V16.3845H12.5336V6.77287H11.5733V6.77305ZM8.21129 9.65233C9.007 9.65233 9.65593 9.0068 9.65593 8.2134C9.65602 8.0236 9.61873 7.83563 9.54618 7.66024C9.47363 7.48484 9.36725 7.32545 9.2331 7.19117C9.09895 7.05689 8.93967 6.95035 8.76435 6.87763C8.58902 6.80491 8.40109 6.76743 8.21129 6.76733C7.41968 6.76733 6.77075 7.41287 6.77075 8.2134C6.77075 9.0068 7.4195 9.65233 8.21129 9.65233Z" fill="white"/>
<path d="M12.5138 1.96543C12.3509 1.96091 12.1879 1.95877 12.0249 1.959C6.4817 1.959 1.96777 6.47882 1.96777 12.0383C1.96777 14.732 3.01599 17.2611 4.91599 19.1663C6.8142 21.0715 9.34456 22.1169 12.0251 22.1169C14.7222 22.1169 17.2519 21.0717 19.1519 19.1663C21.051 17.2611 22.0992 14.7313 22.0992 12.0383V11.5808L21.7038 11.5826H14.9126V12.5151H21.1421C21.1412 12.5365 21.1397 12.6351 21.138 12.6549C20.8183 17.4058 16.8588 21.1786 12.029 21.1786C9.59688 21.1786 7.30563 20.2245 5.5767 18.4961C3.85545 16.7772 2.90545 14.4779 2.90545 12.0376C2.90545 9.5965 3.85545 7.29793 5.57652 5.57829C7.30545 3.85543 9.59688 2.90293 12.029 2.90293C12.1351 2.90293 12.3987 2.90364 12.5138 2.90614V1.96543Z" fill="white"/>
</g>
<defs>
<clipPath id="clip0">
<rect width="55" height="24.1071" fill="white"/>
</clipPath>
</defs>
</svg>
