<svg width="55" height="13" viewBox="0 0 55 13" fill="none" xmlns="http://www.w3.org/2000/svg">
<g clip-path="url(#clip0)">
<path fill-rule="evenodd" clip-rule="evenodd" d="M0 12.6274H12.6267V0H0V12.6274ZM8.09277 0.964552C10.3247 1.69592 11.9373 3.81171 11.9435 6.31134C11.9495 8.77045 10.3692 10.8813 8.09277 11.6609V0.964552ZM6.31109 0.678668C6.71431 0.678668 7.14364 0.732361 7.50162 0.803459C7.50162 3.6643 4.735 6.0185 1.87938 6.0185L0.685375 6.01676C0.881019 3.08408 3.30756 0.678668 6.31109 0.678668ZM1.88037 6.61414C4.73525 6.61414 7.50111 8.96584 7.50111 11.8242C7.14363 11.8973 6.69318 11.9512 6.31109 11.9512C3.30657 11.9473 0.797989 9.53413 0.684381 6.61438H1.88037V6.61414Z" fill="#222222"/>
<path fill-rule="evenodd" clip-rule="evenodd" d="M16.853 7.42325V6.62749H19.4802V5.61248H16.8525V4.13508H19.6477V3.12305H15.7771V5.29826V7.37726C15.7771 8.45243 16.2353 9.18803 17.3102 9.33942C17.3318 9.34464 17.3529 9.34862 17.3726 9.34887H17.3922C17.5023 9.3613 17.615 9.3695 17.7326 9.3695H19.7223V8.35847H17.7413C17.3997 8.35847 16.853 8.18991 16.853 7.42325Z" fill="#222222"/>
<path fill-rule="evenodd" clip-rule="evenodd" d="M20.4868 6.0749V9.37103H21.5627V6.05327V3.12158H20.4868V6.0749Z" fill="#222222"/>
<path fill-rule="evenodd" clip-rule="evenodd" d="M24.6476 4.70923C23.2875 4.70923 22.27 5.64594 22.27 7.10495V7.14124C22.27 8.5642 23.2517 9.48277 24.6747 9.48277C25.3591 9.48277 25.9985 9.29358 26.5839 8.67209L25.9356 8.04165C25.5932 8.38397 25.2601 8.5642 24.7107 8.5642C23.9093 8.5642 23.3778 8.09585 23.3417 7.37542H26.8723C26.8904 7.19518 26.8904 6.9973 26.8904 6.9973C26.8902 5.72723 25.9985 4.70923 24.6476 4.70923ZM23.3686 6.61869C23.4136 6.06929 23.9722 5.62804 24.6476 5.62804C25.278 5.62804 25.7914 6.07849 25.7914 6.61869H23.3686Z" fill="#222222"/>
<path fill-rule="evenodd" clip-rule="evenodd" d="M29.9134 5.67287C30.3996 5.67287 30.7598 5.8531 31.0661 6.16832L31.7328 5.47474C31.2103 4.91614 30.5888 4.69116 29.9136 4.69116C28.5446 4.69116 27.4458 5.70891 27.4458 7.09583C27.4458 8.48274 28.5446 9.50074 29.9136 9.50074C30.589 9.50074 31.2105 9.27551 31.7328 8.71717L31.0661 8.02358C30.7601 8.33905 30.3996 8.51879 29.9134 8.51879C29.1208 8.51879 28.5172 7.91545 28.5172 7.09583C28.5172 6.27646 29.1208 5.67287 29.9134 5.67287Z" fill="#222222"/>
<path fill-rule="evenodd" clip-rule="evenodd" d="M33.4783 7.42476H33.477V5.82928H34.4557V4.8518H33.4785V3.12183H32.4023V5.36341V7.48865L32.4056 7.48841C32.4362 8.50367 32.8975 9.19526 33.9357 9.34119C33.9573 9.34641 33.9784 9.35039 33.9978 9.35088H34.0177C34.1276 9.36307 34.2405 9.37127 34.358 9.37127H34.4717L34.4759 8.36048H34.367C34.0249 8.36023 33.4783 8.19143 33.4783 7.42476Z" fill="#222222"/>
<path fill-rule="evenodd" clip-rule="evenodd" d="M36.4281 5.52439V4.85244H35.3608V7.06692V9.37141H36.4281V6.99508C36.4281 6.25103 36.9031 5.78467 37.6469 5.78467C37.8175 5.78467 37.9701 5.80257 38.0956 5.82967V4.78955C38.0506 4.7806 37.8896 4.76294 37.773 4.76294C37.1271 4.76269 36.6431 5.05852 36.4281 5.52439Z" fill="#222222"/>
<path fill-rule="evenodd" clip-rule="evenodd" d="M40.7263 4.71777C39.3541 4.71777 38.2603 5.75765 38.2603 7.11175C38.2603 8.4651 39.3541 9.50598 40.7263 9.50598C42.0889 9.50598 43.1919 8.4651 43.1919 7.11175C43.1919 5.7574 42.0891 4.71777 40.7263 4.71777ZM40.7263 8.5285C39.9283 8.5285 39.3277 7.90974 39.3277 7.11175C39.3277 6.31351 39.9283 5.695 40.7263 5.695C41.5156 5.695 42.1249 6.31351 42.1249 7.11175C42.1249 7.90949 41.5156 8.5285 40.7263 8.5285Z" fill="#222222"/>
<path fill-rule="evenodd" clip-rule="evenodd" d="M43.8535 5.96701V9.37103H44.9302V6.01026V3.12158H43.8535V5.96701Z" fill="#222222"/>
<path fill-rule="evenodd" clip-rule="evenodd" d="M48.8107 7.47896C48.8107 8.19616 48.3895 8.50142 47.824 8.50142C47.2594 8.50142 46.8378 8.19591 46.8378 7.4884V4.85229H45.7529V6.16115V7.57814C45.7529 8.86935 46.6944 9.4881 47.8153 9.4881C48.9451 9.4881 49.895 8.86065 49.895 7.55129V6.1614V4.85255H48.8107V7.47896Z" fill="#222222"/>
<path fill-rule="evenodd" clip-rule="evenodd" d="M53.9664 7.92618L53.288 6.97704L54.1282 5.83251L54.8477 4.85229H53.6733L52.6958 6.2059L51.7094 4.85229H50.544L51.2122 5.76638L52.1042 6.98623L51.1695 8.28764L50.3914 9.37102H51.5483L52.6958 7.77503L53.8434 9.37102H55.0001L53.9664 7.92618Z" fill="#222222"/>
</g>
<defs>
<clipPath id="clip0">
<rect width="55" height="12.6274" fill="white"/>
</clipPath>
</defs>
</svg>
