<svg width="92" height="88" viewBox="0 0 92 88" fill="none" xmlns="http://www.w3.org/2000/svg">
<circle cx="35" cy="53" r="35" fill="#CCEDFF"/>
<path d="M90.7902 0H18.2097C17.8889 0 17.5812 0.12704 17.3543 0.3532C17.1274 0.579359 17 0.886097 17 1.20594V68.794C16.9997 68.9525 17.0307 69.1095 17.0914 69.256C17.1521 69.4024 17.2412 69.5355 17.3536 69.6476C17.466 69.7596 17.5995 69.8484 17.7464 69.9089C17.8933 69.9694 18.0507 70.0003 18.2097 70H90.7902C90.9492 70.0003 91.1066 69.9694 91.2535 69.9089C91.4005 69.8484 91.534 69.7596 91.6464 69.6476C91.7588 69.5355 91.8479 69.4024 91.9086 69.256C91.9693 69.1095 92.0003 68.9525 92 68.794V1.20594C92 0.886097 91.8726 0.579359 91.6458 0.3532C91.4189 0.12704 91.1111 0 90.7902 0ZM89.5804 2.41191V8.0455H19.4195V2.41191H89.5804ZM19.4195 67.5856V10.4599H89.5804V67.5856H19.4195ZM79.9074 6.5156C80.1631 6.5156 80.4131 6.44002 80.6256 6.29836C80.8382 6.1567 81.0039 5.95535 81.1016 5.71982C81.1993 5.48429 81.2247 5.22516 81.1747 4.97521C81.1246 4.72526 81.0013 4.49574 80.8203 4.31569C80.6393 4.13563 80.4089 4.01313 80.158 3.96371C79.9072 3.91428 79.6472 3.94015 79.4111 4.03803C79.175 4.13592 78.9734 4.30141 78.8317 4.51358C78.69 4.72575 78.6147 4.97506 78.6152 5.22994C78.6159 5.57072 78.752 5.89737 78.9937 6.13834C79.2354 6.37931 79.5631 6.51494 79.9049 6.5156H79.9074ZM85.5512 6.5156C85.807 6.5161 86.0574 6.44093 86.2702 6.29958C86.4831 6.15822 86.649 5.95705 86.7471 5.72157C86.8453 5.48608 86.8711 5.22685 86.8213 4.97673C86.7715 4.72662 86.6484 4.49687 86.4675 4.31656C86.2866 4.13626 86.0562 4.01352 85.8053 3.9639C85.5544 3.91427 85.2944 3.94 85.0582 4.03781C84.8219 4.13561 84.6201 4.30109 84.4783 4.51331C84.3365 4.72553 84.261 4.97495 84.2615 5.22994C84.2615 5.57049 84.3972 5.89714 84.6385 6.13818C84.8798 6.37923 85.2072 6.51494 85.5488 6.5156H85.5512ZM74.2611 6.5156C74.5169 6.5161 74.767 6.44093 74.9799 6.29958C75.1928 6.15822 75.3589 5.95705 75.457 5.72157C75.5551 5.48608 75.5809 5.22685 75.5311 4.97673C75.4813 4.72662 75.3582 4.49687 75.1773 4.31656C74.9965 4.13626 74.766 4.01352 74.5151 3.9639C74.2642 3.91427 74.0041 3.94 73.7679 4.03781C73.5316 4.13561 73.3298 4.30109 73.188 4.51331C73.0462 4.72553 72.9709 4.97495 72.9714 5.22994C72.9714 5.57049 73.1068 5.89714 73.3482 6.13818C73.5895 6.37923 73.917 6.51494 74.2586 6.5156H74.2611ZM81.1172 24.9537H27.8778C27.557 24.9537 27.2493 25.0808 27.0224 25.307C26.7955 25.5331 26.668 25.8398 26.668 26.1597C26.668 26.4795 26.7955 26.7863 27.0224 27.0124C27.2493 27.2386 27.557 27.3656 27.8778 27.3656H81.1172C81.4393 27.3653 81.7482 27.2374 81.9758 27.0101C82.2033 26.7828 82.3311 26.4746 82.3308 26.1534C82.3304 25.8323 82.2021 25.5244 81.9741 25.2975C81.746 25.0707 81.4369 24.9434 81.1147 24.9437L81.1172 24.9537ZM81.1172 18.5153H27.8778C27.5661 18.5295 27.272 18.6628 27.0564 18.8876C26.8409 19.1125 26.7206 19.4115 26.7206 19.7225C26.7206 20.0335 26.8409 20.3326 27.0564 20.5574C27.272 20.7823 27.5661 20.9156 27.8778 20.9297H81.1172C81.4397 20.9294 81.7489 20.8013 81.9767 20.5738C82.2045 20.3462 82.3323 20.0378 82.332 19.7163C82.3316 19.3948 82.2031 19.0866 81.9748 18.8595C81.7466 18.6324 81.4372 18.5051 81.1147 18.5054L81.1172 18.5153ZM51.2756 37.8255H27.8878C27.5761 37.8396 27.282 37.973 27.0664 38.1978C26.8509 38.4226 26.7306 38.7217 26.7306 39.0327C26.7306 39.3437 26.8509 39.6428 27.0664 39.8676C27.282 40.0925 27.5761 40.2258 27.8878 40.2399H51.2756C51.5981 40.2396 51.9073 40.1115 52.1351 39.884C52.3629 39.6564 52.4908 39.348 52.4904 39.0265C52.4901 38.705 52.3617 38.3968 52.1334 38.1697C51.9051 37.9426 51.5957 37.8152 51.2732 37.8156L51.2756 37.8255ZM51.2756 31.3896H27.8878C27.5761 31.4037 27.282 31.5371 27.0664 31.762C26.8509 31.9868 26.7306 32.2858 26.7306 32.5968C26.7306 32.9078 26.8509 33.2069 27.0664 33.4317C27.282 33.6565 27.5761 33.7899 27.8878 33.804H51.2756C51.5981 33.8037 51.9073 33.6757 52.1351 33.4481C52.3629 33.2206 52.4908 32.9121 52.4904 32.5906C52.4901 32.2691 52.3617 31.9609 52.1334 31.7338C51.9051 31.5067 51.5957 31.3793 51.2732 31.3796L51.2756 31.3896ZM51.2756 44.2639H27.8878C27.5761 44.278 27.282 44.4114 27.0664 44.6362C26.8509 44.8611 26.7306 45.1601 26.7306 45.4711C26.7306 45.7821 26.8509 46.0811 27.0664 46.306C27.282 46.5308 27.5761 46.6642 27.8878 46.6783H51.2756C51.5981 46.678 51.9073 46.5499 52.1351 46.3224C52.3629 46.0948 52.4908 45.7864 52.4904 45.4649C52.4901 45.1434 52.3617 44.8352 52.1334 44.6081C51.9051 44.381 51.5957 44.2536 51.2732 44.2539L51.2756 44.2639ZM51.2756 50.6998H27.8878C27.5761 50.7139 27.282 50.8473 27.0664 51.0721C26.8509 51.297 26.7306 51.596 26.7306 51.907C26.7306 52.218 26.8509 52.517 27.0664 52.7419C27.282 52.9667 27.5761 53.1 27.8878 53.1142H51.2756C51.5971 53.1138 51.9054 52.9862 52.1325 52.7594C52.3596 52.5325 52.487 52.225 52.4866 51.9045C52.4863 51.584 52.3583 51.2768 52.1307 51.0504C51.9031 50.824 51.5947 50.6969 51.2732 50.6973L51.2756 50.6998ZM81.1172 31.3896H57.7293C57.4085 31.3896 57.1008 31.5166 56.8739 31.7428C56.6471 31.969 56.5196 32.2757 56.5196 32.5956V36.6195C56.5196 36.9394 56.6471 37.2462 56.8739 37.4723C57.1008 37.6985 57.4085 37.8255 57.7293 37.8255C58.0502 37.8255 58.3579 37.6985 58.5848 37.4723C58.8117 37.2462 58.9391 36.9394 58.9391 36.6195V33.804H79.9074V57.1357H58.9391V41.4384C58.9391 41.1186 58.8117 40.8118 58.5848 40.5856C58.3579 40.3595 58.0502 40.2324 57.7293 40.2324C57.4085 40.2324 57.1008 40.3595 56.8739 40.5856C56.6471 40.8118 56.5196 41.1186 56.5196 41.4384V58.3367C56.5196 58.6565 56.6471 58.9633 56.8739 59.1894C57.1008 59.4156 57.4085 59.5426 57.7293 59.5426H81.1172C81.438 59.5426 81.7457 59.4156 81.9725 59.1894C82.1994 58.9633 82.3269 58.6565 82.3269 58.3367V32.5856C82.3269 32.427 82.2956 32.27 82.2346 32.1235C82.1737 31.9771 82.0844 31.844 81.9718 31.732C81.8592 31.62 81.7254 31.5312 81.5783 31.4707C81.4313 31.4103 81.2738 31.3793 81.1147 31.3796L81.1172 31.3896ZM51.2732 57.1257H27.8853C27.5736 57.1399 27.2795 57.2732 27.0639 57.498C26.8484 57.7229 26.7281 58.0219 26.7281 58.3329C26.7281 58.6439 26.8484 58.943 27.0639 59.1678C27.2795 59.3927 27.5736 59.526 27.8853 59.5401H51.2732C51.5848 59.526 51.879 59.3927 52.0946 59.1678C52.3101 58.943 52.4304 58.6439 52.4304 58.3329C52.4304 58.0219 52.3101 57.7229 52.0946 57.498C51.879 57.2732 51.5848 57.1399 51.2732 57.1257Z" fill="#00BFFE"/>
<path d="M66.6641 49.4755L75.4171 40.6782V40.6759C75.5534 40.5289 75.7176 40.411 75.9001 40.3291C76.0825 40.2472 76.2795 40.2029 76.4793 40.199C76.6791 40.1951 76.8776 40.2316 77.0631 40.3063C77.2486 40.381 77.4173 40.4925 77.5591 40.634C77.701 40.7755 77.8131 40.9442 77.8888 41.1301C77.9645 41.3161 78.0023 41.5154 77.9999 41.7163C77.9975 41.9171 77.955 42.1155 77.8749 42.2995C77.7948 42.4836 77.6787 42.6496 77.5335 42.7876L67.7098 52.6591C67.5739 52.8035 67.41 52.9185 67.2282 52.9968C67.0464 53.075 66.8505 53.115 66.6528 53.1142C66.3083 53.1142 65.9743 52.9953 65.7066 52.7774C65.6727 52.7455 65.6274 52.7114 65.5934 52.6773L61.4399 48.5016C61.158 48.2179 60.9998 47.8333 61 47.4324C61.0002 47.0315 61.1588 46.647 61.441 46.3637C61.7231 46.0803 62.1057 45.9213 62.5045 45.9215C62.9033 45.9217 63.2857 46.0812 63.5676 46.3648L66.6641 49.4755Z" fill="#00BFFE"/>
</svg>
