<svg width="19" height="14" viewBox="0 0 19 14" fill="none" xmlns="http://www.w3.org/2000/svg">
<path d="M7.47046 9.12585L12.5587 6.474L7.47046 3.79993V9.12585Z" fill="white"/>
<path opacity="0.12" d="M7.47046 3.79993L11.9337 6.79993L12.5587 6.474L7.47046 3.79993Z" fill="#420000"/>
<path d="M9.40809 13.3333L9.41487 12.5834L9.41473 12.5834L9.4141 12.5834L9.41152 12.5833L9.40117 12.5832L9.36033 12.5828L9.20338 12.5812C9.06732 12.5797 8.87112 12.5774 8.63092 12.5741C8.1504 12.5677 7.49432 12.5575 6.7916 12.5428C5.38917 12.5133 3.84345 12.4661 3.11349 12.3969C3.00322 12.3783 2.89394 12.3644 2.78594 12.3507C2.32087 12.2915 1.87959 12.2354 1.4863 11.8186L1.48639 11.8185L1.47659 11.8085C1.33104 11.6599 1.18468 11.3445 1.07345 10.965C1.02286 10.7924 0.98719 10.6338 0.964286 10.5185C0.952916 10.4612 0.944899 10.4157 0.939898 10.3857L0.934661 10.3531L0.934402 10.3514L0.93356 10.3445L0.927868 10.2963C0.922894 10.2536 0.915692 10.19 0.907 10.1086C0.889607 9.94584 0.866304 9.71218 0.842976 9.43142C0.796154 8.86789 0.75 8.1236 0.75 7.38519V5.94815C0.75 5.2097 0.796158 4.46351 0.842992 3.89802C0.866326 3.61629 0.889636 3.38166 0.907034 3.21812C0.915729 3.13639 0.922936 3.07253 0.927913 3.02955L0.93361 2.98115L0.934437 2.97431L0.934679 2.9727L0.939931 2.93995C0.944936 2.90985 0.95295 2.86421 0.964294 2.80684C0.987144 2.69129 1.02268 2.53239 1.07298 2.35939C1.1836 1.97895 1.32887 1.66262 1.47266 1.5139L1.47267 1.51391L1.4763 1.5101C1.92413 1.04035 2.37555 0.993595 2.76859 0.952886C2.81104 0.948489 2.85282 0.944162 2.89384 0.939379C4.18928 0.845437 5.81066 0.797863 7.11847 0.773949C7.77345 0.761972 8.34647 0.755983 8.75563 0.752989C8.96017 0.751493 9.12365 0.750745 9.23583 0.750372L9.36431 0.750046L9.39727 0.750006L9.40551 0.750001L9.40751 0.75L9.40798 0.75H9.40809H9.41545H9.41555L9.41602 0.75L9.41802 0.750001L9.42626 0.750006L9.45922 0.750046L9.58767 0.750372C9.69982 0.750745 9.86325 0.751493 10.0677 0.752989C10.4766 0.755983 11.0492 0.761972 11.7032 0.773948C13.0095 0.797868 14.6275 0.845457 15.9156 0.939418C15.9568 0.944139 15.9986 0.948418 16.0409 0.952756C16.4393 0.993534 16.8885 1.03952 17.3299 1.50732L17.3298 1.50741L17.3396 1.51741C17.4851 1.66601 17.6315 1.98138 17.7427 2.36093C17.7933 2.53357 17.829 2.69215 17.8519 2.80746C17.8633 2.8647 17.8713 2.91023 17.8763 2.94023L17.8815 2.97283L17.8817 2.97438L17.8826 2.98126L17.8883 3.02978C17.8933 3.07285 17.9005 3.13679 17.9093 3.21862C17.9268 3.38235 17.9504 3.61721 17.9742 3.8992C18.0219 4.46463 18.0699 5.21087 18.0735 5.94978V7.38519C18.0735 8.1236 18.0274 8.86789 17.9806 9.43142C17.9572 9.71218 17.9339 9.94584 17.9165 10.1086C17.9078 10.19 17.9006 10.2536 17.8957 10.2963L17.89 10.3445L17.8891 10.3514L17.8889 10.3531L17.8836 10.3857C17.8786 10.4157 17.8706 10.4612 17.8592 10.5185C17.8363 10.6338 17.8007 10.7924 17.7501 10.965C17.6388 11.3445 17.4925 11.6599 17.3469 11.8085L17.3469 11.8085L17.3399 11.8158C16.892 12.2856 16.4406 12.3323 16.0476 12.373C16.0051 12.3774 15.9633 12.3818 15.9223 12.3866C14.63 12.4805 13.0083 12.5299 11.6994 12.5557C11.0439 12.5686 10.4701 12.5755 10.0603 12.5792C9.85547 12.581 9.6917 12.5821 9.57931 12.5827L9.45057 12.5832L9.41754 12.5833L9.40928 12.5833L9.40727 12.5833L9.40679 12.5833H9.40669L9.40809 13.3333ZM9.40809 13.3333C9.40809 13.3333 4.52029 13.2889 3.01353 13.1407L18.8235 7.38519C18.8235 8.91852 18.6324 10.4519 18.6324 10.4519C18.6324 10.4519 18.4487 11.7556 17.8827 12.3333C17.2357 13.012 16.5235 13.0811 16.1189 13.1203C16.0731 13.1247 16.0312 13.1288 15.9938 13.1333C13.3624 13.3259 9.40809 13.3333 9.40809 13.3333Z" stroke="white" stroke-width="1.5"/>
</svg>
