<svg width="55" height="9" viewBox="0 0 55 9" fill="none" xmlns="http://www.w3.org/2000/svg">
<g clip-path="url(#clip0)">
<path d="M3.41954 0.143645L0.184254 3.04802C0.126323 3.10007 0.0800029 3.16358 0.0482707 3.23446C0.0165384 3.30534 9.59895e-05 3.38203 0 3.45959V7.85223C0 8.15966 0.251913 8.40829 0.561118 8.40829H7.09043C7.399 8.40829 7.6506 8.15972 7.6506 7.85223V3.45965C7.6506 3.30189 7.58276 3.15029 7.46252 3.04459L4.16906 0.140278C4.06555 0.0493094 3.93192 -0.000626714 3.79367 5.93854e-06C3.65543 0.000638591 3.52226 0.0517957 3.4196 0.143708L3.41954 0.143645ZM3.79854 1.12331C4.3819 1.63814 6.37942 3.39917 6.6902 3.67317V7.47539H0.960723V3.67068C1.26522 3.39698 3.21927 1.64245 3.79854 1.12331Z" fill="#222222"/>
<path d="M3.80031 3.22297C3.36399 3.6138 2.92795 4.00494 2.49219 4.39638V6.15029H5.13256V4.39888C4.9892 4.2721 4.06881 3.46068 3.80031 3.22297ZM36.2036 3.01407V4.06008H38.3026V7.98752H39.4536V4.06014H41.5V3.014H36.2036V3.01407ZM53.8729 3.01407V6.54571L50.7235 3.32399C50.4446 3.03172 50.1188 2.9118 49.7558 2.96823C49.4275 3.01906 49.2145 3.28464 49.2145 3.6457V7.98752H50.341V4.45556L53.4405 7.62739C53.7619 7.96276 54.0536 8.09041 54.3878 8.04458C54.9367 7.96644 55.0002 7.56666 55.0002 7.27195V3.01407H53.8729ZM42.0526 5.49446C42.0526 7.65097 43.1486 8.07183 45.1217 8.07183C47.0949 8.07183 48.1908 7.6509 48.1908 5.49446C48.1908 3.33827 47.0948 2.91735 45.1217 2.91735C43.1486 2.91735 42.0526 3.33827 42.0526 5.49446ZM46.9759 5.49446C46.9759 6.9319 46.3403 6.99888 45.1214 6.99888C43.9021 6.99888 43.2675 6.93159 43.2675 5.49446C43.2675 4.05727 43.9018 3.99036 45.1213 3.99036C46.3403 3.99036 46.9759 4.05702 46.9759 5.49446ZM27.2936 7.98627H28.4356V3.01313H27.2936V7.98627ZM24.8001 6.09854C25.5174 5.92281 25.9242 5.38197 25.9242 4.6437C25.9242 3.63766 25.2539 3.01344 24.1754 3.01344H20.5834V7.98627H21.7103V6.21134H23.5355L24.7997 7.98627H26.1219L24.8001 6.09854ZM21.7103 4.04617H24.018C24.6968 4.04617 24.7788 4.35111 24.7788 4.63964C24.7788 4.93036 24.6906 5.23817 24.0211 5.23817H21.7103V4.04617ZM33.1251 4.86065H32.1165C31.2515 4.86065 31.075 4.69889 31.075 4.39326C31.075 4.0198 31.654 3.87568 32.4704 3.87568C33.1887 3.87568 33.8671 3.99529 34.6526 4.3604L35.256 3.51924C34.3991 3.00633 33.5495 2.82007 32.4786 2.82007C30.8422 2.82007 29.8639 3.42813 29.8639 4.44845C29.8639 5.55894 30.7924 5.93796 31.9873 5.9268H33.0979C34.1907 5.9268 34.3362 6.05046 34.3362 6.46327C34.3362 6.87179 33.7316 7.12559 32.7587 7.12559C31.903 7.12559 31.0227 6.95859 30.2501 6.4475C30.2501 6.44687 29.6382 7.3088 29.6382 7.3088C30.4585 7.95465 31.4696 8.17784 32.7511 8.17784C34.5409 8.17784 35.5677 7.53379 35.5677 6.41027C35.5674 5.37667 34.7459 4.86065 33.1251 4.86065ZM16.3508 2.8659C16.1173 2.8659 15.8889 2.97222 15.7785 3.1492L12.7989 7.98939H14.1395L14.6849 7.08007H18.0166L18.5621 7.98939H19.9027L16.9231 3.1492C16.8127 2.97222 16.5839 2.8659 16.3508 2.8659H16.3508ZM16.3511 4.30216C16.3908 4.36907 16.93 5.26947 17.4671 6.16389H15.2345L16.3511 4.30216Z" fill="#222222"/>
</g>
<defs>
<clipPath id="clip0">
<rect width="55" height="8.40829" fill="white"/>
</clipPath>
</defs>
</svg>
