<svg width="30" height="30" viewBox="0 0 30 30" fill="none" xmlns="http://www.w3.org/2000/svg">
<circle cx="15" cy="15" r="15" fill="#00BFFE"/>
<path d="M13.4705 17.1259L18.5587 14.474L13.4705 11.7999V17.1259Z" fill="white"/>
<path opacity="0.12" d="M13.4705 11.7999L17.9337 14.7999L18.5587 14.474L13.4705 11.7999Z" fill="#420000"/>
<path d="M15.4081 21.3333L15.4149 20.5834L15.4147 20.5834L15.4141 20.5834L15.4115 20.5833L15.4012 20.5832L15.3603 20.5828L15.2034 20.5812C15.0673 20.5797 14.8711 20.5774 14.6309 20.5741C14.1504 20.5677 13.4943 20.5575 12.7916 20.5428C11.3892 20.5133 9.84345 20.4661 9.11349 20.3969C9.00322 20.3783 8.89394 20.3644 8.78594 20.3507C8.32087 20.2915 7.87959 20.2354 7.4863 19.8186L7.48639 19.8185L7.47659 19.8085C7.33104 19.6599 7.18468 19.3445 7.07345 18.965C7.02286 18.7924 6.98719 18.6338 6.96429 18.5185C6.95292 18.4612 6.9449 18.4157 6.9399 18.3857L6.93466 18.3531L6.9344 18.3514L6.93356 18.3445L6.92787 18.2963C6.92289 18.2536 6.91569 18.19 6.907 18.1086C6.88961 17.9458 6.8663 17.7122 6.84298 17.4314C6.79615 16.8679 6.75 16.1236 6.75 15.3852V13.9481C6.75 13.2097 6.79616 12.4635 6.84299 11.898C6.86633 11.6163 6.88964 11.3817 6.90703 11.2181C6.91573 11.1364 6.92294 11.0725 6.92791 11.0295L6.93361 10.9811L6.93444 10.9743L6.93468 10.9727L6.93993 10.94C6.94494 10.9098 6.95295 10.8642 6.96429 10.8068C6.98714 10.6913 7.02268 10.5324 7.07298 10.3594C7.1836 9.97895 7.32887 9.66262 7.47266 9.5139L7.47267 9.51391L7.4763 9.5101C7.92413 9.04035 8.37555 8.9936 8.76859 8.95289C8.81104 8.94849 8.85282 8.94416 8.89384 8.93938C10.1893 8.84544 11.8107 8.79786 13.1185 8.77395C13.7734 8.76197 14.3465 8.75598 14.7556 8.75299C14.9602 8.75149 15.1237 8.75075 15.2358 8.75037L15.3643 8.75005L15.3973 8.75001L15.4055 8.75L15.4075 8.75L15.408 8.75H15.4081H15.4155H15.4156L15.416 8.75L15.418 8.75L15.4263 8.75001L15.4592 8.75005L15.5877 8.75037C15.6998 8.75075 15.8633 8.75149 16.0677 8.75299C16.4766 8.75598 17.0492 8.76197 17.7032 8.77395C19.0095 8.79787 20.6275 8.84546 21.9156 8.93942C21.9568 8.94414 21.9986 8.94842 22.0409 8.95276C22.4393 8.99353 22.8885 9.03952 23.3299 9.50732L23.3298 9.50741L23.3396 9.51741C23.4851 9.66601 23.6315 9.98138 23.7427 10.3609C23.7933 10.5336 23.829 10.6921 23.8519 10.8075C23.8633 10.8647 23.8713 10.9102 23.8763 10.9402L23.8815 10.9728L23.8817 10.9744L23.8826 10.9813L23.8883 11.0298C23.8933 11.0728 23.9005 11.1368 23.9093 11.2186C23.9268 11.3824 23.9504 11.6172 23.9742 11.8992C24.0219 12.4646 24.0699 13.2109 24.0735 13.9498V15.3852C24.0735 16.1236 24.0274 16.8679 23.9806 17.4314C23.9572 17.7122 23.9339 17.9458 23.9165 18.1086C23.9078 18.19 23.9006 18.2536 23.8957 18.2963L23.89 18.3445L23.8891 18.3514L23.8889 18.3531L23.8836 18.3857C23.8786 18.4157 23.8706 18.4612 23.8592 18.5185C23.8363 18.6338 23.8007 18.7924 23.7501 18.965C23.6388 19.3445 23.4925 19.6599 23.3469 19.8085L23.3469 19.8085L23.3399 19.8158C22.892 20.2856 22.4406 20.3323 22.0476 20.373C22.0051 20.3774 21.9633 20.3818 21.9223 20.3866C20.63 20.4805 19.0083 20.5299 17.6994 20.5557C17.0439 20.5686 16.4701 20.5755 16.0603 20.5792C15.8555 20.581 15.6917 20.5821 15.5793 20.5827L15.4506 20.5832L15.4175 20.5833L15.4093 20.5833L15.4073 20.5833L15.4068 20.5833H15.4067L15.4081 21.3333ZM15.4081 21.3333C15.4081 21.3333 10.5203 21.2889 9.01353 21.1407L24.8235 15.3852C24.8235 16.9185 24.6324 18.4519 24.6324 18.4519C24.6324 18.4519 24.4487 19.7556 23.8827 20.3333C23.2357 21.012 22.5235 21.0811 22.1189 21.1203C22.0731 21.1247 22.0312 21.1288 21.9938 21.1333C19.3624 21.3259 15.4081 21.3333 15.4081 21.3333Z" stroke="white" stroke-width="1.5"/>
</svg>
