<svg width="77" height="56" viewBox="0 0 77 56" fill="none" xmlns="http://www.w3.org/2000/svg">
<path d="M75.207 12.1449C75.207 12.1449 74.4521 6.81134 72.1875 4.47546C69.3566 1.36096 66.1484 1.36096 64.6386 1.1663C54.1457 0.387679 38.2931 0.465542 38.2931 0.465542C38.2931 0.465542 22.516 0.387679 11.9853 1.1663C10.4756 1.36096 7.30505 1.36096 4.43649 4.47546C2.17183 6.81134 1.41695 12.1449 1.41695 12.1449C1.41695 12.1449 0.662061 18.4907 0.548828 24.7197V31.338C0.662061 37.567 1.41695 43.796 1.41695 43.796C1.41695 43.796 2.17183 49.2464 4.43649 51.5823C7.30505 54.6968 11.0417 54.5411 12.7402 54.8914C18.6661 55.4754 37.6515 55.5922 38.2931 55.5922C38.2931 55.5922 54.1457 55.5922 64.7141 54.8136C66.1484 54.6578 69.3566 54.6579 72.2629 51.5434C74.5276 49.2075 75.2825 43.835 75.2825 43.835C75.2825 43.835 76.0374 37.606 76.0374 31.2991V24.6808C75.9619 18.4518 75.207 12.1449 75.207 12.1449ZM30.6688 39.3968V16.6609L50.8619 28.4571L30.631 39.3968H30.6688Z" fill="white"/>
</svg>
