<svg width="55" height="15" viewBox="0 0 55 15" fill="none" xmlns="http://www.w3.org/2000/svg">
<g clip-path="url(#clip0)">
<path fill-rule="evenodd" clip-rule="evenodd" d="M54.9983 0.25428H51.9178V14.6099H54.9983V0.25428ZM43.2928 10.7409C43.2925 11.2248 43.2913 11.7149 43.4035 12.2041C43.4387 12.3637 43.4823 12.5219 43.5333 12.671C43.5849 12.8201 43.6443 12.9604 43.7152 13.0943C43.7867 13.2287 43.8693 13.3562 43.9624 13.4763C44.0559 13.5961 44.1584 13.708 44.2703 13.8111C44.4276 13.9461 44.5952 14.0692 44.7718 14.1773C45.295 14.5065 45.9098 14.6717 46.4723 14.7649C47.2248 14.8847 47.975 14.9075 48.739 14.766C48.9264 14.7312 49.1119 14.687 49.2689 14.6404C49.4262 14.5929 49.5545 14.5428 49.6799 14.4854C49.8049 14.4274 49.9265 14.3627 50.0451 14.2915C50.1632 14.2203 50.278 14.1433 50.4397 14.0024C50.6011 13.8618 50.81 13.6576 50.9828 13.4259C51.1554 13.1942 51.2919 12.9349 51.3853 12.6613C51.4785 12.3877 51.5283 12.1007 51.5558 11.8751C51.5836 11.6504 51.5895 11.487 51.5906 11.3244C51.5918 11.1612 51.5883 10.9984 51.5789 10.8361C51.5693 10.6738 51.5537 10.5118 51.5344 10.368C51.4975 10.088 51.4415 9.85419 51.3557 9.60345C51.3141 9.48217 51.2667 9.36237 51.1923 9.20975C51.0481 8.91213 50.8153 8.51287 50.5428 8.16839C50.4122 8.00141 50.2722 7.84176 50.0654 7.62617C49.8582 7.41086 49.585 7.13843 49.3049 6.87274C48.7753 6.36656 48.2167 5.89231 47.668 5.40809C47.2969 5.07591 46.9474 4.70301 46.7189 4.3386C46.4963 3.96717 46.4254 3.55473 46.4975 3.14521C46.5095 3.06407 46.5344 2.98497 46.5716 2.91204C46.6082 2.8388 46.6568 2.77173 46.7148 2.71431C46.7725 2.6566 46.8399 2.60856 46.9175 2.56872C47.1656 2.44481 47.4577 2.40966 47.7301 2.48026C47.8241 2.50516 47.9185 2.54442 48.0017 2.60096C48.1698 2.70876 48.277 2.90765 48.3227 3.08047C48.3892 3.32097 48.4103 3.51753 48.4159 3.73694V4.86824H51.3789C51.3783 4.63213 51.3748 4.39544 51.3683 4.15964C51.3622 3.92353 51.3531 3.68743 51.3425 3.4938C51.3235 3.11709 51.2919 2.85551 51.2271 2.54559C51.1685 2.25852 51.0768 1.95357 50.9058 1.65625C50.824 1.51388 50.7277 1.38002 50.6193 1.25699C50.404 1.01591 50.1691 0.837514 49.9579 0.707747C49.8533 0.643009 49.7458 0.582079 49.6362 0.524665C49.5267 0.467251 49.4153 0.413351 49.1517 0.32635C48.8878 0.23935 48.4712 0.118953 48.0456 0.0556793C47.62 -0.00730038 47.185 -0.0134516 46.7576 0.038105C46.3302 0.0893679 45.911 0.198041 45.6488 0.276254C45.3873 0.354173 45.2827 0.401332 45.1804 0.452595C45.0788 0.50415 44.9789 0.55982 44.8822 0.619871C44.7853 0.680508 44.6916 0.745538 44.5747 0.843377C44.4572 0.941216 44.316 1.07273 44.1898 1.21685C44.0638 1.36097 43.9531 1.51887 43.859 1.68584C43.7647 1.85251 43.6871 2.02886 43.6238 2.21457C43.4305 2.78842 43.3675 3.39948 43.4188 3.99325C43.4501 4.38754 43.5321 4.79588 43.6824 5.19192C43.7553 5.38437 43.8415 5.57155 43.9595 5.7725C44.0767 5.97375 44.2255 6.18876 44.384 6.39557C44.6962 6.80626 45.0504 7.17125 45.4631 7.54151C45.6667 7.72488 45.8826 7.91441 46.1003 8.1013C46.3176 8.28849 46.5373 8.47361 46.7453 8.64849C46.9533 8.82278 47.1504 8.98712 47.3388 9.16024C47.5277 9.33307 47.7084 9.51499 47.8218 9.63684C47.9355 9.7587 47.9815 9.82081 48.026 9.88437C48.0708 9.94735 48.113 10.0124 48.1713 10.1255C48.2299 10.2388 48.3031 10.4005 48.3584 10.5687C48.4141 10.7368 48.4507 10.9111 48.4704 11.0871C48.4888 11.2641 48.49 11.4422 48.4771 11.5801C48.4645 11.7178 48.4381 11.8151 48.3965 11.9053C48.3546 11.9964 48.2981 12.0796 48.2293 12.1519C48.1604 12.2237 48.0793 12.2843 47.9908 12.33C47.7717 12.4384 47.5131 12.475 47.2685 12.4235C47.1481 12.398 47.0321 12.3514 46.9427 12.3037C46.8537 12.2556 46.7913 12.2061 46.7365 12.1499C46.6814 12.0934 46.6349 12.0292 46.5979 11.9601C46.455 11.6545 46.4251 11.3074 46.4207 10.9732V9.65559H43.2928V10.7409ZM35.9918 0.843377C35.8746 0.941216 35.7334 1.07273 35.6075 1.21685C35.4815 1.36097 35.3708 1.51887 35.2768 1.68584C35.1824 1.85251 35.1048 2.02886 35.0415 2.21457C34.8482 2.78842 34.7852 3.39948 34.8362 3.99325C34.8678 4.38754 34.9493 4.79588 35.1001 5.19192C35.1728 5.38437 35.2592 5.57155 35.377 5.7725C35.4944 5.97375 35.6426 6.18876 35.8017 6.39557C36.114 6.80626 36.4681 7.17125 36.8811 7.54151C37.0844 7.72488 37.3003 7.91441 37.518 8.1013C37.7353 8.28849 37.9547 8.47361 38.163 8.64849C38.3713 8.82278 38.5681 8.98712 38.7571 9.15995C38.9457 9.33219 39.127 9.51351 39.301 9.70158C39.3508 9.76045 39.398 9.82197 39.4434 9.88495C39.4882 9.94735 39.5307 10.0124 39.5893 10.1255C39.6476 10.2388 39.7211 10.4005 39.7762 10.5687C39.8315 10.7368 39.8685 10.9111 39.8878 11.0871C39.9068 11.2641 39.9074 11.4422 39.8951 11.5801C39.8825 11.7178 39.8559 11.8151 39.814 11.9053C39.7727 11.9964 39.7155 12.0796 39.6473 12.1522C39.5782 12.2246 39.4976 12.2861 39.3974 12.335C39.1973 12.4334 38.9284 12.4765 38.6868 12.4235C38.5658 12.398 38.4501 12.3514 38.3607 12.3037C38.2714 12.2556 38.2093 12.2061 38.1539 12.1499C38.0994 12.0934 38.0523 12.0292 38.0157 11.9601C37.873 11.6545 37.8428 11.3074 37.8382 10.9732V9.65559H34.7108C34.7108 10.0991 34.7091 10.5426 34.7114 10.9855C34.712 11.0672 34.7126 11.1489 34.7161 11.2714C34.7214 11.5221 34.7483 11.8895 34.8213 12.2041C34.8567 12.3637 34.8998 12.5219 34.9513 12.671C35.0026 12.8201 35.0618 12.9604 35.1332 13.0943C35.2041 13.2287 35.2873 13.3562 35.3799 13.4763C35.473 13.5961 35.5759 13.708 35.688 13.8111C35.8451 13.9461 36.0129 14.0692 36.1892 14.1773C36.7127 14.5065 37.3273 14.6717 37.8897 14.7649C38.6423 14.8847 39.3927 14.9075 40.157 14.766C40.3442 14.7312 40.5299 14.687 40.6866 14.6404C40.8439 14.5929 40.9722 14.5428 41.0973 14.4854C41.2227 14.4274 41.3445 14.3627 41.4626 14.2915C41.5806 14.2203 41.6955 14.1433 41.8572 14.0024C42.0189 13.8618 42.2274 13.6576 42.4002 13.4259C42.5731 13.1942 42.7099 12.9349 42.8074 12.6613C42.9047 12.3877 42.9633 12.101 42.9805 11.811C43.0104 11.4876 43.0157 11.1613 42.9964 10.8361C42.987 10.6738 42.9712 10.5118 42.9521 10.368C42.9149 10.088 42.8593 9.85419 42.7734 9.60345C42.7318 9.48217 42.6841 9.36237 42.61 9.20975C42.4659 8.91213 42.2327 8.51287 41.9606 8.16839C41.8299 8.00141 41.6899 7.84176 41.4828 7.62617C41.276 7.41086 41.0021 7.13843 40.7226 6.87274C40.1927 6.36656 39.6347 5.89231 39.0855 5.40809C38.7969 5.14973 38.5219 4.86911 38.3071 4.58526C38.2462 4.50617 38.1867 4.42502 38.1279 4.32162C38.0016 4.10514 37.9041 3.82041 37.8921 3.55736C37.8836 3.41968 37.8935 3.28143 37.9102 3.17246C37.9275 3.06378 37.9524 2.98497 37.9887 2.91204C38.0259 2.8388 38.0742 2.77173 38.1323 2.71431C38.1903 2.6566 38.2576 2.60856 38.3353 2.56872C38.5834 2.44481 38.8754 2.40966 39.1478 2.48026C39.2416 2.50516 39.3356 2.54442 39.4194 2.60096C39.5875 2.70876 39.6945 2.90765 39.7404 3.08047C39.8066 3.32097 39.8277 3.51753 39.8336 3.73694V4.86824H42.7963C42.796 4.63213 42.7925 4.39545 42.786 4.16022C42.7796 3.92354 42.7705 3.68743 42.7603 3.4938C42.7415 3.11739 42.7093 2.85551 42.6443 2.54559C42.5866 2.25852 42.4949 1.95357 42.3232 1.65625C42.2415 1.51388 42.1457 1.38002 42.0367 1.25699C41.8217 1.01591 41.5871 0.837514 41.3762 0.707747C41.271 0.643009 41.1638 0.582079 41.0539 0.524665C40.9447 0.467251 40.8331 0.413351 40.5689 0.32635C40.3052 0.23935 39.8887 0.118953 39.463 0.0556793C39.0377 -0.00730038 38.6024 -0.0134516 38.1753 0.038105C37.7482 0.0893679 37.3287 0.198041 37.0669 0.276254C36.805 0.354173 36.7007 0.401332 36.5985 0.452595C36.4962 0.50415 36.3966 0.55982 36.3 0.619871C36.203 0.680508 36.1093 0.745538 35.9918 0.843377ZM33.5397 13.9078C33.661 13.7985 33.7778 13.6743 33.8801 13.5393C33.9823 13.4039 34.0708 13.258 34.1428 13.1051C34.2155 12.9513 34.2717 12.7905 34.3116 12.6262C34.4141 12.1467 34.4756 11.6654 34.4897 11.1815L34.5084 10.7339V0.255746H31.3951L31.3963 10.7339C31.3896 10.9509 31.3782 11.2034 31.3541 11.4278C31.3456 11.4958 31.3345 11.5632 31.3199 11.6302C31.3055 11.6976 31.2888 11.7638 31.2718 11.8174C31.2282 11.9574 31.1769 12.0647 31.0515 12.1722C30.9487 12.2551 30.8002 12.3309 30.6655 12.3541C30.5184 12.3813 30.3599 12.3746 30.202 12.3511C30.123 12.3333 30.0465 12.304 29.975 12.2653C29.9036 12.2266 29.8379 12.178 29.7878 12.1229C29.688 12.0087 29.6408 11.8801 29.6007 11.7541C29.5816 11.6891 29.5681 11.6214 29.5544 11.5198C29.5403 11.4181 29.5254 11.2816 29.5148 11.1448C29.5104 11.0078 29.5058 10.871 29.5046 9.05596C29.5037 7.24097 29.5058 3.74865 29.5078 0.255746H26.4379L26.4358 10.7339C26.4552 11.4899 26.449 12.2407 26.8181 13.0225C26.9514 13.2853 27.1087 13.5149 27.3445 13.7496C27.4631 13.867 27.6049 13.9889 27.7564 14.0982C27.9075 14.2077 28.0675 14.3044 28.2344 14.3888C28.4008 14.4728 28.5742 14.5446 28.8578 14.6237C29.1416 14.7031 29.5353 14.7895 29.9349 14.8325C30.3333 14.8765 30.7375 14.8768 31.1365 14.8334C31.5358 14.7907 31.9295 14.7037 32.199 14.6304C32.4685 14.5572 32.6137 14.4974 32.7549 14.4289C32.8955 14.3603 33.0326 14.2836 33.1633 14.1972C33.2942 14.1116 33.4193 14.017 33.5397 13.9078ZM25.7439 0.255746L25.7422 14.6096H22.2628L20.2119 6.79132V14.612L17.188 14.6096L17.191 0.255746H20.5969L22.8181 8.2876L22.8205 0.255746H25.7439ZM11.7067 9.57064L12.5263 3.79581L13.3662 9.57064H11.7067ZM13.6717 11.9741L14.0361 14.6096H17.188L14.4948 0.255746H10.5628C9.68052 5.04047 8.79469 9.82519 7.90741 14.6096H11.0362L11.4138 11.9741H13.6717ZM7.90536 0.255746H0.269257V2.73335H4.43912L-0.00170898 11.7729V14.6096H7.90741V12.0485H3.43437L7.90741 2.73335L7.90536 0.255746Z" fill="#222222"/>
</g>
<defs>
<clipPath id="clip0">
<rect width="55" height="14.8622" fill="white"/>
</clipPath>
</defs>
</svg>
