<svg width="55" height="18" viewBox="0 0 55 18" fill="none" xmlns="http://www.w3.org/2000/svg">
<path d="M51.39 0.704506C51.3302 0.745255 51.2588 0.764948 51.1899 0.761654C51.1547 0.759935 51.12 0.75256 51.0542 0.7295C50.9883 0.70644 50.8917 0.667912 50.7946 0.630671C50.697 0.593431 50.5986 0.557552 50.0642 0.453926C49.5296 0.3503 48.5586 0.179285 47.5858 0.188522C46.613 0.197762 45.6381 0.387541 44.7199 0.72814C43.8022 1.0686 42.9409 1.55958 42.2163 2.12305C41.4917 2.6863 40.9037 3.3218 40.419 4.02735C39.9339 4.73318 39.5521 5.50906 39.2916 6.32353C39.0311 7.138 38.8921 7.99115 38.8741 8.82231C38.8561 9.65389 38.9591 10.4631 39.1833 11.2377C39.4075 12.0122 39.753 12.7521 40.2073 13.4154C40.6618 14.0787 41.2252 14.6648 41.7199 15.0907C42.2142 15.5159 42.6397 15.7809 43.0799 16.0153C43.5199 16.2504 43.9743 16.4561 44.4418 16.6278C44.909 16.7995 45.3892 16.9382 46.0693 17.0536C46.7496 17.1691 47.63 17.2611 48.5098 17.2486C49.3895 17.2367 50.2689 17.1194 51.1215 16.9011C51.9737 16.6828 52.7995 16.3634 53.4472 16.0602C54.0952 15.757 54.5653 15.4693 54.9092 15.2414C55.2531 15.0135 55.4711 14.8448 55.5973 14.739C55.7239 14.633 55.7585 14.59 55.7869 14.5427C55.8153 14.4955 55.8374 14.4447 55.8521 14.3921C55.8664 14.3395 55.873 14.2844 55.8787 14.2001C55.8847 14.1151 55.8894 14.0015 55.8688 13.8927C55.8485 13.7844 55.8026 13.6809 55.7238 13.5888C55.6448 13.4962 55.533 13.4147 55.46 13.3519C55.3134 13.2246 55.2981 13.1528 55.2649 13.0493C55.2518 12.9967 55.2473 12.9422 55.247 12.8878L55.2399 10.7082C55.2389 10.554 55.2725 10.3902 55.3541 10.2346C55.3921 10.1621 55.439 10.094 55.4935 10.0331L55.9707 9.49599C56.1223 9.32318 56.1917 9.09645 56.1807 8.88354C56.175 8.77304 56.148 8.66375 56.1017 8.56313C56.0556 8.46273 55.9898 8.37135 55.9093 8.29544C55.74 8.13452 55.5179 8.05653 55.3071 8.05739L49.6998 8.05811C49.6063 8.05811 49.5134 8.07959 49.4259 8.11404C49.3392 8.14856 49.2581 8.19854 49.1886 8.26085C49.1189 8.32322 49.0603 8.39799 49.0161 8.48049C48.9284 8.6442 48.9 8.84042 48.9404 9.02519C48.9603 9.11664 48.9962 9.20451 49.0464 9.2835C49.0967 9.36242 49.1601 9.43368 49.2351 9.4899C49.4445 9.69321 49.7071 9.83558 49.8518 9.95819C49.9968 10.0814 50.0543 10.1477 50.101 10.2219C50.1973 10.3733 50.2395 10.5491 50.2365 10.7201L50.2355 13.6138C50.2355 13.7358 50.2176 13.8578 50.1805 13.9744C50.1434 14.0904 50.0877 14.2011 50.0162 14.2998C49.9448 14.3991 49.8578 14.4869 49.7597 14.5605C49.6616 14.6341 49.5528 14.6939 49.2977 14.7604C49.0429 14.8273 48.6416 14.9003 48.2397 14.8997C47.8377 14.8991 47.4349 14.8243 47.0552 14.6861C46.6756 14.548 46.3191 14.3458 46.0085 14.0892C45.6978 13.8333 45.4326 13.5222 45.233 13.2161C45.0336 12.9093 44.8997 12.606 44.7806 12.298C44.6619 11.9906 44.5578 11.6778 44.4708 11.3602C44.3834 11.0431 44.3133 10.7208 44.2564 10.1831C44.1999 9.64595 44.1565 8.89328 44.2193 8.14841C44.2821 7.40355 44.4502 6.66606 44.7105 5.96216C44.9711 5.25819 45.3233 4.58788 45.6541 4.1115C45.9846 3.63512 46.2932 3.35267 46.6426 3.13582C47.3341 2.70327 48.2009 2.5354 49.0076 2.70635C49.4075 2.79007 49.7888 2.95485 50.1895 3.19154C50.5903 3.42808 51.0104 3.73652 51.4213 4.0555C51.8322 4.37447 52.2338 4.70397 52.6226 5.04779C52.7063 5.13373 52.805 5.20534 52.9126 5.25841C53.1252 5.36318 53.3773 5.39426 53.6142 5.33912C53.7314 5.31205 53.8436 5.26492 53.945 5.20026C54.0461 5.13573 54.1361 5.05359 54.2096 4.95884C54.363 4.76219 54.4369 4.52013 54.4315 4.2881C54.4093 3.88763 54.3313 3.48065 54.1913 3.08218C54.1228 2.88825 54.049 2.69475 53.946 2.51671L52.6712 0.310339C52.632 0.242735 52.5809 0.182007 52.5199 0.133165C52.3315 -0.012785 52.0926 -0.046587 51.8575 0.0667782C51.787 0.101799 51.7227 0.149637 51.667 0.230705C51.6115 0.311701 51.5647 0.426067 51.5337 0.499115C51.5025 0.572163 51.4871 0.604246 51.4662 0.632462C51.4453 0.660463 51.4193 0.685026 51.3901 0.704865L51.39 0.704506ZM31.4526 10.1494C31.5136 10.1972 31.5662 10.2558 31.6318 10.3508C31.6969 10.4467 31.775 10.5789 31.85 10.6883C31.9248 10.7977 31.9965 10.8838 32.0832 10.9521C32.2607 11.0908 32.4944 11.1482 32.7111 11.1189C32.8214 11.1046 32.9288 11.0681 33.0254 11.0129C33.1216 10.9574 33.2107 10.8857 33.2757 10.7952L35.2719 8.02488C35.3989 7.84348 35.4494 7.61775 35.4285 7.40584C35.4178 7.29778 35.3882 7.19157 35.3412 7.09367C35.2942 6.99592 35.23 6.90604 35.1525 6.83006C34.8938 6.58371 34.5708 6.50994 34.2499 6.59488C34.1462 6.62438 34.0484 6.67308 33.8388 6.80528C33.6298 6.93748 33.3089 7.15304 33.0939 7.29033C32.8785 7.42776 32.769 7.48662 32.6549 7.53382C32.4225 7.62706 32.1754 7.68263 31.9321 7.68851H26.821L26.8191 2.93602L31.9457 2.93408C32.3156 2.93136 32.6993 2.99016 33.0704 3.13432C33.2493 3.20321 33.4236 3.28564 33.5836 3.39106L35.1367 4.41393C35.4072 4.59991 35.7378 4.6302 36.0509 4.38192C36.1836 4.26397 36.3308 4.07927 36.4342 3.92215C36.5758 3.69606 36.5975 3.4775 36.5219 3.2411C36.4965 3.16769 36.4588 3.09923 36.4146 3.0352L34.9788 0.959238C34.9064 0.854395 34.8196 0.759291 34.7189 0.681446C34.5086 0.519382 34.2553 0.433517 34.0102 0.431799L21.1891 0.452566C21.0786 0.452637 20.9668 0.441109 20.861 0.473335C20.7552 0.505346 20.657 0.56278 20.5721 0.635183C20.4872 0.707943 20.4157 0.795671 20.3626 0.893497C20.2575 1.08593 20.2254 1.32118 20.2811 1.54068C20.3082 1.64846 20.3557 1.7513 20.4202 1.84196C20.4847 1.9327 20.5645 2.01391 20.6591 2.0722L21.1891 2.39905C21.2513 2.43744 21.3082 2.48485 21.3547 2.54142C21.4518 2.6593 21.4987 2.80611 21.4984 2.94676L21.5043 14.3328C21.5045 14.4405 21.4862 14.5481 21.448 14.6492C21.3713 14.8424 21.2547 14.9889 20.9937 15.1307C20.8701 15.2 20.7119 15.276 20.5859 15.3501C20.4598 15.4236 20.3654 15.4954 20.2895 15.5834C20.132 15.7658 20.0613 16.0086 20.0795 16.2348C20.0884 16.3514 20.1204 16.4668 20.1732 16.5715C20.2257 16.6761 20.299 16.7707 20.3874 16.8472C20.571 17.0105 20.8107 17.0757 21.0363 17.0686L33.8825 17.0703C34.0231 17.0703 34.164 17.0553 34.2988 17.0152C34.4338 16.9751 34.562 16.9142 34.6778 16.834C34.7935 16.7545 34.8997 16.6587 34.9819 16.5446L36.5196 14.4154C36.6892 14.1767 36.731 13.889 36.6201 13.6037C36.5845 13.5158 36.5343 13.4339 36.4721 13.3615C36.4098 13.2898 36.3356 13.2282 36.231 13.1731C36.0211 13.0601 35.7056 12.9978 35.4314 13.0726C35.2944 13.1068 35.1695 13.1755 35.0492 13.2502L33.3454 14.3083C33.054 14.4894 32.6998 14.5415 32.367 14.6079C32.0345 14.6749 31.692 14.7102 31.349 14.7096L26.8193 14.7L26.8212 10.0414H31.2482C31.3256 10.0415 31.3918 10.1025 31.4528 10.1497L31.4526 10.1494ZM1.20066 14.6277C1.16271 14.6953 1.11666 14.7587 1.06417 14.8161C0.948008 14.9411 0.816811 15.0266 0.682534 15.0769L-0.472251 15.4925C-0.583827 15.5327 -0.688459 15.593 -0.778336 15.6702C-0.868069 15.7479 -0.943477 15.8424 -0.998118 15.947C-1.05269 16.0517 -1.0867 16.1672 -1.1011 16.2641C-1.11564 16.3615 -1.11063 16.4399 -1.09322 16.5153C-1.07589 16.5913 -1.04581 16.6636 -1.00471 16.7294C-0.963456 16.7946 -0.911107 16.8532 -0.850234 16.901C-0.724193 17.0015 -0.568645 17.0493 -0.419257 17.0482L4.23633 17.0505C4.31053 17.0505 4.38465 17.0374 4.4544 17.0129C4.52444 16.9877 4.59011 16.9512 4.64783 16.9046C4.77567 16.8012 4.84842 16.6666 4.87764 16.5337C4.91051 16.3878 4.88932 16.194 4.81197 16.0003C4.77065 15.9016 4.71193 15.8095 4.63938 15.73C4.47946 15.5577 4.25782 15.4626 4.06224 15.3358C3.95682 15.2712 3.89953 15.1761 3.87568 15.084C3.85212 14.9895 3.85857 14.8765 3.91937 14.7729L4.25553 14.2227C4.29219 14.1622 4.34297 14.1114 4.39904 14.0684C4.45512 14.0253 4.51864 13.9912 4.58653 13.9733C4.65449 13.9553 4.72575 13.968 4.7965 13.968H10.1245C10.2169 13.968 10.3098 13.9792 10.396 14.0128C10.4825 14.0469 10.5618 14.0995 10.6287 14.1653C10.6953 14.2311 10.7518 14.3083 10.7869 14.395L11.7289 16.718C11.7545 16.7808 11.798 16.8359 11.847 16.8831C11.9509 16.9831 12.0855 17.0379 12.2143 17.0404L17.5909 17.0428C17.6915 17.0428 17.7923 17.0266 17.8864 16.9907C17.9804 16.9554 18.0676 16.9016 18.1418 16.8335C18.369 16.6271 18.4429 16.3149 18.3829 16.044C18.3637 15.959 18.3317 15.8771 18.2879 15.8024C18.2444 15.727 18.189 15.6582 18.1246 15.5996C18.0601 15.5415 17.9874 15.4907 17.9074 15.4566L17.2253 15.1666C17.0989 15.1133 16.9837 15.0355 16.8754 14.9512C16.767 14.8669 16.6678 14.7706 16.5803 14.6648C16.4927 14.5589 16.4082 14.4476 16.3542 14.3214L10.5891 0.861486C10.5516 0.773829 10.4796 0.704792 10.407 0.642845C10.2548 0.513367 10.0656 0.443399 9.8835 0.441393L4.74208 0.448555C4.66108 0.448698 4.5798 0.460373 4.50281 0.48551C4.42568 0.51079 4.35271 0.548531 4.28782 0.597227C4.22294 0.645782 4.16608 0.705151 4.1201 0.771967C4.07413 0.838713 4.03932 0.913118 4.01655 0.991179C3.96706 1.14773 3.98375 1.36952 4.07814 1.58866C4.12777 1.70095 4.19967 1.80365 4.28775 1.88966C4.37577 1.97581 4.48076 2.04377 4.59341 2.09361L5.26042 2.38895C5.3276 2.41867 5.39513 2.44796 5.45543 2.49C5.51566 2.53175 5.57052 2.58167 5.618 2.6376C5.6654 2.69367 5.70966 2.75412 5.73687 2.82208L6.06358 3.63798C6.13734 3.85641 6.12517 4.10283 6.00479 4.33673L1.20066 14.6277ZM7.31368 7.45339C7.38294 7.39589 7.46415 7.37827 7.55767 7.45339C7.57407 7.46886 7.58768 7.48727 7.59692 7.50761L9.07454 10.7831C9.1327 10.929 9.13556 11.0947 9.02291 11.2657C8.89959 11.435 8.7444 11.4852 8.58935 11.4841H6.04883C5.99977 11.4841 5.95093 11.4726 5.90574 11.4536C5.86063 11.4343 5.81902 11.4063 5.78436 11.3722C5.67522 11.2586 5.64127 11.1144 5.69491 10.9637L7.2743 7.50732C7.28375 7.48712 7.29736 7.46886 7.31368 7.45339Z" fill="#222222"/>
</svg>
