<svg width="55" height="10" viewBox="0 0 55 10" fill="none" xmlns="http://www.w3.org/2000/svg">
<g clip-path="url(#clip0)">
<path d="M44.1952 2.57388V7.39444H51.9646V2.57388H44.1953H44.1952ZM44.2902 9.96849C42.5614 9.96849 41.1599 8.57796 41.1599 6.86322V3.10455C41.1599 1.38981 42.5614 0 44.2901 0H51.8698C53.5987 0 55 1.38981 55 3.10455V6.86322C55 8.57796 53.5987 9.96849 51.8699 9.96849H44.2902ZM17.8895 7.39444V6.3163H27.2754V3.72431H17.8895V2.57382H27.2754V0H17.9841C16.2554 0 14.8541 1.38981 14.8541 3.10455V6.86322C14.8541 8.57796 16.2554 9.96849 17.9841 9.96849H27.3307V7.39444H17.8895ZM2.77945 6.31636V7.39444H10.8406V6.31636H2.77945ZM2.77945 2.57388V3.72425H10.8957V2.57388H2.77945ZM0.000220221 9.96849V0.0315465H11.0981C12.5642 0.0315465 13.8634 1.21149 13.8634 2.66555C13.8634 3.67212 13.2408 4.5476 12.3713 4.99036L12.3488 5.02064C13.2299 5.45953 13.8631 6.34058 13.8631 7.35635C13.8631 8.8109 12.5641 9.98963 11.0978 9.98963L0 9.9654L0.000275275 9.96849H0.000220221Z" fill="#222222"/>
<path d="M41.9619 5.50543e-05H37.3793L31.8766 3.71269V5.50543e-05H28.7661V9.96843H31.8766V6.25211L37.5451 9.96843H41.9619L34.501 4.96299L41.9618 0V5.50543e-05H41.9619Z" fill="#222222"/>
</g>
<defs>
<clipPath id="clip0">
<rect width="55" height="9.98991" fill="white"/>
</clipPath>
</defs>
</svg>
