<svg width="55" height="9" viewBox="0 0 55 9" fill="none" xmlns="http://www.w3.org/2000/svg">
<g clip-path="url(#clip0)">
<path fill-rule="evenodd" clip-rule="evenodd" d="M5.89888 0.298949V1.90383C5.13563 1.63687 4.29986 1.48101 3.63352 1.48101C2.81102 1.48101 2.35332 1.73162 2.35332 2.18191C2.35332 2.46925 2.55362 2.65967 3.12829 2.918L4.67392 3.61149C5.9103 4.16703 6.53342 4.9775 6.53342 6.03055C6.53342 7.6558 5.12668 8.68108 2.89682 8.68108C2.08357 8.68108 1.14286 8.56472 0.146291 8.33942V6.68053C1.13422 6.94934 2.03913 7.09286 2.74312 7.09286C3.665 7.09286 4.15881 6.83608 4.15881 6.35739C4.15881 6.06974 3.96592 5.85833 3.52426 5.66112L1.83265 4.90651C0.578684 4.34727 0 3.5939 0 2.51986C0 0.980716 1.35582 -0.000732422 3.48291 -0.000732422C4.22764 -0.000732422 5.14427 0.112536 5.89888 0.297715V0.298949ZM7.73709 0.168707H10.2367V8.51287H7.73709V0.168707ZM18.3639 0.168707V1.69736H14.5903V3.5794H17.8867V4.96206H14.5903V6.91323H18.4127V8.51287H12.1613V0.168707H18.3639ZM30.1728 0.168707V8.51287H27.7543V3.02077L25.3853 8.57799H23.8563L21.5033 3.02077V8.51287H19.8333V0.168707H22.8857L25.0436 5.24415L27.1904 0.168707H30.1728ZM38.3064 0.168707V1.69736H34.5272V3.5794H37.8228V4.96206H34.5272V6.91323H38.349V8.51287H32.0921V0.168707H38.3064ZM47.1108 0.168707V8.51287H44.4433L41.4397 3.1612V8.51287H39.7693V0.168707H42.5072L45.4463 5.4497V0.168707H47.1108ZM54.3648 0.298949V1.90383C53.6071 1.63872 52.7661 1.48101 52.1121 1.48101C51.2767 1.48101 50.8193 1.72761 50.8193 2.17944C50.8193 2.47388 51.006 2.6498 51.6004 2.91831L53.1393 3.6118C54.3846 4.1732 55 4.97657 55 6.04197C55 7.65858 53.592 8.68169 51.3671 8.68169C50.5526 8.68169 49.6082 8.56472 48.6129 8.34004V6.68114C49.5996 6.94934 50.5026 7.09347 51.202 7.09347C52.1177 7.09347 52.6251 6.83669 52.6251 6.37313C52.6251 6.06635 52.4473 5.86852 51.9844 5.66173L50.2995 4.90836C49.0379 4.3448 48.466 3.60007 48.466 2.52202C48.466 0.983804 49.8224 0.00173763 51.9445 0.00173763C52.6914 0.000811735 53.6118 0.11377 54.3648 0.298949Z" fill="#222222"/>
</g>
<defs>
<clipPath id="clip0">
<rect width="55" height="8.68119" fill="white"/>
</clipPath>
</defs>
</svg>
