<svg width="55" height="15" viewBox="0 0 55 15" fill="none" xmlns="http://www.w3.org/2000/svg">
<g clip-path="url(#clip0)">
<path fill-rule="evenodd" clip-rule="evenodd" d="M43.6266 0H44.2572H45.6379V1.95542H45.0074H43.6266V0ZM42.7247 14.6458V13.0176C43.5787 13.0176 43.6266 12.7063 43.6266 11.9321V3.00896H45.7257V11.0621V11.0781V12.4429C45.7257 12.818 45.6859 13.1772 45.614 13.5044C45.4464 14.2227 44.5205 14.6138 43.874 14.6378C43.7304 14.6457 42.7407 14.6298 42.7247 14.6457V14.6458ZM39.5162 6.42509C39.5162 5.56307 38.9495 4.62119 37.9758 4.62119C36.6908 4.62119 36.2359 5.60297 36.2359 6.8001V11.3814L34.1128 11.3654V3.36014V3.35216V3.16862H36.1162V4.14231C36.8744 3.11272 37.3054 2.8653 38.7181 2.8653C39.3805 2.8653 39.9552 3.08878 40.5458 3.44794C41.5914 4.0785 41.5195 5.48318 41.5195 6.5447V11.3654H39.5162V6.42497L39.5162 6.42509ZM30.3536 6.40111C30.3217 5.91425 30.178 5.5072 29.9386 5.18794C29.6992 4.86869 29.2922 4.67714 28.7095 4.6212C28.1508 4.67714 27.7518 4.86869 27.5123 5.19589C27.2649 5.51518 27.1132 5.92223 27.0494 6.40108H30.3536L30.3536 6.40111ZM52.8133 6.40111C52.7814 5.91425 52.6378 5.5072 52.3983 5.18794C52.1588 4.86869 51.7518 4.67714 51.1692 4.6212C50.6185 4.67714 50.2194 4.86869 49.972 5.19589C49.7246 5.51518 49.573 5.92223 49.5091 6.40108H52.8134L52.8133 6.40111ZM32.4288 8.98707C31.6307 11.4772 30.2898 11.6209 28.6377 11.6289C27.4085 11.6289 26.2991 11.1021 25.7005 10.296C25.1019 9.48989 24.7986 8.48424 24.7747 7.29502V7.2312V7.15937C24.7747 6.45698 24.8864 5.7786 25.1178 5.12413C25.3413 4.47764 25.7484 3.92693 26.323 3.48795C26.6024 3.26444 26.9057 3.1128 27.2489 3.00904C27.5921 2.91326 27.9352 2.86538 28.2864 2.86538H28.893C29.1005 2.86538 29.3 2.88134 29.4996 2.91327C29.7071 2.94523 29.8987 2.98509 30.0982 3.03302C30.6409 3.17665 31.1198 3.47199 31.5189 3.91891C31.9259 4.36587 32.2133 4.86071 32.3729 5.4194C32.4288 5.68279 32.4766 5.93822 32.5005 6.18565C32.5245 6.44102 32.5405 6.69642 32.5405 6.95185V7.27107C32.5405 7.38281 32.5325 7.70203 32.5245 7.82179H27.0014C26.9855 9.00303 27.6718 9.94482 28.6616 9.97675C29.6193 10.0007 30.0743 9.67343 30.4015 8.98703H32.4287L32.4288 8.98707ZM54.8963 8.98707C54.0901 11.4772 52.7493 11.6209 51.0971 11.6289C49.868 11.6289 48.7506 11.1021 48.152 10.296C47.5534 9.48989 47.2502 8.48424 47.2262 7.29502V7.2312V7.15937C47.2262 6.45698 47.338 5.7786 47.5694 5.12413C47.8008 4.47764 48.1999 3.92693 48.7746 3.48795C49.0619 3.26444 49.3731 3.1128 49.7083 3.00904C50.0516 2.91326 50.3947 2.86538 50.746 2.86538H51.3605C51.56 2.86538 51.7596 2.88134 51.9671 2.91327C52.1666 2.94523 52.3661 2.98509 52.5577 3.03302C53.1004 3.17665 53.5794 3.47199 53.9864 3.91891C54.3854 4.36587 54.6727 4.86071 54.8324 5.4194C54.8962 5.68279 54.9361 5.93822 54.96 6.18565C54.992 6.44102 55 6.69642 55 6.95185V7.27107C55 7.38281 54.992 7.70203 54.984 7.82179H49.4609C49.445 9.00303 50.1314 9.94482 51.129 9.97675C52.0788 10.0007 52.5337 9.67343 52.861 8.98703H54.8962L54.8963 8.98707ZM19.4514 3.08885H21.4946V4.40578C21.8857 3.99873 22.2927 2.80152 24.2162 2.87336V5.04428C23.7054 5.04428 22.7476 5.03627 22.165 5.56304C21.7499 5.93819 21.5504 6.50483 21.5424 7.27902L21.5265 11.4134H19.4513V3.08882L19.4514 3.08885ZM11.6296 7.28704C11.6296 7.94949 11.7813 8.52415 12.1005 9.02697C12.4118 9.5298 12.9625 9.82514 13.7527 9.88901C14.5349 9.82514 15.0776 9.52979 15.3809 9.01902C15.6922 8.5002 15.8438 7.93356 15.8438 7.28707V7.18331V7.06356C15.8198 6.5368 15.6682 6.04199 15.3968 5.58702C15.1334 5.12406 14.6626 4.83677 13.9841 4.71701H13.8963C13.8724 4.709 13.8405 4.70105 13.8166 4.6931C13.7846 4.6931 13.7527 4.69311 13.7288 4.68509H13.6489C12.9386 4.74096 12.4278 5.02031 12.1085 5.52313C11.7893 6.02599 11.6297 6.61654 11.6297 7.28701L11.6296 7.28704ZM9.62632 7.35884C9.62632 6.05788 9.95356 5.02031 10.616 4.23015C11.2785 3.44 12.2043 3.04093 13.3856 3.04093H13.9922C14.1438 3.03298 14.3034 3.03299 14.4631 3.04895C14.6307 3.06491 14.7903 3.08882 14.9499 3.12078C15.9635 3.28835 16.6978 3.79118 17.1607 4.60531C17.6236 5.41937 17.8631 6.30533 17.8791 7.24713V7.303V7.35884C17.871 8.57999 17.5598 9.60159 16.9372 10.4077C16.3147 11.2138 15.3489 11.6209 14.056 11.6209L13.4494 11.6368C12.1644 11.6209 11.2067 11.2138 10.5761 10.4077C9.9376 9.60159 9.62632 8.57999 9.62632 7.35884ZM2.29946 7.18328V7.22316V7.25508V7.27902C2.29946 7.35884 2.29945 7.43067 2.3074 7.51052C2.3074 7.5903 2.31542 7.67014 2.32337 7.75794C2.38725 8.25275 2.54688 8.71567 2.81821 9.14669C3.08961 9.57772 3.49662 9.81712 4.05532 9.85706H4.07128H4.09522C4.65392 9.81712 5.07693 9.58566 5.35627 9.17865C5.62767 8.76359 5.77928 8.25278 5.81121 7.65421V7.58238C5.81121 7.55841 5.81121 7.53446 5.81922 7.51055V7.44667V7.36685C5.81922 7.27107 5.81922 7.1753 5.81121 7.07952C5.81121 6.97577 5.80326 6.88002 5.79525 6.78421C5.74739 6.32133 5.6037 5.89031 5.3882 5.49124C5.16472 5.08419 4.79758 4.84475 4.28678 4.75695C4.26287 4.75695 4.23889 4.74901 4.21494 4.74901C4.19103 4.74099 4.17507 4.74099 4.15907 4.72503H4.09522C4.07926 4.71705 4.05532 4.71705 4.02339 4.71705C3.44873 4.78093 3.01777 5.05226 2.73839 5.52316C2.45905 5.99406 2.31538 6.54477 2.29942 7.18328H2.29946ZM6.08261 10.8786C5.81922 11.0862 5.53186 11.2378 5.21261 11.3336C4.89339 11.4373 4.55818 11.4852 4.207 11.4852L3.59243 11.5012C3.58442 11.4932 3.56846 11.4852 3.55249 11.4852H3.52057H3.48867C2.3234 11.4772 1.45343 11.0382 0.862815 10.1763C0.280211 9.30628 -0.015135 8.3326 0.000860922 7.2631C0.000860922 6.17763 0.288191 5.21189 0.870796 4.3499C1.45347 3.4959 2.3234 3.05693 3.48867 3.05693C5.32438 3.04898 5.46006 3.51187 5.97885 4.38183V3.29637H7.98217L8.01409 11.3495L7.98217 11.0781C7.97422 10.9585 8.00614 11.6129 8.00614 11.7406C7.99813 11.8683 7.97422 12.1876 7.96621 12.3073C7.95028 12.5707 7.90239 12.7463 7.83056 12.9937C7.75872 13.2491 7.63099 13.4806 7.46341 13.6961C7.14413 14.127 6.75304 14.4383 6.26621 14.6219C5.77935 14.8054 5.27656 14.9012 4.76572 14.9251C4.70184 14.9251 4.63799 14.9411 4.57417 14.9411H4.38262L3.776 14.9571C3.73613 14.9491 3.69619 14.9411 3.6643 14.9411H3.55252H3.45678H3.38495C2.62669 14.9332 2.05207 14.7496 1.42154 14.3984C0.783033 14.0552 0.463814 13.3289 0.439837 12.4589L2.69856 12.4749C2.79433 13.3768 3.29719 13.4965 4.10327 13.4965C5.51597 13.4965 6.11457 12.6984 6.09861 11.5012C6.09861 11.4533 6.11457 11.4054 6.11457 11.3415C6.11457 11.2937 6.08264 10.9425 6.08264 10.8786H6.08261Z" fill="#222222"/>
</g>
<defs>
<clipPath id="clip0">
<rect width="55" height="14.957" fill="white"/>
</clipPath>
</defs>
</svg>
