<svg width="27" height="13" viewBox="0 0 27 13" fill="none" xmlns="http://www.w3.org/2000/svg">
<path d="M13.838 10.7872C16.535 10.8048 19.0523 10.6637 21.5605 10.4962C22.6663 10.4257 23.7631 10.2758 24.797 9.83491C25.9837 9.32351 26.6939 8.44177 26.8917 7.17208C27.0355 6.21981 27.0175 5.26754 26.9456 4.31527C26.8108 2.66644 25.705 1.44083 24.0867 1.10577C22.7382 0.823619 21.3717 0.647273 19.9962 0.576735C17.1553 0.42684 14.3055 0.329849 11.4646 0.382753C8.74056 0.435656 6.01655 0.567917 3.3195 1.00878C1.46753 1.30857 0.388717 2.34901 0.0920419 4.1742C-0.0518004 5.04711 0.00213993 5.92884 0.0830512 6.81057C0.253864 8.83855 1.47652 9.82609 3.32849 10.2229C3.84992 10.3375 4.39832 10.3992 4.92874 10.4169C5.36027 10.4257 5.45017 10.602 5.43219 10.9812C5.40522 11.4661 5.4232 11.9511 5.4232 12.436C5.4232 12.5595 5.36027 12.7358 5.5131 12.7975C5.66593 12.8592 5.74684 12.6917 5.82776 12.6035C6.36716 12.0304 6.89758 11.4485 7.41901 10.8665C7.54487 10.7343 7.66175 10.6373 7.87751 10.6461C9.91827 10.7607 11.968 10.8136 13.838 10.7872Z" fill="#FEFEFE"/>
<path fill-rule="evenodd" clip-rule="evenodd" d="M13.8379 10.7867C11.9679 10.8132 9.91815 10.7603 7.86839 10.6368C7.65263 10.628 7.53576 10.7162 7.4099 10.8573C6.87948 11.4392 6.34906 12.0211 5.81864 12.5943C5.73773 12.6824 5.65682 12.85 5.50399 12.7883C5.35115 12.7265 5.41408 12.559 5.41408 12.4267C5.40509 11.9418 5.38711 11.4568 5.42307 10.9719C5.45005 10.5927 5.35115 10.4252 4.91963 10.4076C4.38022 10.3899 3.84081 10.3282 3.31938 10.2136C1.46741 9.81682 0.253739 8.82046 0.0739358 6.8013C0.00201464 5.91957 -0.0519271 5.03783 0.0829252 4.16492C0.3796 2.33974 1.44943 1.29929 3.31039 0.999505C6.00743 0.567457 8.72246 0.426379 11.4555 0.373475C14.3053 0.320571 17.1462 0.417563 19.9871 0.567457C21.3626 0.637996 22.7291 0.814342 24.0776 1.0965C25.6959 1.43155 26.8016 2.64834 26.9365 4.306C27.0174 5.25827 27.0354 6.21054 26.8826 7.16281C26.6848 8.4325 25.9746 9.31423 24.7879 9.82564C23.754 10.2665 22.6572 10.4164 21.5514 10.4869C19.0432 10.6633 16.5349 10.8044 13.8379 10.7867ZM14.3952 5.64623C14.3952 6.26344 14.3952 6.88065 14.3952 7.49787C14.3952 7.73593 14.4492 7.93873 14.6829 8.04454C14.9077 8.15035 15.1324 8.11508 15.2853 7.91228C15.3931 7.78002 15.4381 7.82411 15.564 7.89465C16.3191 8.35315 17.1552 8.14153 17.6047 7.38324C18.0452 6.64259 18.0003 5.89312 17.6047 5.15246C17.2631 4.51761 16.5888 4.25309 15.8876 4.46471C15.3932 4.60579 15.3932 4.60579 15.3932 4.07675C15.3932 4.00621 15.3932 3.92685 15.3932 3.85631C15.4111 3.52126 15.2943 3.24792 14.9167 3.24792C14.5211 3.24792 14.3952 3.52126 14.4042 3.88277C14.4042 4.47353 14.3952 5.06429 14.3952 5.64623ZM10.6194 6.31634C10.2508 5.34644 9.93613 4.5088 9.61248 3.67997C9.49561 3.38018 9.31581 3.14211 8.93822 3.27437C8.56963 3.40663 8.49771 3.67997 8.63256 4.02384C9.11803 5.24945 9.61248 6.48387 10.1069 7.70948C10.1968 7.93873 10.3497 8.11508 10.6374 8.11508C10.8981 8.10626 11.0419 7.94755 11.1318 7.72711C11.2847 7.35679 11.4285 6.99528 11.5723 6.62495C11.923 5.75204 12.2736 4.87912 12.6152 4.00621C12.7411 3.68879 12.6871 3.41545 12.3275 3.29201C11.9859 3.16856 11.7881 3.34491 11.6532 3.62706C11.5993 3.75051 11.5544 3.87395 11.5094 3.99739C11.2217 4.72041 10.943 5.46106 10.6194 6.31634ZM20.2748 6.60732C20.5265 6.60732 20.7872 6.60732 21.039 6.60732C21.5784 6.5985 21.7312 6.42215 21.6233 5.89311C21.4345 4.94966 20.6164 4.33245 19.6904 4.42062C18.7734 4.5088 18.0902 5.30235 18.0992 6.29871C18.1082 7.06582 18.4228 7.68303 19.16 7.99163C19.9152 8.30906 20.6524 8.1768 21.3266 7.70948C21.5424 7.55959 21.6503 7.35679 21.4795 7.10109C21.3266 6.88065 21.1289 6.8542 20.8951 6.97764C20.7333 7.06582 20.5805 7.14517 20.4097 7.21571C19.9512 7.39206 19.4028 7.22453 19.214 6.88065C19.1241 6.70431 19.1331 6.60732 19.3668 6.60732C19.6725 6.61613 19.9691 6.60732 20.2748 6.60732ZM6.87049 8.07981C7.24807 8.07981 7.68859 7.72711 7.81445 7.37442C7.94032 7.03055 7.6796 6.89829 7.47283 6.73958C7.32 6.61613 7.15817 6.51033 6.99635 6.40452C6.6817 6.18408 6.38502 6.16645 6.15128 6.51914C6.01642 6.71313 5.83662 6.72194 5.63884 6.64259C5.09943 6.40452 4.68588 6.03419 4.44315 5.50515C4.33527 5.26709 4.33527 5.05547 4.58699 4.88794C4.72184 4.79977 4.85669 4.69396 4.8477 4.49998C4.82972 4.24428 4.2094 3.40663 3.96667 3.31846C3.86778 3.28319 3.7599 3.28319 3.66101 3.31846C3.08564 3.51244 2.8429 3.97976 3.07665 4.52643C3.7599 6.17527 4.96458 7.32152 6.61876 8.01809C6.71766 8.04454 6.81655 8.06217 6.87049 8.07981ZM21.956 6.22817C21.956 6.68667 21.947 7.13635 21.956 7.59485C21.9649 7.87701 22.1178 8.07981 22.4145 8.10626C22.7291 8.13271 22.9269 7.93873 22.9539 7.63894C22.9808 7.37442 22.9988 7.1099 22.9629 6.84538C22.873 6.10473 23.0078 5.51397 23.8799 5.31117C24.0866 5.25827 24.1675 5.08192 24.1226 4.85267C24.0776 4.62342 23.9338 4.49116 23.7 4.45589C23.4933 4.42062 23.3135 4.48235 23.1606 4.62342C23.0528 4.72041 22.9898 4.79095 22.864 4.6146C22.7201 4.41181 22.4864 4.4118 22.2526 4.5088C22.0279 4.60579 21.947 4.77332 21.956 5.00257C21.956 5.39934 21.956 5.81376 21.956 6.22817ZM12.9568 6.40452C12.9568 6.78366 12.9658 7.16281 12.9568 7.55077C12.9478 7.88583 13.1007 8.10626 13.4423 8.11508C13.7839 8.1239 13.9547 7.91228 13.9547 7.57722C13.9547 6.78366 13.9547 5.99892 13.9547 5.20537C13.9547 4.90558 13.8199 4.69396 13.4782 4.69396C13.1276 4.69396 12.9658 4.88794 12.9658 5.223C12.9568 5.61096 12.9568 6.00774 12.9568 6.40452ZM5.65682 3.21265C5.56692 3.22147 5.38711 3.15093 5.37812 3.34491C5.36913 3.47717 5.52197 3.45072 5.62086 3.46835C6.83453 3.65352 7.39192 4.21783 7.54475 5.41698C7.56273 5.53161 7.51778 5.69032 7.6796 5.69913C7.85041 5.69913 7.80546 5.54042 7.80546 5.4258C7.82344 4.29718 6.81655 3.25674 5.65682 3.21265ZM14.0356 3.80341C14.0087 3.47717 13.8199 3.28319 13.4962 3.25674C13.1906 3.22147 12.9209 3.50362 12.9298 3.80341C12.9298 4.12083 13.1906 4.36772 13.5052 4.35008C13.8468 4.33245 13.9997 4.12083 14.0356 3.80341ZM7.21211 5.223C7.2211 4.52643 6.60977 3.89158 5.86359 3.80341C5.74672 3.78578 5.59389 3.73287 5.56692 3.89158C5.53995 4.05911 5.71076 4.04148 5.81864 4.06793C6.56482 4.23546 6.82554 4.49998 6.9514 5.223C6.96938 5.32881 6.93342 5.49634 7.11322 5.46988C7.24808 5.44343 7.19413 5.30235 7.21211 5.223ZM6.63674 5.09074C6.64573 4.75568 6.25017 4.36772 5.91753 4.36772C5.83662 4.36772 5.7647 4.37654 5.73773 4.45589C5.69278 4.57934 5.78268 4.60579 5.88157 4.62342C6.18724 4.66751 6.34906 4.85267 6.38502 5.15246C6.39401 5.23182 6.44795 5.30236 6.52886 5.29354C6.63674 5.2759 6.64573 5.17891 6.63674 5.09074Z" fill="#7C529D"/>
<path fill-rule="evenodd" clip-rule="evenodd" d="M14.3952 5.64999C14.3952 5.05882 14.3952 4.47647 14.3952 3.88529C14.3952 3.53235 14.5121 3.25 14.9077 3.25C15.2852 3.25 15.4021 3.52353 15.3841 3.85882C15.3841 3.92941 15.3841 4.00882 15.3841 4.07941C15.3841 4.60882 15.3841 4.60882 15.8786 4.46764C16.5798 4.2647 17.2541 4.52059 17.5957 5.15588C17.9913 5.89705 18.0362 6.64705 17.5957 7.38822C17.1462 8.13822 16.3191 8.34999 15.5549 7.89999C15.4291 7.8294 15.3841 7.78528 15.2763 7.91763C15.1234 8.12057 14.9077 8.15587 14.6739 8.04999C14.4402 7.94411 14.3862 7.73234 14.3862 7.50293C14.4042 6.88529 14.3952 6.26764 14.3952 5.64999ZM16.9125 6.30293C16.9215 5.74705 16.6068 5.33235 16.1753 5.3147C15.7258 5.30588 15.4021 5.69411 15.3931 6.25882C15.3841 6.79705 15.7168 7.23822 16.1303 7.24705C16.5708 7.26469 16.9035 6.85881 16.9125 6.30293Z" fill="#FAF9FB"/>
<path fill-rule="evenodd" clip-rule="evenodd" d="M10.6193 6.3206C10.9429 5.46472 11.2306 4.72355 11.5093 3.99119C11.5543 3.86766 11.5992 3.74414 11.6532 3.62061C11.788 3.33825 11.9858 3.16178 12.3274 3.28531C12.678 3.41767 12.741 3.69119 12.6151 4.00002C12.2735 4.87355 11.9229 5.74708 11.5723 6.62061C11.4284 6.99119 11.2846 7.36178 11.1317 7.72355C11.0418 7.93531 10.898 8.10296 10.6373 8.11178C10.3496 8.1206 10.2057 7.93531 10.1069 7.7059C9.6124 6.47943 9.12693 5.25296 8.63247 4.01767C8.49762 3.67355 8.56954 3.40002 8.93814 3.26767C9.31572 3.13531 9.49553 3.37355 9.6124 3.67355C9.93604 4.52061 10.2507 5.35884 10.6193 6.3206Z" fill="#FAF9FB"/>
<path fill-rule="evenodd" clip-rule="evenodd" d="M20.2751 6.61179C19.9784 6.61179 19.6728 6.61179 19.3761 6.61179C19.1424 6.61179 19.1334 6.70885 19.2233 6.88532C19.4031 7.22944 19.9605 7.38827 20.419 7.22062C20.5898 7.15885 20.7426 7.07062 20.9044 6.98238C21.1382 6.85885 21.336 6.88532 21.4888 7.10591C21.6596 7.3618 21.5517 7.56474 21.336 7.71474C20.6707 8.17356 19.9335 8.31474 19.1693 7.99709C18.4321 7.68827 18.1175 7.07062 18.1085 6.30297C18.0995 5.31473 18.7827 4.51179 19.6997 4.42355C20.6257 4.33532 21.4438 4.96179 21.6326 5.89709C21.7405 6.4265 21.5877 6.60297 21.0483 6.61179C20.7786 6.62062 20.5268 6.61179 20.2751 6.61179ZM19.8346 5.95003C19.9245 5.95003 20.0144 5.95885 20.1043 5.95003C20.2661 5.92356 20.5358 6.04709 20.5808 5.86179C20.6437 5.62356 20.4369 5.42944 20.2212 5.32355C19.9245 5.18238 19.6458 5.20885 19.3941 5.42944C19.2592 5.55297 19.1154 5.70297 19.1783 5.87944C19.2412 6.03826 19.439 5.93238 19.5739 5.95885C19.6548 5.95885 19.7447 5.95003 19.8346 5.95003Z" fill="#F9F7F9"/>
<path fill-rule="evenodd" clip-rule="evenodd" d="M6.87038 8.0854C6.81644 8.06775 6.70856 8.05893 6.61865 8.01481C4.96447 7.31775 3.75978 6.17069 3.07653 4.52069C2.84279 3.96481 3.08552 3.49716 3.66089 3.31187C3.76877 3.27658 3.86767 3.27658 3.96656 3.31187C4.20929 3.40011 4.8386 4.24716 4.84759 4.49422C4.85658 4.68834 4.72173 4.79422 4.58688 4.88246C4.33515 5.0501 4.33515 5.26187 4.44304 5.5001C4.68577 6.03834 5.09932 6.4001 5.63873 6.63834C5.83651 6.72657 6.01631 6.71775 6.15116 6.51481C6.38491 6.16187 6.68158 6.17952 6.99624 6.4001C7.15806 6.50599 7.31989 6.62069 7.47272 6.7354C7.67949 6.89422 7.94021 7.0354 7.81434 7.37069C7.68848 7.73246 7.24796 8.0854 6.87038 8.0854Z" fill="#FAF9FB"/>
<path fill-rule="evenodd" clip-rule="evenodd" d="M21.9561 6.23235C21.9561 5.81765 21.9561 5.41177 21.9561 4.99706C21.9561 4.76765 22.0371 4.60001 22.2528 4.50295C22.4866 4.40589 22.7203 4.41471 22.8641 4.60883C22.99 4.7853 23.0529 4.71471 23.1608 4.61765C23.3137 4.4853 23.4935 4.42354 23.7002 4.45001C23.925 4.4853 24.0688 4.61765 24.1228 4.84706C24.1677 5.06765 24.0868 5.25294 23.88 5.30589C23.008 5.50883 22.8821 6.1 22.963 6.84118C22.99 7.09706 22.981 7.37059 22.954 7.63529C22.9181 7.93529 22.7293 8.12941 22.4146 8.10294C22.118 8.08529 21.9651 7.87353 21.9561 7.59118C21.9472 7.14118 21.9561 6.68235 21.9561 6.23235Z" fill="#F9F7F9"/>
<path fill-rule="evenodd" clip-rule="evenodd" d="M12.9567 6.40882C12.9567 6.01176 12.9567 5.6147 12.9567 5.21764C12.9567 4.88235 13.1186 4.68823 13.4692 4.68823C13.8108 4.68823 13.9457 4.9 13.9457 5.2C13.9547 5.99412 13.9457 6.77941 13.9457 7.57353C13.9457 7.90882 13.7749 8.12059 13.4332 8.11176C13.1006 8.10294 12.9478 7.88235 12.9478 7.54706C12.9657 7.17647 12.9567 6.78823 12.9567 6.40882Z" fill="#FAF9FB"/>
<path fill-rule="evenodd" clip-rule="evenodd" d="M5.657 3.21459C6.81674 3.24989 7.82364 4.29988 7.80566 5.42929C7.80566 5.544 7.84162 5.70282 7.6798 5.70282C7.51798 5.70282 7.56293 5.53517 7.54495 5.42047C7.39211 4.22047 6.83472 3.65577 5.62104 3.47047C5.52215 3.45283 5.36932 3.4793 5.37831 3.34694C5.3873 3.15283 5.5671 3.23224 5.657 3.21459Z" fill="#EFE9F3"/>
<path fill-rule="evenodd" clip-rule="evenodd" d="M14.0357 3.80575C13.9998 4.12339 13.8469 4.32633 13.5053 4.3528C13.1906 4.37045 12.9299 4.12339 12.9299 3.80575C12.9299 3.49693 13.1996 3.2234 13.4963 3.25869C13.82 3.29399 14.0088 3.47928 14.0357 3.80575Z" fill="#F9F7F9"/>
<path fill-rule="evenodd" clip-rule="evenodd" d="M7.21225 5.22557C7.20326 5.30494 7.24821 5.44605 7.11336 5.4725C6.93356 5.49896 6.96952 5.3314 6.95154 5.22557C6.82568 4.49359 6.56496 4.22902 5.81878 4.07027C5.7109 4.04382 5.54009 4.06145 5.56706 3.89389C5.59403 3.73515 5.74686 3.78806 5.86373 3.8057C6.60092 3.89389 7.21225 4.52886 7.21225 5.22557Z" fill="#EFE9F3"/>
<path fill-rule="evenodd" clip-rule="evenodd" d="M6.63682 5.09461C6.63682 5.18294 6.62783 5.2801 6.51995 5.29776C6.43904 5.30659 6.3851 5.24477 6.37611 5.15644C6.34914 4.85614 6.18732 4.67949 5.87266 4.6265C5.78276 4.60883 5.69286 4.58234 5.72882 4.45869C5.75579 4.37919 5.8367 4.37036 5.90862 4.37036C6.25924 4.37036 6.64581 4.75898 6.63682 5.09461Z" fill="#EFE9F3"/>
<path fill-rule="evenodd" clip-rule="evenodd" d="M16.9126 6.30233C16.9036 6.85793 16.571 7.26361 16.1304 7.24597C15.7079 7.23715 15.3843 6.7962 15.3932 6.25824C15.4022 5.70264 15.7259 5.30578 16.1754 5.3146C16.5979 5.33224 16.9216 5.75555 16.9126 6.30233Z" fill="#7C529D"/>
<path fill-rule="evenodd" clip-rule="evenodd" d="M19.8346 5.94978C19.7447 5.94978 19.6548 5.95861 19.5649 5.94978C19.43 5.93214 19.2232 6.03801 19.1693 5.87038C19.1064 5.69393 19.2502 5.54395 19.385 5.42044C19.6368 5.19987 19.9155 5.17341 20.2121 5.31456C20.4369 5.42043 20.6347 5.61453 20.5717 5.85274C20.5268 6.03801 20.2661 5.91449 20.0953 5.94096C20.0144 5.95861 19.9245 5.94978 19.8346 5.94978Z" fill="#7C529D"/>
</svg>
