<svg width="30" height="30" viewBox="0 0 30 30" fill="none" xmlns="http://www.w3.org/2000/svg">
<path d="M15 29.999C23.2843 29.999 30 23.2833 30 14.999C30 6.71475 23.2843 -0.000976562 15 -0.000976562C6.71573 -0.000976562 0 6.71475 0 14.999C0 23.2833 6.71573 29.999 15 29.999Z" fill="#00BFFE"/>
<path d="M5.22255 15.6718C5.16934 18.2527 6.94694 20.7156 9.39222 21.5188C11.6955 22.2926 14.5274 21.7138 16.0601 19.7412C17.1791 18.3591 17.4334 16.5165 17.3123 14.7951C15.3398 14.7774 13.3672 14.7833 11.3976 14.7862C11.3944 15.4889 11.3976 16.189 11.4006 16.8917C12.5816 16.9243 13.763 16.9093 14.944 16.9331C14.6459 17.9548 13.9667 18.9056 12.9359 19.2746C10.9457 20.1517 8.40635 19.0059 7.78013 16.9181C7.02422 14.9189 8.26169 12.5062 10.3048 11.9246C11.5717 11.4789 12.8768 11.9808 13.9608 12.6394C14.51 12.1254 15.024 11.5762 15.5288 11.0211C14.2972 9.99061 12.7145 9.35876 11.0875 9.49754C7.8951 9.53551 5.10142 12.4827 5.22255 15.6718Z" fill="#DF4B41"/>
<path d="M21.1515 13.0133C21.1457 13.601 21.1395 14.1917 21.1366 14.7791C20.5459 14.785 19.9584 14.788 19.3707 14.7909C19.3707 15.3786 19.3707 15.9631 19.3707 16.5509C19.9584 16.5538 20.5491 16.5567 21.1366 16.5629C21.1424 17.1506 21.1424 17.7381 21.1483 18.3287C21.7331 18.3287 22.3208 18.3258 22.9083 18.3287C22.9115 17.7381 22.9142 17.1506 22.9203 16.56C23.5078 16.557 24.0984 16.5541 24.6862 16.5511C24.6862 15.9634 24.6862 15.3789 24.6862 14.7912C24.0987 14.7882 23.508 14.7853 22.9203 14.7794C22.9171 14.1917 22.9115 13.601 22.9083 13.0136C22.3208 13.0133 21.7361 13.0133 21.1515 13.0133Z" fill="#DF4B41"/>
<path d="M5.22255 15.6711C5.10142 12.482 7.89484 9.5348 11.0872 9.49656C12.7143 9.35779 14.2972 9.98963 15.5285 11.0201C15.0234 11.5755 14.5095 12.1245 13.9606 12.6384C12.8766 11.9798 11.5714 11.4779 10.3045 11.9237C8.26116 12.5055 7.02368 14.9181 7.77986 16.9171C8.40608 19.0049 10.9455 20.1507 12.9357 19.2736C13.9662 18.9047 14.6456 17.9538 14.9437 16.9321C13.7627 16.9086 12.5814 16.9233 11.4003 16.8907C11.3974 16.188 11.3944 15.488 11.3974 14.7853C13.367 14.7823 15.3395 14.7764 17.312 14.7941C17.4331 16.5158 17.1791 18.3584 16.0598 19.7402C14.5272 21.7128 11.6955 22.2917 9.39195 21.5178C6.94721 20.7149 5.16934 18.252 5.22255 15.6711Z" fill="white"/>
<path d="M21.1515 13.0133C21.7363 13.0133 22.3208 13.0133 22.9083 13.0133C22.9115 13.601 22.9171 14.1917 22.9203 14.7791C23.5078 14.785 24.0984 14.788 24.6862 14.7909C24.6862 15.3786 24.6862 15.9631 24.6862 16.5509C24.0987 16.5538 23.508 16.5567 22.9203 16.5597C22.9144 17.1504 22.9115 17.7378 22.9083 18.3285C22.3208 18.3255 21.7328 18.3285 21.1483 18.3285C21.1427 17.7378 21.1427 17.1504 21.1366 16.5626C20.5491 16.5565 19.9584 16.5538 19.3707 16.5506C19.3707 15.9629 19.3707 15.3784 19.3707 14.7906C19.9584 14.7877 20.5462 14.7848 21.1366 14.7789C21.1395 14.1917 21.1454 13.601 21.1515 13.0133Z" fill="white"/>
</svg>
