<svg width="55" height="19" viewBox="0 0 55 19" fill="none" xmlns="http://www.w3.org/2000/svg">
<path fill-rule="evenodd" clip-rule="evenodd" d="M48.1119 11.209C52.7701 8.92686 55.3648 6.33207 54.9584 4.17495C54.1456 -0.358116 40.4526 -1.07715 26.2907 1.42385C19.8193 2.58057 13.6293 4.30001 9.44014 6.01945C9.65898 6.01945 9.81529 6.01945 9.81529 6.01945C11.6285 6.08198 11.5035 7.20743 11.5035 7.20743V7.89521H10.0654V7.42627C10.0654 7.08238 9.65898 7.08238 9.65898 7.08238C9.34636 7.08238 9.28383 7.30121 9.28383 7.30121C9.12752 7.61384 9.40888 7.89521 9.40888 7.89521C9.56519 8.05152 10.3155 8.3954 10.3155 8.3954C10.5656 8.48919 10.9407 8.73929 10.9407 8.73929C11.6598 9.17696 11.5973 10.0211 11.5973 10.0211V10.5838C11.5035 11.9593 9.62772 11.9281 9.62772 11.9281C7.65818 11.9281 7.68944 10.615 7.68944 10.615V9.92727H9.22131V10.3962C9.22131 10.8026 9.59646 10.8026 9.59646 10.8026C10.0029 10.8339 10.0654 10.4275 10.0654 10.4275C10.1279 10.0211 9.69025 9.77096 9.69025 9.77096C9.25257 9.55212 8.53353 9.17696 8.53353 9.17696C8.18964 8.95813 8.03333 8.73929 8.03333 8.73929C7.78323 8.42666 7.78323 7.92646 7.78323 7.92646V7.48879C7.78323 6.8948 7.93954 6.70722 7.93954 6.70722C7.93954 6.70722 7.93954 6.67596 7.97081 6.67596C2.81248 9.05191 -0.345038 11.8343 0.0301126 14.1165C0.842939 18.7433 13.7544 19.3373 28.9792 16.9926C35.9821 15.9297 42.0783 13.9289 46.6739 11.8655C46.6426 11.8655 46.6113 11.8655 46.5801 11.8655C46.5801 11.8655 44.7043 12.0219 44.6731 10.5213V7.61384C44.6731 7.61384 44.4542 6.01945 46.5175 6.01945C46.5175 6.01945 47.8618 5.98819 48.237 6.76975C48.237 6.76975 48.4246 6.98859 48.362 7.86394H46.924V7.395C46.924 7.395 46.924 7.01985 46.5488 7.01985C46.5488 7.01985 46.1424 7.05111 46.1424 7.33247V10.3337C46.1424 10.3337 46.1111 10.7401 46.5801 10.7401C46.5801 10.7401 46.9552 10.7401 46.9552 10.3024V9.42707H46.5488V8.61424H48.3933V10.3337C48.3933 10.3337 48.3933 10.6776 48.237 10.8964C48.3308 10.9589 48.1745 11.1778 48.1119 11.209ZM42.7973 11.7092H41.0779L39.546 8.36414H39.4835L39.5772 11.7092H38.1392V6.23829H39.8899L41.3592 9.55212H41.4217L41.328 6.23829H42.766V11.7092H42.7973ZM33.8562 10.3337C33.8562 10.8026 34.2939 10.7714 34.2939 10.7714C34.7003 10.7714 34.7003 10.3337 34.7003 10.3337V6.20702H36.2322V10.3962C36.2322 11.8968 34.3251 11.8968 34.3251 11.8968C32.1368 11.8968 32.2931 10.3337 32.2931 10.3337V6.20702H33.8562V10.3337ZM29.0105 7.89521V7.42627C29.0105 7.08238 28.6041 7.08238 28.6041 7.08238C28.2915 7.08238 28.2289 7.30121 28.2289 7.30121C28.0726 7.61384 28.354 7.89521 28.354 7.89521C28.5103 8.05152 29.2606 8.3954 29.2606 8.3954C29.5107 8.48919 29.8859 8.73929 29.8859 8.73929C30.6049 9.17696 30.5424 10.0211 30.5424 10.0211V10.5838C30.4486 11.9593 28.5728 11.9281 28.5728 11.9281C26.6033 11.9281 26.6346 10.615 26.6346 10.615V9.92727H28.1664V10.3962C28.1664 10.8026 28.5416 10.8026 28.5416 10.8026C28.948 10.8339 29.0105 10.4275 29.0105 10.4275C29.073 10.0211 28.6354 9.77096 28.6354 9.77096C28.1977 9.55212 27.4786 9.17696 27.4786 9.17696C27.1348 8.95813 26.9784 8.73929 26.9784 8.73929C26.7283 8.42666 26.7283 7.92646 26.7283 7.92646V7.48879C26.7283 6.8948 26.8846 6.70722 26.8846 6.70722C27.2911 5.92566 28.7291 6.01945 28.7291 6.01945C30.5424 6.08198 30.4173 7.20743 30.4173 7.20743V7.89521H29.0105ZM21.445 6.20702L21.9139 9.20823H22.039L22.5079 6.20702H24.8838L25.0402 11.7092H23.6021L23.5708 7.58258H23.477L22.7267 11.7092H21.2261L20.4758 7.58258H20.3508L20.3195 11.7092H18.8814L19.0065 6.20702H21.445ZM15.849 11.7092L15.2862 7.45752H15.1612L14.5985 11.7092H13.0353L13.9732 6.23829H16.4117L17.3496 11.7092H15.849Z" fill="#222222"/>
</svg>
