<svg width="30" height="30" viewBox="0 0 30 30" fill="none" xmlns="http://www.w3.org/2000/svg">
<path d="M19.4707 7.98157H10.5293C9.10216 7.98157 7.94104 9.14269 7.94104 10.5699V19.5112C7.94104 20.9384 9.10216 22.0999 10.5293 22.0999H19.4707C20.8979 22.0999 22.0593 20.9387 22.0593 19.5112V10.5699C22.0593 9.14269 20.8982 7.98157 19.4707 7.98157ZM15 19.6884C12.4375 19.6884 10.3525 17.6034 10.3525 15.0405C10.3525 12.478 12.4375 10.3931 15 10.3931C17.5629 10.3931 19.6479 12.478 19.6479 15.0405C19.6479 17.6031 17.5626 19.6884 15 19.6884ZM19.7973 11.354C19.1906 11.354 18.6973 10.8606 18.6973 10.2543C18.6973 9.64805 19.1906 9.15472 19.7973 9.15472C20.4036 9.15472 20.8969 9.64805 20.8969 10.2543C20.8969 10.8606 20.4036 11.354 19.7973 11.354Z" fill="#00BFFE"/>
<path d="M14.9999 12.3569C13.5206 12.3569 12.316 13.5608 12.316 15.0401C12.316 16.5201 13.5206 17.7244 14.9999 17.7244C16.4799 17.7244 17.6835 16.5201 17.6835 15.0401C17.6835 13.5612 16.4796 12.3569 14.9999 12.3569Z" fill="#00BFFE"/>
<path d="M15 0C6.71606 0 0 6.71606 0 15C0 23.2839 6.71606 30 15 30C23.2839 30 30 23.2839 30 15C30 6.71606 23.2839 0 15 0ZM24.0229 19.5111C24.0229 22.0215 21.9811 24.0634 19.4707 24.0634H10.5293C8.01923 24.0634 5.97707 22.0215 5.97707 19.5111V10.5698C5.97707 8.05967 8.01923 6.01751 10.5293 6.01751H19.4707C21.9811 6.01751 24.0229 8.05967 24.0229 10.5698V19.5111Z" fill="#00BFFE"/>
</svg>
