<svg width="55" height="12" viewBox="0 0 55 12" fill="none" xmlns="http://www.w3.org/2000/svg">
<g clip-path="url(#clip0)">
<path fill-rule="evenodd" clip-rule="evenodd" d="M32.784 4.45601L31.3389 7.71237L29.3821 4.45601H25.9581L24.0231 8.68107L23.045 4.41356H19.9818C19.9818 4.41356 19.5341 4.41636 19.1551 4.57839C18.8572 4.70607 18.5925 4.92522 18.5925 4.92522L15.728 7.45057C13.9561 8.8454 10.8552 9.64926 9.98825 9.68854C5.86247 9.87572 5.00148 7.05901 5.28712 5.72696C6.02403 2.28673 11.3615 1.47194 14.1649 1.47194C15.4933 1.47194 16.5823 1.73417 17.426 1.96768L18.2378 0.52291L17.6426 0.396788C16.9023 0.303446 15.7491 0.054328 13.7822 0.0480843C5.82785 0.0199881 1.74453 2.2552 0.5008 5.1179C-0.902265 8.3499 1.46794 11.2744 8.13206 11.2744C9.34117 11.2744 11.7324 11.169 13.9798 10.3589H16.1493L17.2604 9.37158H20.6201L20.762 10.4264H24.4233L24.4183 10.4016H26.3753L27.9362 6.98889L29.9818 10.3995L33.1579 10.4015L35.8811 4.45573H32.7843L32.784 4.45601ZM18.536 8.17939L20.3221 6.47848L20.4923 8.13793L18.536 8.17939Z" fill="#222222"/>
<path fill-rule="evenodd" clip-rule="evenodd" d="M41.7125 4.45602H36.7058L33.9817 10.4018H38.9894C42.9943 10.435 44.6233 8.89298 45.1637 7.71244C45.7631 6.40409 45.2458 4.45609 41.7125 4.45609V4.45602ZM42.2289 7.32877C41.8458 8.81797 39.645 8.91528 38.8963 8.91528H38.0088L39.3243 5.94263H40.2116C41.0229 5.94263 42.5464 6.09553 42.2289 7.32877Z" fill="#222222"/>
<path fill-rule="evenodd" clip-rule="evenodd" d="M51.5275 4.41249L49.0267 6.90076L48.1844 4.45495H45.1216L47.1208 8.98688L45.135 10.9536H47.7586C47.7586 10.9536 48.2696 10.8913 48.4819 10.8164C48.6939 10.7406 48.9942 10.4346 48.9942 10.4346L54.9793 4.41983L51.5275 4.41233" fill="#222222"/>
</g>
<defs>
<clipPath id="clip0">
<rect width="55" height="11.2745" fill="white"/>
</clipPath>
</defs>
</svg>
