<svg width="75" height="17" viewBox="0 0 75 17" fill="none" xmlns="http://www.w3.org/2000/svg">
<g clip-path="url(#clip0)">
<path fill-rule="evenodd" clip-rule="evenodd" d="M0 0H11.6903V16.7082H0V0ZM7.23682 3.08852H4.35226C2.47976 6.07575 1.21453 10.1262 0.708557 13.6703H3.6437C3.84617 12.4551 4.1498 11.1894 4.5546 9.97424C4.90894 8.75909 5.31374 7.64511 5.81983 6.58197C6.27534 7.64511 6.73073 8.70838 6.98378 9.67036H5.16199C4.90894 10.4805 4.75706 11.1894 4.65589 11.8981H7.59104C7.59104 12.4045 7.7935 13.2146 7.8948 13.7209H10.9311C10.3238 9.92353 9.21049 6.32879 7.23695 3.0884L7.23682 3.08852ZM27.6822 3.08852V13.6704H34.8178V11.3414H30.7187V3.0884H27.6822V3.08852ZM51.417 3.08852V13.6704H54.4535V6.58209C55.8705 7.44277 57.6418 8.8098 58.5526 10.2274V13.6704H61.5891V3.08852H58.5527V6.07575C57.4393 4.96189 55.921 3.69603 54.4535 3.1391H51.417V3.08852ZM65.0811 3.08852V5.41753H67.5607V13.6704H70.5972V5.46811H73.0769V3.0884H65.0809L65.0811 3.08852ZM14.4736 3.08852V5.41753H17.0547V13.6704H20.0406V5.46811H22.6215V3.0884H14.4736V3.08852ZM45.2936 3.08852H42.4088C40.4352 6.22762 39.4736 10.0757 38.6639 13.6198H41.7002C42.1558 11.0881 42.8137 8.86039 43.8257 6.48067C44.3318 7.54407 44.7873 8.60734 45.0404 9.56932H43.1173C42.9654 10.3794 42.7124 11.0881 42.6618 11.797H45.5971C45.5971 12.354 45.7995 13.0629 45.9007 13.6198H48.9371C48.178 9.92366 47.2671 6.43009 45.2934 3.08852H45.2936ZM63.3097 0H75V16.7082H63.3097V0ZM50.658 0H62.3484V16.7082H50.658V0ZM38.0062 0H49.6964V16.7082H38.0062V0ZM25.3543 0H37.0446V16.7082H25.3543V0ZM12.7024 0H24.3927V16.7082H12.7024V0Z" fill="#222222"/>
</g>
<defs>
<clipPath id="clip0">
<rect width="75" height="16.7082" fill="white"/>
</clipPath>
</defs>
</svg>
