<svg width="55" height="12" viewBox="0 0 55 12" fill="none" xmlns="http://www.w3.org/2000/svg">
<g clip-path="url(#clip0)">
<path fill-rule="evenodd" clip-rule="evenodd" d="M11.4635 0.32504L11.4575 8.9174C11.4575 8.9174 11.4575 11.8048 8.59336 11.8048V7.50887H2.86491V8.93841H7.16105C7.16105 8.93841 7.16052 11.8047 4.2869 11.8047H0.000732422V7.48537C0.000732422 4.62122 2.86482 4.62122 2.86482 4.62122H7.16096C8.59319 4.62122 8.58989 3.20602 8.58989 3.20602H0.0134646C0.0134646 3.20602 0.000821408 0.324951 2.86491 0.324951H11.4635V0.32504Z" fill="#222222"/>
<path fill-rule="evenodd" clip-rule="evenodd" d="M16.7935 0.272139H19.2259L23.2595 11.6752H20.7972L19.9815 9.13566H15.9479L15.1016 11.6752H12.6997L16.7935 0.272139ZM16.5673 7.2671H19.3617L18.002 3.08304H17.9718L16.5673 7.2671ZM25.9789 7.89063C25.9789 9.40807 27.0969 9.99864 28.3659 9.99864C29.1965 9.99864 30.4656 9.74304 30.4656 8.57704C30.4656 7.34748 28.8491 7.13998 27.2629 6.69235C25.6617 6.24572 24.0453 5.59025 24.0453 3.45063C24.0453 1.11864 26.13 0.000732422 28.0786 0.000732422C30.3297 0.000732422 32.3995 1.03859 32.3995 3.67394H30.1032C30.0275 2.30044 29.1062 1.94899 27.973 1.94899C27.2177 1.94899 26.3416 2.28463 26.3416 3.24245C26.3416 4.12123 26.8554 4.23289 29.5592 4.9674C30.345 5.1749 32.7622 5.70258 32.7622 8.28916C32.7622 10.3814 31.2059 11.9466 28.2752 11.9466C25.8883 11.9466 23.6524 10.7005 23.6826 7.89029H25.9789V7.89063ZM34.5864 0.272139H36.958V4.99969L41.173 0.272139H44.1342L39.9195 4.7757L44.5417 11.6755H41.5662L38.3184 6.54908L36.958 8.00228V11.6755H34.5864V0.272139Z" fill="#222222"/>
<path fill-rule="evenodd" clip-rule="evenodd" d="M49.6976 0.000976562C53.0358 0.000976562 54.9993 2.63632 54.9993 6.02165C54.9993 9.31112 53.0359 11.9465 49.6976 11.9465C46.3588 11.9465 44.3953 9.31112 44.3953 6.02165C44.3953 2.63632 46.3588 0.000976562 49.6976 0.000976562ZM49.6976 9.8388C51.8268 9.8388 52.6278 7.92215 52.6278 6.02165C52.6278 4.02529 51.8268 2.10865 49.6976 2.10865C47.5672 2.10865 46.7668 4.02529 46.7668 6.02165C46.7668 7.92181 47.5672 9.8388 49.6976 9.8388Z" fill="#222222"/>
</g>
<defs>
<clipPath id="clip0">
<rect width="55" height="11.9457" fill="white"/>
</clipPath>
</defs>
</svg>
