<svg width="16" height="36" viewBox="0 0 16 36" fill="none" xmlns="http://www.w3.org/2000/svg">
<path d="M7.64645 35.3536C7.84171 35.5488 8.15829 35.5488 8.35355 35.3536L11.5355 32.1716C11.7308 31.9763 11.7308 31.6597 11.5355 31.4645C11.3403 31.2692 11.0237 31.2692 10.8284 31.4645L8 34.2929L5.17157 31.4645C4.97631 31.2692 4.65973 31.2692 4.46446 31.4645C4.2692 31.6597 4.2692 31.9763 4.46446 32.1716L7.64645 35.3536ZM7.5 -2.18557e-08L7.5 2.1875L8.5 2.1875L8.5 2.18557e-08L7.5 -2.18557e-08ZM7.5 6.5625L7.5 10.9375L8.5 10.9375L8.5 6.5625L7.5 6.5625ZM7.5 15.3125L7.5 19.6875L8.5 19.6875L8.5 15.3125L7.5 15.3125ZM7.5 24.0625L7.5 28.4375L8.5 28.4375L8.5 24.0625L7.5 24.0625ZM7.5 32.8125L7.5 35L8.5 35L8.5 32.8125L7.5 32.8125ZM7.29289 35.7071C7.68342 36.0976 8.31658 36.0976 8.70711 35.7071L15.0711 29.3431C15.4616 28.9526 15.4616 28.3195 15.0711 27.9289C14.6805 27.5384 14.0474 27.5384 13.6569 27.9289L8 33.5858L2.34314 27.9289C1.95262 27.5384 1.31946 27.5384 0.928931 27.9289C0.538407 28.3195 0.538407 28.9526 0.928931 29.3431L7.29289 35.7071ZM7 -4.37114e-08L7 2.1875L9 2.1875L9 4.37114e-08L7 -4.37114e-08ZM7 6.5625L7 10.9375L9 10.9375L9 6.5625L7 6.5625ZM7 15.3125L7 19.6875L9 19.6875L9 15.3125L7 15.3125ZM7 24.0625L7 28.4375L9 28.4375L9 24.0625L7 24.0625ZM7 32.8125L7 35L9 35L9 32.8125L7 32.8125Z" fill="#B9B9B9"/>
</svg>
