<svg width="55" height="15" viewBox="0 0 55 15" fill="none" xmlns="http://www.w3.org/2000/svg">
<g clip-path="url(#clip0)">
<path fill-rule="evenodd" clip-rule="evenodd" d="M0 0H55V14.1132H0V0Z" fill="#222222"/>
<path fill-rule="evenodd" clip-rule="evenodd" d="M50.3077 3.53114C49.598 2.73966 48.9479 2.01636 48.9479 2.01636C48.9479 2.01636 46.4835 4.77642 45.9542 5.36129C45.3071 6.0765 44.9131 7.02468 44.9131 8.0648C44.9131 10.2918 46.7196 12.0971 48.9479 12.0971C51.1763 12.0971 52.9827 10.2918 52.9827 8.0648C52.9827 7.04574 52.6046 6.1151 51.9808 5.40519C51.8459 5.25181 51.6067 4.98293 51.3196 4.66155L49.9495 6.18401C49.9495 6.18401 50.3698 6.65493 50.4645 6.76296C50.7881 7.13112 50.9662 7.60472 50.9655 8.0949C50.9655 9.21015 50.0622 10.1143 48.9481 10.1143C47.8338 10.1143 46.9307 9.21015 46.9307 8.0949C46.9307 7.57395 47.1276 7.09908 47.4512 6.74096C47.7158 6.44801 48.948 5.06574 48.948 5.06574L50.3078 3.53114H50.3077Z" fill="white"/>
<path fill-rule="evenodd" clip-rule="evenodd" d="M5.44705 2.01636H7.66614L11.0959 11.2403L9.20448 12.0971L8.25205 9.5774L6.55649 9.57802V7.56346H7.49097L6.55649 5.09096L5.62232 7.56274L6.55649 7.56077V9.57698L4.86073 9.57802L3.90861 12.0971L2.01733 11.2403L5.44705 2.01636ZM18.2828 12.0971L16.8657 8.3674H14.63L14.6264 12.0972L12.609 11.2404V2.01646H16.9968C18.7517 2.01646 20.1744 3.43816 20.1744 5.19193C20.1744 6.24004 19.6662 7.16944 18.8828 7.74777L20.1743 11.2404L18.283 12.0972L18.2828 12.0971ZM17.0473 6.35108C17.688 6.35108 18.2074 5.832 18.2074 5.19183C18.2074 4.55154 17.688 4.03247 17.0473 4.03247H14.6264V6.35108H17.0473ZM24.7134 12.0971H21.6873V2.01646H24.7133C27.4989 2.01646 29.7569 4.27312 29.7569 7.05684C29.7569 9.84057 27.4988 12.0972 24.7134 12.0972V12.0971ZM24.7134 10.081C26.3847 10.081 27.7395 8.72697 27.7395 7.05674C27.7395 5.3865 26.3847 4.03247 24.7134 4.03247H23.7048V10.081H24.7134ZM35.8092 12.0971C33.0237 12.0971 30.7657 9.84046 30.7657 7.05674C30.7657 4.27302 33.0238 2.01636 35.8092 2.01636C38.5947 2.01636 40.8528 4.27302 40.8528 7.05674C40.8528 9.84046 38.5947 12.0971 35.8092 12.0971ZM35.8344 10.081C37.5057 10.081 38.8606 8.72697 38.8606 7.05674C38.8606 5.3865 37.5057 4.03247 35.8345 4.03247C34.1632 4.03247 32.8083 5.3865 32.8083 7.05674C32.8083 8.72697 34.1632 10.081 35.8344 10.081Z" fill="white"/>
</g>
<defs>
<clipPath id="clip0">
<rect width="55" height="14.1132" fill="white"/>
</clipPath>
</defs>
</svg>
