<svg width="55" height="23" viewBox="0 0 55 23" fill="none" xmlns="http://www.w3.org/2000/svg">
<g clip-path="url(#clip0)">
<path d="M10.0577 15.3598L8.12567 7.97227L6.1655 15.3599H4.57734L1.84424 5.18964H3.41823L5.36424 12.5768L7.3246 5.18964H8.88424L10.8591 12.5768L12.8051 5.18964H14.3789L11.6459 15.3598H10.0577ZM15.1076 5.21875L16.6817 5.08784V7.57906L16.653 8.51162H16.7103C17.44 8.23466 18.0269 8.10356 18.7423 8.10356C20.0159 8.10356 20.8744 8.68658 20.8744 10.9156V15.3598H19.3002V11.0467C19.3002 9.70638 18.6565 9.53151 17.9267 9.53151C17.4688 9.53151 17.0826 9.63379 16.6818 9.75024V15.3599H15.1077V5.21875H15.1076ZM23.0343 5.32064C23.85 5.32064 23.9789 5.80157 23.9789 6.34073C23.9789 6.87979 23.807 7.37528 23.0343 7.37528C22.2615 7.37528 22.1043 6.87959 22.1043 6.34073C22.1043 5.80157 22.2473 5.32064 23.0343 5.32064ZM22.2473 8.20575H23.8216V15.3598H22.2473V8.20575ZM25.1517 8.20575H26.2247L26.4396 8.78857H26.5397C26.9545 8.42428 27.6127 8.10356 28.4715 8.10356C28.5714 8.10356 28.686 8.10356 28.8003 8.11841V9.69192C28.5144 9.64845 28.214 9.60458 27.9133 9.60458C27.4839 9.60458 27.1405 9.70657 26.7255 9.89619V15.36H25.1517V8.20565V8.20575ZM29.4728 15.3598V5.21894L31.0468 5.08765V15.3598H29.4728ZM42.2355 8.10356C44.4678 8.10356 45.3267 9.44398 45.3267 11.8187C45.3267 14.0481 44.5251 15.5058 42.2068 15.5058C39.8889 15.5058 39.0733 14.0483 39.0733 11.8187C39.0733 9.44398 40.0033 8.10356 42.2355 8.10356ZM43.724 11.8187C43.724 10.464 43.5088 9.35684 42.25 9.35684C40.9765 9.35684 40.6615 10.4202 40.6615 11.8187C40.6615 13.1157 40.9192 14.2377 42.1787 14.2377C43.4375 14.2377 43.724 13.1742 43.724 11.8188V11.8187ZM49.2895 8.10356C51.5217 8.10356 52.3802 9.44398 52.3802 11.8187C52.3802 14.0481 51.5789 15.5058 49.2607 15.5058C46.9426 15.5058 46.1271 14.0483 46.1271 11.8187C46.1271 9.44398 47.0573 8.10356 49.2895 8.10356ZM50.7778 11.8187C50.7778 10.464 50.5629 9.35684 49.3039 9.35684C48.0304 9.35684 47.7154 10.4202 47.7154 11.8187C47.7154 13.1157 47.9731 14.2377 49.2323 14.2377C50.4915 14.2377 50.7778 13.1742 50.7778 11.8188V11.8187ZM53.4241 15.3598V5.21894L54.9979 5.08765V15.3598H53.4241Z" fill="#222222"/>
<path d="M42.6173 0.411371C41.3051 -1.00593 36.4012 1.68673 31.3974 5.89252V6.43929C36.2979 2.27424 40.9106 -0.177217 41.9744 0.972117C42.5152 1.55592 42.039 3.38215 40.8164 5.50156C40.6394 5.58479 40.4451 5.75311 40.2645 6.01805C38.7097 8.29425 36.4303 11.0587 33.9516 13.4389C27.5736 19.5624 21.3978 23.2794 20.1478 21.9294C19.435 21.16 20.604 18.6716 22.7365 15.717H22.1452C19.884 18.8572 18.659 21.5665 19.565 22.5447C21.14 24.2443 28.2839 20.0904 34.6489 13.9777C37.5342 11.2095 39.7248 8.8591 41.076 6.77203C41.4658 6.16986 41.4822 5.74295 41.3185 5.55245C42.8477 3.13197 43.3966 1.25239 42.6173 0.411273" fill="#222222"/>
<path d="M33.8939 9.85217C34.2802 9.72097 34.6666 9.64829 35.0672 9.64829C35.879 9.64829 36.4055 9.88617 36.5925 10.6846C37.0008 10.2252 37.3954 9.76337 37.7748 9.305C37.3346 8.47795 36.6272 8.1038 35.7827 8.1038C34.9958 8.1038 34.1948 8.46799 33.7221 8.73029H33.6507L33.5218 8.20559H32.3343V14.9434C32.843 14.4842 33.345 14.0177 33.8403 13.5441C33.8938 12.013 33.894 11.2674 33.894 9.85207L33.8939 9.85217ZM36.6508 12.0072C36.542 13.6297 35.9328 14.0627 35.0529 14.0627C34.876 14.0627 34.7178 14.0605 34.565 14.057C33.8386 14.7519 33.0948 15.4285 32.3344 16.086V18.7692L33.9084 18.5942V15.316H33.9516C34.3949 15.4034 34.8811 15.4619 35.3249 15.4619C37.1566 15.4619 38.2586 14.2232 38.2586 11.7169C38.2586 11.2367 38.2216 10.8099 38.1515 10.4323C37.6607 10.9661 37.1603 11.4912 36.6508 12.0072ZM12.6277 3.31293C12.6986 3.24689 12.7504 3.18476 12.763 3.08473C12.7747 2.98508 12.7159 2.91318 12.6225 2.87811C12.4491 2.81266 12.2289 2.8744 12.0755 2.92813C11.9924 2.95734 11.9062 2.98508 11.8166 3.01195C11.6267 3.06738 11.4345 3.1147 11.2406 3.1538C11.0374 3.19561 10.8249 3.23097 10.6065 3.26067C10.3833 3.29009 10.1593 3.31292 9.93477 3.32915C9.63828 3.35059 9.3411 3.36135 9.04383 3.36139C8.83995 3.36139 8.63822 3.35836 8.43883 3.35221C8.16175 3.34403 7.88489 3.32957 7.60846 3.30883C7.34108 3.28871 7.08337 3.26292 6.83963 3.23253C6.59638 3.20166 6.36681 3.1664 6.15384 3.12644C5.95761 3.09051 5.76283 3.04704 5.56994 2.99612C5.40553 2.95216 5.25831 2.90586 5.12916 2.85681C5.06224 2.83151 4.99708 2.81549 4.9247 2.81608C4.86178 2.81637 4.77621 2.83308 4.7425 2.8956C4.70733 2.95988 4.74739 3.03276 4.7893 3.07896C4.83707 3.13172 4.89353 3.16591 4.95967 3.19346C4.99132 3.20625 5.02336 3.21886 5.05599 3.23175C5.21192 3.29165 5.37043 3.34459 5.53106 3.3904C5.70417 3.44071 5.88803 3.48702 6.08204 3.52903C6.2782 3.57123 6.48414 3.60913 6.69847 3.64274C6.91446 3.67703 7.13906 3.70575 7.36922 3.72998C7.60221 3.7543 7.84136 3.77394 8.08275 3.78722C8.32766 3.80188 8.57511 3.81028 8.82344 3.8134C9.32713 3.82014 9.83086 3.8045 10.3332 3.76651C10.5152 3.75284 10.6956 3.73535 10.8721 3.71571C10.916 3.71122 10.9595 3.70594 11.0032 3.70086C11.0028 3.79387 11.1203 3.85014 11.1923 3.87319C11.2837 3.9022 11.3718 3.91002 11.4666 3.90279C11.8532 3.87397 12.2313 3.83538 12.5961 3.78898C12.9662 3.7416 13.3219 3.68592 13.6584 3.62183C13.9756 3.56198 14.2904 3.49012 14.6022 3.40642C14.8937 3.32729 15.1605 3.24074 15.3967 3.14842C15.6334 3.0562 15.8398 2.95763 16.0135 2.85506C16.1861 2.75248 16.3261 2.64463 16.4283 2.53463C16.5319 2.42424 16.5976 2.31131 16.625 2.19681C16.6527 2.08173 16.6425 1.96626 16.5924 1.85099C16.542 1.73571 16.4533 1.62112 16.3257 1.50819C16.1975 1.39633 16.0316 1.28604 15.8282 1.17995C15.6254 1.07327 15.3851 0.971477 15.1116 0.875349C14.8373 0.779123 14.5298 0.688759 14.1916 0.605429C13.8289 0.516708 13.4632 0.441338 13.095 0.37947C12.6819 0.309013 12.2669 0.250699 11.8504 0.204603C11.3995 0.154146 10.9473 0.115154 10.4944 0.0876669C10.0189 0.0582187 9.54265 0.0401407 9.06621 0.0334484C8.58049 0.0260488 8.09468 0.0298597 7.60914 0.0448783C7.12391 0.059825 6.64093 0.0861038 6.1683 0.123031C5.69606 0.160251 5.23301 0.208218 4.78851 0.267125C4.36138 0.322507 3.93608 0.391282 3.51326 0.473351C3.11058 0.551796 2.73271 0.6405 2.38434 0.736823C2.03773 0.833342 1.72102 0.938653 1.44104 1.05012C1.16096 1.16217 0.91712 1.28135 0.714314 1.40542C0.511605 1.5288 0.349438 1.65854 0.232014 1.79091C0.113906 1.92338 0.0400513 2.05907 0.0126978 2.19691C-0.0154372 2.33417 0.00322179 2.4724 0.068284 2.60985C0.13276 2.7474 0.244811 2.88436 0.402387 3.0182C0.559279 3.15165 0.762866 3.28245 1.00915 3.40838C1.25611 3.53371 1.54615 3.65456 1.87615 3.76739C2.20635 3.88169 2.57552 3.98798 2.97967 4.08567C3.38352 4.18355 3.82274 4.27226 4.29029 4.351C4.75784 4.42993 5.2545 4.49773 5.7706 4.55468C6.28739 4.61134 6.82371 4.65628 7.37859 4.68881C7.45851 4.6937 7.53842 4.69809 7.61891 4.70249C7.69423 4.70649 7.76193 4.698 7.8309 4.66654C7.89294 4.6384 7.95722 4.58624 7.96347 4.51385C7.96972 4.43863 7.90954 4.38275 7.84898 4.35129C7.78157 4.31681 7.71446 4.30371 7.63992 4.29912C7.35808 4.28105 7.07888 4.25907 6.80544 4.23289C6.45395 4.19928 6.11184 4.15913 5.78135 4.11283C5.46441 4.06871 5.14866 4.0164 4.83443 3.95594C4.5512 3.90196 4.26975 3.83908 3.99048 3.76739C3.78508 3.71514 3.58144 3.65617 3.37991 3.59057C2.86244 3.42225 2.44706 3.23195 2.15623 3.02855C2.02943 2.94024 1.92627 2.84939 1.84772 2.75697C1.77035 2.66544 1.71682 2.57263 1.68839 2.47953C1.66025 2.38902 1.65671 2.29266 1.67813 2.20033C1.69933 2.1085 1.74466 2.01716 1.81412 1.9268C1.88377 1.83731 1.97677 1.7488 2.09332 1.66254C2.20752 1.57765 2.34438 1.4951 2.50372 1.41509C2.6612 1.33557 2.84075 1.25937 3.03897 1.1863C3.15223 1.14479 3.26653 1.10619 3.38177 1.07054C3.59766 1.00323 3.83114 0.94002 4.08045 0.881699C4.21734 0.849432 4.35477 0.819566 4.49271 0.792116C4.75325 0.739754 5.02708 0.692569 5.31253 0.650757C5.5973 0.60875 5.89291 0.572116 6.19663 0.540855C6.49654 0.511059 6.80359 0.486344 7.1162 0.467392C7.43092 0.448873 7.74596 0.436203 8.06116 0.42939C8.37455 0.42304 8.68951 0.42177 9.00368 0.427534C9.31532 0.432125 9.62568 0.443164 9.93106 0.46026C10.2334 0.476575 10.5312 0.499336 10.821 0.527276C11.1087 0.554434 11.3896 0.587551 11.6594 0.625944C11.9273 0.66375 12.1844 0.706051 12.4289 0.753528C12.9108 0.846921 13.3424 0.958191 13.7072 1.08382C14.0641 1.20701 14.3558 1.343 14.569 1.48758C14.7783 1.62943 14.9119 1.77879 14.9631 1.93031C15.0134 2.07783 14.9848 2.22827 14.8773 2.37403C14.7723 2.51695 14.5916 2.65596 14.3401 2.78491C14.0952 2.91103 13.7826 3.02797 13.4142 3.13054C13.1548 3.20269 12.8924 3.26355 12.6277 3.31293Z" fill="#222222"/>
<path d="M4.72195 2.0258C4.64478 2.05843 4.56858 2.07856 4.48339 2.08071C4.41442 2.08256 4.30491 2.07015 4.26495 1.99874C4.22344 1.92333 4.2884 1.83785 4.33764 1.78998C4.39645 1.73273 4.46297 1.69082 4.53761 1.65526C5.56942 1.16515 6.98125 0.996826 8.09698 0.996826H8.21988C8.62725 0.999659 9.03364 1.01871 9.42186 1.05251C9.79602 1.08543 10.1536 1.13232 10.4785 1.19182C10.7922 1.24975 11.075 1.3193 11.3157 1.39843C11.5472 1.47463 11.7386 1.55943 11.8813 1.65048C12.0181 1.73722 12.1094 1.82964 12.1503 1.92323C12.1666 1.96064 12.1747 1.99747 12.1747 2.03479C12.1747 2.08823 12.1571 2.14176 12.1227 2.19432C12.0661 2.2796 11.9625 2.36313 11.8148 2.4407C11.6743 2.51494 11.493 2.58372 11.277 2.64477C11.0716 2.7029 10.834 2.7538 10.5735 2.79453C10.3257 2.83302 10.0568 2.86243 9.77639 2.88167C9.64206 2.89066 9.50617 2.8976 9.36862 2.9018C9.26048 2.90443 9.15146 2.90629 9.04273 2.90629C9.01752 2.90629 8.9929 2.90629 8.9675 2.9058C8.84514 2.90526 8.7228 2.90194 8.60058 2.89584C8.48429 2.89052 8.36813 2.88254 8.25221 2.8719C8.04692 2.85409 7.8426 2.82638 7.63998 2.78887C7.46385 2.75526 7.30412 2.71531 7.16911 2.66939C7.04338 2.6268 6.93934 2.57903 6.86314 2.52842C6.79183 2.48094 6.74513 2.43093 6.7253 2.38023C6.70772 2.33333 6.71338 2.28576 6.74435 2.23936C6.77327 2.19706 6.82377 2.15554 6.89509 2.11724C6.95966 2.08227 7.04231 2.04984 7.14049 2.0215C7.23936 1.99376 7.33985 1.97209 7.44138 1.95664C7.54593 1.94055 7.65115 1.92918 7.75672 1.92254C7.83194 1.91766 7.90902 1.91492 7.98669 1.91492C8.06347 1.91492 8.14104 1.91766 8.21587 1.92254C8.32724 1.92977 8.43323 1.9412 8.5317 1.95664C8.64258 1.97403 8.7435 1.9963 8.8323 2.0215C8.93019 2.04984 9.01303 2.08237 9.07799 2.11724C9.14901 2.15534 9.19913 2.19686 9.22795 2.23936C9.2597 2.28576 9.26527 2.33333 9.2469 2.38023C9.23557 2.41031 9.21466 2.43982 9.18487 2.46844C9.22932 2.4659 9.27372 2.46238 9.31802 2.45789C9.38797 2.45125 9.45772 2.44187 9.52512 2.43054C9.59302 2.41823 9.65896 2.40416 9.72129 2.38775C9.7844 2.37134 9.8434 2.35277 9.89772 2.33167C9.94796 2.31244 9.99658 2.28918 10.0431 2.26212C10.0854 2.23701 10.1212 2.21015 10.1484 2.18113C10.1767 2.15329 10.1959 2.12291 10.2069 2.09223C10.2175 2.06117 10.2189 2.02932 10.2099 1.99679C10.2011 1.96445 10.1823 1.93143 10.1533 1.89851C10.1242 1.86549 10.0843 1.83257 10.0342 1.80063C9.97617 1.76466 9.91518 1.73371 9.8519 1.70811C9.7725 1.67546 9.69128 1.64741 9.60865 1.6241C9.50997 1.59571 9.41006 1.57178 9.30923 1.55239C9.19342 1.52993 9.07691 1.51126 8.95988 1.49642C8.83039 1.48066 8.70048 1.4686 8.57029 1.46027C8.43098 1.45172 8.29146 1.44703 8.15188 1.4462C8.13635 1.4465 8.12004 1.4465 8.10372 1.4465C7.02883 1.4465 5.72817 1.60085 4.72195 2.0258Z" fill="#222222"/>
</g>
<defs>
<clipPath id="clip0">
<rect width="55" height="22.9574" fill="white"/>
</clipPath>
</defs>
</svg>
