<svg width="75" height="14" viewBox="0 0 75 14" fill="none" xmlns="http://www.w3.org/2000/svg">
<g clip-path="url(#clip0)">
<path fill-rule="evenodd" clip-rule="evenodd" d="M13.7623 10.0134C13.8535 10.0134 13.899 9.96804 13.899 9.92249V0.576755C13.899 0.53115 13.8535 0.440157 13.7623 0.440157H10.8902C10.799 0.440157 10.7078 0.53115 10.7078 0.576755V9.92249C10.7078 9.96804 10.799 10.0134 10.8902 10.0134H13.7623Z" fill="#222222"/>
<path fill-rule="evenodd" clip-rule="evenodd" d="M38.6994 5.72834C38.6994 4.17832 37.5598 3.08407 35.6449 3.08407C34.5965 3.08407 33.6391 3.63106 33.0465 4.31491H32.9553C32.4539 3.58545 31.542 3.08407 30.22 3.08407C29.3992 3.08407 28.6698 3.44891 28.0774 3.90469H27.986C27.986 3.90469 27.9404 3.90469 27.9404 3.85908V3.49446C27.9404 3.40309 27.8948 3.35748 27.8038 3.35748H24.9316C24.886 3.35748 24.8406 3.40309 24.8406 3.49446V9.92225C24.8406 9.9678 24.886 10.0132 24.9316 10.0132H27.8038C27.8948 10.0132 27.9404 9.9678 27.9404 9.92225V6.73099C27.9404 6.04714 28.7154 5.45455 29.217 5.40894C29.5819 5.40894 30.1742 5.45455 30.1742 6.27495V9.92225C30.1742 9.9678 30.22 10.0132 30.3569 10.0132H33.2289C33.2745 10.0132 33.3655 9.9678 33.3655 9.92225V6.73099C33.3655 6.04714 34.0495 5.45455 34.5965 5.40894C34.9155 5.40894 35.5993 5.45455 35.5993 6.27495V9.92225C35.5993 9.9678 35.6449 10.0132 35.6905 10.0132H38.5628C38.6538 10.0132 38.6994 9.9678 38.6994 9.92225V5.72818" fill="#222222"/>
<path fill-rule="evenodd" clip-rule="evenodd" d="M65.0011 5.68306C63.8616 5.27261 62.722 6.23005 62.722 7.32407V9.92274C62.722 9.96829 62.6762 10.0137 62.6309 10.0137H59.7129C59.6677 10.0137 59.6218 9.96829 59.6218 9.92274V3.49495C59.6218 3.40357 59.6677 3.35797 59.7129 3.35797H62.6309C62.6762 3.35797 62.722 3.40357 62.722 3.49495V3.85957C62.722 3.90517 62.7673 3.90517 62.7673 3.90517H62.8584C63.3602 3.4494 64.1354 3.22137 65.0011 3.22137C65.0922 3.22137 65.0922 3.26698 65.0922 3.26698V5.63762C65.0922 5.68322 65.0922 5.68322 65.0011 5.68322" fill="#222222"/>
<path fill-rule="evenodd" clip-rule="evenodd" d="M8.33771 5.04421H8.38332C8.24634 5.04421 8.20074 5.04421 8.20074 4.99883C8.20074 4.90762 8.20074 4.90762 8.33771 4.86179C9.20372 4.49717 9.75076 3.67656 9.75076 2.76495C9.75076 1.53394 8.42892 0.439919 7.24352 0.439919H0.541893C0.496288 0.439919 0.450684 0.530909 0.450684 0.576513V9.92225C0.450684 9.9678 0.496288 10.0132 0.541893 10.0132H7.24352C8.65673 10.0132 10.1611 8.91921 10.1611 7.50601C10.1611 6.32055 9.38614 5.40894 8.33771 5.04416V5.04421ZM3.55084 2.44577C3.55084 2.40016 3.59644 2.35456 3.73304 2.35456H5.6935C6.1951 2.35456 6.60533 2.76495 6.60533 3.26639C6.60533 3.81337 6.1951 4.22382 5.6935 4.22382H3.73304C3.59644 4.22382 3.55084 4.17821 3.55084 4.08678V2.44577ZM5.96686 8.1442H3.73304C3.59644 8.1442 3.55084 8.0986 3.55084 8.05299V6.13835C3.55084 6.09274 3.59644 6.04714 3.73304 6.04714H5.96686C6.51412 6.04714 6.96989 6.50319 6.96989 7.09578C6.96989 7.68837 6.51412 8.1442 5.96686 8.1442Z" fill="#222222"/>
<path fill-rule="evenodd" clip-rule="evenodd" d="M19.3242 2.85635C16.1785 2.85635 14.4917 3.9962 14.4917 6.50365C14.4917 9.05649 16.1785 10.1963 19.3242 10.1963C22.4698 10.1963 24.2021 9.05649 24.2021 6.50365C24.2021 3.9962 22.4698 2.85635 19.3242 2.85635ZM19.3242 8.50896C18.4124 8.50896 17.7286 7.91659 17.7286 6.50338C17.7286 5.13556 18.4124 4.58852 19.3242 4.58852C20.236 4.58852 20.9654 5.13556 20.9654 6.50338C20.9654 7.91659 20.236 8.50896 19.3242 8.50896Z" fill="#222222"/>
<path fill-rule="evenodd" clip-rule="evenodd" d="M45.6736 3.08441C44.3977 3.08441 43.5314 3.35782 42.9384 3.81381C42.8473 3.81381 42.8473 3.81381 42.8473 3.76821V0.850584C42.8473 0.804979 42.802 0.759375 42.7104 0.759375H39.793C39.7472 0.759375 39.7019 0.804979 39.7019 0.850584V9.92247C39.7019 9.96802 39.7472 10.0134 39.793 10.0134H42.7104C42.802 10.0134 42.8473 9.96802 42.8473 9.92247V9.60324C42.8473 9.55763 42.8473 9.55763 42.9384 9.55763C43.5314 10.1048 44.3977 10.3326 45.6736 10.3326C47.6795 10.3326 49.2756 8.69163 49.2756 6.68561C49.2756 4.72537 47.6795 3.08413 45.6736 3.08413V3.08441ZM44.534 8.55482C43.3945 8.55482 42.8473 7.7342 42.8473 6.68561C42.8473 5.6828 43.3945 4.86196 44.534 4.86196C45.5825 4.86196 46.0838 5.6828 46.0838 6.68561C46.0838 7.7342 45.5825 8.55482 44.534 8.55482Z" fill="#222222"/>
<path fill-rule="evenodd" clip-rule="evenodd" d="M54.3802 2.76524C51.1894 2.76524 49.8213 4.49746 49.8213 6.54892C49.8213 8.60054 51.1894 10.1962 54.3802 10.1962C57.0243 10.1962 58.2555 9.37555 58.7115 8.09894C58.7115 8.05334 58.6657 7.96235 58.6199 7.96235H55.6114C55.6114 7.96235 55.5656 7.96234 55.5656 8.05334C55.3375 8.32696 54.9731 8.55494 54.3802 8.55494C53.8788 8.55494 53.3317 8.09894 53.1036 7.46075C53.1036 7.36954 53.1495 7.32393 53.1953 7.32393H58.8021C58.8479 7.32393 58.8937 7.27833 58.8937 7.27833C58.9848 6.95931 58.9848 6.8681 58.9848 6.54892C58.9848 4.67988 57.4803 2.76524 54.3802 2.76524ZM55.5656 5.54588H53.1495C53.1036 5.54588 53.0131 5.5005 53.0131 5.45489C53.2864 4.63428 53.7877 4.3151 54.3802 4.3151C54.9273 4.3151 55.4286 4.58867 55.6567 5.45489C55.6567 5.5005 55.6114 5.54588 55.5656 5.54588Z" fill="#222222"/>
<path fill-rule="evenodd" clip-rule="evenodd" d="M74.5803 3.26651H71.7082C71.6629 3.26651 71.6171 3.3575 71.6171 3.4031V3.67668C71.6171 3.67668 71.6171 3.76789 71.526 3.76789H71.4802C70.9789 3.2209 70.0673 2.99288 68.7903 2.99288C66.7844 2.99288 65.1888 4.5885 65.1888 6.54875C65.1888 8.55477 66.7844 10.196 68.7903 10.196C70.2495 10.196 70.8419 9.96798 71.4802 9.60319L71.5713 9.55759C71.6171 9.55759 71.6629 9.60319 71.6629 9.6944V9.87682C71.6629 10.971 70.6597 11.1988 70.0673 11.1988H0.454346V13.2048H70.6619C73.6252 13.2048 74.7647 11.7004 74.7647 9.78561V3.4031C74.7647 3.3575 74.7189 3.26651 74.5825 3.26651H74.5803ZM70.2037 8.50895C69.338 8.50895 68.6081 7.68855 68.6081 6.68557C68.6081 5.68275 69.338 4.86192 70.2037 4.86192C71.07 4.86192 71.7993 5.68275 71.7993 6.68557C71.7993 7.68855 71.07 8.50895 70.2037 8.50895Z" fill="#222222"/>
</g>
<defs>
<clipPath id="clip0">
<rect width="75" height="13.2287" fill="white"/>
</clipPath>
</defs>
</svg>
