<svg width="163" height="146" viewBox="0 0 163 146" fill="none" xmlns="http://www.w3.org/2000/svg">
<g clip-path="url(#clip0)">
<rect x="45" width="136.889" height="90" rx="45" transform="rotate(30 45 0)" fill="#CCEDFF"/>
<rect x="16.6411" y="15.6411" width="90" height="90" rx="45" fill="#00BFFE"/>
<path d="M117.498 90.346C120.952 90.346 123.495 91.0343 125.128 92.411C126.785 93.7877 127.613 95.631 127.613 97.941C127.613 99.4343 127.24 100.799 126.493 102.036C125.747 103.249 124.603 104.229 123.063 104.976C121.547 105.699 119.668 106.061 117.428 106.061C115.702 106.061 113.998 105.839 112.318 105.396C110.662 104.929 109.25 104.276 108.083 103.436L110.323 99.096C111.257 99.796 112.33 100.344 113.543 100.741C114.757 101.114 116.005 101.301 117.288 101.301C118.712 101.301 119.832 101.021 120.648 100.461C121.465 99.901 121.873 99.1193 121.873 98.116C121.873 97.066 121.442 96.2727 120.578 95.736C119.738 95.1993 118.268 94.931 116.168 94.931H109.903L111.163 81.141H126.108V85.691H115.888L115.503 90.346H117.498Z" fill="white"/>
<rect x="47.5503" y="35.641" width="29.8182" height="38" rx="4" fill="#00BFFE" stroke="white" stroke-width="2"/>
<circle cx="62.0048" cy="54.6409" r="9.90909" fill="#00BFFE" stroke="white" stroke-width="2"/>
<circle cx="51.5502" cy="68.7319" r="14.9091" fill="#00BFFE" stroke="white" stroke-width="2"/>
<path d="M43.5957 68.7319L49.5616 74.6978L59.5048 64.7546" stroke="white" stroke-width="2" stroke-linecap="round" stroke-linejoin="round"/>
</g>
<defs>
<clipPath id="clip0">
<rect width="163" height="146" fill="white"/>
</clipPath>
</defs>
</svg>
