<svg width="163" height="146" viewBox="0 0 163 146" fill="none" xmlns="http://www.w3.org/2000/svg">
<g clip-path="url(#clip0)">
<rect x="45" width="136.889" height="90" rx="45" transform="rotate(30 45 0)" fill="#CCEDFF"/>
<path d="M120.595 91.116C122.741 91.466 124.386 92.271 125.53 93.531C126.673 94.7677 127.245 96.3077 127.245 98.151C127.245 99.5743 126.871 100.893 126.125 102.106C125.378 103.296 124.235 104.253 122.695 104.976C121.178 105.699 119.311 106.061 117.095 106.061C115.368 106.061 113.665 105.839 111.985 105.396C110.328 104.929 108.916 104.276 107.75 103.436L109.955 99.096C110.888 99.796 111.961 100.344 113.175 100.741C114.411 101.114 115.671 101.301 116.955 101.301C118.378 101.301 119.498 101.033 120.315 100.496C121.131 99.936 121.54 99.1543 121.54 98.151C121.54 96.1443 120.011 95.141 116.955 95.141H114.365V91.396L119.405 85.691H108.975V81.141H126.125V84.816L120.595 91.116Z" fill="white"/>
<rect x="16.6411" y="15.6411" width="90" height="90" rx="45" fill="#00BFFE"/>
<path d="M44.1412 60.9744C40.9259 60.9744 38.3079 63.5924 38.3079 66.8077C38.3079 70.023 40.9259 72.6411 44.1412 72.6411C47.3565 72.6411 49.9745 70.0231 49.9745 66.8078C49.9745 63.5925 47.3565 60.9744 44.1412 60.9744ZM44.1412 70.3078C42.2115 70.3078 40.6412 68.7375 40.6412 66.8078C40.6412 64.8781 42.2115 63.3078 44.1412 63.3078C46.0709 63.3078 47.6412 64.8781 47.6412 66.8078C47.6412 68.7374 46.0709 70.3078 44.1412 70.3078Z" fill="white"/>
<path d="M79.1412 60.9744C75.9259 60.9744 73.3079 63.5924 73.3079 66.8077C73.3079 70.023 75.9259 72.6411 79.1412 72.6411C82.3565 72.6411 84.9745 70.0231 84.9745 66.8078C84.9745 63.5925 82.3565 60.9744 79.1412 60.9744ZM79.1412 70.3078C77.2115 70.3078 75.6412 68.7375 75.6412 66.8078C75.6412 64.8781 77.2115 63.3078 79.1412 63.3078C81.0709 63.3078 82.6412 64.8781 82.6412 66.8078C82.6412 68.7374 81.0709 70.3078 79.1412 70.3078Z" fill="white"/>
<path d="M82.6411 53.9743H80.6671C79.9461 53.9743 79.2391 53.727 78.6744 53.2743L69.4811 45.9196C68.4498 45.096 67.1548 44.641 65.8364 44.641H48.9711C47.0158 44.641 45.2028 45.6117 44.1178 47.238L42.1321 50.22C41.5371 51.109 40.5431 51.641 39.4744 51.641C36.2591 51.641 33.6411 54.259 33.6411 57.4743V62.141C33.6411 65.3563 36.2591 67.9743 39.4744 67.9743C40.1184 67.9743 40.6411 67.4516 40.6411 66.8076C40.6411 66.1636 40.1184 65.641 39.4744 65.641C37.5447 65.641 35.9744 64.0707 35.9744 62.141V57.4743C35.9744 55.5446 37.5447 53.9743 39.4744 53.9743C41.3271 53.9743 43.0444 53.055 44.0734 51.5126L46.0591 48.5329C46.7101 47.5576 47.7998 46.9742 48.9711 46.9742H65.8364C66.6297 46.9742 67.4044 47.2472 68.0251 47.7419L77.2184 55.0942C78.1914 55.8759 79.4187 56.3075 80.6694 56.3075H82.6411C86.0641 56.3075 87.3078 59.7958 87.3078 62.1408C87.3078 64.4391 85.5485 65.6408 83.8078 65.6408C83.1638 65.6408 82.6411 66.1635 82.6411 66.8075C82.6411 67.4515 83.1638 67.9742 83.8078 67.9742C87.1328 67.9743 89.6411 65.466 89.6411 62.141C89.6411 58.1813 87.1888 53.9743 82.6411 53.9743Z" fill="white"/>
<path d="M74.4744 65.641H48.8078C48.1638 65.641 47.6411 66.1637 47.6411 66.8077C47.6411 67.4517 48.1638 67.9744 48.8078 67.9744H74.4745C75.1185 67.9744 75.6412 67.4517 75.6412 66.8077C75.6412 66.1637 75.1184 65.641 74.4744 65.641Z" fill="white"/>
<path d="M72.141 53.9742H61.641V50.4742C61.641 49.8302 61.1183 49.3075 60.4743 49.3075C59.8303 49.3075 59.3076 49.8302 59.3076 50.4742V55.1409C59.3076 55.7849 59.8303 56.3076 60.4743 56.3076H72.141C72.785 56.3076 73.3077 55.7849 73.3077 55.1409C73.3077 54.4969 72.785 53.9742 72.141 53.9742Z" fill="white"/>
<path d="M55.8077 53.9743H48.362L49.853 50.997C50.14 50.4207 49.9067 49.7207 49.3303 49.4313C48.7516 49.1443 48.054 49.3753 47.7646 49.954L45.4313 54.6207C45.2493 54.98 45.2703 55.4117 45.4826 55.7547C45.6949 56.0977 46.0706 56.3077 46.4743 56.3077H55.8076C56.4516 56.3077 56.9743 55.785 56.9743 55.141C56.9743 54.497 56.4517 53.9743 55.8077 53.9743Z" fill="white"/>
<path d="M65.1411 58.641H62.8078C62.1638 58.641 61.6411 59.1637 61.6411 59.8077C61.6411 60.4517 62.1638 60.9744 62.8078 60.9744H65.1411C65.7851 60.9744 66.3078 60.4517 66.3078 59.8077C66.3078 59.1637 65.7851 58.641 65.1411 58.641Z" fill="white"/>
</g>
<defs>
<clipPath id="clip0">
<rect width="163" height="146" fill="white"/>
</clipPath>
</defs>
</svg>
