<svg width="220" height="58" viewBox="0 0 220 58" fill="none" xmlns="http://www.w3.org/2000/svg">
<path fill-rule="evenodd" clip-rule="evenodd" d="M0 7.35995C0 3.29516 3.28325 0 7.33333 0H43.8997C47.9498 0 51.2331 3.29516 51.2331 7.35995V50.4865C51.2331 54.5513 47.9498 57.8464 43.8997 57.8464H7.33333C3.28325 57.8464 0 54.5513 0 50.4865V7.35995ZM38.1333 32.7518C38.1333 39.8652 32.3877 45.6317 25.3 45.6317C18.2123 45.6317 12.4667 39.8652 12.4667 32.7518C12.4667 25.6384 18.2123 19.8719 25.3 19.8719C32.3877 19.8719 38.1333 25.6384 38.1333 32.7518ZM39.6 32.7518C39.6 40.6781 33.1977 47.1037 25.3 47.1037C17.4023 47.1037 11 40.6781 11 32.7518C11 24.8254 17.4023 18.3999 25.3 18.3999C33.1977 18.3999 39.6 24.8254 39.6 32.7518ZM43.2667 32.7518C43.2667 42.7105 35.2227 50.7837 25.3 50.7837C15.3773 50.7837 7.33333 42.7105 7.33333 32.7518C7.33333 22.7931 15.3773 14.7199 25.3 14.7199C35.2227 14.7199 43.2667 22.7931 43.2667 32.7518ZM11.5274 8.14147C11.5274 10.0347 9.99822 11.5694 8.11187 11.5694C6.22552 11.5694 4.69633 10.0347 4.69633 8.14147C4.69633 6.24827 6.22552 4.71353 8.11187 4.71353C9.99822 4.71353 11.5274 6.24827 11.5274 8.14147ZM17.9316 11.5694C19.8179 11.5694 21.3471 10.0347 21.3471 8.14147C21.3471 6.24827 19.8179 4.71353 17.9316 4.71353C16.0452 4.71353 14.516 6.24827 14.516 8.14147C14.516 10.0347 16.0452 11.5694 17.9316 11.5694Z" fill="#222222"/>
<path fill-rule="evenodd" clip-rule="evenodd" d="M17.8201 32.1868C17.1199 33.3456 14.319 30.8496 14.7566 30.0473C15.1941 29.245 17.0498 27.6583 17.8201 27.3731C17.2074 26.3034 18.8707 23.9856 21.059 24.5205C22.9848 21.3113 27.2734 23.1834 27.1863 23.9856C27.1557 24.2682 26.6904 24.2964 26.0507 24.3352C24.8746 24.4064 23.1091 24.5134 22.3719 26.3034L26.7663 30.7784C27.4473 30.09 28.0629 29.4589 28.4879 29.0052C28.5946 28.8912 28.6754 28.8115 28.741 28.7467C28.8891 28.6004 28.9604 28.53 29.0802 28.3137C29.2981 27.9201 29.367 27.194 29.367 27.194C29.367 27.194 29.3816 26.8377 29.4095 26.6659C29.6568 25.1448 30.9545 23.9848 32.5183 23.9848C32.8387 23.9848 33.3277 24.1026 33.6191 24.1931L30.981 26.8796L32.8379 28.7706L35.476 26.0841C35.6011 26.43 35.6695 26.8039 35.6695 27.194C35.6695 28.7865 34.5305 30.1081 33.0368 30.3599C32.8681 30.3884 32.5183 30.4032 32.5183 30.4032C32.5183 30.4032 31.6992 30.3934 31.28 30.6584C31.1591 30.7348 31.0452 30.8647 30.9178 31.0099C30.8488 31.0886 30.7759 31.1718 30.6957 31.2535L28.9643 33.0167L33.5765 37.7137C33.5765 37.7137 34.1206 38.0824 34.1893 38.6942C34.27 39.4127 33.9423 39.7097 33.5162 40.0959C33.5072 40.1041 33.4981 40.1123 33.489 40.1205C33.3979 40.2032 33.3179 40.2897 33.2408 40.3731C32.9696 40.6664 32.734 40.9212 32.176 40.8337C31.5475 40.7352 31.1256 40.1205 31.1256 40.1205L26.5928 35.4318L24.8774 37.1787C24.8774 37.1787 24.65 37.3684 24.5407 37.5216C24.2797 37.8875 24.2855 38.3682 24.2892 38.6839C24.2896 38.719 24.29 38.752 24.29 38.7827C24.29 39.0367 24.261 39.2838 24.2063 39.5208C23.8788 40.9374 22.6297 41.9918 21.1388 41.9918C20.7557 41.9918 20.3885 41.9222 20.0489 41.7947L22.721 39.0735L20.8641 37.1825L18.192 39.9037C18.1031 39.607 17.9875 39.109 17.9875 38.7827C17.9875 37.2276 19.0737 35.9308 20.5156 35.6362C20.717 35.5951 20.9254 35.5735 21.1388 35.5735C21.3887 35.5735 21.8712 35.5365 22.2362 35.2809C22.3401 35.2082 22.3724 35.1714 22.4318 35.1038C22.4736 35.0563 22.5289 34.9934 22.6319 34.892C23.0209 34.5092 23.661 33.8781 24.3907 33.1541L20.0085 28.6211C18.5382 29.1003 18.3719 30.022 18.2086 30.9269C18.1289 31.3687 18.0499 31.8065 17.8201 32.1868Z" fill="#222222"/>
<path d="M81.033 50.8655C81.033 49.8598 80.6793 49.0907 79.972 48.5583C79.2646 48.014 77.9914 47.4461 76.1523 46.8545C74.3132 46.251 72.8572 45.6594 71.7844 45.0797C68.8607 43.4942 67.3988 41.3585 67.3988 38.6726C67.3988 37.2765 67.7878 36.0341 68.5659 34.9456C69.3558 33.8452 70.4817 32.9874 71.9435 32.3721C73.4172 31.7569 75.0677 31.4492 76.895 31.4492C78.7341 31.4492 80.3728 31.7864 81.8111 32.4609C83.2494 33.1234 84.3634 34.0641 85.1533 35.2828C85.955 36.5015 86.3558 37.8858 86.3558 39.4358H81.0507C81.0507 38.2526 80.6793 37.3356 79.9366 36.6849C79.1939 36.0223 78.1505 35.691 76.8066 35.691C75.5098 35.691 74.5018 35.969 73.7826 36.5251C73.0635 37.0694 72.7039 37.7912 72.7039 38.6904C72.7039 39.5305 73.1225 40.2345 73.9595 40.8024C74.8083 41.3703 76.0521 41.9028 77.6908 42.3997C80.7088 43.3108 82.9075 44.4407 84.2868 45.7896C85.6662 47.1384 86.3558 48.8186 86.3558 50.83C86.3558 53.0663 85.5129 54.8233 83.827 56.1012C82.1412 57.3672 79.8718 58.0002 77.0188 58.0002C75.0382 58.0002 73.2344 57.6393 71.6075 56.9176C69.9806 56.184 68.7369 55.1842 67.8763 53.9182C67.0274 52.6521 66.603 51.185 66.603 49.5167H71.9258C71.9258 52.3682 73.6235 53.7939 77.0188 53.7939C78.2802 53.7939 79.2646 53.5395 79.972 53.0308C80.6793 52.5102 81.033 51.7884 81.033 50.8655Z" fill="#222222"/>
<path d="M107.193 46.4463H97.0068V53.368H108.961V57.6452H91.7017V31.8042H108.926V36.1169H97.0068V42.2755H107.193V46.4463Z" fill="#222222"/>
<path d="M123.343 48.1856H119.117V57.6452H113.812V31.8042H123.379C126.42 31.8042 128.766 32.4845 130.417 33.8452C132.067 35.2059 132.893 37.1286 132.893 39.6133C132.893 41.3763 132.509 42.8493 131.743 44.0325C130.989 45.2039 129.839 46.1386 128.295 46.8367L133.865 57.3968V57.6452H128.171L123.343 48.1856ZM119.117 43.8728H123.396C124.729 43.8728 125.76 43.5356 126.491 42.8612C127.222 42.1749 127.587 41.2343 127.587 40.0392C127.587 38.8205 127.24 37.8622 126.544 37.1641C125.86 36.466 124.805 36.1169 123.379 36.1169H119.117V43.8728Z" fill="#222222"/>
<path d="M147.841 51.2382L153.676 31.8042H159.583L150.617 57.6452H145.082L136.152 31.8042H142.041L147.841 51.2382Z" fill="#222222"/>
<path d="M169.403 57.6452H164.098V31.8042H169.403V57.6452Z" fill="#222222"/>
<path d="M196.287 49.0375C196.087 51.818 195.061 54.0069 193.21 55.6042C191.371 57.2015 188.943 58.0002 185.925 58.0002C182.624 58.0002 180.024 56.888 178.126 54.6636C176.24 52.4273 175.297 49.3628 175.297 45.4701V43.8906C175.297 41.4058 175.733 39.2169 176.605 37.3238C177.478 35.4307 178.722 33.9813 180.337 32.9755C181.964 31.958 183.85 31.4492 185.996 31.4492C188.966 31.4492 191.36 32.2479 193.175 33.8452C194.991 35.4425 196.04 37.6847 196.323 40.5717H191.018C190.888 38.9034 190.422 37.6965 189.621 36.9511C188.831 36.1938 187.622 35.8152 185.996 35.8152C184.227 35.8152 182.901 36.4541 182.017 37.732C181.144 38.998 180.696 40.9681 180.673 43.6421V45.5944C180.673 48.3867 181.091 50.4277 181.928 51.7174C182.777 53.0071 184.109 53.6519 185.925 53.6519C187.563 53.6519 188.784 53.2792 189.585 52.5338C190.399 51.7766 190.864 50.6111 190.982 49.0375H196.287Z" fill="#222222"/>
<path d="M217.001 46.4463H206.815V53.368H218.769V57.6452H201.51V31.8042H218.734V36.1169H206.815V42.2755H217.001V46.4463Z" fill="#222222"/>
<path d="M75.7457 15.4762L72.987 18.4579V25.8411H67.6819V0H72.987V11.7137L75.3213 8.50129L81.882 0H88.4073L79.2648 11.4829L88.6725 25.8411H82.3594L75.7457 15.4762Z" fill="#222222"/>
<path d="M111.807 25.8411H106.502V14.7663H96.157V25.8411H90.8519V0H96.157V10.4713H106.502V0H111.807V25.8411Z" fill="#222222"/>
<path d="M131.493 20.5167H122.192L120.423 25.8411H114.782L124.367 0H129.283L138.921 25.8411H133.28L131.493 20.5167ZM123.624 16.2039H130.061L126.825 6.53126L123.624 16.2039Z" fill="#222222"/>
<path d="M151.038 16.3814H146.812V25.8411H141.507V0H151.074C154.115 0 156.461 0.680339 158.112 2.04102C159.762 3.4017 160.588 5.3244 160.588 7.80911C160.588 9.57208 160.204 11.0452 159.438 12.2284C158.684 13.3997 157.534 14.3345 155.99 15.0325L161.56 25.5926V25.8411H155.866L151.038 16.3814ZM146.812 12.0686H151.091C152.424 12.0686 153.455 11.7314 154.186 11.057C154.917 10.3707 155.282 9.4301 155.282 8.23507C155.282 7.01637 154.935 6.05798 154.239 5.35989C153.555 4.6618 152.5 4.31276 151.074 4.31276H146.812V12.0686Z" fill="#222222"/>
<path d="M172.882 15.4762L170.123 18.4579V25.8411H164.818V0H170.123V11.7137L172.458 8.50129L179.018 0H185.544L176.401 11.4829L185.809 25.8411H179.496L172.882 15.4762Z" fill="#222222"/>
<path d="M193.629 25.8411H188.324V0H193.629V25.8411Z" fill="#222222"/>
<path d="M208.258 19.434L214.094 0H220L211.034 25.8411H205.499L196.569 0H202.458L208.258 19.434Z" fill="#222222"/>
</svg>
