<svg width="223" height="59" viewBox="0 0 223 59" fill="none" xmlns="http://www.w3.org/2000/svg">
<path fill-rule="evenodd" clip-rule="evenodd" d="M0 7.48685C0 3.35197 3.32802 0 7.43333 0H44.4984C48.6037 0 51.9317 3.35198 51.9317 7.48685V51.3569C51.9317 55.4918 48.6037 58.8438 44.4984 58.8438H7.43333C3.32802 58.8438 0 55.4918 0 51.3569V7.48685ZM38.6533 33.3165C38.6533 40.5525 32.8293 46.4185 25.645 46.4185C18.4607 46.4185 12.6367 40.5525 12.6367 33.3165C12.6367 26.0805 18.4607 20.2145 25.645 20.2145C32.8293 20.2145 38.6533 26.0805 38.6533 33.3165ZM40.14 33.3165C40.14 41.3795 33.6504 47.9158 25.645 47.9158C17.6396 47.9158 11.15 41.3795 11.15 33.3165C11.15 25.2535 17.6396 18.7171 25.645 18.7171C33.6504 18.7171 40.14 25.2535 40.14 33.3165ZM43.8567 33.3165C43.8567 43.4469 35.703 51.6593 25.645 51.6593C15.587 51.6593 7.43333 43.4469 7.43333 33.3165C7.43333 23.186 15.587 14.9737 25.645 14.9737C35.703 14.9737 43.8567 23.186 43.8567 33.3165ZM11.6846 8.28184C11.6846 10.2077 10.1346 11.7689 8.22249 11.7689C6.31041 11.7689 4.76037 10.2077 4.76037 8.28184C4.76037 6.356 6.31041 4.7948 8.22249 4.7948C10.1346 4.7948 11.6846 6.356 11.6846 8.28184ZM18.1761 11.7689C20.0882 11.7689 21.6382 10.2077 21.6382 8.28184C21.6382 6.356 20.0882 4.7948 18.1761 4.7948C16.264 4.7948 14.714 6.356 14.714 8.28184C14.714 10.2077 16.264 11.7689 18.1761 11.7689Z" fill="#00BFFE"/>
<path fill-rule="evenodd" clip-rule="evenodd" d="M18.0632 32.7418C17.3534 33.9206 14.5144 31.3816 14.9579 30.5654C15.4014 29.7493 17.2824 28.1353 18.0632 27.8451C17.4421 26.7569 19.1281 24.3992 21.3463 24.9433C23.2983 21.6787 27.6454 23.5831 27.5571 24.3992C27.5261 24.6867 27.0544 24.7154 26.4061 24.7548C25.2139 24.8273 23.4243 24.9361 22.6771 26.7569L27.1314 31.3091C27.8217 30.6089 28.4456 29.9668 28.8765 29.5053C28.9847 29.3894 29.0665 29.3083 29.133 29.2424C29.2832 29.0936 29.3554 29.022 29.4768 28.8019C29.6977 28.4015 29.7676 27.6629 29.7676 27.6629C29.7676 27.6629 29.7823 27.3005 29.8106 27.1257C30.0613 25.5784 31.3767 24.3984 32.9618 24.3984C33.2866 24.3984 33.7823 24.5182 34.0776 24.6103L31.4036 27.3431L33.2858 29.2667L35.9598 26.5339C36.0867 26.8857 36.156 27.266 36.156 27.6629C36.156 29.2829 35.0014 30.6272 33.4874 30.8834C33.3164 30.9124 32.9618 30.9274 32.9618 30.9274C32.9618 30.9274 32.1315 30.9175 31.7066 31.1871C31.5841 31.2648 31.4686 31.3969 31.3395 31.5446C31.2696 31.6247 31.1956 31.7093 31.1143 31.7924L29.3593 33.586L34.0345 38.3639C34.0345 38.3639 34.5859 38.739 34.6556 39.3614C34.7374 40.0923 34.4052 40.3944 33.9733 40.7872C33.9642 40.7956 33.955 40.8039 33.9458 40.8123C33.8534 40.8964 33.7723 40.9844 33.6942 41.0692C33.4193 41.3676 33.1805 41.6268 32.6148 41.5378C31.9778 41.4375 31.5501 40.8123 31.5501 40.8123L26.9555 36.0428L25.2167 37.8198C25.2167 37.8198 24.9862 38.0127 24.8754 38.1686C24.6109 38.5408 24.6167 39.0298 24.6205 39.3509C24.6209 39.3866 24.6213 39.4202 24.6213 39.4514C24.6213 39.7098 24.592 39.9612 24.5364 40.2023C24.2045 41.6432 22.9384 42.7159 21.4271 42.7159C21.0388 42.7159 20.6667 42.6451 20.3224 42.5154L23.0309 39.7473L21.1487 37.8236L18.4402 40.5917C18.3501 40.2899 18.2329 39.7833 18.2329 39.4514C18.2329 37.8695 19.3339 36.5503 20.7954 36.2507C20.9996 36.2088 21.2109 36.1869 21.4271 36.1869C21.6804 36.1869 22.1695 36.1493 22.5395 35.8892C22.6448 35.8152 22.6775 35.7779 22.7378 35.7091C22.7801 35.6607 22.8362 35.5968 22.9407 35.4936C23.3349 35.1043 23.9838 34.4623 24.7234 33.7257L20.2814 29.1146C18.791 29.602 18.6225 30.5397 18.457 31.4601C18.3762 31.9096 18.2961 32.355 18.0632 32.7418Z" fill="#00BFFE"/>
<path d="M82.138 51.7423C82.138 50.7192 81.7795 49.9369 81.0625 49.3952C80.3455 48.8416 79.0549 48.2639 77.1907 47.6621C75.3265 47.0482 73.8507 46.4464 72.7632 45.8567C69.7996 44.2438 68.3179 42.0714 68.3179 39.3392C68.3179 37.9189 68.7122 36.6552 69.5009 35.5478C70.3015 34.4285 71.4428 33.5559 72.9246 32.93C74.4183 32.3041 76.0913 31.9912 77.9435 31.9912C79.8077 31.9912 81.4688 32.3342 82.9267 33.0203C84.3846 33.6943 85.5138 34.6512 86.3145 35.8909C87.1271 37.1306 87.5334 38.5388 87.5334 40.1155H82.1559C82.1559 38.9119 81.7795 37.9791 81.0266 37.3171C80.2738 36.6431 79.2162 36.3061 77.8539 36.3061C76.5394 36.3061 75.5177 36.589 74.7888 37.1546C74.0598 37.7083 73.6953 38.4425 73.6953 39.3572C73.6953 40.2118 74.1196 40.9279 74.968 41.5057C75.8284 42.0834 77.0891 42.625 78.7502 43.1305C81.8094 44.0573 84.038 45.2067 85.4362 46.5788C86.8343 47.9509 87.5334 49.66 87.5334 51.7062C87.5334 53.981 86.679 55.7683 84.9701 57.0682C83.2613 58.356 80.9609 59 78.069 59C76.0614 59 74.2331 58.6329 72.584 57.8987C70.9349 57.1524 69.6742 56.1354 68.8018 54.8476C67.9414 53.5597 67.5112 52.0672 67.5112 50.3702H72.9066C72.9066 53.2708 74.6274 54.7212 78.069 54.7212C79.3477 54.7212 80.3455 54.4624 81.0625 53.9449C81.7795 53.4153 82.138 52.6811 82.138 51.7423Z" fill="#00BFFE"/>
<path d="M108.654 47.2468H98.3296V54.2879H110.447V58.6389H92.9522V32.3523H110.411V36.7394H98.3296V43.0041H108.654V47.2468Z" fill="#00BFFE"/>
<path d="M125.025 49.0161H120.741V58.6389H115.364V32.3523H125.061C128.144 32.3523 130.522 33.0444 132.195 34.4285C133.868 35.8126 134.705 37.7685 134.705 40.296C134.705 42.0894 134.316 43.5879 133.54 44.7915C132.775 45.983 131.61 46.9339 130.044 47.644L135.691 58.3861V58.6389H129.919L125.025 49.0161ZM120.741 44.629H125.079C126.429 44.629 127.475 44.286 128.216 43.5999C128.957 42.9018 129.327 41.945 129.327 40.7293C129.327 39.4896 128.975 38.5147 128.27 37.8046C127.577 37.0945 126.507 36.7394 125.061 36.7394H120.741V44.629Z" fill="#00BFFE"/>
<path d="M149.857 52.1214L155.772 32.3523H161.759L152.671 58.6389H147.061L138.008 32.3523H143.977L149.857 52.1214Z" fill="#00BFFE"/>
<path d="M171.713 58.6389H166.335V32.3523H171.713V58.6389Z" fill="#00BFFE"/>
<path d="M198.964 49.8827C198.761 52.7112 197.721 54.9378 195.845 56.5627C193.981 58.1875 191.519 59 188.46 59C185.114 59 182.479 57.8686 180.555 55.6058C178.643 53.331 177.687 50.2137 177.687 46.2539V44.6471C177.687 42.1195 178.129 39.8928 179.014 37.9671C179.898 36.0413 181.159 34.5669 182.796 33.5439C184.445 32.5088 186.357 31.9912 188.532 31.9912C191.543 31.9912 193.969 32.8036 195.809 34.4285C197.65 36.0534 198.713 38.3342 199 41.271H193.622C193.491 39.5739 193.019 38.3462 192.206 37.5879C191.406 36.8176 190.181 36.4325 188.532 36.4325C186.739 36.4325 185.395 37.0824 184.499 38.3823C183.614 39.6702 183.16 41.6742 183.136 44.3943V46.3802C183.136 49.2207 183.561 51.2969 184.409 52.6089C185.269 53.9208 186.62 54.5767 188.46 54.5767C190.121 54.5767 191.358 54.1976 192.171 53.4393C192.995 52.669 193.467 51.4835 193.587 49.8827H198.964Z" fill="#00BFFE"/>
<path d="M219.96 47.2468H209.635V54.2879H221.752V58.6389H204.257V32.3523H221.716V36.7394H209.635V43.0041H219.96V47.2468Z" fill="#00BFFE"/>
<path d="M76.7787 15.7431L73.9825 18.7761V26.2866H68.605V0H73.9825V11.9156L76.3486 8.64786L82.9987 0H89.613L80.3458 11.6809L89.8819 26.2866H83.4827L76.7787 15.7431Z" fill="#00BFFE"/>
<path d="M113.332 26.2866H107.955V15.0209H97.4684V26.2866H92.0909V0H97.4684V10.6519H107.955V0H113.332V26.2866Z" fill="#00BFFE"/>
<path d="M133.287 20.8704H123.858L122.066 26.2866H116.348L126.063 0H131.046L140.815 26.2866H135.097L133.287 20.8704ZM125.31 16.4833H131.835L128.555 6.64387L125.31 16.4833Z" fill="#00BFFE"/>
<path d="M153.098 16.6638H148.814V26.2866H143.437V0H153.134C156.217 0 158.595 0.692069 160.268 2.07621C161.941 3.46035 162.778 5.4162 162.778 7.94375C162.778 9.73712 162.389 11.2356 161.612 12.4392C160.848 13.6308 159.683 14.5816 158.117 15.2917L163.763 26.0338V26.2866H157.992L153.098 16.6638ZM148.814 12.2767H153.152C154.502 12.2767 155.548 11.9337 156.289 11.2476C157.03 10.5495 157.4 9.59268 157.4 8.37705C157.4 7.13734 157.048 6.16243 156.343 5.4523C155.649 4.74218 154.58 4.38712 153.134 4.38712H148.814V12.2767Z" fill="#00BFFE"/>
<path d="M175.24 15.7431L172.443 18.7761V26.2866H167.066V0H172.443V11.9156L174.809 8.64786L181.46 0H188.074L178.807 11.6809L188.343 26.2866H181.944L175.24 15.7431Z" fill="#00BFFE"/>
<path d="M196.27 26.2866H190.892V0H196.27V26.2866Z" fill="#00BFFE"/>
<path d="M211.098 19.7691L217.013 0H223L213.912 26.2866H208.302L199.25 0H205.219L211.098 19.7691Z" fill="#00BFFE"/>
</svg>
