<svg width="95" height="25" viewBox="0 0 95 25" fill="none" xmlns="http://www.w3.org/2000/svg">
<path fill-rule="evenodd" clip-rule="evenodd" d="M0 3.16667C0 1.41776 1.41777 0 3.16667 0H18.9567C20.7056 0 22.1234 1.41777 22.1234 3.16667V21.7221C22.1234 23.471 20.7056 24.8888 18.9567 24.8888H3.16667C1.41777 24.8888 0 23.471 0 21.7221V3.16667ZM16.4667 14.0917C16.4667 17.1522 13.9856 19.6333 10.925 19.6333C7.86442 19.6333 5.38333 17.1522 5.38333 14.0917C5.38333 11.0311 7.86442 8.55 10.925 8.55C13.9856 8.55 16.4667 11.0311 16.4667 14.0917ZM17.1 14.0917C17.1 17.502 14.3354 20.2667 10.925 20.2667C7.51464 20.2667 4.75 17.502 4.75 14.0917C4.75 10.6813 7.51464 7.91667 10.925 7.91667C14.3354 7.91667 17.1 10.6813 17.1 14.0917ZM18.6833 14.0917C18.6833 18.3765 15.2098 21.85 10.925 21.85C6.64019 21.85 3.16667 18.3765 3.16667 14.0917C3.16667 9.80686 6.64019 6.33333 10.925 6.33333C15.2098 6.33333 18.6833 9.80686 18.6833 14.0917ZM4.97774 3.50292C4.97774 4.31748 4.31741 4.97781 3.50285 4.97781C2.68829 4.97781 2.02796 4.31748 2.02796 3.50292C2.02796 2.68836 2.68829 2.02803 3.50285 2.02803C4.31741 2.02803 4.97774 2.68836 4.97774 3.50292ZM7.74318 4.97781C8.55774 4.97781 9.21807 4.31748 9.21807 3.50292C9.21807 2.68836 8.55774 2.02803 7.74318 2.02803C6.92862 2.02803 6.26829 2.68836 6.26829 3.50292C6.26829 4.31748 6.92862 4.97781 7.74318 4.97781Z" fill="#00BFFE"/>
<path fill-rule="evenodd" clip-rule="evenodd" d="M7.69511 13.8487C7.39272 14.3473 6.18328 13.2734 6.37222 12.9282C6.56116 12.583 7.36248 11.9003 7.69511 11.7776C7.43052 11.3173 8.14875 10.3201 9.09373 10.5502C9.92531 9.16944 11.7772 9.97492 11.7396 10.3201C11.7264 10.4417 11.5254 10.4538 11.2492 10.4705C10.7414 10.5012 9.97898 10.5472 9.66066 11.3173L11.5582 13.2427C11.8523 12.9466 12.1181 12.675 12.3017 12.4798C12.3477 12.4308 12.3826 12.3965 12.4109 12.3686C12.4749 12.3056 12.5057 12.2754 12.5574 12.1823C12.6515 12.0129 12.6813 11.7005 12.6813 11.7005C12.6813 11.7005 12.6875 11.5472 12.6996 11.4733C12.8064 10.8188 13.3668 10.3198 14.042 10.3198C14.1804 10.3198 14.3916 10.3704 14.5174 10.4094L13.3782 11.5653L14.1801 12.3789L15.3192 11.223C15.3733 11.3718 15.4028 11.5327 15.4028 11.7005C15.4028 12.3857 14.9109 12.9543 14.266 13.0627C14.1931 13.0749 14.042 13.0813 14.042 13.0813C14.042 13.0813 13.6883 13.0771 13.5073 13.1911C13.4551 13.224 13.4059 13.2799 13.3509 13.3424C13.3211 13.3762 13.2896 13.412 13.255 13.4472L12.5074 14.2058L14.499 16.2267C14.499 16.2267 14.7339 16.3853 14.7636 16.6486C14.7985 16.9577 14.657 17.0855 14.473 17.2516C14.4691 17.2552 14.4652 17.2587 14.4612 17.2623C14.4219 17.2978 14.3873 17.335 14.354 17.3709C14.2369 17.4971 14.1352 17.6067 13.8942 17.5691C13.6229 17.5267 13.4406 17.2623 13.4406 17.2623L11.4833 15.2449L10.7426 15.9965C10.7426 15.9965 10.6444 16.0781 10.5972 16.1441C10.4845 16.3015 10.487 16.5083 10.4886 16.6441C10.4888 16.6592 10.4889 16.6734 10.4889 16.6866C10.4889 16.7959 10.4764 16.9022 10.4528 17.0042C10.3114 17.6137 9.77198 18.0674 9.12816 18.0674C8.96273 18.0674 8.8042 18.0374 8.65754 17.9826L9.81139 16.8118L9.00955 15.9981L7.8557 17.169C7.81732 17.0413 7.7674 16.827 7.7674 16.6866C7.7674 16.0175 8.23642 15.4596 8.85905 15.3329C8.94605 15.3151 9.03604 15.3059 9.12816 15.3059C9.23607 15.3059 9.44442 15.2899 9.60206 15.18C9.64691 15.1487 9.66086 15.1329 9.68651 15.1038C9.70457 15.0833 9.72842 15.0563 9.77294 15.0126C9.94089 14.8479 10.2173 14.5764 10.5324 14.2649L8.64009 12.3145C8.00517 12.5207 7.93335 12.9173 7.86286 13.3066C7.82844 13.4967 7.79433 13.6851 7.69511 13.8487Z" fill="#00BFFE"/>
<path d="M34.9916 21.8852C34.9916 21.4525 34.8389 21.1216 34.5335 20.8925C34.228 20.6584 33.6782 20.414 32.884 20.1595C32.0899 19.8998 31.4612 19.6453 30.9979 19.3958C29.7354 18.7137 29.1041 17.7948 29.1041 16.6392C29.1041 16.0385 29.2721 15.5039 29.6081 15.0356C29.9492 14.5621 30.4354 14.1931 31.0666 13.9283C31.703 13.6636 32.4157 13.5312 33.2048 13.5312C33.9989 13.5312 34.7065 13.6763 35.3276 13.9665C35.9487 14.2516 36.4298 14.6563 36.7709 15.1807C37.117 15.705 37.2901 16.3006 37.2901 16.9675H34.9993C34.9993 16.4585 34.8389 16.0639 34.5182 15.7839C34.1975 15.4988 33.7469 15.3563 33.1666 15.3563C32.6066 15.3563 32.1713 15.4759 31.8608 15.7152C31.5502 15.9494 31.395 16.2599 31.395 16.6468C31.395 17.0083 31.5757 17.3112 31.9371 17.5555C32.3037 17.7999 32.8408 18.029 33.5484 18.2428C34.8516 18.6348 35.8011 19.1209 36.3967 19.7013C36.9923 20.2816 37.2901 21.0045 37.2901 21.87C37.2901 22.8321 36.9261 23.5881 36.1981 24.1379C35.4702 24.6826 34.4902 24.955 33.2582 24.955C32.403 24.955 31.6241 24.7997 30.9215 24.4892C30.219 24.1735 29.6819 23.7434 29.3103 23.1987C28.9438 22.6539 28.7605 22.0227 28.7605 21.3049H31.059C31.059 22.5318 31.7921 23.1452 33.2582 23.1452C33.8029 23.1452 34.228 23.0358 34.5335 22.8168C34.8389 22.5929 34.9916 22.2823 34.9916 21.8852Z" fill="#00BFFE"/>
<path d="M46.2879 19.9838H41.8894V22.9619H47.0515V24.8023H39.5986V13.684H47.0362V15.5396H41.8894V18.1893H46.2879V19.9838Z" fill="#00BFFE"/>
<path d="M53.262 20.7322H51.437V24.8023H49.1461V13.684H53.2773C54.5907 13.684 55.6038 13.9767 56.3165 14.5621C57.0292 15.1476 57.3855 15.9748 57.3855 17.0439C57.3855 17.8024 57.2201 18.4362 56.8892 18.9453C56.5634 19.4493 56.067 19.8515 55.4001 20.1518L57.8055 24.6953V24.8023H55.3467L53.262 20.7322ZM51.437 18.8766H53.2849C53.8602 18.8766 54.3056 18.7315 54.6213 18.4413C54.9369 18.146 55.0947 17.7413 55.0947 17.2272C55.0947 16.7028 54.9445 16.2905 54.6442 15.9901C54.3489 15.6897 53.8933 15.5396 53.2773 15.5396H51.437V18.8766Z" fill="#00BFFE"/>
<path d="M63.8404 22.0456L66.3604 13.684H68.9109L65.0393 24.8023H62.6492L58.7929 13.684H61.3358L63.8404 22.0456Z" fill="#00BFFE"/>
<path d="M73.1513 24.8023H70.8604V13.684H73.1513V24.8023Z" fill="#00BFFE"/>
<path d="M84.7606 21.0987C84.674 22.295 84.2311 23.2368 83.4319 23.9241C82.6377 24.6113 81.589 24.955 80.2858 24.955C78.8604 24.955 77.7378 24.4764 76.9182 23.5194C76.1037 22.5572 75.6964 21.2387 75.6964 19.5638V18.8842C75.6964 17.8151 75.8848 16.8734 76.2615 16.0588C76.6382 15.2443 77.1753 14.6207 77.8728 14.188C78.5753 13.7502 79.3898 13.5312 80.3163 13.5312C81.5992 13.5312 82.6326 13.8749 83.4166 14.5621C84.2006 15.2494 84.6537 16.2141 84.7759 17.4562H82.485C82.429 16.7384 82.2279 16.2192 81.8817 15.8985C81.5407 15.5727 81.0189 15.4098 80.3163 15.4098C79.5527 15.4098 78.98 15.6847 78.5982 16.2345C78.2215 16.7792 78.028 17.6268 78.0178 18.7773V19.6173C78.0178 20.8187 78.1986 21.6969 78.56 22.2518C78.9265 22.8067 79.5018 23.0841 80.2858 23.0841C80.9934 23.0841 81.5203 22.9238 81.8665 22.603C82.2177 22.2772 82.4188 21.7758 82.4697 21.0987H84.7606Z" fill="#00BFFE"/>
<path d="M93.7049 19.9838H89.3064V22.9619H94.4685V24.8023H87.0156V13.684H94.4532V15.5396H89.3064V18.1893H93.7049V19.9838Z" fill="#00BFFE"/>
<path d="M32.7084 6.65875L31.5172 7.94163V11.1183H29.2263V0H31.5172V5.03988L32.5251 3.65773L35.3582 0H38.1759L34.228 4.94061L38.2905 11.1183H35.5643L32.7084 6.65875Z" fill="#00BFFE"/>
<path d="M48.2804 11.1183H45.9896V6.35331H41.5224V11.1183H39.2315V0H41.5224V4.50535H45.9896V0H48.2804V11.1183Z" fill="#00BFFE"/>
<path d="M56.7813 8.82743H52.7647L52.0011 11.1183H49.5651L53.7039 0H55.8268L59.9885 11.1183H57.5526L56.7813 8.82743ZM53.3832 6.97184H56.1628L54.7654 2.81012L53.3832 6.97184Z" fill="#00BFFE"/>
<path d="M65.2211 7.0482H63.3961V11.1183H61.1052V0H65.2364C66.5498 0 67.5629 0.29272 68.2756 0.878161C68.9883 1.4636 69.3447 2.29086 69.3447 3.35992C69.3447 4.11845 69.1792 4.75225 68.8483 5.26133C68.5225 5.76532 68.0262 6.16749 67.3593 6.46785L69.7647 11.0114V11.1183H67.3058L65.2211 7.0482ZM63.3961 5.19261H65.244C65.8193 5.19261 66.2647 5.04752 66.5804 4.75734C66.896 4.46208 67.0538 4.05736 67.0538 3.54319C67.0538 3.01884 66.9036 2.60648 66.6033 2.30613C66.308 2.00577 65.8524 1.85559 65.2364 1.85559H63.3961V5.19261Z" fill="#00BFFE"/>
<path d="M74.6537 6.65875L73.4624 7.94163V11.1183H71.1716V0H73.4624V5.03988L74.4704 3.65773L77.3034 0H80.1212L76.1733 4.94061L80.2357 11.1183H77.5096L74.6537 6.65875Z" fill="#00BFFE"/>
<path d="M83.6127 11.1183H81.3219V0H83.6127V11.1183Z" fill="#00BFFE"/>
<path d="M89.9297 8.36162L92.4496 0H95.0001L91.1286 11.1183H88.7384L84.8822 0H87.425L89.9297 8.36162Z" fill="#00BFFE"/>
</svg>
